<svg xmlns="http://www.w3.org/2000/svg" xmlns:xlink="http://www.w3.org/1999/xlink" width="171" height="52" viewBox="0 0 171 52">
  <defs>
    <linearGradient id="linear-gradient" x1="0.272" y1="0.467" x2="0.956" y2="0.976" gradientUnits="objectBoundingBox">
      <stop offset="0" stop-color="#486fbd"/>
      <stop offset="1" stop-color="#1a3875"/>
    </linearGradient>
  </defs>
  <g id="أحاديث" transform="translate(0 -6)">
    <g id="Group_136" data-name="Group 136" transform="translate(0 -3)">
      <rect id="Rectangle_13" data-name="Rectangle 13" width="171" height="52" rx="10" transform="translate(0 9)" fill="url(#linear-gradient)"/>
      <circle id="Ellipse_92" data-name="Ellipse 92" cx="9" cy="9" r="9" transform="translate(122 43)" fill="#fff" opacity="0.15"/>
      <circle id="Ellipse_93" data-name="Ellipse 93" cx="9" cy="9" r="9" transform="translate(45 14)" fill="#fff" opacity="0.15"/>
    </g>
    <g id="OBJECTS" transform="translate(-1823.234 -471.425)">
      <g id="Group_332" data-name="Group 332" transform="translate(1838.88 481.503)">
        <g id="Group_331" data-name="Group 331" transform="translate(0)">
          <g id="Group_304" data-name="Group 304" transform="translate(5.811 30.507)">
            <g id="Group_303" data-name="Group 303">
              <path id="Path_907" data-name="Path 907" d="M1913.072,732.3l-24.766,11.7a.446.446,0,0,1-.505-.088l-1.32-1.367a.447.447,0,0,1-.131-.315v-2.759a.666.666,0,0,1,.376-.6l6.466-3.122a1.164,1.164,0,0,0,.687-1.061V730.7l14.245,1.045Z" transform="translate(-1886.35 -730.7)" fill="#27457f"/>
              <g id="Group_302" data-name="Group 302" transform="translate(0)" opacity="0.6">
                <path id="Path_908" data-name="Path 908" d="M1908.124,731.745l-21.774,10.478v-2.761a.666.666,0,0,1,.376-.6l6.466-3.122a1.164,1.164,0,0,0,.687-1.061V730.7Z" transform="translate(-1886.35 -730.7)" fill="#2a2760" opacity="0.3"/>
              </g>
              <path id="Path_909" data-name="Path 909" d="M1908.124,731.745l-14.245-1.045v3.981a1.164,1.164,0,0,1-.686,1.061l-6.466,3.122a.666.666,0,0,0-.376.6v2.759h0a.443.443,0,0,0,.131.315l1.32,1.367a.445.445,0,0,0,.505.088l24.766-11.7Z" transform="translate(-1886.35 -730.7)" fill="#2a2760" opacity="0.2"/>
            </g>
          </g>
          <g id="Group_306" data-name="Group 306" transform="translate(3.233 30.507)">
            <g id="Group_305" data-name="Group 305">
              <path id="Path_910" data-name="Path 910" d="M1865.29,732.3l24.766,11.7a.446.446,0,0,0,.505-.088l1.32-1.367a.447.447,0,0,0,.131-.315v-2.759a.666.666,0,0,0-.376-.6l-6.466-3.122a1.164,1.164,0,0,1-.687-1.061V730.7l-14.245,1.045Z" transform="translate(-1865.29 -730.7)" fill="#27457f"/>
            </g>
          </g>
          <path id="Path_911" data-name="Path 911" d="M1891.994,749.718a.442.442,0,0,1-.131.315l-1.32,1.367a.446.446,0,0,1-.506.088l-24.767-11.7,4.948-.55Z" transform="translate(-1862.039 -707.687)" fill="#486fbc" opacity="0.2"/>
          <g id="Group_328" data-name="Group 328" transform="translate(0 10.599)">
            <g id="Group_327" data-name="Group 327">
              <g id="Group_316" data-name="Group 316">
                <g id="Group_315" data-name="Group 315">
                  <g id="Group_308" data-name="Group 308" transform="translate(1.599)">
                    <g id="Group_307" data-name="Group 307">
                      <path id="Path_912" data-name="Path 912" d="M1851.94,569.547v16.637c11.513-3.674,16.522,3.363,16.522,3.363V572.6S1863.7,564.968,1851.94,569.547Z" transform="translate(-1851.94 -568.084)" fill="#fff"/>
                    </g>
                  </g>
                  <path id="Path_913" data-name="Path 913" d="M1857,600.04v2.335a8.117,8.117,0,0,0-.593-.618v0c-.094-.089-.2-.187-.311-.286-.183-.167-.388-.345-.623-.534-2.5-2-7.988-5.049-15.81-1.873a.569.569,0,0,1-.785-.529V582.238a.665.665,0,0,1,.149-.422l1.451-1.775v16.637C1851.991,593,1857,600.04,1857,600.04Z" transform="translate(-1838.88 -578.576)" fill="#d8e5fe"/>
                  <g id="Group_314" data-name="Group 314" transform="translate(3.71 2.83)">
                    <g id="Group_309" data-name="Group 309">
                      <path id="Path_914" data-name="Path 914" d="M1881.527,594.356a.213.213,0,0,0,.145-.371c-5.234-4.794-12.285-1.958-12.355-1.928a.214.214,0,0,0,.164.394c.068-.028,6.874-2.761,11.9,1.849A.2.2,0,0,0,1881.527,594.356Z" transform="translate(-1869.186 -591.197)" fill="#b4c6ea"/>
                    </g>
                    <g id="Group_310" data-name="Group 310" transform="translate(0 2.425)">
                      <path id="Path_915" data-name="Path 915" d="M1881.527,614.165a.213.213,0,0,0,.145-.371c-5.234-4.794-12.285-1.958-12.355-1.928a.214.214,0,0,0,.164.394c.068-.028,6.874-2.761,11.9,1.848A.2.2,0,0,0,1881.527,614.165Z" transform="translate(-1869.186 -611.007)" fill="#b4c6ea"/>
                    </g>
                    <g id="Group_311" data-name="Group 311" transform="translate(0 4.849)">
                      <path id="Path_916" data-name="Path 916" d="M1881.527,633.966a.213.213,0,0,0,.145-.371c-5.234-4.794-12.285-1.958-12.355-1.928a.213.213,0,0,0,.164.394c.068-.028,6.874-2.761,11.9,1.849A.2.2,0,0,0,1881.527,633.966Z" transform="translate(-1869.186 -630.807)" fill="#b4c6ea"/>
                    </g>
                    <g id="Group_312" data-name="Group 312" transform="translate(0 7.274)">
                      <path id="Path_917" data-name="Path 917" d="M1881.527,653.776a.214.214,0,0,0,.145-.371c-5.234-4.794-12.285-1.957-12.355-1.928a.213.213,0,0,0,.164.394c.068-.028,6.874-2.761,11.9,1.849A.2.2,0,0,0,1881.527,653.776Z" transform="translate(-1869.186 -650.617)" fill="#b4c6ea"/>
                    </g>
                    <g id="Group_313" data-name="Group 313" transform="translate(0 9.7)">
                      <path id="Path_918" data-name="Path 918" d="M1881.527,673.586a.213.213,0,0,0,.145-.371c-5.234-4.794-12.285-1.958-12.355-1.928a.214.214,0,0,0,.164.394c.068-.028,6.874-2.761,11.9,1.848A.2.2,0,0,0,1881.527,673.586Z" transform="translate(-1869.186 -670.427)" fill="#b4c6ea"/>
                    </g>
                  </g>
                </g>
                <path id="Path_919" data-name="Path 919" d="M1962.44,751.519v0l-1.481,1.425-.175.166a.63.63,0,0,1-.443.179.646.646,0,0,1-.453-.187.636.636,0,0,1,.012-.908l.055-.055,1.549-1.442c.235.187.439.367.623.534C1962.243,751.33,1962.346,751.428,1962.44,751.519Z" transform="translate(-1944.911 -728.344)" fill="#d08920"/>
                <path id="Path_920" data-name="Path 920" d="M1861.09,727.4l-1.551,1.442a11.978,11.978,0,0,0-6.9-2.769,30.176,30.176,0,0,0-6.836,1.071.415.415,0,0,1-.521-.4v-1.216C1853.1,722.356,1858.59,725.4,1861.09,727.4Z" transform="translate(-1844.497 -705.049)" fill="#e3a727"/>
              </g>
              <g id="Group_326" data-name="Group 326" transform="translate(18.122 0.001)">
                <g id="Group_325" data-name="Group 325">
                  <g id="Group_318" data-name="Group 318" transform="translate(0)">
                    <g id="Group_317" data-name="Group 317">
                      <path id="Path_921" data-name="Path 921" d="M2003.432,569.551v16.637c-11.513-3.675-16.522,3.363-16.522,3.363V572.6S1991.667,564.973,2003.432,569.551Z" transform="translate(-1986.91 -568.088)" fill="#fff"/>
                    </g>
                  </g>
                  <path id="Path_922" data-name="Path 922" d="M2005.032,582.245v16.294a.569.569,0,0,1-.785.528c-7.823-3.173-13.309-.127-15.811,1.874-.235.187-.439.367-.623.533-.116.1-.219.2-.312.286v0l-.011.011-.008.007a8.075,8.075,0,0,0-.572.6V600.05s5.01-7.038,16.522-3.363V580.05l1.452,1.775A.663.663,0,0,1,2005.032,582.245Z" transform="translate(-1986.91 -578.586)" fill="#d8e5fe"/>
                  <g id="Group_324" data-name="Group 324" transform="translate(1.856 2.829)">
                    <g id="Group_319" data-name="Group 319">
                      <path id="Path_923" data-name="Path 923" d="M2002.286,594.356a.209.209,0,0,1-.157-.07.213.213,0,0,1,.013-.3c5.234-4.794,12.285-1.958,12.355-1.928a.213.213,0,0,1-.164.394c-.069-.028-6.874-2.761-11.9,1.849A.208.208,0,0,1,2002.286,594.356Z" transform="translate(-2002.073 -591.197)" fill="#b4c6ea"/>
                    </g>
                    <g id="Group_320" data-name="Group 320" transform="translate(0 2.425)">
                      <path id="Path_924" data-name="Path 924" d="M2002.286,614.165a.208.208,0,0,1-.157-.07.213.213,0,0,1,.013-.3c5.234-4.794,12.285-1.958,12.355-1.928a.213.213,0,0,1-.164.394c-.069-.028-6.874-2.761-11.9,1.848A.209.209,0,0,1,2002.286,614.165Z" transform="translate(-2002.073 -611.007)" fill="#b4c6ea"/>
                    </g>
                    <g id="Group_321" data-name="Group 321" transform="translate(0 4.849)">
                      <path id="Path_925" data-name="Path 925" d="M2002.286,633.966a.209.209,0,0,1-.157-.07.213.213,0,0,1,.013-.3c5.234-4.794,12.285-1.958,12.355-1.928a.213.213,0,0,1-.164.394c-.069-.028-6.874-2.761-11.9,1.849A.209.209,0,0,1,2002.286,633.966Z" transform="translate(-2002.073 -630.807)" fill="#b4c6ea"/>
                    </g>
                    <g id="Group_322" data-name="Group 322" transform="translate(0 7.274)">
                      <path id="Path_926" data-name="Path 926" d="M2002.286,653.776a.208.208,0,0,1-.157-.07.212.212,0,0,1,.013-.3c5.234-4.794,12.285-1.957,12.355-1.928a.213.213,0,0,1-.164.394c-.069-.028-6.874-2.761-11.9,1.849A.209.209,0,0,1,2002.286,653.776Z" transform="translate(-2002.073 -650.617)" fill="#b4c6ea"/>
                    </g>
                    <g id="Group_323" data-name="Group 323" transform="translate(0 9.7)">
                      <path id="Path_927" data-name="Path 927" d="M2002.286,673.586a.209.209,0,0,1-.157-.07.213.213,0,0,1,.013-.3c5.234-4.794,12.285-1.958,12.355-1.928a.214.214,0,0,1-.164.394c-.069-.028-6.874-2.761-11.9,1.848A.208.208,0,0,1,2002.286,673.586Z" transform="translate(-2002.073 -670.427)" fill="#b4c6ea"/>
                    </g>
                  </g>
                </g>
                <path id="Path_928" data-name="Path 928" d="M1994.292,753.107a.639.639,0,0,1-.9.007l-.175-.165-1.481-1.426v0c.094-.09.2-.187.312-.286.184-.165.388-.345.623-.533l1.549,1.442.055.055A.638.638,0,0,1,1994.292,753.107Z" transform="translate(-1991.149 -728.344)" fill="#d08920"/>
                <path id="Path_929" data-name="Path 929" d="M2015.191,725.529v1.217a.416.416,0,0,1-.522.4,33.08,33.08,0,0,0-6.9-.855,11.861,11.861,0,0,0-6.836,2.552h0l-1.549-1.442C2001.881,725.4,2007.368,722.356,2015.191,725.529Z" transform="translate(-1997.854 -705.048)" fill="#e3a727"/>
              </g>
              <path id="Path_930" data-name="Path 930" d="M1974.108,758.846a3.144,3.144,0,0,1-4.148,0l1.482-1.426.011.011.01.007a.836.836,0,0,0,1.144,0,.027.027,0,0,0,.009-.007l.011-.011Z" transform="translate(-1953.913 -734.241)" fill="#eccf68"/>
            </g>
            <path id="Path_931" data-name="Path 931" d="M2005.032,571.747v16.294a.569.569,0,0,1-.785.528v1.217a.416.416,0,0,1-.521.4,33.084,33.084,0,0,0-6.9-.854,11.866,11.866,0,0,0-6.836,2.552h0l.055.055a.637.637,0,1,1-.883.917l-.175-.165a3.334,3.334,0,0,1-2.073.781V572.6s4.757-7.629,16.522-3.051l1.452,1.775A.669.669,0,0,1,2005.032,571.747Z" transform="translate(-1968.788 -568.087)" fill="#d8e5fe" opacity="0.5"/>
          </g>
          <g id="Group_329" data-name="Group 329" transform="translate(16.193 14.679)">
            <path id="Path_932" data-name="Path 932" d="M1976.394,601.41s-.773.771-1.1,6.4" transform="translate(-1974.784 -601.41)" fill="none" stroke="#27457f" stroke-linecap="round" stroke-linejoin="round" stroke-width="2.626"/>
            <path id="Path_933" data-name="Path 933" d="M1972.838,656.828c-.051.02-.111-.006-.158.021-.021.011-.037.032-.06.04a.077.077,0,0,1-.082-.032.2.2,0,0,1-.037-.086,1.479,1.479,0,0,0-.2-.414,2.092,2.092,0,0,0,.048.427.373.373,0,0,1-.011.291c-.057.086-.176.1-.28.114a1.22,1.22,0,0,0-.415.153.25.25,0,0,1-.186.055.208.208,0,0,1-.1-.1,1.682,1.682,0,0,1-.181-.771c-.019-.329-.024-.661-.013-.992a2.312,2.312,0,0,1,.247-1.1c.019-.032.052-.066.086-.06a.247.247,0,0,1,.172-.066.383.383,0,0,1,.275.146,1.028,1.028,0,0,1,.159.277c.047.1.1.209.144.313l.523,1.144a1.549,1.549,0,0,1,.149.442C1972.924,656.707,1972.909,656.8,1972.838,656.828Z" transform="translate(-1971.153 -647.834)" fill="#eccf68"/>
            <path id="Path_934" data-name="Path 934" d="M1972.606,652.393a.433.433,0,1,1-.433-.433A.433.433,0,0,1,1972.606,652.393Z" transform="translate(-1971.668 -645.772)" fill="#e3a727"/>
          </g>
          <g id="Group_330" data-name="Group 330" transform="translate(0.851)">
            <path id="Path_935" data-name="Path 935" d="M1985.126,506.921l.162.246a.2.2,0,0,0,.117.084l.284.077a.108.108,0,0,1,.056.171l-.185.23a.2.2,0,0,0-.044.136l.013.294a.108.108,0,0,1-.145.106l-.276-.1a.206.206,0,0,0-.143,0l-.275.1a.108.108,0,0,1-.146-.106l.014-.294a.2.2,0,0,0-.044-.136l-.185-.23a.108.108,0,0,1,.056-.171l.284-.077a.2.2,0,0,0,.116-.084l.162-.246A.107.107,0,0,1,1985.126,506.921Z" transform="translate(-1967.351 -503.767)" fill="#e3a727"/>
            <path id="Path_936" data-name="Path 936" d="M1889.866,546.481l.162.246a.2.2,0,0,0,.116.084l.284.077a.109.109,0,0,1,.057.172l-.185.23a.2.2,0,0,0-.044.136l.014.294a.109.109,0,0,1-.146.106l-.275-.1a.207.207,0,0,0-.143,0l-.276.1a.108.108,0,0,1-.146-.106l.014-.294a.2.2,0,0,0-.044-.136l-.185-.23a.107.107,0,0,1,.056-.172l.284-.077a.2.2,0,0,0,.116-.084l.162-.246A.107.107,0,0,1,1889.866,546.481Z" transform="translate(-1883.753 -538.484)" fill="#e3c934"/>
            <path id="Path_937" data-name="Path 937" d="M2052.437,514.161l.161.246a.2.2,0,0,0,.116.085l.284.077a.108.108,0,0,1,.056.171l-.185.23a.2.2,0,0,0-.044.136l.013.294a.108.108,0,0,1-.145.106l-.276-.1a.205.205,0,0,0-.143,0l-.276.1a.108.108,0,0,1-.146-.106l.013-.294a.2.2,0,0,0-.044-.136l-.185-.23a.107.107,0,0,1,.056-.171l.284-.077a.2.2,0,0,0,.116-.085l.162-.246A.107.107,0,0,1,2052.437,514.161Z" transform="translate(-2026.422 -510.12)" fill="#e3a727"/>
            <path id="Path_938" data-name="Path 938" d="M2007.566,481.551l.162.246a.2.2,0,0,0,.116.084l.284.077a.109.109,0,0,1,.057.171l-.185.23a.206.206,0,0,0-.044.136l.014.294a.109.109,0,0,1-.146.106l-.275-.1a.206.206,0,0,0-.143,0l-.276.1a.108.108,0,0,1-.146-.106l.014-.294a.2.2,0,0,0-.044-.136l-.185-.23a.107.107,0,0,1,.056-.171l.284-.077a.2.2,0,0,0,.116-.084l.161-.246A.108.108,0,0,1,2007.566,481.551Z" transform="translate(-1987.044 -481.503)" fill="#e3c934"/>
            <path id="Path_939" data-name="Path 939" d="M1977.524,550.323l.116.178a.147.147,0,0,0,.085.061l.206.056a.078.078,0,0,1,.041.124l-.134.166a.143.143,0,0,0-.031.1l.01.213a.078.078,0,0,1-.105.077l-.2-.076a.152.152,0,0,0-.1,0l-.2.076a.078.078,0,0,1-.105-.077l.01-.213a.153.153,0,0,0-.032-.1l-.133-.166a.077.077,0,0,1,.04-.124l.206-.056a.147.147,0,0,0,.084-.061l.117-.178A.078.078,0,0,1,1977.524,550.323Z" transform="translate(-1960.879 -541.867)" fill="#e3a727"/>
            <path id="Path_940" data-name="Path 940" d="M1925.275,505.87l.116.178a.151.151,0,0,0,.084.061l.205.056a.078.078,0,0,1,.041.124l-.133.166a.142.142,0,0,0-.032.1l.01.213a.078.078,0,0,1-.105.077l-.2-.076a.151.151,0,0,0-.1,0l-.2.076a.078.078,0,0,1-.105-.077l.01-.213a.153.153,0,0,0-.032-.1l-.133-.166a.078.078,0,0,1,.041-.124l.206-.056a.145.145,0,0,0,.083-.061l.116-.178A.081.081,0,0,1,1925.275,505.87Z" transform="translate(-1915.026 -502.856)" fill="#e3c934"/>
            <path id="Path_941" data-name="Path 941" d="M1846.425,529.58l.116.177a.15.15,0,0,0,.083.061l.206.056a.078.078,0,0,1,.041.124l-.133.167a.142.142,0,0,0-.032.1l.01.213a.078.078,0,0,1-.105.077l-.2-.076a.152.152,0,0,0-.1,0l-.2.076a.078.078,0,0,1-.105-.077l.01-.213a.151.151,0,0,0-.032-.1l-.133-.167a.078.078,0,0,1,.04-.124l.206-.056a.144.144,0,0,0,.083-.061l.116-.177A.081.081,0,0,1,1846.425,529.58Z" transform="translate(-1845.829 -523.664)" fill="#e3a727"/>
            <path id="Path_942" data-name="Path 942" d="M2105.214,546.19l.116.177a.148.148,0,0,0,.084.061l.206.056a.078.078,0,0,1,.04.124l-.133.167a.144.144,0,0,0-.032.1l.01.213a.078.078,0,0,1-.105.077l-.2-.076a.152.152,0,0,0-.1,0l-.2.076a.078.078,0,0,1-.105-.077l.01-.213a.151.151,0,0,0-.032-.1l-.134-.167a.078.078,0,0,1,.041-.124l.205-.056a.151.151,0,0,0,.085-.061l.116-.177A.079.079,0,0,1,2105.214,546.19Z" transform="translate(-2072.937 -538.24)" fill="#e3c934"/>
          </g>
        </g>
      </g>
    </g>
    <text id="أحاديث-2" data-name="أحاديث" transform="translate(112 38)" fill="#fff" font-size="18" font-family="AGOOGLE, A GOOGLE"><tspan x="0" y="0">أحاديث</tspan></text>
  </g>
</svg>
