<svg xmlns="http://www.w3.org/2000/svg" xmlns:xlink="http://www.w3.org/1999/xlink" width="428" height="96" viewBox="0 0 428 96">
  <defs>
    <linearGradient id="linear-gradient" x1="0.033" y1="0.057" x2="0.956" y2="0.976" gradientUnits="objectBoundingBox">
      <stop offset="0" stop-color="#486fbd"/>
      <stop offset="1" stop-color="#1a3875"/>
    </linearGradient>
  </defs>
  <g id="تسبيح" transform="translate(129 14)">
    <g id="Group_140" data-name="Group 140">
      <rect id="Rectangle_13" data-name="Rectangle 13" width="428" height="96" transform="translate(-129 -14)" fill="url(#linear-gradient)"/>
      <circle id="Ellipse_92" data-name="Ellipse 92" cx="9" cy="9" r="9" transform="translate(230 58)" fill="#fff" opacity="0.15"/>
      <circle id="Ellipse_93" data-name="Ellipse 93" cx="9" cy="9" r="9" transform="translate(113 12)" fill="#fff" opacity="0.15"/>
    </g>
    <g id="OBJECTS" transform="translate(-1894.88 -490.131)">
      <g id="Group_332" data-name="Group 332" transform="translate(1838.88 481.503)">
        <g id="Group_331" data-name="Group 331" transform="translate(0)">
          <g id="Group_304" data-name="Group 304" transform="translate(11.3 59.322)">
            <g id="Group_303" data-name="Group 303">
              <path id="Path_907" data-name="Path 907" d="M1938.311,733.8l-48.157,22.746a.866.866,0,0,1-.983-.171l-2.567-2.659a.868.868,0,0,1-.254-.612v-5.365a1.294,1.294,0,0,1,.731-1.167l12.573-6.07a2.264,2.264,0,0,0,1.336-2.064V730.7l27.7,2.033Z" transform="translate(-1886.35 -730.7)" fill="#27457f"/>
              <g id="Group_302" data-name="Group 302" transform="translate(0)" opacity="0.6">
                <path id="Path_908" data-name="Path 908" d="M1928.689,732.733l-42.34,20.375V747.74a1.294,1.294,0,0,1,.731-1.166l12.574-6.07a2.263,2.263,0,0,0,1.335-2.064V730.7Z" transform="translate(-1886.35 -730.7)" fill="#2a2760" opacity="0.3"/>
              </g>
              <path id="Path_909" data-name="Path 909" d="M1928.69,732.733l-27.7-2.033v7.741a2.263,2.263,0,0,1-1.335,2.064l-12.574,6.07a1.3,1.3,0,0,0-.731,1.167v5.368h0a.862.862,0,0,0,.255.612l2.566,2.659a.866.866,0,0,0,.983.171l48.158-22.746Z" transform="translate(-1886.35 -730.7)" fill="#2a2760" opacity="0.2"/>
            </g>
          </g>
          <g id="Group_306" data-name="Group 306" transform="translate(6.287 59.322)">
            <g id="Group_305" data-name="Group 305">
              <path id="Path_910" data-name="Path 910" d="M1865.29,733.8l48.158,22.746a.867.867,0,0,0,.983-.171l2.567-2.659a.869.869,0,0,0,.254-.612v-5.365a1.3,1.3,0,0,0-.731-1.167l-12.574-6.07a2.263,2.263,0,0,1-1.335-2.064V730.7l-27.7,2.033Z" transform="translate(-1865.29 -730.7)" fill="#27457f"/>
            </g>
          </g>
          <path id="Path_911" data-name="Path 911" d="M1917.234,759.615a.861.861,0,0,1-.254.612l-2.566,2.659a.868.868,0,0,1-.984.171l-48.16-22.748,9.622-1.069Z" transform="translate(-1858.988 -677.885)" fill="#486fbc" opacity="0.2"/>
          <g id="Group_328" data-name="Group 328" transform="translate(0 20.611)">
            <g id="Group_327" data-name="Group 327">
              <g id="Group_316" data-name="Group 316">
                <g id="Group_315" data-name="Group 315">
                  <g id="Group_308" data-name="Group 308" transform="translate(3.109)">
                    <g id="Group_307" data-name="Group 307">
                      <path id="Path_912" data-name="Path 912" d="M1851.939,570.93v32.351c22.387-7.144,32.127,6.539,32.127,6.539V576.862S1874.817,562.024,1851.939,570.93Z" transform="translate(-1851.939 -568.084)" fill="#fff"/>
                    </g>
                  </g>
                  <path id="Path_913" data-name="Path 913" d="M1874.117,618.93v4.54a15.772,15.772,0,0,0-1.153-1.2v-.007c-.183-.174-.381-.364-.6-.557-.357-.324-.755-.671-1.211-1.038-4.863-3.892-15.533-9.817-30.742-3.642a1.107,1.107,0,0,1-1.526-1.029V584.313a1.293,1.293,0,0,1,.29-.822l2.821-3.452v32.351C1864.375,605.247,1874.117,618.93,1874.117,618.93Z" transform="translate(-1838.88 -577.194)" fill="#d8e5fe"/>
                  <g id="Group_314" data-name="Group 314" transform="translate(7.214 5.502)">
                    <g id="Group_309" data-name="Group 309">
                      <path id="Path_914" data-name="Path 914" d="M1893.184,597.339a.415.415,0,0,0,.281-.721c-10.177-9.322-23.889-3.806-24.024-3.749a.415.415,0,0,0,.319.767c.133-.055,13.366-5.368,23.148,3.594A.391.391,0,0,0,1893.184,597.339Z" transform="translate(-1869.185 -591.197)" fill="#b4c6ea"/>
                    </g>
                    <g id="Group_310" data-name="Group 310" transform="translate(0 4.716)">
                      <path id="Path_915" data-name="Path 915" d="M1893.184,617.149a.415.415,0,0,0,.281-.721c-10.177-9.322-23.889-3.807-24.024-3.749a.415.415,0,0,0,.319.767c.133-.055,13.366-5.368,23.148,3.594A.391.391,0,0,0,1893.184,617.149Z" transform="translate(-1869.185 -611.007)" fill="#b4c6ea"/>
                    </g>
                    <g id="Group_311" data-name="Group 311" transform="translate(0 9.429)">
                      <path id="Path_916" data-name="Path 916" d="M1893.184,636.949a.415.415,0,0,0,.281-.721c-10.177-9.322-23.889-3.807-24.024-3.749a.415.415,0,0,0,.319.766c.133-.055,13.366-5.368,23.148,3.595A.391.391,0,0,0,1893.184,636.949Z" transform="translate(-1869.185 -630.807)" fill="#b4c6ea"/>
                    </g>
                    <g id="Group_312" data-name="Group 312" transform="translate(0 14.145)">
                      <path id="Path_917" data-name="Path 917" d="M1893.184,656.759a.415.415,0,0,0,.281-.721c-10.177-9.322-23.889-3.806-24.024-3.749a.415.415,0,0,0,.319.766c.133-.055,13.366-5.368,23.148,3.595A.391.391,0,0,0,1893.184,656.759Z" transform="translate(-1869.185 -650.617)" fill="#b4c6ea"/>
                    </g>
                    <g id="Group_313" data-name="Group 313" transform="translate(0 18.861)">
                      <path id="Path_918" data-name="Path 918" d="M1893.184,676.569a.415.415,0,0,0,.281-.721c-10.177-9.322-23.889-3.806-24.024-3.749a.415.415,0,0,0,.319.767c.133-.055,13.366-5.368,23.148,3.594A.391.391,0,0,0,1893.184,676.569Z" transform="translate(-1869.185 -670.426)" fill="#b4c6ea"/>
                    </g>
                  </g>
                </g>
                <path id="Path_919" data-name="Path 919" d="M1965.025,752.292v.007l-2.881,2.771-.34.324a1.225,1.225,0,0,1-.862.347,1.257,1.257,0,0,1-.881-.364,1.237,1.237,0,0,1,.024-1.766l.107-.107,3.012-2.8c.457.364.854.714,1.212,1.038C1964.641,751.926,1964.841,752.116,1965.025,752.292Z" transform="translate(-1930.94 -707.228)" fill="#d08920"/>
                <path id="Path_920" data-name="Path 920" d="M1876.022,730.472l-3.017,2.8c-1.418-1.312-7.348-5.385-13.421-5.385a58.675,58.675,0,0,0-13.293,2.083.806.806,0,0,1-1.012-.781v-2.364C1860.49,720.657,1871.161,726.58,1876.022,730.472Z" transform="translate(-1843.757 -687.003)" fill="#e3a727"/>
              </g>
              <g id="Group_326" data-name="Group 326" transform="translate(35.239 0.001)">
                <g id="Group_325" data-name="Group 325">
                  <g id="Group_318" data-name="Group 318" transform="translate(0)">
                    <g id="Group_317" data-name="Group 317">
                      <path id="Path_921" data-name="Path 921" d="M2019.037,570.933v32.351c-22.386-7.147-32.127,6.539-32.127,6.539V576.865S1996.16,562.03,2019.037,570.933Z" transform="translate(-1986.91 -568.088)" fill="#fff"/>
                    </g>
                  </g>
                  <path id="Path_922" data-name="Path 922" d="M2022.149,584.318V616a1.107,1.107,0,0,1-1.526,1.026c-15.211-6.17-25.88-.247-30.744,3.645-.457.364-.853.714-1.211,1.036-.226.193-.426.383-.607.557v.007l-.021.022a.106.106,0,0,1-.016.014,15.718,15.718,0,0,0-1.112,1.169V618.94s9.741-13.686,32.127-6.539V580.05l2.823,3.452A1.288,1.288,0,0,1,2022.149,584.318Z" transform="translate(-1986.91 -577.203)" fill="#d8e5fe"/>
                  <g id="Group_324" data-name="Group 324" transform="translate(3.61 5.501)">
                    <g id="Group_319" data-name="Group 319">
                      <path id="Path_923" data-name="Path 923" d="M2002.487,597.339a.407.407,0,0,1-.3-.136.414.414,0,0,1,.026-.586c10.177-9.322,23.889-3.806,24.024-3.749a.415.415,0,0,1-.318.767c-.134-.055-13.367-5.368-23.148,3.594A.407.407,0,0,1,2002.487,597.339Z" transform="translate(-2002.073 -591.197)" fill="#b4c6ea"/>
                    </g>
                    <g id="Group_320" data-name="Group 320" transform="translate(0 4.716)">
                      <path id="Path_924" data-name="Path 924" d="M2002.487,617.149a.406.406,0,0,1-.3-.135.414.414,0,0,1,.026-.586c10.177-9.322,23.889-3.807,24.024-3.749a.415.415,0,0,1-.318.767c-.134-.055-13.367-5.368-23.148,3.594A.407.407,0,0,1,2002.487,617.149Z" transform="translate(-2002.073 -611.007)" fill="#b4c6ea"/>
                    </g>
                    <g id="Group_321" data-name="Group 321" transform="translate(0 9.429)">
                      <path id="Path_925" data-name="Path 925" d="M2002.487,636.949a.407.407,0,0,1-.3-.136.414.414,0,0,1,.026-.586c10.177-9.322,23.889-3.807,24.024-3.749a.415.415,0,0,1-.318.766c-.134-.055-13.367-5.368-23.148,3.595A.407.407,0,0,1,2002.487,636.949Z" transform="translate(-2002.073 -630.807)" fill="#b4c6ea"/>
                    </g>
                    <g id="Group_322" data-name="Group 322" transform="translate(0 14.145)">
                      <path id="Path_926" data-name="Path 926" d="M2002.487,656.759a.406.406,0,0,1-.3-.136.413.413,0,0,1,.026-.585c10.177-9.322,23.889-3.806,24.024-3.749a.415.415,0,0,1-.318.766c-.134-.055-13.367-5.368-23.148,3.595A.406.406,0,0,1,2002.487,656.759Z" transform="translate(-2002.073 -650.617)" fill="#b4c6ea"/>
                    </g>
                    <g id="Group_323" data-name="Group 323" transform="translate(0 18.861)">
                      <path id="Path_927" data-name="Path 927" d="M2002.487,676.569a.407.407,0,0,1-.3-.135.414.414,0,0,1,.026-.586c10.177-9.322,23.889-3.806,24.024-3.749a.415.415,0,0,1-.318.767c-.134-.055-13.367-5.368-23.148,3.594A.406.406,0,0,1,2002.487,676.569Z" transform="translate(-2002.073 -670.426)" fill="#b4c6ea"/>
                    </g>
                  </g>
                </g>
                <path id="Path_928" data-name="Path 928" d="M1996.7,755.38a1.242,1.242,0,0,1-1.742.014l-.34-.322-2.881-2.773v-.007c.183-.176.384-.364.607-.557.357-.321.754-.671,1.211-1.036l3.012,2.8.106.107A1.24,1.24,0,0,1,1996.7,755.38Z" transform="translate(-1990.589 -707.229)" fill="#d08920"/>
                <path id="Path_929" data-name="Path 929" d="M2030.125,726.826v2.366a.809.809,0,0,1-1.014.783,64.331,64.331,0,0,0-13.421-1.662c-6.076,0-11.874,3.652-13.293,4.963h-.005l-3.011-2.8C2004.242,726.581,2014.913,720.656,2030.125,726.826Z" transform="translate(-1996.412 -687.002)" fill="#e3a727"/>
              </g>
              <path id="Path_930" data-name="Path 930" d="M1978.024,760.193a6.113,6.113,0,0,1-8.065,0l2.881-2.773.021.021a.086.086,0,0,0,.019.015,1.626,1.626,0,0,0,2.225,0,.051.051,0,0,0,.017-.015l.021-.021Z" transform="translate(-1938.755 -712.348)" fill="#eccf68"/>
            </g>
            <path id="Path_931" data-name="Path 931" d="M2022.149,575.2v31.684a1.107,1.107,0,0,1-1.526,1.026v2.366a.809.809,0,0,1-1.014.783,64.328,64.328,0,0,0-13.422-1.661c-6.074,0-11.872,3.652-13.292,4.963h0l.107.107a1.238,1.238,0,1,1-1.717,1.783l-.34-.321a6.482,6.482,0,0,1-4.03,1.519V576.865s9.251-14.835,32.127-5.932l2.823,3.452A1.3,1.3,0,0,1,2022.149,575.2Z" transform="translate(-1951.672 -568.087)" fill="#d8e5fe" opacity="0.5"/>
          </g>
          <g id="Group_329" data-name="Group 329" transform="translate(31.488 28.544)">
            <path id="Path_932" data-name="Path 932" d="M1977.437,601.41s-1.5,1.5-2.147,12.436" transform="translate(-1974.305 -601.41)" fill="none" stroke="#27457f" stroke-linecap="round" stroke-linejoin="round" stroke-miterlimit="10" stroke-width="2.626"/>
            <path id="Path_933" data-name="Path 933" d="M1974.429,659.206c-.1.038-.216-.012-.307.04-.041.021-.072.062-.117.079a.149.149,0,0,1-.16-.062.391.391,0,0,1-.072-.167,2.882,2.882,0,0,0-.39-.8,4.057,4.057,0,0,0,.093.831.727.727,0,0,1-.022.566c-.111.167-.342.188-.545.221a2.375,2.375,0,0,0-.807.3.487.487,0,0,1-.362.107.406.406,0,0,1-.2-.188,3.271,3.271,0,0,1-.352-1.5c-.038-.64-.048-1.286-.026-1.928a4.494,4.494,0,0,1,.481-2.145c.038-.062.1-.128.166-.117a.48.48,0,0,1,.335-.129.745.745,0,0,1,.536.283,2.006,2.006,0,0,1,.31.538c.092.2.187.407.281.609q.507,1.111,1.016,2.224a3,3,0,0,1,.29.859C1974.6,658.971,1974.568,659.156,1974.429,659.206Z" transform="translate(-1971.152 -641.717)" fill="#eccf68"/>
            <path id="Path_934" data-name="Path 934" d="M1973.425,652.8a.843.843,0,1,1-.843-.843A.842.842,0,0,1,1973.425,652.8Z" transform="translate(-1971.599 -639.926)" fill="#e3a727"/>
          </g>
          <g id="Group_330" data-name="Group 330" transform="translate(1.654)">
            <path id="Path_935" data-name="Path 935" d="M1985.9,506.967l.314.479a.4.4,0,0,0,.226.164l.552.15a.211.211,0,0,1,.109.333l-.36.448a.39.39,0,0,0-.085.264l.025.571a.21.21,0,0,1-.282.207l-.536-.2a.4.4,0,0,0-.279,0l-.535.2a.21.21,0,0,1-.283-.207l.027-.571a.4.4,0,0,0-.086-.264l-.36-.448a.209.209,0,0,1,.11-.333l.552-.15a.392.392,0,0,0,.226-.164l.315-.479A.209.209,0,0,1,1985.9,506.967Z" transform="translate(-1951.34 -500.833)" fill="#e3a727"/>
            <path id="Path_936" data-name="Path 936" d="M1890.642,546.527l.314.478a.393.393,0,0,0,.226.164l.552.15a.212.212,0,0,1,.11.333l-.36.447a.4.4,0,0,0-.086.264l.027.572a.211.211,0,0,1-.284.207l-.535-.2a.4.4,0,0,0-.279,0l-.536.2a.21.21,0,0,1-.283-.207l.027-.572a.4.4,0,0,0-.086-.264l-.359-.447a.209.209,0,0,1,.109-.333l.552-.15a.394.394,0,0,0,.226-.164l.314-.478A.209.209,0,0,1,1890.642,546.527Z" transform="translate(-1878.756 -530.976)" fill="#e3c934"/>
            <path id="Path_937" data-name="Path 937" d="M2053.212,514.207l.314.478a.4.4,0,0,0,.226.164l.552.15a.211.211,0,0,1,.109.333l-.359.447a.391.391,0,0,0-.085.264l.025.571a.21.21,0,0,1-.283.207l-.536-.2a.4.4,0,0,0-.278,0l-.536.2a.21.21,0,0,1-.283-.207l.026-.571a.388.388,0,0,0-.086-.264l-.359-.447a.209.209,0,0,1,.109-.333l.552-.15a.4.4,0,0,0,.227-.164l.314-.478A.209.209,0,0,1,2053.212,514.207Z" transform="translate(-2002.626 -506.349)" fill="#e3a727"/>
            <path id="Path_938" data-name="Path 938" d="M2008.343,481.6l.314.479a.393.393,0,0,0,.226.164l.552.15a.211.211,0,0,1,.11.333l-.36.448a.4.4,0,0,0-.085.264l.027.572a.212.212,0,0,1-.284.207l-.535-.2a.4.4,0,0,0-.279,0l-.536.2a.21.21,0,0,1-.283-.207l.026-.572a.392.392,0,0,0-.086-.264l-.359-.448a.209.209,0,0,1,.109-.333l.552-.15a.4.4,0,0,0,.226-.164l.314-.479A.209.209,0,0,1,2008.343,481.6Z" transform="translate(-1968.438 -481.503)" fill="#e3c934"/>
            <path id="Path_939" data-name="Path 939" d="M1978.086,550.357l.225.345a.287.287,0,0,0,.165.119l.4.11a.151.151,0,0,1,.079.24l-.26.324a.279.279,0,0,0-.061.193l.019.414a.152.152,0,0,1-.2.15l-.389-.148a.3.3,0,0,0-.2,0l-.388.148a.152.152,0,0,1-.2-.15l.019-.414a.3.3,0,0,0-.062-.193l-.259-.324a.151.151,0,0,1,.078-.24l.4-.11a.285.285,0,0,0,.163-.119l.227-.345A.151.151,0,0,1,1978.086,550.357Z" transform="translate(-1945.72 -533.913)" fill="#e3a727"/>
            <path id="Path_940" data-name="Path 940" d="M1925.838,505.9l.226.345a.294.294,0,0,0,.162.119l.4.11a.151.151,0,0,1,.079.24l-.259.324a.276.276,0,0,0-.063.193l.019.414a.152.152,0,0,1-.2.15l-.388-.147a.293.293,0,0,0-.2,0l-.389.147a.152.152,0,0,1-.2-.15l.019-.414a.294.294,0,0,0-.062-.193l-.259-.324a.151.151,0,0,1,.079-.24l.4-.11a.281.281,0,0,0,.162-.119l.225-.345A.158.158,0,0,1,1925.838,505.9Z" transform="translate(-1905.908 -500.043)" fill="#e3c934"/>
            <path id="Path_941" data-name="Path 941" d="M1846.989,529.613l.226.345a.292.292,0,0,0,.162.119l.4.109a.152.152,0,0,1,.079.24l-.26.324a.276.276,0,0,0-.062.193l.019.414a.152.152,0,0,1-.2.15l-.388-.148a.3.3,0,0,0-.2,0l-.388.148a.152.152,0,0,1-.2-.15l.019-.414a.3.3,0,0,0-.062-.193l-.259-.324a.151.151,0,0,1,.078-.24l.4-.109a.281.281,0,0,0,.162-.119l.226-.345A.158.158,0,0,1,1846.989,529.613Z" transform="translate(-1845.829 -518.108)" fill="#e3a727"/>
            <path id="Path_942" data-name="Path 942" d="M2105.775,546.223l.226.345a.286.286,0,0,0,.164.119l.4.109a.151.151,0,0,1,.078.24l-.259.324a.28.28,0,0,0-.062.193l.019.414a.152.152,0,0,1-.205.15l-.387-.148a.3.3,0,0,0-.2,0l-.388.148a.152.152,0,0,1-.205-.15l.019-.414a.292.292,0,0,0-.062-.193l-.26-.324a.151.151,0,0,1,.079-.24l.4-.109a.291.291,0,0,0,.165-.119l.226-.345A.154.154,0,0,1,2105.775,546.223Z" transform="translate(-2043.012 -530.765)" fill="#e3c934"/>
          </g>
        </g>
      </g>
    </g>
  </g>
</svg>
