<svg xmlns="http://www.w3.org/2000/svg" xmlns:xlink="http://www.w3.org/1999/xlink" width="354" height="74.249" viewBox="0 0 354 74.249">
  <defs>
    <linearGradient id="linear-gradient" x1="0.033" y1="0.057" x2="0.956" y2="0.976" gradientUnits="objectBoundingBox">
      <stop offset="0" stop-color="#b78746"/>
      <stop offset="1" stop-color="#a56b1c"/>
    </linearGradient>
  </defs>
  <g id="أذكار_الصلاة" data-name="أذكار الصلاة" transform="translate(2 -11.275)">
    <path id="Path_600" data-name="Path 600" d="M10.085,0H343.915C349.485,0,354,3.078,354,6.875l-.268,60.515c0,3.8-4.247,6.86-9.817,6.86H10.085C4.515,74.249,0,71.171,0,67.374V6.875C0,3.078,4.515,0,10.085,0Z" transform="translate(-2 11.275)" fill="url(#linear-gradient)"/>
    <text id="أذكار_الصلاة-2" data-name="أذكار الصلاة" transform="translate(221 55)" fill="#fff" stroke="#fff" stroke-width="1" font-size="20" font-family="AGOOGLE, A GOOGLE" letter-spacing="0.02em"><tspan x="0" y="0">أذكار الصلاة</tspan></text>
    <g id="الصلاة" transform="translate(13810.23 -132.152)">
      <g id="Group_126" data-name="Group 126" transform="translate(-13791.23 151.031)">
        <path id="Path_772" data-name="Path 772" d="M-13773.464,163.79a.254.254,0,0,1,0-.368.255.255,0,0,1,.369,0s3,2.946,4.869,2.972h.078c.736-.052,1.342-1.078,1.789-2.367a14.6,14.6,0,0,0,.712-4.261,5.5,5.5,0,0,0-.027-.684,8.306,8.306,0,0,0-.763-3.367h0v-.026c-.026-.026-.079.053-.263,0-.474-.131-1.289-.316-2.053-.447a3.727,3.727,0,0,0-1.632-.026h0a3.355,3.355,0,0,0-.026.552c-.025.92-.053,2.131-1.868,2.314-.58.079-.737.236-.712.447a3.049,3.049,0,0,0,.474.973,2.884,2.884,0,0,1,.422.789.307.307,0,0,1-.21.316.291.291,0,0,1-.316-.21,3.213,3.213,0,0,0-.341-.631,2.861,2.861,0,0,1-.554-1.183c-.054-.5.211-.92,1.184-1,1.369-.158,1.369-1.1,1.4-1.815a3.053,3.053,0,0,1,.052-.71.5.5,0,0,1,.237-.289h0a.766.766,0,0,1,.368-.105q-.79-.039-1.657,0a14.268,14.268,0,0,0-2.9.394h-.026a16.857,16.857,0,0,0-2.763.947,7.5,7.5,0,0,0,.656,3.235c.659,1.762,1.37,3.682.4,6.312l5.21,2.709a6.5,6.5,0,0,1,.29-.947,6.546,6.546,0,0,1,.552-1.157.092.092,0,0,0,.027-.053,18.257,18.257,0,0,1-2.975-2.314Zm6.524-9.784a.124.124,0,0,1,.133.131.141.141,0,0,1-.133.132.124.124,0,0,1-.131-.132.124.124,0,0,1,.131-.131Zm-1.1-.237a.131.131,0,0,1,.157.132.141.141,0,0,1-.132.131.164.164,0,0,1-.155-.131.138.138,0,0,1,.13-.132Zm-.976-.131a.167.167,0,0,1,.158.131.169.169,0,0,1-.132.132.147.147,0,0,1-.157-.132.124.124,0,0,1,.131-.131Zm-1.051-.105a.167.167,0,0,1,.158.131.141.141,0,0,1-.133.132.147.147,0,0,1-.157-.132.125.125,0,0,1,.132-.131Zm-1.081-.026a.141.141,0,0,1,.132.131.124.124,0,0,1-.132.131.123.123,0,0,1-.131-.131.141.141,0,0,1,.131-.131Zm-1.1.053a.147.147,0,0,1,.157.132.14.14,0,0,1-.132.131.169.169,0,0,1-.158-.131.14.14,0,0,1,.133-.132Zm-1.081.053a.124.124,0,0,1,.132.131c.026.053-.052.132-.1.132a.147.147,0,0,1-.158-.132.124.124,0,0,1,.131-.131Zm-1.106.184a.147.147,0,0,1,.157.131.123.123,0,0,1-.13.131.125.125,0,0,1-.133-.131.106.106,0,0,1,.105-.131Zm-.184,55.626,7.395-.078a18.553,18.553,0,0,0-2.948-.132,34.487,34.487,0,0,1-4.105,0,3.854,3.854,0,0,1-.341.21Zm8-55.521a.3.3,0,0,1,.078.21.4.4,0,0,1-.1.289.369.369,0,0,1-.264.132h-.025a.471.471,0,0,1-.265-.106.378.378,0,0,1-.131-.289h0a.3.3,0,0,1,.105-.263.175.175,0,0,1,.157-.106c-.236-.052-.446-.105-.684-.158a.418.418,0,0,1,.131.263.551.551,0,0,1-.1.289h0a.426.426,0,0,1-.29.131.554.554,0,0,1-.289-.105h0a.573.573,0,0,1-.131-.289.544.544,0,0,1,.105-.289l.158-.079c-.212-.026-.4-.053-.605-.079.026,0,.026,0,.052.026a.421.421,0,0,1,.132.263v.026a.459.459,0,0,1-.106.263.417.417,0,0,1-.288.132h0a.546.546,0,0,1-.289-.106.493.493,0,0,1-.133-.289.4.4,0,0,1,.105-.263c.053-.053.105-.079.132-.106a5.126,5.126,0,0,0-.658-.052c.027,0,.027.026.053.026a.822.822,0,0,1,.132.263v.026a.405.405,0,0,1-.1.263.426.426,0,0,1-.29.131h0a.394.394,0,0,1-.289-.105.414.414,0,0,1-.132-.263v-.027a.46.46,0,0,1,.105-.263c.026-.026.079-.052.105-.078-.237,0-.474-.027-.685-.027,0,.027.026.027.052.053a.373.373,0,0,1,.132.289.4.4,0,0,1-.1.263.378.378,0,0,1-.289.131.306.306,0,0,1-.264-.105.326.326,0,0,1-.132-.263.392.392,0,0,1,.106-.289l.078-.079c-.21,0-.446.027-.658.027h-.052c.025.026.077.052.105.078a.419.419,0,0,1,.13.263v.027a.464.464,0,0,1-.1.263.422.422,0,0,1-.289.132h0a.557.557,0,0,1-.29-.105.478.478,0,0,1-.1-.289h-.027a.322.322,0,0,1,.132-.263c.026-.053.053-.053.079-.079a5.619,5.619,0,0,0-.684.052c.025,0,.052.027.078.053a.4.4,0,0,1,.105.263v.026a.334.334,0,0,1-.105.263.323.323,0,0,1-.262.131h0a.545.545,0,0,1-.29-.105h0a.368.368,0,0,1-.132-.263v-.026a.4.4,0,0,1,.106-.263l.025-.026-.738.079a.406.406,0,0,1,.185.105.361.361,0,0,1,.132.263v.026a.4.4,0,0,1-.1.263.422.422,0,0,1-.289.131.4.4,0,0,1-.29-.105.467.467,0,0,1-.105-.263.292.292,0,0,1,.105-.289l.079-.079-.132.027a16.6,16.6,0,0,0-2.264.579,5.493,5.493,0,0,0-.5,1.184,19.12,19.12,0,0,1,2.526-.815h.027a13.753,13.753,0,0,1,3-.421,18.6,18.6,0,0,1,3.263.132,12.1,12.1,0,0,1,2.447.526,2.34,2.34,0,0,0-.079-.579c-.025-.079-.053-.184-.079-.263Zm-9.767,16.438a.233.233,0,0,1,.315-.184.249.249,0,0,1,.185.316,20.362,20.362,0,0,0,.236,10.468c.58.789,1.185,1.631,1.868,2.472l.186.236c-.211-.683-.395-1.367-.554-2.1a32.069,32.069,0,0,1-.632-4.655.25.25,0,0,1,.237-.289.309.309,0,0,1,.29.237,34.8,34.8,0,0,0,.605,4.6,17.347,17.347,0,0,0,1.131,3.524,16,16,0,0,0,2.4,2.5,2.052,2.052,0,0,0,2.026.316,11.228,11.228,0,0,0,2.737-1.447,40.425,40.425,0,0,0,3.973-3,3.35,3.35,0,0,1,.526-.421l.027-.027c-.711-1.209-1.133-4.155-1.316-5.654h0V177.2l-.053-.421c-.815.552-2.815,1.92-4.236,2.893l-.105.079h0a6,6,0,0,0-.947.815,11.4,11.4,0,0,0,.211,3.472.318.318,0,0,1-.186.341.27.27,0,0,1-.315-.184,9.088,9.088,0,0,1-.264-2.866,2.262,2.262,0,0,0-.341.762.255.255,0,0,1-.316.21c-.079-.026-.132-.052-.157-.131a8.129,8.129,0,0,0-.58,2.814.284.284,0,0,1-.264.263.262.262,0,0,1-.262-.263,10.425,10.425,0,0,1,.946-3.866,4.382,4.382,0,0,0-1.316,3.472.306.306,0,0,1-.236.289.261.261,0,0,1-.289-.236,4.933,4.933,0,0,1,1.5-3.919,4,4,0,0,0-1.658,1.709.232.232,0,0,1-.342.106.261.261,0,0,1-.131-.342,4.923,4.923,0,0,1,2.815-2.367,22.761,22.761,0,0,0-.685-2.236,57.718,57.718,0,0,0-2.316-5.418h0v-.027h0a7.134,7.134,0,0,0-1.367-1.867,7.572,7.572,0,0,0-1.422-1h-.025c-1.58-.868-3.263-1.63-3.633-1.815-.763.342-4.9,2.63-5.053,12.782-.026,1.631-.053,3.209-.077,4.708-.106,5.128-.212,9.467-.028,12.6v.105c.158,2.262.421,3.866.947,4.655.343.473.658.895.921,1.236.976,1.289,1.475,1.946,1.263,3.787v.078a1.37,1.37,0,0,0,.476.947,3.988,3.988,0,0,0,1.578.737,6.185,6.185,0,0,0,1.974.158,3.036,3.036,0,0,0,1.579-.5l.026-.027h.026a2.2,2.2,0,0,0,.341-.394,8.669,8.669,0,0,1,2.764-2.762,19.545,19.545,0,0,0,2.554-2.236c1.526-1.709,3.657-3.708,4.474-4.444a8.414,8.414,0,0,0-6.658,2.682,10.006,10.006,0,0,1-7.788,2.92.261.261,0,0,1-.212-.29.238.238,0,0,1,.29-.236,9.429,9.429,0,0,0,7.342-2.762,9.232,9.232,0,0,1,5.973-2.84,2.577,2.577,0,0,0-.788-.053.227.227,0,0,1-.264-.236.26.26,0,0,1,.236-.289h.08a2.275,2.275,0,0,0-.868-.237h-.106c-.052,0-.1-.026-.158-.026l-.025.026c-2.264.026-4.053,1.6-5.736,3.1-1.368,1.209-2.685,2.367-4.184,2.656-3.5.737-4.711-6.075-4.711-6.1a.26.26,0,0,1,.21-.289.254.254,0,0,1,.315.21s1.105,6.286,4.079,5.681c1.368-.29,2.605-1.394,3.947-2.551,1.657-1.473,3.447-3.051,5.712-3.236h.052a.959.959,0,0,1,.315,0c-.132-.394-.684-.579-.841-.631-1.713.105-3.5,1.236-5.158,2.262-2,1.263-3.816,2.394-5.159,1.578-2.4-1.394-3.158-7-3.158-7.022a.261.261,0,0,1,.21-.29.235.235,0,0,1,.291.211c0,.026.763,5.392,2.921,6.654,1.079.632,2.763-.394,4.605-1.578,1.735-1.052,3.605-2.236,5.447-2.341l-.053-.026c-2.395-.053-4.475,1.367-6.026,2.446-1.422.974-2.448,1.683-3.105.842-1.1-1.5.921-16.754,1.105-18.148a44.464,44.464,0,0,1-3.554-5.917.262.262,0,0,1,.132-.342.261.261,0,0,1,.342.131,43.747,43.747,0,0,0,2.764,4.761,21.24,21.24,0,0,1,.158-9.283Zm-1.287-3.235c.605.289,2.054.973,3.422,1.71h.025a7.041,7.041,0,0,1,1.526,1.1,6.314,6.314,0,0,1,1.29,1.631l1.394-2-7.184-3.735Zm9.736,13.2c0-.026,0-.026.026-.053a6.692,6.692,0,0,1,.868-.789,27.552,27.552,0,0,1-2.288-4.366,34.954,34.954,0,0,0-1.606-3.287l-.185.263c.738,1.552,1.633,3.551,2.264,5.339a21.49,21.49,0,0,1,.815,2.762h0v.026h0l.026.184Zm-13.552,25.3c-.053,1.473-2.71,2.708-5,3.577h.052c2.079-.21,4.5-.474,5.765-1.893a3.976,3.976,0,0,0-.132-1.736,2.481,2.481,0,0,1-.685.053Zm-7.845,4.05c.288-.1.684-.236,1.132-.394,2.288-.841,6.368-2.288,6.184-3.813a.834.834,0,0,1-.185-.132l-.052-.026c-.4-.342-.922-.789-1.527-.447a3.2,3.2,0,0,0-.711.736,5.543,5.543,0,0,1-3.314,2.289c-2,.447-1.9,1.078-1.9,1.157.026.026.026.052.026.105a.264.264,0,0,1-.264.263,3.955,3.955,0,0,0-.683.132,1.519,1.519,0,0,0-.5.368.542.542,0,0,0-.106.158,1.246,1.246,0,0,0,.448,0,2.692,2.692,0,0,0,.92-.132h0a3.4,3.4,0,0,1,.528-.263Zm22.661-5.786c-.026.026-.026.026-.026.053-.027,0-1.789,2.208-.526,3.707a.283.283,0,0,1-.026.368.316.316,0,0,1-.4-.026c-1.184-1.446-.21-3.287.29-4.05a13.719,13.719,0,0,0-1.5.21c-.447.447-.921.841-1.369,1.209-.1.394-.5,2.525.448,3.314.763,0,1.895.106,3.184.236,2.342.21,5.08.474,6.369.132.08-.026.158-.052.264-.078h0a3.8,3.8,0,0,0,2.053-1.71,3.263,3.263,0,0,0,.395-2.472l-.079-.184c-.526-1.578-4.947-4.6-6.236-5.47-.579.552-2.815,2.6-4.448,4.392a34.1,34.1,0,0,1,4.657-.236c3.053.105,3.9,1.657,3.9,1.657a.267.267,0,0,1-.105.368.233.233,0,0,1-.343-.105s-.71-1.289-3.448-1.394c-1.134-.025-2.185.027-3.052.079Zm-3.763,4.813a4.3,4.3,0,0,1-.422-2.866l-.211.158a9.209,9.209,0,0,0-2.632,2.6.536.536,0,0,1-.078.131,28.73,28.73,0,0,0,3.343-.026Zm-5.347-27.063c-.421,3.1-2.025,15.991-1.132,17.2.344.448,1.212-.132,2.4-.947a11.866,11.866,0,0,1,5.605-2.525,1.4,1.4,0,0,1-.289-.552.8.8,0,0,0-.343-.525c-.5-.316-.395-1-.316-1.763a4,4,0,0,0,0-1.683,3.716,3.716,0,0,1,.289-2.472,3.8,3.8,0,0,1-.841-.448,17.716,17.716,0,0,1-2.526-2.63h0v-.026h-.026c-.369-.447-.764-.947-1.237-1.525-.551-.71-1.1-1.42-1.579-2.1Zm-8.157,22.7a1.783,1.783,0,0,1,2.026.552l.053.052a.982.982,0,0,0,.843.132,10.823,10.823,0,0,0-.816-1.184c-.289-.368-.579-.789-.921-1.263a5.668,5.668,0,0,1-.737-2.262c-.158,1.447-.342,3.13-.447,3.972Zm22.527-29.51a3.456,3.456,0,0,1,.658-.868,4.157,4.157,0,0,0,.447-.526.323.323,0,0,1-.184-.289,3.721,3.721,0,0,0-.053-1.158.674.674,0,0,0-.185-.263,5.218,5.218,0,0,1-.289,1.026,6.15,6.15,0,0,0-.369,1.394c0,.184-.026.421-.026.684Zm1.605,3.63c-.263.21-.526.421-.711.579a19.543,19.543,0,0,1,.579,2.078,10.7,10.7,0,0,0,.132-2.656Zm-1.155.92c-.185.158-.29.236-.29.236h0a10.657,10.657,0,0,0,.816,2.893,1.515,1.515,0,0,0,.079-.762,12.461,12.461,0,0,0-.605-2.367Zm-.4-.342a36.1,36.1,0,0,0,4.052-3.577,8.589,8.589,0,0,0,.868-2.262,24.458,24.458,0,0,0,.711-3.761,1.34,1.34,0,0,0-.105-.737,1.1,1.1,0,0,0-.184.394,20.433,20.433,0,0,1-1.395,3.314c-.5.973-1.026,1.762-1.369,1.815a.3.3,0,0,1-.367-.289,9.4,9.4,0,0,1,.867-2.6,9.071,9.071,0,0,0,.554-1.394.2.2,0,0,0-.027-.184.025.025,0,0,0-.025-.026h-.078c-.08.026-.186.131-.317.342-.1.21-.263.579-.421,1h0a9.185,9.185,0,0,1-1.789,3.261,5.1,5.1,0,0,0-1.237,2.867c.053.5.133,1.158.264,1.842Zm-15.158-25.538a14.493,14.493,0,0,1,1.684-.394c.868-.131,1.815-.236,2.79-.289a21,21,0,0,1,3.212.105h0a13.857,13.857,0,0,1,2.026.394,2.687,2.687,0,0,0-.448-.5,2.362,2.362,0,0,0-.263-.237,6.881,6.881,0,0,0-4-1.525,5.881,5.881,0,0,0-4.6,2,4.393,4.393,0,0,0-.317.368Zm6.131,1.736Z" transform="translate(13791.23 -151.031)" fill="none" stroke="#fff" stroke-width="0.5"/>
      </g>
    </g>
  </g>
</svg>
