<svg xmlns="http://www.w3.org/2000/svg" xmlns:xlink="http://www.w3.org/1999/xlink" width="56" height="57" viewBox="0 0 56 57">
  <defs>
    <clipPath id="clip-path">
      <rect id="Rectangle_10" data-name="Rectangle 10" width="56" height="57" rx="28" transform="translate(0.057 -0.308)" fill="#99c0e1" opacity="0.486"/>
    </clipPath>
  </defs>
  <g id="_2" data-name="2" transform="translate(-0.057 0.308)">
    <g id="Mask_Group_2" data-name="Mask Group 2" transform="translate(0 0)" clip-path="url(#clip-path)">
      <text id="Search" transform="translate(56.057 29.692)" fill="#444d5e" font-size="12" font-family="Poppins-SemiBold, Poppins" font-weight="600" opacity="0"><tspan x="0" y="0">Search</tspan></text>
      <g id="read-book-icon" transform="translate(15.693 17.744)">
        <path id="Path_11" data-name="Path 11" d="M2.674,16.342,2.739,4.726H1.428V19.506a22.342,22.342,0,0,1,5.432-.774,15.277,15.277,0,0,1,5.049.8,10.78,10.78,0,0,0-3.46-1.878,12.648,12.648,0,0,0-5-.533.715.715,0,0,1-.77-.651.594.594,0,0,1,0-.123ZM21.917,4.119a.859.859,0,0,1-.008-.108.618.618,0,0,1,.008-.108V1.551a10.913,10.913,0,0,0-4.835.588A6.664,6.664,0,0,0,13.719,4.77v13.4a17.057,17.057,0,0,1,3.718-1.925,10.7,10.7,0,0,1,4.48-.639V4.119ZM23.345,3.3h1.933a.713.713,0,0,1,.713.713V20.437a.713.713,0,0,1-.713.713.694.694,0,0,1-.231-.038,22.137,22.137,0,0,0-5.92-.96A13.741,13.741,0,0,0,13.4,21.319a.719.719,0,0,1-.406.118.729.729,0,0,1-.406-.118,13.7,13.7,0,0,0-5.728-1.168,22.151,22.151,0,0,0-5.92.96.694.694,0,0,1-.231.038A.709.709,0,0,1,0,20.439V4.011A.713.713,0,0,1,.713,3.3H2.745L2.758.916A.712.712,0,0,1,3.325.223h0A11.309,11.309,0,0,1,9.48.694a7.9,7.9,0,0,1,3.551,2.591A8.3,8.3,0,0,1,16.581.806,12.5,12.5,0,0,1,22.734.214a.712.712,0,0,1,.609.7h0V3.3ZM14.41,19.42a15.347,15.347,0,0,1,4.723-.69,22.24,22.24,0,0,1,5.432.774V4.726h-1.22v11.68a.713.713,0,0,1-.713.713.7.7,0,0,1-.165-.019,9.13,9.13,0,0,0-4.55.484A15.941,15.941,0,0,0,14.41,19.42Zm-2.117-1.39V4.749A6.29,6.29,0,0,0,8.975,2.027a9.842,9.842,0,0,0-4.8-.51L4.1,15.648a13.789,13.789,0,0,1,4.789.647,12.2,12.2,0,0,1,3.407,1.734Z" transform="translate(0 0.002)" fill="#5c1fa0" stroke="#5c1fa0" stroke-width="0.5"/>
      </g>
    </g>
  </g>
</svg>
