<svg xmlns="http://www.w3.org/2000/svg" xmlns:xlink="http://www.w3.org/1999/xlink" width="56" height="57" viewBox="0 0 56 57">
  <defs>
    <clipPath id="clip-path">
      <rect id="Rectangle_12" data-name="Rectangle 12" width="56" height="57" rx="28" transform="translate(0.455 -0.308)" fill="#99c0e1" opacity="0.486"/>
    </clipPath>
  </defs>
  <g id="_4" data-name="4" transform="translate(-0.455 0.308)">
    <rect id="Rectangle_8" data-name="Rectangle 8" width="56" height="57" rx="28" transform="translate(0.455 -0.308)" fill="#99c0e1" opacity="0"/>
    <g id="Mask_Group_4" data-name="Mask Group 4" transform="translate(0 0)" clip-path="url(#clip-path)">
      <text id="Profile" transform="translate(56.455 29.692)" fill="#444d5e" font-size="12" font-family="Poppins-SemiBold, Poppins" font-weight="600" opacity="0"><tspan x="0" y="0">Profile</tspan></text>
      <g id="Hand" transform="translate(11.178 15.348)">
        <g id="Group_5" data-name="Group 5" transform="translate(0 0)">
          <path id="Path_21" data-name="Path 21" d="M373.65,276.515h0c0-.067.005-.135.005-.2a5.171,5.171,0,0,0-5.138-5.092,5.289,5.289,0,0,0-4.672,3.038h0a5.289,5.289,0,0,0-4.672-3.038,5.17,5.17,0,0,0-5.138,5.092c0,.068,0,.135.005.2h0s-.29,3.24,3.316,6.778a82.349,82.349,0,0,0,6.491,5.657,82.332,82.332,0,0,0,6.491-5.657C373.94,279.755,373.65,276.515,373.65,276.515Z" transform="translate(-347.056 -271.22)" fill="#5c1fa0"/>
          <g id="Group_4" data-name="Group 4" transform="translate(0 7.564)">
            <path id="Path_22" data-name="Path 22" d="M183.483,470.712a12.412,12.412,0,0,0-1.725-2.662c-.675-.562-.375-1.35.862-1.162s2.924,2.4,3.749,3.411a2.788,2.788,0,0,0,1.762,1.087c3.036.45,3.928.665,5.59,3.289,2.136,3.373.525,4.948-1.724,4.8a5.857,5.857,0,0,1-3.449-1.275s-3.191-2.015-4.428-2.577-3.974-6.3-4.611-7.835-.15-7.01.75-6.973,1.387.562,1.387,2.549a16.749,16.749,0,0,0,.188,2.924" transform="translate(-179.219 -460.815)" fill="none" stroke="#5c1fa0" stroke-linecap="round" stroke-linejoin="round" stroke-miterlimit="10" stroke-width="1.5"/>
            <path id="Path_23" data-name="Path 23" d="M643.385,470.712a12.424,12.424,0,0,1,1.724-2.662c.675-.562.375-1.35-.862-1.162s-2.924,2.4-3.749,3.411a2.788,2.788,0,0,1-1.762,1.087c-3.036.45-3.928.665-5.59,3.289-2.136,3.373-.525,4.948,1.724,4.8a5.856,5.856,0,0,0,3.449-1.275s3.191-2.015,4.428-2.577,3.974-6.3,4.611-7.835.15-7.01-.75-6.973-1.387.562-1.387,2.549a16.754,16.754,0,0,1-.187,2.924" transform="translate(-614.076 -460.815)" fill="none" stroke="#5c1fa0" stroke-linecap="round" stroke-linejoin="round" stroke-miterlimit="10" stroke-width="1.5"/>
          </g>
        </g>
      </g>
    </g>
  </g>
</svg>
