<svg xmlns="http://www.w3.org/2000/svg" xmlns:xlink="http://www.w3.org/1999/xlink" width="124" height="102" viewBox="0 0 124 102">
  <defs>
    <clipPath id="clip-path">
      <rect id="Rectangle_228" data-name="Rectangle 228" width="124" height="102" rx="15" transform="translate(267 589)" fill="#fff"/>
    </clipPath>
    <radialGradient id="radial-gradient" cx="0.5" cy="0.5" r="0.5" gradientUnits="objectBoundingBox">
      <stop offset="0" stop-color="#094068"/>
      <stop offset="1" stop-color="#07263a"/>
    </radialGradient>
  </defs>
  <g id="العشاء" transform="translate(-267 -589)" clip-path="url(#clip-path)">
    <g id="العشاء-2" data-name="العشاء" transform="translate(164 577)">
      <rect id="Rectangle_235" data-name="Rectangle 235" width="126" height="126" transform="translate(102)" fill="url(#radial-gradient)"/>
      <circle id="Ellipse_134" data-name="Ellipse 134" cx="29.149" cy="29.149" r="29.149" transform="translate(126.115 79.01) rotate(-69.872)" fill="#fff"/>
      <path id="Path_898" data-name="Path 898" d="M151.373,42.883a5.082,5.082,0,1,1-5.082-5.082A5.083,5.083,0,0,1,151.373,42.883Z" transform="translate(9.058 8.733)" fill="#e7edf2"/>
      <path id="Path_899" data-name="Path 899" d="M160.371,62a5.5,5.5,0,1,1-5.5-5.5A5.5,5.5,0,0,1,160.371,62Z" transform="translate(10.944 13.053)" fill="#e7edf2"/>
      <path id="Path_900" data-name="Path 900" d="M164.607,42.02a3.2,3.2,0,1,1-3.2-3.2A3.2,3.2,0,0,1,164.607,42.02Z" transform="translate(12.985 8.968)" fill="#e7edf2"/>
      <path id="Path_901" data-name="Path 901" d="M143.016,60.551a3.2,3.2,0,1,1-3.2-3.2A3.2,3.2,0,0,1,143.016,60.551Z" transform="translate(7.997 13.249)" fill="#e7edf2"/>
      <path id="Path_902" data-name="Path 902" d="M167.275,57.634a2.153,2.153,0,1,1-2.153-2.153A2.153,2.153,0,0,1,167.275,57.634Z" transform="translate(14.085 12.817)" fill="#e7edf2"/>
      <g id="Group_293" data-name="Group 293" transform="translate(119.996 52.423)">
        <path id="Path_903" data-name="Path 903" d="M139.535,49.384c-1.209,0-2.2-.706-2.2-1.57s.989-1.57,2.2-1.57h2.3a1.861,1.861,0,1,0,0-3.66H128.13a2.012,2.012,0,0,0-2.2,1.726,2.012,2.012,0,0,1-2.2,1.727h-2.3a2,2,0,0,0-2.2,1.673,1.531,1.531,0,0,1-1.309,1.673c-.719,0-1.309.822-1.309,1.83a2.044,2.044,0,0,0,2.2,1.83h24.8a1.861,1.861,0,1,0,0-3.66Z" transform="translate(-116.619 -42.585)" fill="#2b75a3"/>
      </g>
      <g id="Group_294" data-name="Group 294" transform="translate(175.034 70.63)">
        <path id="Path_904" data-name="Path 904" d="M200.256,65.8a2.044,2.044,0,0,0-2.2-1.83h-7.22c-1.209,0-2.2-.659-2.2-1.466s.967-1.466,2.144-1.466a2.012,2.012,0,0,0,2.144-1.83,2.044,2.044,0,0,0-2.2-1.83H173.05a1.861,1.861,0,1,0,0,3.66h5.65c1.209,0,2.2.659,2.2,1.466s-.989,1.466-2.2,1.466H167.713c-1.209,0-2.2.728-2.2,1.623a1.908,1.908,0,0,1-2.094,1.623,1.98,1.98,0,0,0-2.094,1.83,2.044,2.044,0,0,0,2.2,1.83h11.094c1.209,0,2.2-.728,2.2-1.623s.989-1.623,2.2-1.623h19.045A2.044,2.044,0,0,0,200.256,65.8Z" transform="translate(-161.328 -57.375)" fill="#2b75a3"/>
      </g>
    </g>
    <rect id="Rectangle_240" data-name="Rectangle 240" width="124" height="102" transform="translate(268 589)" opacity="0.3"/>
  </g>
</svg>
