<svg xmlns="http://www.w3.org/2000/svg" width="428" height="90" viewBox="0 0 428 90">
  <g id="أذكار_المسجد" data-name="أذكار المسجد" transform="translate(126 19)">
    <g id="Group_144" data-name="Group 144">
      <path id="Path_773" data-name="Path 773" d="M0,0H428V90H0Z" transform="translate(-126 -19)" fill="#08b6eb"/>
      <path id="Path_783" data-name="Path 783" d="M-126,71,182.8,2.113,300.892,71Z" fill="#fff" opacity="0.1"/>
      <g id="مسجد" transform="translate(-272.77 -353.404)">
        <g id="Group_99" data-name="Group 99" transform="translate(222.065 352.44)">
          <rect id="Rectangle_75" data-name="Rectangle 75" width="4.654" height="43.746" transform="translate(0.624 9.24)" fill="none" stroke="#fff" stroke-width="0.5"/>
          <g id="Group_94" data-name="Group 94">
            <g id="Group_93" data-name="Group 93">
              <rect id="Rectangle_76" data-name="Rectangle 76" width="0.221" height="0.694" transform="translate(2.809 2.141)" fill="none" stroke="#fff" stroke-width="0.5"/>
              <rect id="Rectangle_77" data-name="Rectangle 77" width="0.146" height="0.694" transform="translate(2.847 1.51)" fill="none" stroke="#fff" stroke-width="0.5"/>
              <rect id="Rectangle_78" data-name="Rectangle 78" width="0.105" height="0.694" transform="translate(2.867 0.93)" fill="none" stroke="#fff" stroke-width="0.5"/>
              <path id="Path_601" data-name="Path 601" d="M229.962,402.82h-.606v.007c-1.17,1.374-3.793,2.523-2.045,4.456H227.2v.379h4.913v-.379h-.106C233.763,405.346,231.129,404.2,229.962,402.82Z" transform="translate(-226.726 -399.822)" fill="none" stroke="#fff" stroke-width="0.5"/>
              <path id="Path_602" data-name="Path 602" d="M229.659,402.82h-.3v.007c-1.17,1.374-3.793,2.523-2.045,4.456H227.2v.379h2.455Z" transform="translate(-226.726 -399.822)" fill="none" stroke="#fff" stroke-width="0.5" opacity="0.2"/>
              <rect id="Rectangle_79" data-name="Rectangle 79" width="4.638" height="1.058" transform="translate(0.639 7.839)" fill="none" stroke="#fff" stroke-width="0.5"/>
              <rect id="Rectangle_80" data-name="Rectangle 80" width="4.913" height="0.379" transform="translate(0.478 7.461)" fill="none" stroke="#fff" stroke-width="0.5"/>
              <path id="Path_603" data-name="Path 603" d="M271.379,398.98h-.33a.138.138,0,0,0-.139.139v.089h.608v-.089A.14.14,0,0,0,271.379,398.98Z" transform="translate(-268.281 -396.21)" fill="none" stroke="#fff" stroke-width="0.5"/>
              <rect id="Rectangle_81" data-name="Rectangle 81" width="0.105" height="0.11" transform="translate(2.867 0.965)" fill="none" stroke="#fff" stroke-width="0.5" opacity="0.2"/>
              <rect id="Rectangle_82" data-name="Rectangle 82" width="0.146" height="0.11" transform="translate(2.847 1.663)" fill="none" stroke="#fff" stroke-width="0.5" opacity="0.2"/>
              <rect id="Rectangle_83" data-name="Rectangle 83" width="0.221" height="0.11" transform="translate(2.809 2.461)" fill="none" stroke="#fff" stroke-width="0.5" opacity="0.2"/>
              <path id="Path_604" data-name="Path 604" d="M269.1,353.25a.579.579,0,0,1-.53-.81.578.578,0,1,0,.869.7A.574.574,0,0,1,269.1,353.25Z" transform="translate(-265.854 -352.44)" fill="none" stroke="#fff" stroke-width="0.5"/>
              <path id="Path_605" data-name="Path 605" d="M272.1,373.2a.249.249,0,1,1-.249-.249A.249.249,0,0,1,272.1,373.2Z" transform="translate(-268.93 -371.729)" fill="none" stroke="#fff" stroke-width="0.5"/>
              <path id="Path_606" data-name="Path 606" d="M271.279,384.675a.3.3,0,1,1-.3-.3A.3.3,0,0,1,271.279,384.675Z" transform="translate(-268.055 -382.47)" fill="none" stroke="#fff" stroke-width="0.5"/>
              <path id="Path_607" data-name="Path 607" d="M243.558,402.82h-.427v.007c-.825,1.374-2.674,2.523-1.442,4.456H245C246.238,405.346,244.381,404.2,243.558,402.82Zm-.187.1c.091.318.207.628.319.929a7.915,7.915,0,0,1,.457,1.545,4.193,4.193,0,0,1-.115,1.8H242.66a4.2,4.2,0,0,1-.115-1.8,7.915,7.915,0,0,1,.457-1.545c.112-.3.228-.611.319-.929Zm-1.984,3.337a1.847,1.847,0,0,1,.092-.848,5.4,5.4,0,0,1,.994-1.534,9.254,9.254,0,0,0,.714-.956h.035c-.381,1.313-1.159,2.437-.661,4.272h-.82A2.348,2.348,0,0,1,241.387,406.253Zm3.564.935h-.82c.5-1.835-.28-2.959-.661-4.272h.035a9.193,9.193,0,0,0,.714.956,5.384,5.384,0,0,1,.994,1.534,1.829,1.829,0,0,1,.092.847A2.345,2.345,0,0,1,244.951,407.188Z" transform="translate(-240.412 -399.822)" fill="none" stroke="#fff" stroke-width="0.5" opacity="0.2"/>
            </g>
            <rect id="Rectangle_84" data-name="Rectangle 84" width="4.638" height="0.07" transform="translate(0.639 7.839)" fill="none" stroke="#fff" stroke-width="0.5" opacity="0.2"/>
          </g>
          <path id="Path_608" data-name="Path 608" d="M234.543,862.33H228.9l.495,1.247h4.654Z" transform="translate(-228.771 -831.986)" fill="none" stroke="#fff" stroke-width="0.5"/>
          <rect id="Rectangle_85" data-name="Rectangle 85" width="5.643" height="1.75" transform="translate(0.129 28.594)" fill="none" stroke="#fff" stroke-width="0.5"/>
          <path id="Path_609" data-name="Path 609" d="M228.9,832.92v1.75h5.643v-1.75Zm.625,1.256h-.456v-1.1h.456Zm.606,0h-.456v-1.1h.456Zm.606,0h-.456v-1.1h.456Zm.606,0h-.456v-1.1h.456Zm.606,0h-.456v-1.1h.456Zm.606,0H232.1v-1.1h.456Zm.606,0h-.456v-1.1h.456Zm.606,0h-.456v-1.1h.456Zm.606,0h-.456v-1.1h.456Z" transform="translate(-228.771 -804.326)" fill="none" stroke="#fff" stroke-width="0.5"/>
          <g id="Group_95" data-name="Group 95" transform="translate(0.298 28.018)">
            <path id="Path_610" data-name="Path 610" d="M231.917,823.24a.522.522,0,0,0-.188.392v.184h.376v-.184A.522.522,0,0,0,231.917,823.24Z" transform="translate(-231.729 -823.24)" fill="none" stroke="#fff" stroke-width="0.5"/>
            <path id="Path_611" data-name="Path 611" d="M240.2,823.24a.522.522,0,0,0-.188.392v.184h.376v-.184A.522.522,0,0,0,240.2,823.24Z" transform="translate(-239.517 -823.24)" fill="none" stroke="#fff" stroke-width="0.5"/>
            <path id="Path_612" data-name="Path 612" d="M248.487,823.24a.522.522,0,0,0-.188.392v.184h.376v-.184A.524.524,0,0,0,248.487,823.24Z" transform="translate(-247.313 -823.24)" fill="none" stroke="#fff" stroke-width="0.5"/>
            <path id="Path_613" data-name="Path 613" d="M256.767,823.24a.522.522,0,0,0-.188.392v.184h.376v-.184A.522.522,0,0,0,256.767,823.24Z" transform="translate(-255.1 -823.24)" fill="none" stroke="#fff" stroke-width="0.5"/>
            <path id="Path_614" data-name="Path 614" d="M265.047,823.24a.522.522,0,0,0-.188.392v.184h.376v-.184A.522.522,0,0,0,265.047,823.24Z" transform="translate(-262.888 -823.24)" fill="none" stroke="#fff" stroke-width="0.5"/>
            <path id="Path_615" data-name="Path 615" d="M273.337,823.24a.522.522,0,0,0-.188.392v.184h.376v-.184A.527.527,0,0,0,273.337,823.24Z" transform="translate(-270.684 -823.24)" fill="none" stroke="#fff" stroke-width="0.5"/>
            <path id="Path_616" data-name="Path 616" d="M281.617,823.24a.522.522,0,0,0-.188.392v.184h.376v-.184A.522.522,0,0,0,281.617,823.24Z" transform="translate(-278.472 -823.24)" fill="none" stroke="#fff" stroke-width="0.5"/>
            <path id="Path_617" data-name="Path 617" d="M289.9,823.24a.522.522,0,0,0-.188.392v.184h.376v-.184A.522.522,0,0,0,289.9,823.24Z" transform="translate(-286.259 -823.24)" fill="none" stroke="#fff" stroke-width="0.5"/>
            <path id="Path_618" data-name="Path 618" d="M298.177,823.24a.522.522,0,0,0-.188.392v.184h.376v-.184A.522.522,0,0,0,298.177,823.24Z" transform="translate(-294.046 -823.24)" fill="none" stroke="#fff" stroke-width="0.5"/>
            <path id="Path_619" data-name="Path 619" d="M306.467,823.24a.522.522,0,0,0-.188.392v.184h.376v-.184A.524.524,0,0,0,306.467,823.24Z" transform="translate(-301.843 -823.24)" fill="none" stroke="#fff" stroke-width="0.5"/>
            <path id="Path_620" data-name="Path 620" d="M314.747,823.24a.521.521,0,0,0-.188.392v.184h.376v-.184A.522.522,0,0,0,314.747,823.24Z" transform="translate(-309.63 -823.24)" fill="none" stroke="#fff" stroke-width="0.5"/>
          </g>
          <path id="Path_621" data-name="Path 621" d="M234.543,659.09H228.9l.495,1.247h4.654Z" transform="translate(-228.771 -640.841)" fill="none" stroke="#fff" stroke-width="0.5"/>
          <rect id="Rectangle_86" data-name="Rectangle 86" width="5.643" height="1.75" transform="translate(0.129 16.5)" fill="none" stroke="#fff" stroke-width="0.5"/>
          <path id="Path_622" data-name="Path 622" d="M228.9,629.69v1.75h5.643v-1.75Zm.625,1.255h-.456v-1.1h.456Zm.606,0h-.456v-1.1h.456Zm.606,0h-.456v-1.1h.456Zm.606,0h-.456v-1.1h.456Zm.606,0h-.456v-1.1h.456Zm.606,0H232.1v-1.1h.456Zm.606,0h-.456v-1.1h.456Zm.606,0h-.456v-1.1h.456Zm.606,0h-.456v-1.1h.456Z" transform="translate(-228.771 -613.19)" fill="none" stroke="#fff" stroke-width="0.5"/>
          <g id="Group_96" data-name="Group 96" transform="translate(0.298 15.923)">
            <path id="Path_623" data-name="Path 623" d="M231.917,620a.522.522,0,0,0-.188.392v.184h.376v-.184A.522.522,0,0,0,231.917,620Z" transform="translate(-231.729 -620)" fill="none" stroke="#fff" stroke-width="0.5"/>
            <path id="Path_624" data-name="Path 624" d="M240.2,620a.522.522,0,0,0-.188.392v.184h.376v-.184A.522.522,0,0,0,240.2,620Z" transform="translate(-239.517 -620)" fill="none" stroke="#fff" stroke-width="0.5"/>
            <path id="Path_625" data-name="Path 625" d="M248.487,620a.522.522,0,0,0-.188.392v.184h.376v-.184A.524.524,0,0,0,248.487,620Z" transform="translate(-247.313 -620)" fill="none" stroke="#fff" stroke-width="0.5"/>
            <path id="Path_626" data-name="Path 626" d="M256.767,620a.522.522,0,0,0-.188.392v.184h.376v-.184A.522.522,0,0,0,256.767,620Z" transform="translate(-255.1 -620)" fill="none" stroke="#fff" stroke-width="0.5"/>
            <path id="Path_627" data-name="Path 627" d="M265.047,620a.522.522,0,0,0-.188.392v.184h.376v-.184A.522.522,0,0,0,265.047,620Z" transform="translate(-262.888 -620)" fill="none" stroke="#fff" stroke-width="0.5"/>
            <path id="Path_628" data-name="Path 628" d="M273.337,620a.522.522,0,0,0-.188.392v.184h.376v-.184A.527.527,0,0,0,273.337,620Z" transform="translate(-270.684 -620)" fill="none" stroke="#fff" stroke-width="0.5"/>
            <path id="Path_629" data-name="Path 629" d="M281.617,620a.522.522,0,0,0-.188.392v.184h.376v-.184A.522.522,0,0,0,281.617,620Z" transform="translate(-278.472 -620)" fill="none" stroke="#fff" stroke-width="0.5"/>
            <path id="Path_630" data-name="Path 630" d="M289.9,620a.522.522,0,0,0-.188.392v.184h.376v-.184A.522.522,0,0,0,289.9,620Z" transform="translate(-286.259 -620)" fill="none" stroke="#fff" stroke-width="0.5"/>
            <path id="Path_631" data-name="Path 631" d="M298.177,620a.522.522,0,0,0-.188.392v.184h.376v-.184A.522.522,0,0,0,298.177,620Z" transform="translate(-294.046 -620)" fill="none" stroke="#fff" stroke-width="0.5"/>
            <path id="Path_632" data-name="Path 632" d="M306.467,620a.522.522,0,0,0-.188.392v.184h.376v-.184A.524.524,0,0,0,306.467,620Z" transform="translate(-301.843 -620)" fill="none" stroke="#fff" stroke-width="0.5"/>
            <path id="Path_633" data-name="Path 633" d="M314.747,620a.522.522,0,0,0-.188.392v.184h.376v-.184A.522.522,0,0,0,314.747,620Z" transform="translate(-309.63 -620)" fill="none" stroke="#fff" stroke-width="0.5"/>
          </g>
          <rect id="Rectangle_87" data-name="Rectangle 87" width="5.063" height="0.436" transform="translate(0.419 8.804)" fill="none" stroke="#fff" stroke-width="0.5"/>
          <rect id="Rectangle_88" data-name="Rectangle 88" width="4.654" height="0.164" transform="translate(0.624 9.24)" fill="none" stroke="#fff" stroke-width="0.5" opacity="0.2"/>
          <g id="Group_97" data-name="Group 97" transform="translate(2.041 10.949)">
            <path id="Path_634" data-name="Path 634" d="M266.176,542.961H264.72v-2.155a.706.706,0,0,1,.706-.706h.045a.706.706,0,0,1,.706.706Z" transform="translate(-264.5 -539.881)" fill="none" stroke="#fff" stroke-width="0.5"/>
            <path id="Path_635" data-name="Path 635" d="M268.595,540.1h-.029a.713.713,0,0,0-.515.22h.066a.714.714,0,0,1,.714.714v1.928h.478v-2.147A.714.714,0,0,0,268.595,540.1Z" transform="translate(-267.632 -539.881)" fill="none" stroke="#fff" stroke-width="0.5" opacity="0.2"/>
            <path id="Path_636" data-name="Path 636" d="M261.977,536.42a.948.948,0,0,0-.947.947v2.352h1.894v-2.352A.948.948,0,0,0,261.977,536.42Zm.728,3.08H261.25v-2.133a.728.728,0,1,1,1.456,0V539.5Z" transform="translate(-261.03 -536.42)" fill="none" stroke="#fff" stroke-width="0.5"/>
          </g>
          <g id="Group_98" data-name="Group 98" transform="translate(2.041 21.907)">
            <path id="Path_637" data-name="Path 637" d="M266.176,727.1H264.72v-2.155a.706.706,0,0,1,.706-.706h.045a.706.706,0,0,1,.706.706Z" transform="translate(-264.5 -724.02)" fill="none" stroke="#fff" stroke-width="0.5"/>
            <path id="Path_638" data-name="Path 638" d="M268.595,724.24h-.029a.713.713,0,0,0-.515.22h.066a.714.714,0,0,1,.714.714V727.1h.478v-2.147A.713.713,0,0,0,268.595,724.24Z" transform="translate(-267.632 -724.02)" fill="none" stroke="#fff" stroke-width="0.5" opacity="0.2"/>
            <path id="Path_639" data-name="Path 639" d="M261.977,720.55a.948.948,0,0,0-.947.947v2.352h1.894V721.5A.947.947,0,0,0,261.977,720.55Zm.728,3.08H261.25V721.5a.728.728,0,1,1,1.456,0v2.133Z" transform="translate(-261.03 -720.55)" fill="none" stroke="#fff" stroke-width="0.5"/>
          </g>
        </g>
        <path id="Path_640" data-name="Path 640" d="M252.89,1044.366h.963V1031.81H253.6Z" transform="translate(-29.268 -638.94)" fill="none" stroke="#fff" stroke-width="0.5" opacity="0.2"/>
        <g id="Group_106" data-name="Group 106" transform="translate(224.258 373.806)">
          <g id="Group_101" data-name="Group 101" transform="translate(4.086)">
            <g id="Group_100" data-name="Group 100">
              <rect id="Rectangle_89" data-name="Rectangle 89" width="0.474" height="1.491" transform="translate(6.032 4.597)" fill="none" stroke="#fff" stroke-width="0.5"/>
              <rect id="Rectangle_90" data-name="Rectangle 90" width="0.313" height="1.491" transform="translate(6.113 3.245)" fill="none" stroke="#fff" stroke-width="0.5"/>
              <rect id="Rectangle_91" data-name="Rectangle 91" width="0.224" height="1.491" transform="translate(6.157 1.997)" fill="none" stroke="#fff" stroke-width="0.5"/>
              <path id="Path_641" data-name="Path 641" d="M339.184,819.65h-1.3v.014c-2.511,2.951-8.145,5.417-4.391,9.569h-.227v.813h10.549v-.813h-.227C347.347,825.074,341.69,822.607,339.184,819.65Z" transform="translate(-332.238 -813.212)" fill="none" stroke="#fff" stroke-width="0.5"/>
              <path id="Path_642" data-name="Path 642" d="M338.545,819.65h-.653v.014c-2.511,2.951-8.145,5.417-4.391,9.569h-.227v.813h5.271Z" transform="translate(-332.247 -813.212)" fill="none" stroke="#fff" stroke-width="0.5" opacity="0.2"/>
              <rect id="Rectangle_92" data-name="Rectangle 92" width="9.96" height="2.27" transform="translate(1.373 16.835)" fill="none" stroke="#fff" stroke-width="0.5"/>
              <rect id="Rectangle_93" data-name="Rectangle 93" width="10.549" height="0.814" transform="translate(1.027 16.022)" fill="none" stroke="#fff" stroke-width="0.5"/>
              <path id="Path_643" data-name="Path 643" d="M363.519,1001.543c.012-.265-.364-.451-.481-.683-.117.232-.493.418-.481.683h0v1.2h.962v-1.2Z" transform="translate(-360.752 -983.638)" fill="none" stroke="#fff" stroke-width="0.5"/>
              <path id="Path_644" data-name="Path 644" d="M368.009,1001.543c.012-.265-.364-.451-.481-.683a1,1,0,0,1-.2.239c.156.174.392.335.383.546h0v1.1h.3v-1.2Z" transform="translate(-365.242 -983.638)" fill="none" stroke="#fff" stroke-width="0.5" opacity="0.2"/>
              <path id="Path_645" data-name="Path 645" d="M386.279,1001.543c.012-.265-.364-.451-.481-.683-.117.232-.493.418-.481.683h0v1.2h.962v-1.2Z" transform="translate(-382.157 -983.638)" fill="none" stroke="#fff" stroke-width="0.5"/>
              <path id="Path_646" data-name="Path 646" d="M409.039,1001.543c.012-.265-.364-.451-.481-.683-.117.232-.493.418-.481.683h0v1.2h.963v-1.2Z" transform="translate(-403.563 -983.638)" fill="none" stroke="#fff" stroke-width="0.5"/>
              <path id="Path_647" data-name="Path 647" d="M431.809,1001.543c.012-.265-.364-.451-.481-.683-.117.232-.493.418-.481.683h0v1.2h.963v-1.2Z" transform="translate(-424.978 -983.638)" fill="none" stroke="#fff" stroke-width="0.5"/>
              <path id="Path_648" data-name="Path 648" d="M454.569,1001.543c.012-.265-.364-.451-.481-.683-.117.232-.493.418-.481.683h0v1.2h.962v-1.2Z" transform="translate(-446.383 -983.638)" fill="none" stroke="#fff" stroke-width="0.5"/>
              <path id="Path_649" data-name="Path 649" d="M477.329,1001.543c.012-.265-.364-.451-.481-.683-.117.232-.493.418-.481.683h0v1.2h.962v-1.2Z" transform="translate(-467.789 -983.638)" fill="none" stroke="#fff" stroke-width="0.5"/>
              <path id="Path_650" data-name="Path 650" d="M500.089,1001.543c.012-.265-.364-.451-.481-.683-.117.232-.493.418-.481.683h0v1.2h.963v-1.2Z" transform="translate(-489.194 -983.638)" fill="none" stroke="#fff" stroke-width="0.5"/>
              <path id="Path_651" data-name="Path 651" d="M428.257,811.41h-1.028a.138.138,0,0,0-.139.139v.352H428.4v-.352A.138.138,0,0,0,428.257,811.41Z" transform="translate(-421.445 -805.462)" fill="none" stroke="#fff" stroke-width="0.5"/>
              <rect id="Rectangle_94" data-name="Rectangle 94" width="0.224" height="0.235" transform="translate(6.157 2.073)" fill="none" stroke="#fff" stroke-width="0.5" opacity="0.2"/>
              <rect id="Rectangle_95" data-name="Rectangle 95" width="0.313" height="0.235" transform="translate(6.113 3.572)" fill="none" stroke="#fff" stroke-width="0.5" opacity="0.2"/>
              <rect id="Rectangle_96" data-name="Rectangle 96" width="0.474" height="0.235" transform="translate(6.032 5.285)" fill="none" stroke="#fff" stroke-width="0.5" opacity="0.2"/>
              <path id="Path_652" data-name="Path 652" d="M423.214,713.2a1.242,1.242,0,0,1-1.138-1.74,1.242,1.242,0,1,0,1.866,1.5A1.231,1.231,0,0,1,423.214,713.2Z" transform="translate(-416.244 -711.46)" fill="none" stroke="#fff" stroke-width="0.5"/>
              <path id="Path_653" data-name="Path 653" d="M429.678,756.063a.534.534,0,1,1-.534-.533A.534.534,0,0,1,429.678,756.063Z" transform="translate(-422.875 -752.907)" fill="none" stroke="#fff" stroke-width="0.5"/>
              <circle id="Ellipse_128" data-name="Ellipse 128" cx="0.654" cy="0.654" r="0.654" transform="translate(5.607 4.09) rotate(-0.796)" fill="none" stroke="#fff" stroke-width="0.5"/>
              <path id="Path_654" data-name="Path 654" d="M368.375,819.65h-.918v.014c-1.771,2.951-5.742,5.417-3.1,9.569h7.118C374.129,825.074,370.142,822.607,368.375,819.65Zm-.4.2c.2.684.444,1.35.685,1.995a16.979,16.979,0,0,1,.982,3.317,9,9,0,0,1-.246,3.862h-2.946a9,9,0,0,1-.246-3.862,16.983,16.983,0,0,1,.982-3.317c.24-.645.489-1.311.685-1.995Zm-4.26,7.168a3.95,3.95,0,0,1,.2-1.821,11.572,11.572,0,0,1,2.135-3.295,19.838,19.838,0,0,0,1.534-2.052h.074c-.819,2.818-2.488,5.233-1.419,9.174h-1.761A5.036,5.036,0,0,1,363.713,827.022Zm7.653,2.007H369.6c1.069-3.941-.6-6.356-1.419-9.174h.074a19.9,19.9,0,0,0,1.534,2.053,11.589,11.589,0,0,1,2.135,3.295,3.949,3.949,0,0,1,.2,1.82A5.041,5.041,0,0,1,371.366,829.029Z" transform="translate(-361.618 -813.212)" fill="none" stroke="#fff" stroke-width="0.5"/>
              <path id="Path_655" data-name="Path 655" d="M390.769,1001.543c.012-.265-.364-.451-.481-.683a1,1,0,0,1-.2.239c.156.174.392.335.383.546h0v1.1h.3v-1.2Z" transform="translate(-386.647 -983.638)" fill="none" stroke="#fff" stroke-width="0.5" opacity="0.2"/>
              <path id="Path_656" data-name="Path 656" d="M413.529,1001.543c.012-.265-.364-.451-.481-.683a1,1,0,0,1-.2.239c.156.174.392.335.383.546h0v1.1h.3v-1.2Z" transform="translate(-408.053 -983.638)" fill="none" stroke="#fff" stroke-width="0.5" opacity="0.2"/>
              <path id="Path_657" data-name="Path 657" d="M436.3,1001.543c.012-.265-.364-.451-.481-.683a1,1,0,0,1-.2.239c.156.174.392.335.383.546h0v1.1h.3v-1.2Z" transform="translate(-429.468 -983.638)" fill="none" stroke="#fff" stroke-width="0.5" opacity="0.2"/>
              <path id="Path_658" data-name="Path 658" d="M459.059,1001.543c.012-.265-.364-.451-.481-.683a1,1,0,0,1-.2.239c.156.174.392.335.383.546h0v1.1h.3v-1.2Z" transform="translate(-450.873 -983.638)" fill="none" stroke="#fff" stroke-width="0.5" opacity="0.2"/>
              <path id="Path_659" data-name="Path 659" d="M481.819,1001.543c.012-.265-.364-.451-.481-.683a1,1,0,0,1-.2.239c.156.174.392.335.383.546h0v1.1h.3v-1.2Z" transform="translate(-472.279 -983.638)" fill="none" stroke="#fff" stroke-width="0.5" opacity="0.2"/>
              <path id="Path_660" data-name="Path 660" d="M504.579,1001.543c.012-.265-.364-.451-.481-.683a1,1,0,0,1-.2.239c.156.174.392.335.383.546h0v1.1h.3v-1.2Z" transform="translate(-493.684 -983.638)" fill="none" stroke="#fff" stroke-width="0.5" opacity="0.2"/>
            </g>
            <rect id="Rectangle_97" data-name="Rectangle 97" width="9.96" height="0.149" transform="translate(11.23 16.984) rotate(180)" fill="none" stroke="#fff" stroke-width="0.5" opacity="0.2"/>
          </g>
          <rect id="Rectangle_98" data-name="Rectangle 98" width="19.989" height="11.833" transform="translate(20.316 31.62) rotate(180)" fill="none" stroke="#fff" stroke-width="0.5"/>
          <rect id="Rectangle_99" data-name="Rectangle 99" width="20.317" height="0.572" transform="translate(20.317 20.924) rotate(180)" fill="none" stroke="#fff" stroke-width="0.5"/>
          <rect id="Rectangle_100" data-name="Rectangle 100" width="19.989" height="0.198" transform="translate(20.316 21.121) rotate(180)" fill="none" stroke="#fff" stroke-width="0.5" opacity="0.2"/>
          <rect id="Rectangle_101" data-name="Rectangle 101" width="19.917" height="1.359" transform="translate(20.244 31.62) rotate(180)" fill="none" stroke="#fff" stroke-width="0.5"/>
          <g id="Group_102" data-name="Group 102" transform="translate(15.978 22.217)">
            <path id="Path_661" data-name="Path 661" d="M538.62,1100.362h2.595v-7.932a1.08,1.08,0,0,0-1.08-1.08H539.7a1.08,1.08,0,0,0-1.08,1.08Z" transform="translate(-538.23 -1090.96)" fill="none" stroke="#fff" stroke-width="0.5"/>
            <path id="Path_662" data-name="Path 662" d="M533.748,1084.79a1.69,1.69,0,0,1,1.688,1.688v7.715h-.39v-7.715a1.3,1.3,0,1,0-2.595,0v5.781h0v1.934h-.39v-7.715A1.69,1.69,0,0,1,533.748,1084.79Z" transform="translate(-532.06 -1084.79)" fill="none" stroke="#fff" stroke-width="0.5"/>
            <path id="Path_663" data-name="Path 663" d="M539.917,1091.36h0a1.292,1.292,0,0,1,.966.432h-.054a1.3,1.3,0,0,0-1.3,1.3v7.284h-.912v-7.714A1.3,1.3,0,0,1,539.917,1091.36Z" transform="translate(-538.23 -1090.969)" fill="none" stroke="#fff" stroke-width="0.5" opacity="0.2"/>
          </g>
          <g id="Group_103" data-name="Group 103" transform="translate(11.264 22.217)">
            <path id="Path_664" data-name="Path 664" d="M459.41,1100.362H462v-7.932a1.08,1.08,0,0,0-1.08-1.08h-.434a1.08,1.08,0,0,0-1.08,1.08Z" transform="translate(-459.02 -1090.96)" fill="none" stroke="#fff" stroke-width="0.5"/>
            <path id="Path_665" data-name="Path 665" d="M454.538,1084.79a1.69,1.69,0,0,1,1.688,1.688v7.715h-.39v-7.715a1.3,1.3,0,1,0-2.595,0v5.781h0v1.934h-.39v-7.715A1.69,1.69,0,0,1,454.538,1084.79Z" transform="translate(-452.85 -1084.79)" fill="none" stroke="#fff" stroke-width="0.5"/>
            <path id="Path_666" data-name="Path 666" d="M460.707,1091.36h0a1.291,1.291,0,0,1,.966.432h-.054a1.3,1.3,0,0,0-1.3,1.3v7.284h-.912v-7.714A1.3,1.3,0,0,1,460.707,1091.36Z" transform="translate(-459.02 -1090.969)" fill="none" stroke="#fff" stroke-width="0.5" opacity="0.2"/>
          </g>
          <g id="Group_104" data-name="Group 104" transform="translate(6.55 22.217)">
            <path id="Path_667" data-name="Path 667" d="M380.2,1100.362h2.595v-7.932a1.08,1.08,0,0,0-1.08-1.08h-.434a1.08,1.08,0,0,0-1.08,1.08Z" transform="translate(-379.81 -1090.96)" fill="none" stroke="#fff" stroke-width="0.5"/>
            <path id="Path_668" data-name="Path 668" d="M375.328,1084.79a1.69,1.69,0,0,1,1.688,1.688v7.715h-.39v-7.715a1.3,1.3,0,1,0-2.595,0v5.781h0v1.934h-.39v-7.715A1.69,1.69,0,0,1,375.328,1084.79Z" transform="translate(-373.64 -1084.79)" fill="none" stroke="#fff" stroke-width="0.5"/>
            <path id="Path_669" data-name="Path 669" d="M381.5,1091.36h0a1.292,1.292,0,0,1,.966.432h-.054a1.3,1.3,0,0,0-1.3,1.3v7.284H380.2v-7.714A1.3,1.3,0,0,1,381.5,1091.36Z" transform="translate(-379.81 -1090.969)" fill="none" stroke="#fff" stroke-width="0.5" opacity="0.2"/>
          </g>
          <g id="Group_105" data-name="Group 105" transform="translate(1.836 22.217)">
            <path id="Path_670" data-name="Path 670" d="M300.99,1100.362h2.595v-7.932a1.08,1.08,0,0,0-1.08-1.08h-.434a1.08,1.08,0,0,0-1.08,1.08Z" transform="translate(-300.6 -1090.96)" fill="none" stroke="#fff" stroke-width="0.5"/>
            <path id="Path_671" data-name="Path 671" d="M296.118,1084.79a1.69,1.69,0,0,1,1.688,1.688v7.715h-.39v-7.715a1.3,1.3,0,1,0-2.595,0v5.781h0v1.934h-.39v-7.715A1.69,1.69,0,0,1,296.118,1084.79Z" transform="translate(-294.43 -1084.79)" fill="none" stroke="#fff" stroke-width="0.5"/>
            <path id="Path_672" data-name="Path 672" d="M302.287,1091.36h0a1.291,1.291,0,0,1,.966.432H303.2a1.3,1.3,0,0,0-1.3,1.3v7.284h-.912v-7.714A1.3,1.3,0,0,1,302.287,1091.36Z" transform="translate(-300.6 -1090.969)" fill="none" stroke="#fff" stroke-width="0.5" opacity="0.2"/>
          </g>
          <rect id="Rectangle_102" data-name="Rectangle 102" width="20.122" height="0.361" transform="translate(20.317 19.786) rotate(180)" fill="none" stroke="#fff" stroke-width="0.5"/>
          <rect id="Rectangle_103" data-name="Rectangle 103" width="20.245" height="0.361" transform="translate(20.316 19.426) rotate(180)" fill="none" stroke="#fff" stroke-width="0.5"/>
          <rect id="Rectangle_104" data-name="Rectangle 104" width="20.122" height="0.133" transform="translate(20.317 19.558) rotate(180)" fill="none" stroke="#fff" stroke-width="0.5" opacity="0.2"/>
          <rect id="Rectangle_105" data-name="Rectangle 105" width="19.989" height="0.133" transform="translate(20.316 19.919) rotate(180)" fill="none" stroke="#fff" stroke-width="0.5" opacity="0.2"/>
        </g>
        <path id="Path_673" data-name="Path 673" d="M588.78,1044.366h.963V1031.81h-.228Z" transform="translate(-345.169 -638.94)" fill="none" stroke="#fff" stroke-width="0.5" opacity="0.2"/>
        <g id="Group_113" data-name="Group 113" transform="translate(280.324 352.44)">
          <rect id="Rectangle_106" data-name="Rectangle 106" width="4.654" height="43.746" transform="translate(0.624 9.24)" fill="none" stroke="#fff" stroke-width="0.5"/>
          <g id="Group_108" data-name="Group 108">
            <g id="Group_107" data-name="Group 107">
              <rect id="Rectangle_107" data-name="Rectangle 107" width="0.221" height="0.694" transform="translate(2.809 2.141)" fill="none" stroke="#fff" stroke-width="0.5"/>
              <rect id="Rectangle_108" data-name="Rectangle 108" width="0.146" height="0.694" transform="translate(2.847 1.51)" fill="none" stroke="#fff" stroke-width="0.5"/>
              <rect id="Rectangle_109" data-name="Rectangle 109" width="0.105" height="0.694" transform="translate(2.867 0.93)" fill="none" stroke="#fff" stroke-width="0.5"/>
              <path id="Path_674" data-name="Path 674" d="M1208.911,402.82h-.606v.007c-1.17,1.374-3.793,2.523-2.045,4.456h-.106v.379h4.913v-.379h-.106C1212.712,405.346,1210.078,404.2,1208.911,402.82Z" transform="translate(-1205.676 -399.822)" fill="none" stroke="#fff" stroke-width="0.5"/>
              <path id="Path_675" data-name="Path 675" d="M1208.609,402.82h-.3v.007c-1.17,1.374-3.793,2.523-2.045,4.456h-.106v.379h2.455Z" transform="translate(-1205.676 -399.822)" fill="none" stroke="#fff" stroke-width="0.5" opacity="0.2"/>
              <rect id="Rectangle_110" data-name="Rectangle 110" width="4.638" height="1.058" transform="translate(0.639 7.839)" fill="none" stroke="#fff" stroke-width="0.5"/>
              <rect id="Rectangle_111" data-name="Rectangle 111" width="4.913" height="0.379" transform="translate(0.478 7.461)" fill="none" stroke="#fff" stroke-width="0.5"/>
              <path id="Path_676" data-name="Path 676" d="M1250.319,398.98h-.33a.138.138,0,0,0-.139.139v.089h.608v-.089A.139.139,0,0,0,1250.319,398.98Z" transform="translate(-1247.221 -396.21)" fill="none" stroke="#fff" stroke-width="0.5"/>
              <rect id="Rectangle_112" data-name="Rectangle 112" width="0.105" height="0.11" transform="translate(2.867 0.965)" fill="none" stroke="#fff" stroke-width="0.5" opacity="0.2"/>
              <rect id="Rectangle_113" data-name="Rectangle 113" width="0.146" height="0.11" transform="translate(2.847 1.663)" fill="none" stroke="#fff" stroke-width="0.5" opacity="0.2"/>
              <rect id="Rectangle_114" data-name="Rectangle 114" width="0.221" height="0.11" transform="translate(2.809 2.461)" fill="none" stroke="#fff" stroke-width="0.5" opacity="0.2"/>
              <path id="Path_677" data-name="Path 677" d="M1248.04,353.25a.579.579,0,0,1-.53-.81.578.578,0,1,0,.869.7A.571.571,0,0,1,1248.04,353.25Z" transform="translate(-1244.795 -352.44)" fill="none" stroke="#fff" stroke-width="0.5"/>
              <path id="Path_678" data-name="Path 678" d="M1251.066,373.2a.248.248,0,1,1-.248-.249A.249.249,0,0,1,1251.066,373.2Z" transform="translate(-1247.898 -371.729)" fill="none" stroke="#fff" stroke-width="0.5"/>
              <path id="Path_679" data-name="Path 679" d="M1250.219,384.675a.3.3,0,1,1-.3-.3A.3.3,0,0,1,1250.219,384.675Z" transform="translate(-1246.996 -382.47)" fill="none" stroke="#fff" stroke-width="0.5"/>
              <path id="Path_680" data-name="Path 680" d="M1222.5,402.82h-.427v.007c-.825,1.374-2.674,2.523-1.441,4.456h3.314C1225.183,405.346,1223.326,404.2,1222.5,402.82Zm-.187.1c.091.318.207.628.319.929a7.913,7.913,0,0,1,.457,1.545,4.2,4.2,0,0,1-.115,1.8H1221.6a4.2,4.2,0,0,1-.115-1.8,7.93,7.93,0,0,1,.457-1.545c.112-.3.228-.611.319-.929Zm-1.983,3.337a1.845,1.845,0,0,1,.092-.848,5.4,5.4,0,0,1,.994-1.534,9.25,9.25,0,0,0,.714-.956h.035c-.382,1.313-1.159,2.437-.661,4.272h-.82A2.34,2.34,0,0,1,1220.332,406.253Zm3.563.935h-.82c.5-1.835-.28-2.959-.661-4.272h.034a9.22,9.22,0,0,0,.714.956,5.384,5.384,0,0,1,.994,1.534,1.83,1.83,0,0,1,.092.847A2.334,2.334,0,0,1,1223.9,407.188Z" transform="translate(-1219.357 -399.822)" fill="none" stroke="#fff" stroke-width="0.5" opacity="0.2"/>
            </g>
            <rect id="Rectangle_115" data-name="Rectangle 115" width="4.638" height="0.07" transform="translate(0.639 7.839)" fill="none" stroke="#fff" stroke-width="0.5" opacity="0.2"/>
          </g>
          <path id="Path_681" data-name="Path 681" d="M1213.483,862.33h-5.643l.5,1.247h4.653Z" transform="translate(-1207.711 -831.986)" fill="none" stroke="#fff" stroke-width="0.5"/>
          <rect id="Rectangle_116" data-name="Rectangle 116" width="5.643" height="1.75" transform="translate(0.129 28.594)" fill="none" stroke="#fff" stroke-width="0.5"/>
          <path id="Path_682" data-name="Path 682" d="M1207.84,832.92v1.75h5.643v-1.75Zm.626,1.256h-.457v-1.1h.457Zm.606,0h-.456v-1.1h.456Zm.606,0h-.456v-1.1h.456Zm.606,0h-.456v-1.1h.456Zm.606,0h-.456v-1.1h.456Zm.606,0h-.457v-1.1h.457Zm.606,0h-.456v-1.1h.456Zm.606,0h-.457v-1.1h.457Zm.606,0h-.457v-1.1h.457Z" transform="translate(-1207.711 -804.326)" fill="none" stroke="#fff" stroke-width="0.5"/>
          <g id="Group_109" data-name="Group 109" transform="translate(0.298 28.018)">
            <path id="Path_683" data-name="Path 683" d="M1210.867,823.24a.521.521,0,0,0-.188.392v.184h.376v-.184A.521.521,0,0,0,1210.867,823.24Z" transform="translate(-1210.679 -823.24)" fill="none" stroke="#fff" stroke-width="0.5"/>
            <path id="Path_684" data-name="Path 684" d="M1219.147,823.24a.521.521,0,0,0-.188.392v.184h.376v-.184A.522.522,0,0,0,1219.147,823.24Z" transform="translate(-1218.467 -823.24)" fill="none" stroke="#fff" stroke-width="0.5"/>
            <path id="Path_685" data-name="Path 685" d="M1227.427,823.24a.522.522,0,0,0-.188.392v.184h.376v-.184A.521.521,0,0,0,1227.427,823.24Z" transform="translate(-1226.254 -823.24)" fill="none" stroke="#fff" stroke-width="0.5"/>
            <path id="Path_686" data-name="Path 686" d="M1235.717,823.24a.522.522,0,0,0-.188.392v.184h.376v-.184A.525.525,0,0,0,1235.717,823.24Z" transform="translate(-1234.051 -823.24)" fill="none" stroke="#fff" stroke-width="0.5"/>
            <path id="Path_687" data-name="Path 687" d="M1244,823.24a.522.522,0,0,0-.188.392v.184h.376v-.184A.522.522,0,0,0,1244,823.24Z" transform="translate(-1241.838 -823.24)" fill="none" stroke="#fff" stroke-width="0.5"/>
            <path id="Path_688" data-name="Path 688" d="M1252.277,823.24a.522.522,0,0,0-.188.392v.184h.376v-.184A.522.522,0,0,0,1252.277,823.24Z" transform="translate(-1249.625 -823.24)" fill="none" stroke="#fff" stroke-width="0.5"/>
            <path id="Path_689" data-name="Path 689" d="M1260.567,823.24a.522.522,0,0,0-.188.392v.184h.376v-.184A.528.528,0,0,0,1260.567,823.24Z" transform="translate(-1257.422 -823.24)" fill="none" stroke="#fff" stroke-width="0.5"/>
            <path id="Path_690" data-name="Path 690" d="M1268.847,823.24a.521.521,0,0,0-.188.392v.184h.376v-.184A.521.521,0,0,0,1268.847,823.24Z" transform="translate(-1265.209 -823.24)" fill="none" stroke="#fff" stroke-width="0.5"/>
            <path id="Path_691" data-name="Path 691" d="M1277.127,823.24a.522.522,0,0,0-.188.392v.184h.376v-.184A.521.521,0,0,0,1277.127,823.24Z" transform="translate(-1272.996 -823.24)" fill="none" stroke="#fff" stroke-width="0.5"/>
            <path id="Path_692" data-name="Path 692" d="M1285.407,823.24a.521.521,0,0,0-.188.392v.184h.376v-.184A.521.521,0,0,0,1285.407,823.24Z" transform="translate(-1280.783 -823.24)" fill="none" stroke="#fff" stroke-width="0.5"/>
            <path id="Path_693" data-name="Path 693" d="M1293.7,823.24a.522.522,0,0,0-.188.392v.184h.376v-.184A.524.524,0,0,0,1293.7,823.24Z" transform="translate(-1288.58 -823.24)" fill="none" stroke="#fff" stroke-width="0.5"/>
          </g>
          <path id="Path_694" data-name="Path 694" d="M1213.483,659.09h-5.643l.5,1.247h4.653Z" transform="translate(-1207.711 -640.841)" fill="none" stroke="#fff" stroke-width="0.5"/>
          <rect id="Rectangle_117" data-name="Rectangle 117" width="5.643" height="1.75" transform="translate(0.129 16.5)" fill="none" stroke="#fff" stroke-width="0.5"/>
          <path id="Path_695" data-name="Path 695" d="M1207.84,629.69v1.75h5.643v-1.75Zm.626,1.255h-.457v-1.1h.457Zm.606,0h-.456v-1.1h.456Zm.606,0h-.456v-1.1h.456Zm.606,0h-.456v-1.1h.456Zm.606,0h-.456v-1.1h.456Zm.606,0h-.457v-1.1h.457Zm.606,0h-.456v-1.1h.456Zm.606,0h-.457v-1.1h.457Zm.606,0h-.457v-1.1h.457Z" transform="translate(-1207.711 -613.19)" fill="none" stroke="#fff" stroke-width="0.5"/>
          <g id="Group_110" data-name="Group 110" transform="translate(0.298 15.923)">
            <path id="Path_696" data-name="Path 696" d="M1210.867,620a.521.521,0,0,0-.188.392v.184h.376v-.184A.522.522,0,0,0,1210.867,620Z" transform="translate(-1210.679 -620)" fill="none" stroke="#fff" stroke-width="0.5"/>
            <path id="Path_697" data-name="Path 697" d="M1219.147,620a.522.522,0,0,0-.188.392v.184h.376v-.184A.522.522,0,0,0,1219.147,620Z" transform="translate(-1218.467 -620)" fill="none" stroke="#fff" stroke-width="0.5"/>
            <path id="Path_698" data-name="Path 698" d="M1227.427,620a.522.522,0,0,0-.188.392v.184h.376v-.184A.522.522,0,0,0,1227.427,620Z" transform="translate(-1226.254 -620)" fill="none" stroke="#fff" stroke-width="0.5"/>
            <path id="Path_699" data-name="Path 699" d="M1235.717,620a.522.522,0,0,0-.188.392v.184h.376v-.184A.525.525,0,0,0,1235.717,620Z" transform="translate(-1234.051 -620)" fill="none" stroke="#fff" stroke-width="0.5"/>
            <path id="Path_700" data-name="Path 700" d="M1244,620a.522.522,0,0,0-.188.392v.184h.376v-.184A.522.522,0,0,0,1244,620Z" transform="translate(-1241.838 -620)" fill="none" stroke="#fff" stroke-width="0.5"/>
            <path id="Path_701" data-name="Path 701" d="M1252.277,620a.522.522,0,0,0-.188.392v.184h.376v-.184A.522.522,0,0,0,1252.277,620Z" transform="translate(-1249.625 -620)" fill="none" stroke="#fff" stroke-width="0.5"/>
            <path id="Path_702" data-name="Path 702" d="M1260.567,620a.522.522,0,0,0-.188.392v.184h.376v-.184A.528.528,0,0,0,1260.567,620Z" transform="translate(-1257.422 -620)" fill="none" stroke="#fff" stroke-width="0.5"/>
            <path id="Path_703" data-name="Path 703" d="M1268.847,620a.521.521,0,0,0-.188.392v.184h.376v-.184A.522.522,0,0,0,1268.847,620Z" transform="translate(-1265.209 -620)" fill="none" stroke="#fff" stroke-width="0.5"/>
            <path id="Path_704" data-name="Path 704" d="M1277.127,620a.522.522,0,0,0-.188.392v.184h.376v-.184A.522.522,0,0,0,1277.127,620Z" transform="translate(-1272.996 -620)" fill="none" stroke="#fff" stroke-width="0.5"/>
            <path id="Path_705" data-name="Path 705" d="M1285.407,620a.522.522,0,0,0-.188.392v.184h.376v-.184A.521.521,0,0,0,1285.407,620Z" transform="translate(-1280.783 -620)" fill="none" stroke="#fff" stroke-width="0.5"/>
            <path id="Path_706" data-name="Path 706" d="M1293.7,620a.522.522,0,0,0-.188.392v.184h.376v-.184A.524.524,0,0,0,1293.7,620Z" transform="translate(-1288.58 -620)" fill="none" stroke="#fff" stroke-width="0.5"/>
          </g>
          <rect id="Rectangle_118" data-name="Rectangle 118" width="5.063" height="0.436" transform="translate(0.419 8.804)" fill="none" stroke="#fff" stroke-width="0.5"/>
          <rect id="Rectangle_119" data-name="Rectangle 119" width="4.654" height="0.164" transform="translate(0.624 9.24)" fill="none" stroke="#fff" stroke-width="0.5" opacity="0.2"/>
          <g id="Group_111" data-name="Group 111" transform="translate(2.041 10.949)">
            <path id="Path_707" data-name="Path 707" d="M1245.116,542.961h-1.456v-2.155a.706.706,0,0,1,.706-.706h.045a.706.706,0,0,1,.706.706Z" transform="translate(-1243.441 -539.881)" fill="none" stroke="#fff" stroke-width="0.5"/>
            <path id="Path_708" data-name="Path 708" d="M1247.545,540.1h-.029a.712.712,0,0,0-.515.22h.066a.714.714,0,0,1,.714.714v1.928h.478v-2.147A.714.714,0,0,0,1247.545,540.1Z" transform="translate(-1246.582 -539.881)" fill="none" stroke="#fff" stroke-width="0.5" opacity="0.2"/>
            <path id="Path_709" data-name="Path 709" d="M1240.927,536.42a.948.948,0,0,0-.947.947v2.352h1.894v-2.352A.948.948,0,0,0,1240.927,536.42Zm.728,3.08H1240.2v-2.133a.728.728,0,1,1,1.456,0V539.5Z" transform="translate(-1239.98 -536.42)" fill="none" stroke="#fff" stroke-width="0.5"/>
          </g>
          <g id="Group_112" data-name="Group 112" transform="translate(2.041 21.907)">
            <path id="Path_710" data-name="Path 710" d="M1245.116,727.1h-1.456v-2.155a.706.706,0,0,1,.706-.706h.045a.706.706,0,0,1,.706.706Z" transform="translate(-1243.441 -724.02)" fill="none" stroke="#fff" stroke-width="0.5"/>
            <path id="Path_711" data-name="Path 711" d="M1247.545,724.24h-.029a.712.712,0,0,0-.515.22h.066a.714.714,0,0,1,.714.714V727.1h.478v-2.147A.714.714,0,0,0,1247.545,724.24Z" transform="translate(-1246.582 -724.02)" fill="none" stroke="#fff" stroke-width="0.5" opacity="0.2"/>
            <path id="Path_712" data-name="Path 712" d="M1240.927,720.55a.948.948,0,0,0-.947.947v2.352h1.894V721.5A.948.948,0,0,0,1240.927,720.55Zm.728,3.08H1240.2V721.5a.728.728,0,1,1,1.456,0v2.133Z" transform="translate(-1239.98 -720.55)" fill="none" stroke="#fff" stroke-width="0.5"/>
          </g>
        </g>
        <g id="Group_114" data-name="Group 114" transform="translate(244.225 359.344)">
          <rect id="Rectangle_120" data-name="Rectangle 120" width="0.75" height="2.36" transform="translate(9.544 7.273)" fill="none" stroke="#fff" stroke-width="0.5"/>
          <rect id="Rectangle_121" data-name="Rectangle 121" width="0.496" height="2.36" transform="translate(9.671 5.133)" fill="none" stroke="#fff" stroke-width="0.5"/>
          <rect id="Rectangle_122" data-name="Rectangle 122" width="0.355" height="2.36" transform="translate(9.741 3.159)" fill="none" stroke="#fff" stroke-width="0.5"/>
          <path id="Path_713" data-name="Path 713" d="M610.09,639.62h-2.059v.021c-3.974,4.669-12.887,8.571-6.948,15.142h-.359v1.287h16.691v-1.287h-.359C623.005,648.2,614.055,644.3,610.09,639.62Z" transform="translate(-599.099 -629.434)" fill="none" stroke="#fff" stroke-width="0.5"/>
          <path id="Path_714" data-name="Path 714" d="M609.064,639.62h-1.033v.021c-3.974,4.669-12.887,8.571-6.948,15.142h-.359v1.287h8.341V639.62Z" transform="translate(-599.099 -629.434)" fill="none" stroke="#fff" stroke-width="0.5"/>
          <rect id="Rectangle_123" data-name="Rectangle 123" width="15.759" height="3.592" transform="translate(2.172 26.637)" fill="none" stroke="#fff" stroke-width="0.5"/>
          <rect id="Rectangle_124" data-name="Rectangle 124" width="16.692" height="1.287" transform="translate(1.625 25.35)" fill="none" stroke="#fff" stroke-width="0.5"/>
          <path id="Path_715" data-name="Path 715" d="M648.605,927.421c.018-.42-.576-.714-.761-1.081-.186.368-.78.661-.761,1.081h0v1.9h1.524v-1.9Z" transform="translate(-644.227 -899.09)" fill="none" stroke="#fff" stroke-width="0.5"/>
          <path id="Path_716" data-name="Path 716" d="M654.838,927.421c.018-.42-.576-.714-.761-1.081a1.847,1.847,0,0,1-.367.432c.24.3.682.573.666.935h0v1.612h.463v-1.9Z" transform="translate(-650.46 -899.09)" fill="none" stroke="#fff" stroke-width="0.5"/>
          <path id="Path_717" data-name="Path 717" d="M684.615,927.421c.018-.42-.576-.714-.761-1.081-.186.368-.78.661-.761,1.081h0v1.9h1.523v-1.9Z" transform="translate(-678.094 -899.09)" fill="none" stroke="#fff" stroke-width="0.5"/>
          <path id="Path_718" data-name="Path 718" d="M720.635,927.421c.018-.42-.576-.714-.761-1.081-.186.368-.78.661-.761,1.081h0v1.9h1.523v-1.9Z" transform="translate(-711.97 -899.09)" fill="none" stroke="#fff" stroke-width="0.5"/>
          <path id="Path_719" data-name="Path 719" d="M756.655,927.421c.018-.42-.576-.714-.761-1.081-.186.368-.78.661-.761,1.081h0v1.9h1.524v-1.9Z" transform="translate(-745.847 -899.09)" fill="none" stroke="#fff" stroke-width="0.5"/>
          <path id="Path_720" data-name="Path 720" d="M792.665,927.421c.018-.42-.576-.714-.761-1.081-.186.368-.78.661-.761,1.081h0v1.9h1.523v-1.9Z" transform="translate(-779.714 -899.09)" fill="none" stroke="#fff" stroke-width="0.5"/>
          <path id="Path_721" data-name="Path 721" d="M828.685,927.421c.018-.42-.576-.714-.761-1.081-.186.368-.78.661-.761,1.081h0v1.9h1.523v-1.9Z" transform="translate(-813.59 -899.09)" fill="none" stroke="#fff" stroke-width="0.5"/>
          <path id="Path_722" data-name="Path 722" d="M864.705,927.421c.018-.42-.576-.714-.761-1.081-.186.368-.78.661-.761,1.081h0v1.9h1.523v-1.9Z" transform="translate(-847.467 -899.09)" fill="none" stroke="#fff" stroke-width="0.5"/>
          <path id="Path_723" data-name="Path 723" d="M751.107,626.59h-1.788a.138.138,0,0,0-.139.139v.637h2.066v-.637A.139.139,0,0,0,751.107,626.59Z" transform="translate(-740.249 -617.179)" fill="none" stroke="#fff" stroke-width="0.5"/>
          <rect id="Rectangle_125" data-name="Rectangle 125" width="0.355" height="0.372" transform="translate(9.741 3.28)" fill="none" stroke="#fff" stroke-width="0.5" opacity="0.2"/>
          <rect id="Rectangle_126" data-name="Rectangle 126" width="0.496" height="0.372" transform="translate(9.671 5.651)" fill="none" stroke="#fff" stroke-width="0.5" opacity="0.2"/>
          <rect id="Rectangle_127" data-name="Rectangle 127" width="0.75" height="0.372" transform="translate(9.544 8.362)" fill="none" stroke="#fff" stroke-width="0.5" opacity="0.2"/>
          <path id="Path_724" data-name="Path 724" d="M743.037,471.2a1.965,1.965,0,0,1-1.8-2.752,1.965,1.965,0,1,0,2.952,2.378A1.954,1.954,0,0,1,743.037,471.2Z" transform="translate(-732.01 -468.45)" fill="none" stroke="#fff" stroke-width="0.5"/>
          <path id="Path_725" data-name="Path 725" d="M753.269,538.995a.845.845,0,1,1-.844-.844A.845.845,0,0,1,753.269,538.995Z" transform="translate(-742.506 -534.002)" fill="none" stroke="#fff" stroke-width="0.5"/>
          <circle id="Ellipse_129" data-name="Ellipse 129" cx="1.035" cy="1.035" r="1.035" transform="translate(8.884 6.457)" fill="none" stroke="#fff" stroke-width="0.5"/>
          <path id="Path_726" data-name="Path 726" d="M656.257,639.62H654.8v.021c-2.8,4.669-9.086,8.571-4.9,15.142h11.262C665.362,648.2,659.052,644.3,656.257,639.62Zm-.636.323c.309,1.083.7,2.135,1.084,3.156a26.845,26.845,0,0,1,1.553,5.249,14.241,14.241,0,0,1-.39,6.111h-4.662a14.241,14.241,0,0,1-.39-6.111,26.842,26.842,0,0,1,1.553-5.249c.381-1.021.774-2.075,1.084-3.156Zm-6.74,11.341a6.243,6.243,0,0,1,.314-2.88,18.315,18.315,0,0,1,3.377-5.213A31.394,31.394,0,0,0,655,639.944h.117c-1.3,4.46-3.937,8.28-2.245,14.517h-2.786A7.958,7.958,0,0,1,648.881,651.284Zm12.108,3.176H658.2c1.691-6.236-.95-10.057-2.246-14.517h.117a31.323,31.323,0,0,0,2.427,3.247,18.313,18.313,0,0,1,3.377,5.213,6.245,6.245,0,0,1,.314,2.88A7.971,7.971,0,0,1,660.99,654.46Z" transform="translate(-645.567 -629.434)" fill="none" stroke="#fff" stroke-width="0.5"/>
          <path id="Path_727" data-name="Path 727" d="M690.848,927.421c.018-.42-.576-.714-.761-1.081a1.848,1.848,0,0,1-.367.432c.24.3.682.573.666.935h0v1.612h.463v-1.9Z" transform="translate(-684.327 -899.09)" fill="none" stroke="#fff" stroke-width="0.5" opacity="0.2"/>
          <path id="Path_728" data-name="Path 728" d="M726.868,927.421c.018-.42-.576-.714-.761-1.081a1.847,1.847,0,0,1-.367.432c.24.3.682.573.666.935h0v1.612h.463v-1.9Z" transform="translate(-718.204 -899.09)" fill="none" stroke="#fff" stroke-width="0.5" opacity="0.2"/>
          <path id="Path_729" data-name="Path 729" d="M762.888,927.421c.018-.42-.576-.714-.761-1.081a1.847,1.847,0,0,1-.367.432c.24.3.682.573.666.935h0v1.612h.463v-1.9Z" transform="translate(-752.08 -899.09)" fill="none" stroke="#fff" stroke-width="0.5" opacity="0.2"/>
          <path id="Path_730" data-name="Path 730" d="M798.9,927.421c.018-.42-.576-.714-.761-1.081a1.845,1.845,0,0,1-.367.432c.24.3.682.573.666.935h0v1.612h.463v-1.9Z" transform="translate(-785.947 -899.09)" fill="none" stroke="#fff" stroke-width="0.5" opacity="0.2"/>
          <path id="Path_731" data-name="Path 731" d="M834.918,927.421c.018-.42-.576-.714-.761-1.081a1.846,1.846,0,0,1-.367.432c.24.3.682.573.666.935h0v1.612h.463v-1.9Z" transform="translate(-819.823 -899.09)" fill="none" stroke="#fff" stroke-width="0.5"/>
          <path id="Path_732" data-name="Path 732" d="M870.938,927.421c.018-.42-.576-.714-.761-1.081a1.845,1.845,0,0,1-.367.432c.24.3.682.573.666.935h0v1.612h.463v-1.9Z" transform="translate(-853.7 -899.09)" fill="none" stroke="#fff" stroke-width="0.5"/>
        </g>
        <rect id="Rectangle_128" data-name="Rectangle 128" width="64.581" height="0.471" transform="translate(221.77 405.897)" fill="none" stroke="#fff" stroke-width="0.5"/>
        <rect id="Rectangle_129" data-name="Rectangle 129" width="63.909" height="0.471" transform="translate(222.106 405.426)" fill="none" stroke="#fff" stroke-width="0.5"/>
        <rect id="Rectangle_130" data-name="Rectangle 130" width="19.482" height="15.139" transform="translate(244.571 390.287)" fill="none" stroke="#fff" stroke-width="0.5"/>
        <path id="Path_733" data-name="Path 733" d="M631.279,1041.854v9.509h4.4v-9.509h0c.054-1.011-1.664-1.718-2.2-2.6-.536.885-2.254,1.593-2.2,2.6Z" transform="translate(-385.139 -645.937)" fill="none" stroke="#fff" stroke-width="0.5"/>
        <path id="Path_734" data-name="Path 734" d="M651.707,1039.25a4.676,4.676,0,0,1-1.047,1.029c.69.739,1.987,1.388,1.94,2.269h0v8.815h1.307v-9.509h0C653.962,1040.843,652.244,1040.135,651.707,1039.25Z" transform="translate(-403.366 -645.937)" fill="none" stroke="#fff" stroke-width="0.5" opacity="0.2"/>
        <path id="Path_735" data-name="Path 735" d="M731.569,1041.854v9.509h4.4v-9.509h0c.054-1.011-1.664-1.718-2.2-2.6-.536.885-2.254,1.593-2.2,2.6Z" transform="translate(-479.46 -645.937)" fill="none" stroke="#fff" stroke-width="0.5"/>
        <path id="Path_736" data-name="Path 736" d="M831.929,1041.854v9.509h4.4v-9.509h0c.054-1.011-1.664-1.718-2.2-2.6-.536.885-2.254,1.593-2.2,2.6Z" transform="translate(-573.848 -645.937)" fill="none" stroke="#fff" stroke-width="0.5"/>
        <g id="Group_115" data-name="Group 115" transform="translate(244.346 396.023)">
          <rect id="Rectangle_131" data-name="Rectangle 131" width="2.02" height="0.531" transform="translate(0 0)" fill="none" stroke="#fff" stroke-width="0.5"/>
          <rect id="Rectangle_132" data-name="Rectangle 132" width="2.02" height="0.531" transform="translate(0 6.865)" fill="none" stroke="#fff" stroke-width="0.5"/>
          <rect id="Rectangle_133" data-name="Rectangle 133" width="1.713" height="2.007" transform="translate(0.153 7.396)" fill="none" stroke="#fff" stroke-width="0.5"/>
          <rect id="Rectangle_134" data-name="Rectangle 134" width="1.57" height="0.184" transform="translate(0.224 0.531)" fill="none" stroke="#fff" stroke-width="0.5" opacity="0.2"/>
          <rect id="Rectangle_135" data-name="Rectangle 135" width="1.713" height="0.184" transform="translate(0.152 7.396)" fill="none" stroke="#fff" stroke-width="0.5" opacity="0.2"/>
        </g>
        <g id="Group_116" data-name="Group 116" transform="translate(250.317 396.023)">
          <rect id="Rectangle_136" data-name="Rectangle 136" width="2.019" height="0.531" transform="translate(0 0)" fill="none" stroke="#fff" stroke-width="0.5"/>
          <rect id="Rectangle_137" data-name="Rectangle 137" width="2.019" height="0.531" transform="translate(0 6.865)" fill="none" stroke="#fff" stroke-width="0.5"/>
          <rect id="Rectangle_138" data-name="Rectangle 138" width="1.713" height="2.007" transform="translate(0.153 7.396)" fill="none" stroke="#fff" stroke-width="0.5"/>
          <rect id="Rectangle_139" data-name="Rectangle 139" width="1.57" height="0.184" transform="translate(0.224 0.531)" fill="none" stroke="#fff" stroke-width="0.5" opacity="0.2"/>
          <rect id="Rectangle_140" data-name="Rectangle 140" width="1.713" height="0.184" transform="translate(0.152 7.396)" fill="none" stroke="#fff" stroke-width="0.5" opacity="0.2"/>
        </g>
        <path id="Path_737" data-name="Path 737" d="M752,1039.25a4.675,4.675,0,0,1-1.047,1.029c.69.739,1.987,1.388,1.94,2.269h0v8.815H754.2v-9.509h0C754.252,1040.843,752.534,1040.135,752,1039.25Z" transform="translate(-497.688 -645.937)" fill="none" stroke="#fff" stroke-width="0.5" opacity="0.2"/>
        <path id="Path_738" data-name="Path 738" d="M852.357,1039.25a4.674,4.674,0,0,1-1.047,1.029c.69.739,1.987,1.388,1.94,2.269h0v8.815h1.307v-9.509h0C854.612,1040.843,852.894,1040.135,852.357,1039.25Z" transform="translate(-592.075 -645.937)" fill="none" stroke="#fff" stroke-width="0.5" opacity="0.2"/>
        <g id="Group_117" data-name="Group 117" transform="translate(256.286 396.023)">
          <rect id="Rectangle_141" data-name="Rectangle 141" width="2.019" height="0.531" transform="translate(0 0)" fill="none" stroke="#fff" stroke-width="0.5"/>
          <rect id="Rectangle_142" data-name="Rectangle 142" width="2.019" height="0.531" transform="translate(0 6.865)" fill="none" stroke="#fff" stroke-width="0.5"/>
          <rect id="Rectangle_143" data-name="Rectangle 143" width="1.713" height="2.007" transform="translate(0.154 7.396)" fill="none" stroke="#fff" stroke-width="0.5"/>
          <rect id="Rectangle_144" data-name="Rectangle 144" width="1.57" height="0.184" transform="translate(0.225 0.531)" fill="none" stroke="#fff" stroke-width="0.5" opacity="0.2"/>
          <rect id="Rectangle_145" data-name="Rectangle 145" width="1.713" height="0.184" transform="translate(0.153 7.396)" fill="none" stroke="#fff" stroke-width="0.5" opacity="0.2"/>
        </g>
        <g id="Group_118" data-name="Group 118" transform="translate(262.259 396.023)">
          <rect id="Rectangle_146" data-name="Rectangle 146" width="2.019" height="0.531" transform="translate(0 0)" fill="none" stroke="#fff" stroke-width="0.5"/>
          <rect id="Rectangle_147" data-name="Rectangle 147" width="2.019" height="0.531" transform="translate(0 6.865)" fill="none" stroke="#fff" stroke-width="0.5"/>
          <rect id="Rectangle_148" data-name="Rectangle 148" width="1.713" height="2.007" transform="translate(0.154 7.396)" fill="none" stroke="#fff" stroke-width="0.5"/>
          <rect id="Rectangle_149" data-name="Rectangle 149" width="1.57" height="0.184" transform="translate(0.225 0.531)" fill="none" stroke="#fff" stroke-width="0.5" opacity="0.2"/>
          <rect id="Rectangle_150" data-name="Rectangle 150" width="1.713" height="0.184" transform="translate(0.153 7.396)" fill="none" stroke="#fff" stroke-width="0.5" opacity="0.2"/>
        </g>
        <g id="Group_125" data-name="Group 125" transform="translate(264.053 373.806)">
          <g id="Group_120" data-name="Group 120" transform="translate(3.627)">
            <g id="Group_119" data-name="Group 119">
              <rect id="Rectangle_151" data-name="Rectangle 151" width="0.474" height="1.491" transform="translate(6.032 4.597)" fill="none" stroke="#fff" stroke-width="0.5"/>
              <rect id="Rectangle_152" data-name="Rectangle 152" width="0.313" height="1.491" transform="translate(6.112 3.245)" fill="none" stroke="#fff" stroke-width="0.5"/>
              <rect id="Rectangle_153" data-name="Rectangle 153" width="0.224" height="1.491" transform="translate(6.157 1.997)" fill="none" stroke="#fff" stroke-width="0.5"/>
              <path id="Path_739" data-name="Path 739" d="M1000.173,819.65h-1.3v.014c-2.512,2.951-8.145,5.417-4.391,9.569h-.227v.813H1004.8v-.813h-.227C1008.335,825.074,1002.679,822.607,1000.173,819.65Z" transform="translate(-993.226 -813.212)" fill="none" stroke="#fff" stroke-width="0.5"/>
              <path id="Path_740" data-name="Path 740" d="M999.524,819.65h-.653v.014c-2.512,2.951-8.145,5.417-4.391,9.569h-.227v.813h5.271Z" transform="translate(-993.227 -813.212)" fill="none" stroke="#fff" stroke-width="0.5" opacity="0.2"/>
              <rect id="Rectangle_154" data-name="Rectangle 154" width="9.96" height="2.27" transform="translate(1.373 16.835)" fill="none" stroke="#fff" stroke-width="0.5"/>
              <rect id="Rectangle_155" data-name="Rectangle 155" width="10.549" height="0.814" transform="translate(1.027 16.022)" fill="none" stroke="#fff" stroke-width="0.5"/>
              <path id="Path_741" data-name="Path 741" d="M1024.5,1001.543c.012-.265-.364-.451-.481-.683-.117.232-.493.418-.481.683h0v1.2h.963v-1.2Z" transform="translate(-1021.732 -983.638)" fill="none" stroke="#fff" stroke-width="0.5"/>
              <path id="Path_742" data-name="Path 742" d="M1028.989,1001.543c.012-.265-.364-.451-.481-.683a1,1,0,0,1-.2.239c.156.174.392.335.383.546h0v1.1h.3v-1.2Z" transform="translate(-1026.222 -983.638)" fill="none" stroke="#fff" stroke-width="0.5" opacity="0.2"/>
              <path id="Path_743" data-name="Path 743" d="M1047.269,1001.543c.012-.265-.364-.451-.481-.683-.117.232-.493.418-.481.683h0v1.2h.962v-1.2Z" transform="translate(-1043.147 -983.638)" fill="none" stroke="#fff" stroke-width="0.5"/>
              <path id="Path_744" data-name="Path 744" d="M1070.029,1001.543c.012-.265-.364-.451-.481-.683-.117.232-.493.418-.481.683h0v1.2h.962v-1.2Z" transform="translate(-1064.552 -983.638)" fill="none" stroke="#fff" stroke-width="0.5"/>
              <path id="Path_745" data-name="Path 745" d="M1092.789,1001.543c.012-.265-.364-.451-.481-.683-.117.232-.493.418-.482.683h0v1.2h.963v-1.2Z" transform="translate(-1085.958 -983.638)" fill="none" stroke="#fff" stroke-width="0.5"/>
              <path id="Path_746" data-name="Path 746" d="M1115.549,1001.543c.012-.265-.364-.451-.481-.683-.117.232-.493.418-.481.683h0v1.2h.963v-1.2Z" transform="translate(-1107.364 -983.638)" fill="none" stroke="#fff" stroke-width="0.5"/>
              <path id="Path_747" data-name="Path 747" d="M1138.308,1001.543c.012-.265-.364-.451-.481-.683-.117.232-.493.418-.481.683h0v1.2h.962v-1.2Z" transform="translate(-1128.769 -983.638)" fill="none" stroke="#fff" stroke-width="0.5"/>
              <path id="Path_748" data-name="Path 748" d="M1161.079,1001.543c.012-.265-.364-.451-.481-.683-.117.232-.493.418-.481.683h0v1.2h.962v-1.2Z" transform="translate(-1150.184 -983.638)" fill="none" stroke="#fff" stroke-width="0.5"/>
              <path id="Path_749" data-name="Path 749" d="M1089.247,811.41h-1.028a.138.138,0,0,0-.139.139v.352h1.306v-.352A.139.139,0,0,0,1089.247,811.41Z" transform="translate(-1082.435 -805.462)" fill="none" stroke="#fff" stroke-width="0.5"/>
              <rect id="Rectangle_156" data-name="Rectangle 156" width="0.224" height="0.235" transform="translate(6.157 2.073)" fill="none" stroke="#fff" stroke-width="0.5" opacity="0.2"/>
              <rect id="Rectangle_157" data-name="Rectangle 157" width="0.313" height="0.235" transform="translate(6.112 3.572)" fill="none" stroke="#fff" stroke-width="0.5" opacity="0.2"/>
              <rect id="Rectangle_158" data-name="Rectangle 158" width="0.474" height="0.235" transform="translate(6.032 5.285)" fill="none" stroke="#fff" stroke-width="0.5" opacity="0.2"/>
              <path id="Path_750" data-name="Path 750" d="M1084.194,713.2a1.242,1.242,0,0,1-1.138-1.74,1.242,1.242,0,1,0,1.866,1.5A1.231,1.231,0,0,1,1084.194,713.2Z" transform="translate(-1077.225 -711.46)" fill="none" stroke="#fff" stroke-width="0.5"/>
              <path id="Path_751" data-name="Path 751" d="M1090.667,756.063a.533.533,0,1,1-.534-.533A.534.534,0,0,1,1090.667,756.063Z" transform="translate(-1083.865 -752.907)" fill="none" stroke="#fff" stroke-width="0.5"/>
              <path id="Path_752" data-name="Path 752" d="M1088.888,780.694a.654.654,0,1,1-.654-.654A.654.654,0,0,1,1088.888,780.694Z" transform="translate(-1081.965 -775.959)" fill="none" stroke="#fff" stroke-width="0.5"/>
              <path id="Path_753" data-name="Path 753" d="M1029.355,819.65h-.918v.014c-1.771,2.951-5.742,5.417-3.1,9.569h7.118C1035.11,825.074,1031.122,822.607,1029.355,819.65Zm-.4.2c.2.684.444,1.35.685,1.995a17,17,0,0,1,.982,3.317,8.987,8.987,0,0,1-.246,3.862h-2.946a9,9,0,0,1-.246-3.862,17,17,0,0,1,.982-3.317c.241-.645.489-1.311.685-1.995Zm-4.26,7.168a3.95,3.95,0,0,1,.2-1.821,11.574,11.574,0,0,1,2.135-3.295,19.711,19.711,0,0,0,1.534-2.052h.074c-.819,2.818-2.488,5.233-1.419,9.174h-1.761A5.036,5.036,0,0,1,1024.693,827.022Zm7.653,2.007h-1.761c1.069-3.941-.6-6.356-1.419-9.174h.074a19.813,19.813,0,0,0,1.534,2.053,11.589,11.589,0,0,1,2.135,3.295,3.948,3.948,0,0,1,.2,1.82A5.042,5.042,0,0,1,1032.346,829.029Z" transform="translate(-1022.599 -813.212)" fill="none" stroke="#fff" stroke-width="0.5"/>
              <path id="Path_754" data-name="Path 754" d="M1051.759,1001.543c.012-.265-.364-.451-.481-.683a1,1,0,0,1-.2.239c.156.174.392.335.383.546h0v1.1h.3v-1.2Z" transform="translate(-1047.637 -983.638)" fill="none" stroke="#fff" stroke-width="0.5" opacity="0.2"/>
              <path id="Path_755" data-name="Path 755" d="M1074.519,1001.543c.012-.265-.364-.451-.482-.683a1,1,0,0,1-.2.239c.156.174.392.335.383.546h0v1.1h.3v-1.2Z" transform="translate(-1069.043 -983.638)" fill="none" stroke="#fff" stroke-width="0.5" opacity="0.2"/>
              <path id="Path_756" data-name="Path 756" d="M1097.279,1001.543c.012-.265-.364-.451-.481-.683a1,1,0,0,1-.2.239c.156.174.392.335.383.546h0v1.1h.3v-1.2Z" transform="translate(-1090.448 -983.638)" fill="none" stroke="#fff" stroke-width="0.5" opacity="0.2"/>
              <path id="Path_757" data-name="Path 757" d="M1120.039,1001.543c.012-.265-.364-.451-.481-.683a1,1,0,0,1-.2.239c.156.174.392.335.383.546h0v1.1h.3v-1.2Z" transform="translate(-1111.854 -983.638)" fill="none" stroke="#fff" stroke-width="0.5" opacity="0.2"/>
              <path id="Path_758" data-name="Path 758" d="M1142.8,1001.543c.012-.265-.364-.451-.481-.683a1,1,0,0,1-.2.239c.156.174.392.335.383.546h0v1.1h.3v-1.2Z" transform="translate(-1133.259 -983.638)" fill="none" stroke="#fff" stroke-width="0.5" opacity="0.2"/>
              <path id="Path_759" data-name="Path 759" d="M1165.569,1001.543c.012-.265-.364-.451-.481-.683a1.006,1.006,0,0,1-.2.239c.156.174.392.335.383.546h0v1.1h.3v-1.2Z" transform="translate(-1154.674 -983.638)" fill="none" stroke="#fff" stroke-width="0.5" opacity="0.2"/>
            </g>
            <rect id="Rectangle_159" data-name="Rectangle 159" width="9.96" height="0.149" transform="translate(1.373 16.835)" fill="none" stroke="#fff" stroke-width="0.5" opacity="0.2"/>
          </g>
          <rect id="Rectangle_160" data-name="Rectangle 160" width="19.989" height="11.833" transform="translate(0 19.786)" fill="none" stroke="#fff" stroke-width="0.5"/>
          <rect id="Rectangle_161" data-name="Rectangle 161" width="20.316" height="0.572" transform="translate(0 20.352)" fill="none" stroke="#fff" stroke-width="0.5"/>
          <rect id="Rectangle_162" data-name="Rectangle 162" width="19.989" height="0.198" transform="translate(0 20.924)" fill="none" stroke="#fff" stroke-width="0.5" opacity="0.2"/>
          <rect id="Rectangle_163" data-name="Rectangle 163" width="19.918" height="1.359" transform="translate(0.071 30.26)" fill="none" stroke="#fff" stroke-width="0.5"/>
          <g id="Group_121" data-name="Group 121" transform="translate(0.963 22.217)">
            <path id="Path_760" data-name="Path 760" d="M957.6,1100.362H955.01v-7.932a1.08,1.08,0,0,1,1.08-1.08h.434a1.08,1.08,0,0,1,1.08,1.08Z" transform="translate(-954.62 -1090.96)" fill="none" stroke="#fff" stroke-width="0.5"/>
            <path id="Path_761" data-name="Path 761" d="M950.148,1084.79a1.69,1.69,0,0,0-1.688,1.688v7.715h.39v-7.715a1.3,1.3,0,0,1,2.595,0v5.781h0v1.934h.39v-7.715A1.69,1.69,0,0,0,950.148,1084.79Z" transform="translate(-948.46 -1084.79)" fill="none" stroke="#fff" stroke-width="0.5"/>
            <path id="Path_762" data-name="Path 762" d="M961.556,1091.36h0a1.291,1.291,0,0,0-.966.432h.053a1.3,1.3,0,0,1,1.3,1.3v7.284h.912v-7.714A1.3,1.3,0,0,0,961.556,1091.36Z" transform="translate(-959.868 -1090.969)" fill="none" stroke="#fff" stroke-width="0.5" opacity="0.2"/>
          </g>
          <g id="Group_122" data-name="Group 122" transform="translate(5.677 22.217)">
            <path id="Path_763" data-name="Path 763" d="M1036.815,1100.362h-2.595v-7.932a1.08,1.08,0,0,1,1.08-1.08h.434a1.08,1.08,0,0,1,1.08,1.08Z" transform="translate(-1033.83 -1090.96)" fill="none" stroke="#fff" stroke-width="0.5"/>
            <path id="Path_764" data-name="Path 764" d="M1029.358,1084.79a1.69,1.69,0,0,0-1.688,1.688v7.715h.39v-7.715a1.3,1.3,0,0,1,2.595,0v5.781h0v1.934h.39v-7.715A1.69,1.69,0,0,0,1029.358,1084.79Z" transform="translate(-1027.67 -1084.79)" fill="none" stroke="#fff" stroke-width="0.5"/>
            <path id="Path_765" data-name="Path 765" d="M1040.766,1091.36h0a1.292,1.292,0,0,0-.966.432h.054a1.3,1.3,0,0,1,1.3,1.3v7.284h.912v-7.714A1.3,1.3,0,0,0,1040.766,1091.36Z" transform="translate(-1039.078 -1090.969)" fill="none" stroke="#fff" stroke-width="0.5" opacity="0.2"/>
          </g>
          <g id="Group_123" data-name="Group 123" transform="translate(10.391 22.217)">
            <path id="Path_766" data-name="Path 766" d="M1116.025,1100.362h-2.595v-7.932a1.08,1.08,0,0,1,1.08-1.08h.434a1.08,1.08,0,0,1,1.08,1.08Z" transform="translate(-1113.04 -1090.96)" fill="none" stroke="#fff" stroke-width="0.5"/>
            <path id="Path_767" data-name="Path 767" d="M1108.568,1084.79a1.69,1.69,0,0,0-1.688,1.688v7.715h.39v-7.715a1.3,1.3,0,0,1,2.595,0v5.781h0v1.934h.39v-7.715A1.691,1.691,0,0,0,1108.568,1084.79Z" transform="translate(-1106.88 -1084.79)" fill="none" stroke="#fff" stroke-width="0.5"/>
            <path id="Path_768" data-name="Path 768" d="M1119.976,1091.36h0a1.292,1.292,0,0,0-.966.432h.054a1.3,1.3,0,0,1,1.3,1.3v7.284h.912v-7.714A1.3,1.3,0,0,0,1119.976,1091.36Z" transform="translate(-1118.288 -1090.969)" fill="none" stroke="#fff" stroke-width="0.5" opacity="0.2"/>
          </g>
          <g id="Group_124" data-name="Group 124" transform="translate(15.104 22.217)">
            <path id="Path_769" data-name="Path 769" d="M1195.235,1100.362h-2.595v-7.932a1.08,1.08,0,0,1,1.08-1.08h.434a1.08,1.08,0,0,1,1.08,1.08Z" transform="translate(-1192.25 -1090.96)" fill="none" stroke="#fff" stroke-width="0.5"/>
            <path id="Path_770" data-name="Path 770" d="M1187.768,1084.79a1.69,1.69,0,0,0-1.688,1.688v7.715h.391v-7.715a1.3,1.3,0,1,1,2.595,0v5.781h0v1.934h.391v-7.715A1.69,1.69,0,0,0,1187.768,1084.79Z" transform="translate(-1186.08 -1084.79)" fill="none" stroke="#fff" stroke-width="0.5"/>
            <path id="Path_771" data-name="Path 771" d="M1199.177,1091.36h0a1.294,1.294,0,0,0-.967.432h.053a1.3,1.3,0,0,1,1.3,1.3v7.284h.912v-7.714A1.3,1.3,0,0,0,1199.177,1091.36Z" transform="translate(-1197.488 -1090.969)" fill="none" stroke="#fff" stroke-width="0.5" opacity="0.2"/>
          </g>
          <rect id="Rectangle_164" data-name="Rectangle 164" width="20.122" height="0.361" transform="translate(0 19.426)" fill="none" stroke="#fff" stroke-width="0.5"/>
          <rect id="Rectangle_165" data-name="Rectangle 165" width="20.245" height="0.361" transform="translate(0 19.064)" fill="none" stroke="#fff" stroke-width="0.5"/>
          <rect id="Rectangle_166" data-name="Rectangle 166" width="20.122" height="0.133" transform="translate(0 19.426)" fill="none" stroke="#fff" stroke-width="0.5" opacity="0.2"/>
          <rect id="Rectangle_167" data-name="Rectangle 167" width="19.989" height="0.133" transform="translate(0 19.786)" fill="none" stroke="#fff" stroke-width="0.5" opacity="0.2"/>
        </g>
        <rect id="Rectangle_168" data-name="Rectangle 168" width="19.932" height="0.579" transform="translate(244.346 390.793)" fill="none" stroke="#fff" stroke-width="0.5"/>
        <rect id="Rectangle_169" data-name="Rectangle 169" width="19.482" height="0.19" transform="translate(244.571 391.372)" fill="none" stroke="#fff" stroke-width="0.5" opacity="0.2"/>
        <rect id="Rectangle_170" data-name="Rectangle 170" width="19.696" height="0.361" transform="translate(244.463 389.926)" fill="none" stroke="#fff" stroke-width="0.5"/>
        <rect id="Rectangle_171" data-name="Rectangle 171" width="19.932" height="0.361" transform="translate(244.346 389.566)" fill="none" stroke="#fff" stroke-width="0.5"/>
        <rect id="Rectangle_172" data-name="Rectangle 172" width="19.696" height="0.133" transform="translate(244.463 389.926)" fill="none" stroke="#fff" stroke-width="0.5" opacity="0.2"/>
        <rect id="Rectangle_173" data-name="Rectangle 173" width="19.482" height="0.133" transform="translate(244.571 390.287)" fill="none" stroke="#fff" stroke-width="0.5" opacity="0.2"/>
        <rect id="Rectangle_174" data-name="Rectangle 174" width="15.759" height="0.311" transform="translate(246.397 385.981)" fill="none" stroke="#fff" stroke-width="0.5" opacity="0.2"/>
      </g>
    </g>
    <text id="أذكار_المسجد-2" data-name="أذكار المسجد" transform="translate(126 34)" fill="#fff" font-size="25" font-family="AGOOGLE, A GOOGLE"><tspan x="0" y="0">أذكار المسجد</tspan></text>
  </g>
</svg>
