<svg xmlns="http://www.w3.org/2000/svg" width="428" height="90" viewBox="0 0 428 90">
  <g id="أذكار_الصلاة" data-name="أذكار الصلاة" transform="translate(126 19)">
    <g id="Group_146" data-name="Group 146">
      <path id="Path_773" data-name="Path 773" d="M0,0H428V90H0Z" transform="translate(-126 -19)" fill="#af7a33"/>
      <path id="Path_783" data-name="Path 783" d="M-126,71,182.8,2.113,300.892,71Z" fill="#fff" opacity="0.1"/>
      <g id="الصلاة" transform="translate(13744.23 -158.281)">
        <g id="Group_126" data-name="Group 126" transform="translate(-13791.23 151.031)">
          <path id="Path_772" data-name="Path 772" d="M-13771.219,165.4a.285.285,0,0,1,0-.415.288.288,0,0,1,.416,0s3.379,3.318,5.483,3.347h.088c.83-.059,1.512-1.214,2.016-2.666a16.437,16.437,0,0,0,.8-4.8,6.1,6.1,0,0,0-.031-.77,9.355,9.355,0,0,0-.858-3.792h0v-.03c-.03-.03-.089.06-.3,0-.533-.148-1.452-.355-2.312-.5a4.2,4.2,0,0,0-1.838-.03h0a3.83,3.83,0,0,0-.029.622c-.028,1.037-.06,2.4-2.1,2.607-.653.089-.83.266-.8.5a3.44,3.44,0,0,0,.533,1.1,3.256,3.256,0,0,1,.476.889.346.346,0,0,1-.236.355.327.327,0,0,1-.356-.237,3.661,3.661,0,0,0-.384-.711,3.225,3.225,0,0,1-.624-1.333c-.061-.563.237-1.037,1.333-1.126,1.542-.178,1.542-1.244,1.572-2.044a3.479,3.479,0,0,1,.058-.8.563.563,0,0,1,.268-.326h0a.867.867,0,0,1,.415-.118q-.889-.044-1.867,0a16.075,16.075,0,0,0-3.261.444h-.03a19,19,0,0,0-3.111,1.066,8.444,8.444,0,0,0,.739,3.644c.742,1.985,1.543,4.148.446,7.109l5.868,3.051a7.3,7.3,0,0,1,.327-1.066,7.346,7.346,0,0,1,.621-1.3.1.1,0,0,0,.031-.06,20.562,20.562,0,0,1-3.351-2.606Zm7.349-11.02a.14.14,0,0,1,.149.148.159.159,0,0,1-.149.148.14.14,0,0,1-.147-.148.14.14,0,0,1,.147-.148Zm-1.242-.267a.148.148,0,0,1,.177.148.158.158,0,0,1-.148.148.186.186,0,0,1-.175-.148.156.156,0,0,1,.146-.148Zm-1.1-.148a.188.188,0,0,1,.178.148.19.19,0,0,1-.148.148.166.166,0,0,1-.177-.148.14.14,0,0,1,.147-.148Zm-1.184-.118a.187.187,0,0,1,.178.148.159.159,0,0,1-.149.148.166.166,0,0,1-.177-.148.14.14,0,0,1,.148-.148Zm-1.218-.03a.158.158,0,0,1,.148.148.139.139,0,0,1-.148.148.139.139,0,0,1-.147-.148.158.158,0,0,1,.147-.148Zm-1.241.059a.166.166,0,0,1,.177.148.158.158,0,0,1-.148.148.191.191,0,0,1-.179-.148.159.159,0,0,1,.15-.148Zm-1.218.059a.139.139,0,0,1,.148.148c.029.06-.059.148-.118.148a.165.165,0,0,1-.178-.148.14.14,0,0,1,.147-.148Zm-1.246.207a.165.165,0,0,1,.177.148.139.139,0,0,1-.146.148.141.141,0,0,1-.149-.148.12.12,0,0,1,.119-.148Zm-.207,62.652,8.328-.088a20.894,20.894,0,0,0-3.32-.148,38.841,38.841,0,0,1-4.624,0,4.4,4.4,0,0,1-.384.237Zm9.014-62.533a.333.333,0,0,1,.088.237.445.445,0,0,1-.117.326.418.418,0,0,1-.3.148h-.028a.531.531,0,0,1-.3-.119.426.426,0,0,1-.147-.326h0a.338.338,0,0,1,.119-.3.2.2,0,0,1,.177-.119c-.267-.059-.5-.118-.77-.178a.474.474,0,0,1,.147.3.619.619,0,0,1-.118.326h0a.479.479,0,0,1-.326.148.624.624,0,0,1-.326-.118h0a.646.646,0,0,1-.147-.326.612.612,0,0,1,.119-.326c.059-.03.117-.06.178-.089-.238-.03-.445-.06-.682-.089.029,0,.029,0,.059.03a.478.478,0,0,1,.148.3v.03a.517.517,0,0,1-.12.3.47.47,0,0,1-.324.148h0a.615.615,0,0,1-.326-.119.56.56,0,0,1-.149-.326.451.451,0,0,1,.119-.3c.06-.06.118-.089.148-.119a5.78,5.78,0,0,0-.741-.059c.03,0,.03.03.06.03a.955.955,0,0,1,.148.3V154a.455.455,0,0,1-.118.3.479.479,0,0,1-.326.148h0a.444.444,0,0,1-.326-.118.47.47,0,0,1-.148-.3V154a.518.518,0,0,1,.119-.3c.029-.03.089-.059.118-.088-.267,0-.533-.03-.771-.03,0,.03.029.03.059.06a.422.422,0,0,1,.148.326.452.452,0,0,1-.118.3.424.424,0,0,1-.325.148.343.343,0,0,1-.3-.118.364.364,0,0,1-.148-.3.443.443,0,0,1,.119-.326l.088-.089c-.236,0-.5.03-.741.03h-.058c.028.03.087.059.118.088a.472.472,0,0,1,.146.3v.03a.522.522,0,0,1-.118.3.474.474,0,0,1-.325.148h0a.624.624,0,0,1-.326-.118.537.537,0,0,1-.118-.326h-.03a.361.361,0,0,1,.148-.3c.029-.06.059-.06.089-.089a6.345,6.345,0,0,0-.771.059c.029,0,.059.03.089.06a.457.457,0,0,1,.118.3v.03a.377.377,0,0,1-.118.3.365.365,0,0,1-.295.148h0a.615.615,0,0,1-.327-.118h0a.415.415,0,0,1-.148-.3v-.03a.453.453,0,0,1,.12-.3l.028-.03-.831.089a.462.462,0,0,1,.208.118.408.408,0,0,1,.148.3v.03a.452.452,0,0,1-.118.3.475.475,0,0,1-.325.148.445.445,0,0,1-.327-.118.524.524,0,0,1-.118-.3.328.328,0,0,1,.118-.326c.028-.03.059-.059.089-.089l-.148.03a18.688,18.688,0,0,0-2.549.652,6.185,6.185,0,0,0-.563,1.333,21.511,21.511,0,0,1,2.846-.918h.03a15.5,15.5,0,0,1,3.379-.474,20.953,20.953,0,0,1,3.675.148,13.641,13.641,0,0,1,2.757.592,2.673,2.673,0,0,0-.089-.652c-.029-.089-.06-.208-.09-.3Zm-11,18.514a.263.263,0,0,1,.355-.207.28.28,0,0,1,.207.355,22.933,22.933,0,0,0,.267,11.79c.653.888,1.334,1.837,2.1,2.784l.209.266c-.238-.769-.444-1.54-.624-2.369a36.18,36.18,0,0,1-.712-5.243.282.282,0,0,1,.268-.326.347.347,0,0,1,.326.267,39.27,39.27,0,0,0,.683,5.184,19.486,19.486,0,0,0,1.273,3.97,18.032,18.032,0,0,0,2.7,2.814,2.31,2.31,0,0,0,2.282.356,12.629,12.629,0,0,0,3.083-1.63,45.611,45.611,0,0,0,4.475-3.377,3.793,3.793,0,0,1,.593-.474l.031-.03c-.8-1.362-1.276-4.68-1.483-6.369h0v-.03l-.06-.474c-.918.622-3.171,2.163-4.771,3.258l-.119.089h0a6.775,6.775,0,0,0-1.067.918,12.845,12.845,0,0,0,.238,3.91.359.359,0,0,1-.209.384.3.3,0,0,1-.355-.207,10.205,10.205,0,0,1-.3-3.228,2.528,2.528,0,0,0-.384.859.288.288,0,0,1-.356.237c-.09-.03-.148-.059-.178-.148a9.163,9.163,0,0,0-.653,3.17.319.319,0,0,1-.3.3.3.3,0,0,1-.295-.3,11.742,11.742,0,0,1,1.066-4.355,4.934,4.934,0,0,0-1.482,3.91.345.345,0,0,1-.267.325.293.293,0,0,1-.325-.266,5.553,5.553,0,0,1,1.689-4.414,4.5,4.5,0,0,0-1.868,1.925.261.261,0,0,1-.385.119.294.294,0,0,1-.147-.385,5.547,5.547,0,0,1,3.171-2.666,25.635,25.635,0,0,0-.771-2.518,65.173,65.173,0,0,0-2.609-6.1h0v-.03h0a8.042,8.042,0,0,0-1.54-2.1,8.535,8.535,0,0,0-1.6-1.126h-.028c-1.779-.978-3.675-1.836-4.092-2.044-.859.385-5.514,2.962-5.69,14.4-.03,1.837-.06,3.614-.087,5.3-.12,5.776-.239,10.663-.032,14.188v.119c.178,2.548.474,4.355,1.066,5.243.387.533.742,1.007,1.037,1.393,1.1,1.452,1.661,2.192,1.423,4.265v.088a1.545,1.545,0,0,0,.535,1.066,4.5,4.5,0,0,0,1.777.83,6.972,6.972,0,0,0,2.224.178,3.422,3.422,0,0,0,1.778-.562l.029-.031h.03a2.472,2.472,0,0,0,.384-.444,9.762,9.762,0,0,1,3.112-3.111,22.051,22.051,0,0,0,2.877-2.518c1.719-1.925,4.119-4.177,5.038-5.005a9.477,9.477,0,0,0-7.5,3.021,11.27,11.27,0,0,1-8.771,3.288.3.3,0,0,1-.239-.326.268.268,0,0,1,.327-.266,10.618,10.618,0,0,0,8.269-3.11,10.4,10.4,0,0,1,6.728-3.2,2.9,2.9,0,0,0-.888-.06.256.256,0,0,1-.3-.266.293.293,0,0,1,.267-.325h.09a2.567,2.567,0,0,0-.978-.267h-.12c-.059,0-.118-.03-.179-.03l-.028.03c-2.55.03-4.564,1.807-6.461,3.5-1.541,1.362-3.023,2.666-4.712,2.991-3.943.83-5.306-6.842-5.306-6.873a.292.292,0,0,1,.236-.325.286.286,0,0,1,.355.237s1.245,7.08,4.594,6.4c1.541-.326,2.935-1.57,4.446-2.874,1.866-1.659,3.883-3.437,6.434-3.644h.058a1.082,1.082,0,0,1,.355,0c-.148-.444-.77-.652-.947-.71-1.929.119-3.943,1.393-5.81,2.548-2.254,1.422-4.3,2.7-5.811,1.778-2.7-1.57-3.558-7.88-3.558-7.909a.3.3,0,0,1,.236-.326.265.265,0,0,1,.328.238c0,.03.859,6.073,3.29,7.494,1.216.712,3.111-.444,5.188-1.777,1.954-1.185,4.061-2.518,6.135-2.637l-.06-.03c-2.7-.059-5.039,1.54-6.787,2.755-1.6,1.1-2.758,1.9-3.5.948-1.244-1.688,1.037-18.87,1.245-20.44a50.012,50.012,0,0,1-4-6.665.3.3,0,0,1,.148-.385.294.294,0,0,1,.385.148,49.2,49.2,0,0,0,3.112,5.362,23.921,23.921,0,0,1,.179-10.455Zm-1.45-3.643c.683.326,2.313,1.1,3.854,1.925h.028a7.933,7.933,0,0,1,1.72,1.244,7.1,7.1,0,0,1,1.452,1.837l1.57-2.252-8.091-4.206Zm10.967,14.87c0-.03,0-.03.029-.06a7.594,7.594,0,0,1,.978-.888,31.122,31.122,0,0,1-2.577-4.917,39.218,39.218,0,0,0-1.809-3.7l-.208.3c.831,1.748,1.839,4,2.549,6.014a24.1,24.1,0,0,1,.919,3.111h0v.03h0l.029.208Zm-15.264,28.5c-.06,1.659-3.053,3.051-5.632,4.028h.059c2.342-.237,5.069-.534,6.492-2.133a4.47,4.47,0,0,0-.148-1.956,2.789,2.789,0,0,1-.771.06Zm-8.836,4.561c.324-.118.771-.266,1.274-.444,2.577-.948,7.173-2.577,6.965-4.295a.961.961,0,0,1-.208-.148l-.058-.03c-.445-.385-1.038-.888-1.721-.5a3.617,3.617,0,0,0-.8.828,6.244,6.244,0,0,1-3.732,2.578c-2.254.5-2.136,1.215-2.136,1.3.03.03.03.059.03.119a.3.3,0,0,1-.3.3,4.463,4.463,0,0,0-.77.148,1.709,1.709,0,0,0-.563.415.6.6,0,0,0-.12.178,1.4,1.4,0,0,0,.5,0,3.033,3.033,0,0,0,1.036-.148h0a3.789,3.789,0,0,1,.595-.3Zm25.523-6.517c-.029.03-.029.03-.029.06-.031,0-2.016,2.487-.593,4.176a.319.319,0,0,1-.03.415.355.355,0,0,1-.445-.03c-1.333-1.628-.236-3.7.327-4.561a15.433,15.433,0,0,0-1.689.237c-.5.5-1.037.947-1.542,1.362-.118.444-.562,2.844.5,3.733.858,0,2.134.119,3.585.266,2.638.237,5.722.534,7.174.148.09-.03.179-.059.3-.088h0a4.287,4.287,0,0,0,2.313-1.926,3.675,3.675,0,0,0,.444-2.784l-.089-.207c-.594-1.777-5.572-5.184-7.024-6.161-.652.622-3.171,2.933-5.01,4.946a38.389,38.389,0,0,1,5.245-.266c3.438.119,4.389,1.866,4.389,1.866a.3.3,0,0,1-.119.415.262.262,0,0,1-.386-.119s-.8-1.452-3.884-1.57c-1.277-.028-2.461.03-3.437.089Zm-4.237,5.421a4.833,4.833,0,0,1-.476-3.228l-.237.178a10.367,10.367,0,0,0-2.965,2.933.579.579,0,0,1-.088.147,32.37,32.37,0,0,0,3.766-.029Zm-6.022-30.481c-.474,3.495-2.281,18.011-1.274,19.373.387.5,1.364-.148,2.7-1.066a13.37,13.37,0,0,1,6.313-2.844,1.583,1.583,0,0,1-.325-.622.9.9,0,0,0-.386-.592c-.563-.356-.444-1.126-.356-1.985a4.518,4.518,0,0,0,0-1.9,4.184,4.184,0,0,1,.325-2.784,4.283,4.283,0,0,1-.947-.5,19.977,19.977,0,0,1-2.845-2.962h0v-.03h-.03c-.416-.5-.86-1.066-1.394-1.718-.62-.8-1.243-1.6-1.778-2.369Zm-9.187,25.564a2.008,2.008,0,0,1,2.282.622l.06.059a1.106,1.106,0,0,0,.949.148,12.207,12.207,0,0,0-.92-1.334c-.325-.415-.652-.888-1.037-1.422a6.382,6.382,0,0,1-.83-2.548c-.179,1.63-.386,3.525-.5,4.474Zm25.373-33.237a3.88,3.88,0,0,1,.741-.978,4.727,4.727,0,0,0,.5-.592.363.363,0,0,1-.207-.326,4.191,4.191,0,0,0-.06-1.3.764.764,0,0,0-.208-.3,5.84,5.84,0,0,1-.325,1.155,6.924,6.924,0,0,0-.416,1.57c0,.207-.029.474-.029.77Zm1.808,4.088c-.3.237-.593.474-.8.652a21.843,21.843,0,0,1,.652,2.34,11.986,11.986,0,0,0,.148-2.992Zm-1.3,1.037c-.208.178-.327.266-.327.266h0a12.018,12.018,0,0,0,.92,3.258,1.7,1.7,0,0,0,.089-.859,14.026,14.026,0,0,0-.682-2.666Zm-.448-.385a40.631,40.631,0,0,0,4.564-4.028,9.693,9.693,0,0,0,.978-2.548,27.655,27.655,0,0,0,.8-4.236,1.515,1.515,0,0,0-.119-.83,1.236,1.236,0,0,0-.207.444,22.983,22.983,0,0,1-1.57,3.733c-.563,1.1-1.156,1.985-1.542,2.044a.337.337,0,0,1-.414-.326,10.6,10.6,0,0,1,.978-2.933,10.244,10.244,0,0,0,.623-1.57.226.226,0,0,0-.03-.207.029.029,0,0,0-.029-.03h-.088c-.09.03-.209.148-.357.385-.117.237-.3.652-.474,1.125h0a10.346,10.346,0,0,1-2.016,3.673,5.758,5.758,0,0,0-1.394,3.229c.06.564.15,1.3.3,2.075Zm-17.072-28.764a16.281,16.281,0,0,1,1.9-.444c.978-.148,2.044-.266,3.142-.326a23.661,23.661,0,0,1,3.618.118h0a15.6,15.6,0,0,1,2.282.444,3.017,3.017,0,0,0-.5-.563,2.612,2.612,0,0,0-.3-.267,7.748,7.748,0,0,0-4.506-1.718,6.625,6.625,0,0,0-5.186,2.252,4.971,4.971,0,0,0-.357.414Zm6.905,1.955Z" transform="translate(13791.229 -151.031)" fill="none" stroke="#fff" stroke-width="1"/>
        </g>
      </g>
    </g>
    <text id="أذكار_الصلاة-2" data-name="أذكار الصلاة" transform="translate(138 34)" fill="#fff" font-size="25" font-family="AGOOGLE, A GOOGLE"><tspan x="0" y="0">أذكار الصلاة</tspan></text>
  </g>
</svg>
