<svg xmlns="http://www.w3.org/2000/svg" xmlns:xlink="http://www.w3.org/1999/xlink" width="170.862" height="65" viewBox="0 0 170.862 65">
  <defs>
    <linearGradient id="linear-gradient" x1="0.02" y1="0.114" x2="0.937" y2="1" gradientUnits="objectBoundingBox">
      <stop offset="0" stop-color="#4502a8"/>
      <stop offset="1" stop-color="#3b018f"/>
    </linearGradient>
  </defs>
  <g id="أذكار_المساء" data-name="أذكار المساء" transform="translate(-257.138 -455.659)">
    <g id="Group_134" data-name="Group 134">
      <rect id="Rectangle_14" data-name="Rectangle 14" width="170" height="52" rx="10" transform="translate(258 465)" fill="url(#linear-gradient)"/>
      <path id="Path_785" data-name="Path 785" d="M9,0A9,9,0,1,1,0,9,9,9,0,0,1,9,0Z" transform="translate(355 502.659)" fill="#fff" opacity="0.15"/>
      <circle id="Ellipse_95" data-name="Ellipse 95" cx="9" cy="9" r="9" transform="translate(387 455.659)" fill="#fff" opacity="0.15"/>
      <g id="Group_133" data-name="Group 133">
        <g id="OBJECTS" transform="translate(257.138 466.313)">
          <path id="Path_71" data-name="Path 71" d="M246.091,29.291a7.779,7.779,0,0,1,2.527-.507,7.652,7.652,0,0,1-2.546-.517,7.633,7.633,0,0,1,1.407-2.185,7.778,7.778,0,0,1-2.128,1.454,7.781,7.781,0,0,1-.507-2.527,7.652,7.652,0,0,1-.517,2.546,7.634,7.634,0,0,1-2.185-1.407,7.778,7.778,0,0,1,1.454,2.128,7.779,7.779,0,0,1-2.527.507,7.652,7.652,0,0,1,2.546.517,7.633,7.633,0,0,1-1.407,2.185,7.778,7.778,0,0,1,2.128-1.454,7.779,7.779,0,0,1,.507,2.527,7.652,7.652,0,0,1,.517-2.546,7.632,7.632,0,0,1,2.185,1.407A7.791,7.791,0,0,1,246.091,29.291Z" transform="translate(-227.482 -25.01)" fill="#fff"/>
          <g id="Group_13" data-name="Group 13" transform="translate(4.393 35.363)">
            <path id="Path_72" data-name="Path 72" d="M246.948,344.737a7.639,7.639,0,0,1,3.337-.77,7.479,7.479,0,0,1-3.363-.788,7.847,7.847,0,0,1,.9-1.335.043.043,0,0,0-.062-.06,8.038,8.038,0,0,1-1.3.923,7.641,7.641,0,0,1-.77-3.337,7.478,7.478,0,0,1-.788,3.363,7.841,7.841,0,0,1-1.335-.9.043.043,0,0,0-.06.062,8.034,8.034,0,0,1,.923,1.3,7.639,7.639,0,0,1-3.337.77,7.478,7.478,0,0,1,3.363.788,7.844,7.844,0,0,1-.9,1.335.043.043,0,0,0,.062.06,8.032,8.032,0,0,1,1.3-.923,7.639,7.639,0,0,1,.77,3.337,7.477,7.477,0,0,1,.788-3.363,7.849,7.849,0,0,1,1.335.9.043.043,0,0,0,.06-.062A7.884,7.884,0,0,1,246.948,344.737Z" transform="translate(-241.09 -339.365)" fill="#fff"/>
            <path id="Path_73" data-name="Path 73" d="M343.517,340.288a1.437,1.437,0,0,1-.164.245c-.005.008,0,.017.011.011a1.476,1.476,0,0,1,.239-.169,1.4,1.4,0,0,1,.141.612,1.377,1.377,0,0,1,.145-.617,1.448,1.448,0,0,1,.245.164c.008.005.017,0,.011-.011a1.473,1.473,0,0,1-.169-.239,1.4,1.4,0,0,1,.612-.141,1.378,1.378,0,0,1-.617-.144,1.449,1.449,0,0,1,.164-.245c.005-.008,0-.017-.011-.011a1.471,1.471,0,0,1-.239.169,1.4,1.4,0,0,1-.141-.612,1.379,1.379,0,0,1-.144.617,1.441,1.441,0,0,1-.245-.164c-.008-.005-.017,0-.011.011a1.48,1.48,0,0,1,.169.239,1.4,1.4,0,0,1-.612.141A1.361,1.361,0,0,1,343.517,340.288Z" transform="translate(-335.932 -339.3)" fill="#fff"/>
            <path id="Path_74" data-name="Path 74" d="M252.41,444.669a1.442,1.442,0,0,1,.164-.245c.005-.008,0-.017-.011-.011a1.47,1.47,0,0,1-.239.169,1.4,1.4,0,0,1-.141-.612,1.379,1.379,0,0,1-.144.617,1.44,1.44,0,0,1-.245-.164c-.008-.005-.017,0-.011.011a1.472,1.472,0,0,1,.169.239,1.4,1.4,0,0,1-.612.141,1.38,1.38,0,0,1,.617.144,1.447,1.447,0,0,1-.164.245c-.005.008,0,.017.011.011a1.47,1.47,0,0,1,.239-.169,1.4,1.4,0,0,1,.141.612,1.379,1.379,0,0,1,.144-.617,1.45,1.45,0,0,1,.245.164c.008.005.017,0,.011-.011a1.47,1.47,0,0,1-.169-.239,1.4,1.4,0,0,1,.612-.141A1.361,1.361,0,0,1,252.41,444.669Z" transform="translate(-250.638 -436.806)" fill="#fff"/>
          </g>
          <g id="Group_15" data-name="Group 15" transform="translate(40.467 17.697) rotate(-31)">
            <path id="Path_75" data-name="Path 75" d="M4.532.066l.983,3.026a.1.1,0,0,0,.091.066H8.788a.1.1,0,0,1,.056.173L6.27,5.2a.1.1,0,0,0-.034.107l.983,3.026a.1.1,0,0,1-.147.107L4.5,6.569a.1.1,0,0,0-.112,0L1.812,8.439a.1.1,0,0,1-.147-.107l.983-3.026A.094.094,0,0,0,2.613,5.2L.039,3.331A.1.1,0,0,1,.1,3.158H3.277a.1.1,0,0,0,.091-.066L4.351.066A.1.1,0,0,1,4.532.066Z" transform="translate(0 0.631)" fill="#fff"/>
            <path id="Path_76" data-name="Path 76" d="M1.091.016l.236.727a.023.023,0,0,0,.021.015h.764A.023.023,0,0,1,2.126.8l-.619.449a.024.024,0,0,0-.009.026L1.735,2a.023.023,0,0,1-.035.026l-.619-.449a.022.022,0,0,0-.026,0l-.619.449A.023.023,0,0,1,.4,2l.236-.727a.022.022,0,0,0-.009-.026L.009.8A.023.023,0,0,1,.023.759H.787A.022.022,0,0,0,.809.743L1.045.016A.024.024,0,0,1,1.091.016Z" transform="translate(0.255)" fill="#fff"/>
            <path id="Path_77" data-name="Path 77" d="M.658.01.8.448A.013.013,0,0,0,.814.457h.461a.014.014,0,0,1,.008.025L.909.753A.013.013,0,0,0,.9.769l.143.438a.014.014,0,0,1-.022.015L.652.952a.014.014,0,0,0-.016,0l-.373.271a.014.014,0,0,1-.021-.015L.384.769A.013.013,0,0,0,.379.753L.006.482A.014.014,0,0,1,.014.457H.474A.013.013,0,0,0,.487.448L.63.01A.015.015,0,0,1,.658.01Z" transform="translate(7.748 6.202)" fill="#fff"/>
          </g>
          <g id="Group_17" data-name="Group 17" transform="translate(23.81 16.413)">
            <path id="Path_79" data-name="Path 79" d="M269.254,201.291c-3.248.309-3.5.654-3.685,5.834a.018.018,0,0,1-.035,0c-.19-5.181-.438-5.524-3.685-5.834a.018.018,0,0,1,0-.035c3.248-.309,3.495-.654,3.685-5.834a.018.018,0,0,1,.035,0c.19,5.181.438,5.524,3.685,5.834A.018.018,0,0,1,269.254,201.291Z" transform="translate(-260.691 -193.418)" fill="#fff"/>
            <path id="Path_80" data-name="Path 80" d="M318.864,179.032c-1.848.176-1.989.372-2.1,3.32a.01.01,0,0,1-.02,0c-.109-2.947-.249-3.143-2.1-3.32a.01.01,0,0,1,0-.02c1.848-.176,1.989-.372,2.1-3.32a.01.01,0,0,1,.02,0c.109,2.947.249,3.143,2.1,3.32A.01.01,0,0,1,318.864,179.032Z" transform="translate(-308.179 -175.682)" fill="#fff"/>
            <path id="Path_81" data-name="Path 81" d="M253.084,191.663c-1.127.108-1.213.227-1.28,2.025a.006.006,0,0,1-.012,0c-.066-1.8-.152-1.917-1.28-2.025a.006.006,0,0,1,0-.012c1.127-.108,1.213-.227,1.28-2.025a.006.006,0,0,1,.012,0c.067,1.8.152,1.917,1.28,2.025A.006.006,0,0,1,253.084,191.663Z" transform="translate(-250.507 -188.216)" fill="#fff"/>
          </g>
          <g id="Group_18" data-name="Group 18" transform="translate(43.289 36.596)">
            <path id="Path_82" data-name="Path 82" d="M449.9,343.76c2.7,1.352,2.809,1.68,1.489,5.39-.006.016.023.028.03.012,1.647-3.577,1.958-3.733,4.831-2.816.019.006.028-.016.01-.025-2.7-1.352-2.809-1.68-1.489-5.39.006-.016-.023-.028-.03-.012-1.647,3.577-1.958,3.733-4.831,2.816C449.891,343.73,449.882,343.751,449.9,343.76Z" transform="translate(-449.89 -340.036)" fill="#fff"/>
            <path id="Path_83" data-name="Path 83" d="M454.6,329.921c.964.483,1,.6.532,1.926,0,.006.008.01.011,0,.589-1.278.7-1.334,1.726-1.007a0,0,0,1,0,0-.009c-.964-.483-1-.6-.532-1.926,0-.006-.008-.01-.011,0-.589,1.278-.7,1.334-1.726,1.007A0,0,0,1,0,454.6,329.921Z" transform="translate(-454.254 -328.902)" fill="#fff"/>
            <path id="Path_84" data-name="Path 84" d="M493.97,428.006c.661.332.689.412.365,1.322,0,0,.006.007.007,0,.4-.877.48-.916,1.185-.691,0,0,.006,0,0-.006-.661-.332-.689-.412-.365-1.322,0,0-.006-.007-.007,0-.4.877-.48.916-1.185.691C493.967,428,493.965,428,493.97,428.006Z" transform="translate(-490.754 -420.133)" fill="#fff"/>
            <path id="Path_85" data-name="Path 85" d="M524.28,380.558c.575.288.6.358.317,1.148,0,0,.005.006.007,0,.351-.762.417-.8,1.03-.6a0,0,0,1,0,0-.005c-.575-.288-.6-.358-.317-1.148,0,0-.005-.006-.007,0-.351.762-.417.8-1.029.6C524.277,380.551,524.275,380.556,524.28,380.558Z" transform="translate(-518.854 -376.23)" fill="#fff"/>
          </g>
          <g id="Group_20" data-name="Group 20" transform="translate(0 16.413)">
            <path id="Path_88" data-name="Path 88" d="M56.006,180.17l.548,4.109,3.555-2.133-2.871,2.991,3.884,1.448-4.128-.38,1.289,3.94-2.277-3.464-2.277,3.464,1.289-3.94-4.128.38,3.884-1.448L51.9,182.146l3.555,2.133Z" transform="translate(-50.89 -178.747)" fill="#fff"/>
            <path id="Path_89" data-name="Path 89" d="M158.484,163.14l.136,1.016.878-.527-.709.739.96.357-1.02-.094.318.974-.563-.856-.562.856.318-.974-1.02.094.96-.357-.71-.739.879.527Z" transform="translate(-148.338 -163.14)" fill="#fff"/>
          </g>
        </g>
        <g id="Moon" transform="translate(270.618 475.953)">
          <g id="Group_7" data-name="Group 7" transform="translate(0 0)">
            <g id="Group_6" data-name="Group 6" transform="translate(0 0)">
              <path id="Path_51" data-name="Path 51" d="M83.064,66.646A15.6,15.6,0,0,1,63.141,72.24c-.054-.027-.108-.054-.163-.08-.181-.09-.359-.183-.534-.276l-.171-.093h0q-.331-.188-.653-.388c-.047-.031-.095-.059-.139-.09l-.112-.073-.156-.1c-.156-.1-.309-.21-.456-.319a.329.329,0,0,0-.039-.029c-.049-.034-.1-.071-.141-.105s-.095-.07-.139-.105c-.219-.168-.432-.339-.636-.515-.044-.034-.086-.071-.131-.112A15.73,15.73,0,0,1,54.45,60.2c0-.019,0-.034-.005-.051a15.6,15.6,0,0,1,5.226-13.731l.019-.017a15.1,15.1,0,0,1,3.467-2.287,16.019,16.019,0,0,1,2.805-1.031c.11-.031.22-.058.331-.085-8.469,5.957-8.215,18.864.709,24.225.029.02.058.036.088.054.141.086.288.173.437.258A14.535,14.535,0,0,0,83.064,66.646Z" transform="translate(-54.318 -43)" fill="none" stroke="#fff" stroke-width="1.5"/>
            </g>
          </g>
        </g>
      </g>
    </g>
    <text id="أذكار_المساء-2" data-name="أذكار المساء" transform="translate(324 497.355)" fill="#fff" font-size="18" font-family="AGOOGLE, A GOOGLE" letter-spacing="0.005em"><tspan x="0" y="0">أذكار المساء</tspan></text>
  </g>
</svg>
