<svg xmlns="http://www.w3.org/2000/svg" width="428" height="90" viewBox="0 0 428 90">
  <g id="أذكار_المساء" data-name="أذكار المساء" transform="translate(126 19)">
    <g id="Group_143" data-name="Group 143">
      <path id="Path_773" data-name="Path 773" d="M0,0H428V90H0Z" transform="translate(-126 -19)" fill="#40019b"/>
      <path id="Path_783" data-name="Path 783" d="M-126,71,182.8,2.113,300.892,71Z" fill="#fff" opacity="0.1"/>
      <g id="Moon" transform="translate(-51.382 1.51)">
        <g id="Group_7" data-name="Group 7" transform="translate(0 0)">
          <g id="Group_6" data-name="Group 6">
            <path id="Path_51" data-name="Path 51" d="M100.027,80.6a24.812,24.812,0,0,1-31.679,8.895c-.086-.043-.172-.086-.259-.127-.288-.143-.571-.291-.849-.439-.092-.049-.181-.1-.272-.148h0q-.526-.3-1.038-.617c-.075-.049-.151-.094-.221-.143l-.178-.116c-.084-.054-.167-.111-.248-.164-.248-.164-.491-.334-.725-.507a.522.522,0,0,0-.062-.046c-.078-.054-.154-.113-.224-.167s-.151-.111-.221-.167c-.348-.267-.687-.539-1.011-.819-.07-.054-.137-.113-.208-.178a25.012,25.012,0,0,1-8.3-15.5c0-.03-.005-.054-.008-.081a24.807,24.807,0,0,1,8.31-21.833.32.32,0,0,1,.03-.027,24.012,24.012,0,0,1,5.512-3.636,25.471,25.471,0,0,1,4.461-1.639c.175-.049.35-.092.526-.135C59.892,52.472,60.3,72.994,74.485,81.52c.046.032.092.057.14.086.224.137.458.275.7.41C84.2,86.652,93.4,85.4,100.027,80.6Z" transform="translate(-54.318 -43)" fill="none" stroke="#fff" stroke-width="1.5"/>
          </g>
        </g>
      </g>
    </g>
    <text id="أذكار_المساء-2" data-name="أذكار المساء" transform="translate(135 34)" fill="#fff" font-size="25" font-family="AGOOGLE, A GOOGLE"><tspan x="0" y="0">أذكار المساء</tspan></text>
  </g>
</svg>
