<svg xmlns="http://www.w3.org/2000/svg" width="428" height="90" viewBox="0 0 428 90">
  <g id="أذكار_الصباح" data-name="أذكار الصباح" transform="translate(126 19)">
    <g id="Group_142" data-name="Group 142">
      <path id="Path_773" data-name="Path 773" d="M0,0H428V90H0Z" transform="translate(-126 -19)" fill="#ffb300"/>
      <path id="Path_783" data-name="Path 783" d="M-126,71,182.8,2.113,300.892,71Z" fill="#fff" opacity="0.1"/>
      <g id="Sun" transform="translate(-76.288 -3.217)">
        <g id="Group_10" data-name="Group 10" transform="translate(10.371 0.658)">
          <g id="Group_9" data-name="Group 9" transform="translate(0)">
            <path id="Path_52" data-name="Path 52" d="M105.522,516.066A17.726,17.726,0,1,1,87.8,498.34,17.731,17.731,0,0,1,105.522,516.066Z" transform="translate(-58.193 -487.82)" fill="none" stroke="#fff" stroke-width="2"/>
            <g id="Group_8" data-name="Group 8">
              <path id="Path_53" data-name="Path 53" d="M98.23,486.984l2.377-3.974,2.377,3.974Z" transform="translate(-71.004 -480.846)" fill="#fff"/>
              <path id="Path_54" data-name="Path 54" d="M84.215,487.325l-.485-8.285,4.955,6.661Z" transform="translate(-64.407 -479.04)" fill="#fff"/>
              <path id="Path_55" data-name="Path 55" d="M72.566,498.773,71.83,494.2l4.377,1.521Z" transform="translate(-58.993 -485.937)" fill="#fff"/>
              <path id="Path_56" data-name="Path 56" d="M60.531,509.319l-5.7-6.039,8.078,1.919Z" transform="translate(-51.26 -490.067)" fill="#fff"/>
              <path id="Path_57" data-name="Path 57" d="M58.969,524.2l-3.5-3.031L59.8,519.52Z" transform="translate(-51.551 -497.455)" fill="#fff"/>
              <path id="Path_58" data-name="Path 58" d="M56.527,538.282l-8.247-.959L55.7,533.6Z" transform="translate(-48.28 -503.861)" fill="#fff"/>
              <path id="Path_59" data-name="Path 59" d="M65.783,551.475,61.15,551.4l2.257-4.044Z" transform="translate(-54.135 -510.12)" fill="#fff"/>
              <path id="Path_60" data-name="Path 60" d="M74.073,562.178,67.14,566.74l3.292-7.62Z" transform="translate(-56.86 -515.47)" fill="#fff"/>
              <path id="Path_61" data-name="Path 61" d="M89.09,569.1l-3.6,2.922-.872-4.546Z" transform="translate(-64.812 -519.274)" fill="#fff"/>
              <path id="Path_62" data-name="Path 62" d="M102.983,571.41l-2.377,7.953L98.23,571.41Z" transform="translate(-71.004 -521.061)" fill="#fff"/>
              <path id="Path_63" data-name="Path 63" d="M116.83,567.47l-.872,4.551-3.6-2.922Z" transform="translate(-77.432 -519.269)" fill="#fff"/>
              <path id="Path_64" data-name="Path 64" d="M128.961,559.12l3.292,7.62-6.933-4.562Z" transform="translate(-83.327 -515.47)" fill="#fff"/>
              <path id="Path_65" data-name="Path 65" d="M137.907,547.36l2.257,4.044-4.633.071Z" transform="translate(-87.972 -510.12)" fill="#fff"/>
              <path id="Path_66" data-name="Path 66" d="M142.6,533.6l7.418,3.723-8.247.959Z" transform="translate(-90.811 -503.861)" fill="#fff"/>
              <path id="Path_67" data-name="Path 67" d="M141.77,519.52l4.328,1.651-3.5,3.031Z" transform="translate(-90.811 -497.455)" fill="#fff"/>
              <path id="Path_68" data-name="Path 68" d="M135.53,505.2l8.078-1.919-5.7,6.039Z" transform="translate(-87.972 -490.067)" fill="#fff"/>
              <path id="Path_69" data-name="Path 69" d="M125.32,495.721,129.7,494.2l-.736,4.573Z" transform="translate(-83.327 -485.937)" fill="#fff"/>
              <path id="Path_70" data-name="Path 70" d="M112.36,485.7l4.955-6.655-.485,8.285Z" transform="translate(-77.432 -479.04)" fill="#fff"/>
            </g>
          </g>
        </g>
      </g>
    </g>
    <text id="أذكار_الصباح-2" data-name="أذكار الصباح" transform="translate(141 34)" fill="#fff" font-size="25" font-family="AGOOGLE, A GOOGLE"><tspan x="0" y="0">أذكار الصباح</tspan></text>
  </g>
</svg>
