<svg height="205" viewBox="0 0 354 205" width="354" xmlns="http://www.w3.org/2000/svg" xmlns:xlink="http://www.w3.org/1999/xlink"><linearGradient id="a" gradientUnits="objectBoundingBox" x1=".538" x2=".613" y2="1.545"><stop offset="0" stop-color="#00c4ff"/><stop offset="1" stop-color="#006d94"/></linearGradient><linearGradient id="b" gradientUnits="objectBoundingBox" x1=".5" x2=".629" y2="2.192"><stop offset="0" stop-color="#00c4ff"/><stop offset="1" stop-color="#006280"/></linearGradient><rect fill="url(#a)" height="173" rx="10" transform="translate(0 32)" width="354"/><g fill="#fff"><circle cx="45" cy="50" opacity=".15" r="9"/><circle cx="302" cy="173" opacity=".15" r="9"/><circle cx="45" cy="191" opacity=".15" r="9"/><circle cx="237" cy="75" opacity=".15" r="9"/><circle cx="176.5" cy="27.5" r="27.5"/></g><circle cx="23" cy="23" fill="url(#b)" r="23" transform="translate(154 5)"/><path d="m3.076 18.806.076-13.368h-1.509v17.009a25.71 25.71 0 0 1 6.25-.891 17.58 17.58 0 0 1 5.81.915 12.405 12.405 0 0 0 -3.982-2.161 14.554 14.554 0 0 0 -5.759-.61.823.823 0 0 1 -.886-.75.684.684 0 0 1 0-.141zm22.144-14.066a.989.989 0 0 1 -.01-.124.712.712 0 0 1 .01-.124v-2.707a12.558 12.558 0 0 0 -5.564.677 7.668 7.668 0 0 0 -3.87 3.028v15.416a19.628 19.628 0 0 1 4.279-2.215 12.307 12.307 0 0 1 5.155-.735zm1.643-.94h2.225a.821.821 0 0 1 .82.82v18.9a.821.821 0 0 1 -.82.82.8.8 0 0 1 -.265-.044 25.474 25.474 0 0 0 -6.813-1.105 15.812 15.812 0 0 0 -6.591 1.344.827.827 0 0 1 -.467.136.838.838 0 0 1 -.467-.136 15.766 15.766 0 0 0 -6.591-1.344 25.489 25.489 0 0 0 -6.813 1.105.8.8 0 0 1 -.265.044.816.816 0 0 1 -.816-.82v-18.904a.821.821 0 0 1 .82-.816h2.339l.015-2.741a.819.819 0 0 1 .652-.8 13.013 13.013 0 0 1 7.083.541 9.1 9.1 0 0 1 4.091 2.981 9.552 9.552 0 0 1 4.08-2.853 14.388 14.388 0 0 1 7.08-.681.819.819 0 0 1 .7.81v2.743zm-10.281 18.547a17.66 17.66 0 0 1 5.435-.793 25.591 25.591 0 0 1 6.25.891v-17.007h-1.4v13.44a.821.821 0 0 1 -.82.82.811.811 0 0 1 -.19-.022 10.507 10.507 0 0 0 -5.235.557 18.344 18.344 0 0 0 -4.035 2.113zm-2.436-1.6v-15.282a7.238 7.238 0 0 0 -3.819-3.132 11.326 11.326 0 0 0 -5.52-.587l-.092 16.261a15.867 15.867 0 0 1 5.51.745 14.041 14.041 0 0 1 3.921 2z" fill="#fff" transform="translate(162.046 15.167)"/></svg>