<svg xmlns="http://www.w3.org/2000/svg" xmlns:xlink="http://www.w3.org/1999/xlink" width="56.51" height="57.287" viewBox="0 0 56.51 57.287">
  <defs>
    <clipPath id="clip-path">
      <rect id="Rectangle_11" data-name="Rectangle 11" width="56" height="57" rx="28" transform="translate(0.264 -0.308)" fill="#99c0e1" opacity="0.486"/>
    </clipPath>
  </defs>
  <g id="_3" data-name="3" transform="translate(0 0.308)">
    <path id="Path_20" data-name="Path 20" d="M28.167,0A28.167,28.167,0,0,1,56.334,28.167v.348A28.167,28.167,0,1,1,0,28.515v-.348A28.167,28.167,0,0,1,28.167,0Z" transform="translate(0 0.297)" fill="#99c0e1" opacity="0"/>
    <g id="Mask_Group_3" data-name="Mask Group 3" transform="translate(0.246 0)" clip-path="url(#clip-path)">
      <text id="Likes" transform="translate(56.264 29.692)" fill="#444d5e" font-size="12" font-family="Poppins-SemiBold, Poppins" font-weight="600" opacity="0"><tspan x="0" y="0">Likes</tspan></text>
      <g id="Book_mark" data-name="Book mark" transform="translate(16.783 13.39)">
        <g id="Group_3" data-name="Group 3" transform="translate(0)">
          <g id="Group_1" data-name="Group 1">
            <path id="Path_12" data-name="Path 12" d="M116.8,314.217h11.839a.678.678,0,0,0,.678-.678V297.078a.678.678,0,0,0-.678-.678H116.8a.678.678,0,0,0-.678.678v16.461A.68.68,0,0,0,116.8,314.217Zm-.122-17.137a.125.125,0,0,1,.125-.124H128.64a.125.125,0,0,1,.125.124v16.461a.125.125,0,0,1-.125.125H116.8a.125.125,0,0,1-.125-.125Z" transform="translate(-110.546 -293.079)" fill="#5c1fa0" stroke="#5c1fa0" stroke-width="0.5"/>
            <path id="Path_13" data-name="Path 13" d="M116.365,308.238a.366.366,0,0,0-.086-.556,1.032,1.032,0,0,0,.066-.2.951.951,0,0,0,.02-.191V285.657a2.357,2.357,0,0,0-2.436-2.327H97.295a.954.954,0,0,0-.78.4.392.392,0,0,0-.285-.127H94.566a.386.386,0,0,0-.386.386.168.168,0,0,0,0,.036c0,.005,0,2.6,0,2.124v25.925a1.4,1.4,0,0,0,1.4,1.4h20.508a.369.369,0,0,0,.368-.368.374.374,0,0,0-.091-.241ZM96.9,284.278a.4.4,0,0,1,.4-.394h16.634a1.789,1.789,0,0,1,1.883,1.773v21.634a.432.432,0,0,1-.008.079.4.4,0,0,1-.183.257H97.089a.392.392,0,0,1-.185-.259.352.352,0,0,1-.008-.076Zm-1.979,27.8v-2.955a.748.748,0,0,1,.663-.755h20.234v2.152H112.4a.2.2,0,0,0,0,.4h3.412v.737H106.87a.2.2,0,0,0,0,.4h8.943v.676H95.58A.659.659,0,0,1,94.917,312.077Z" transform="translate(-94.18 -283.33)" fill="#5c1fa0" stroke="#5c1fa0" stroke-width="0.5"/>
            <path id="Path_14" data-name="Path 14" d="M133.887,386.241a.2.2,0,0,0,.135-.188.2.2,0,0,0-.135-.191.191.191,0,0,0-.066-.013H124.6a.2.2,0,0,0-.2.2.2.2,0,0,0,.2.2h9.22A.117.117,0,0,0,133.887,386.241Z" transform="translate(-116.722 -359.803)" fill="#5c1fa0" stroke="#5c1fa0" stroke-width="0.5"/>
            <path id="Path_15" data-name="Path 15" d="M108.03,390.35h-4.969a.2.2,0,0,0,0,.4h4.969a.2.2,0,0,0,0-.4Z" transform="translate(-100.655 -363.16)" fill="#5c1fa0" stroke="#5c1fa0" stroke-width="0.5"/>
          </g>
          <g id="Group_2" data-name="Group 2" transform="translate(6.615 6.32)">
            <path id="Path_16" data-name="Path 16" d="M126.11,311.528l1.278,3.935a.126.126,0,0,0,.119.086h4.136a.124.124,0,0,1,.074.224l-3.346,2.431a.128.128,0,0,0-.046.14l1.278,3.935a.124.124,0,0,1-.191.14l-3.346-2.431a.13.13,0,0,0-.147,0l-3.346,2.431a.124.124,0,0,1-.191-.14l1.278-3.935a.125.125,0,0,0-.046-.14l-3.346-2.431a.123.123,0,0,1,.074-.224h4.136a.128.128,0,0,0,.119-.086l1.278-3.935A.123.123,0,0,1,126.11,311.528Z" transform="translate(-120.218 -310.621)" fill="#5c1fa0" stroke="#5c1fa0" stroke-width="0.5"/>
            <path id="Path_17" data-name="Path 17" d="M122.933,308.228l.307.945a.03.03,0,0,0,.028.02h.993a.03.03,0,0,1,.018.053l-.805.584a.028.028,0,0,0-.01.033l.307.945a.029.029,0,0,1-.046.033l-.805-.584a.031.031,0,0,0-.036,0l-.805.584a.029.029,0,0,1-.046-.033l.307-.945a.028.028,0,0,0-.01-.033l-.805-.584a.03.03,0,0,1,.018-.053h.993a.028.028,0,0,0,.028-.02l.307-.945A.033.033,0,0,1,122.933,308.228Z" transform="translate(-121.184 -308.207)" fill="#5c1fa0" stroke="#5c1fa0" stroke-width="0.5"/>
            <path id="Path_18" data-name="Path 18" d="M160.715,339.966l.185.569a.019.019,0,0,0,.018.013h.6a.018.018,0,0,1,.01.033l-.485.353a.021.021,0,0,0-.008.02l.185.569a.018.018,0,0,1-.028.02l-.485-.353a.016.016,0,0,0-.02,0l-.485.353a.018.018,0,0,1-.028-.02l.185-.569a.017.017,0,0,0-.008-.02l-.485-.353a.018.018,0,0,1,.01-.033h.6a.019.019,0,0,0,.018-.013l.185-.569A.02.02,0,0,1,160.715,339.966Z" transform="translate(-149.787 -331.889)" fill="#5c1fa0" stroke="#5c1fa0" stroke-width="0.5"/>
          </g>
        </g>
      </g>
    </g>
  </g>
</svg>
