<svg height="61" viewBox="0 0 170 61" width="170" xmlns="http://www.w3.org/2000/svg" xmlns:xlink="http://www.w3.org/1999/xlink"><linearGradient id="a" gradientUnits="objectBoundingBox" x1=".033" x2=".956" y1=".057" y2=".976"><stop offset="0" stop-color="#490496"/><stop offset="1" stop-color="#7900ff"/></linearGradient><rect fill="url(#a)" height="52" rx="10" transform="translate(0 9)" width="170"/><g fill="#fff"><circle cx="155" cy="52" opacity=".15" r="9"/><circle cx="105" cy="9" opacity=".15" r="9"/><path d="m258.374 357.63.418.766.766.419-.766.419-.418.766-.419-.766-.766-.419.766-.419z" transform="matrix(.259 -.966 .966 .259 -353.469075 190.863722)"/><path d="m351.6 174.35.307.562.563.309-.563.307-.307.563-.309-.563-.562-.307.562-.309z" transform="matrix(.259 -.966 .966 .259 -220.713207 310.595635)"/><path d="m264.248 176.06.307.562.561.307-.561.306-.307.562-.307-.562-.561-.306.561-.307z" transform="matrix(.259 -.966 .966 .259 -202.494538 236.909974)"/><path d="m174.4 310.47.307.562.561.306-.561.307-.307.562-.307-.562-.561-.307.561-.306z" transform="matrix(.259 -.966 .966 .259 -295.070903 131.269418)"/><path d="m95.615 221.65.147.269.269.147-.269.147-.147.269-.147-.269-.268-.147.268-.147z" transform="matrix(.259 -.966 .966 .259 -202.91262 85.52187)"/><path d="m188.906 355.51.147.268.268.147-.268.147-.147.269-.147-.269-.269-.147.269-.147z" transform="matrix(.259 -.966 .966 .259 -336.232583 133.68992)"/><path d="m138.656 203.74.147.268.269.147-.269.147-.147.269-.147-.269-.269-.147.269-.147z" transform="matrix(.259 -.966 .966 .259 -197.567343 125.669166)"/><path d="m142.569 410.34.309.562.562.309-.562.307-.309.563-.307-.563-.562-.307.562-.309z" transform="matrix(.259 -.966 .966 .259 -371.716556 82.088489)"/><path d="m197.738 89.84.328.6.6.328-.6.328-.328.6-.328-.6-.6-.328.6-.328z" transform="matrix(.259 -.966 .966 .259 -115.164393 200.446001)"/><path d="m375.521 384.68.307.562.563.309-.563.307-.307.562-.307-.562-.563-.307.563-.309z" transform="matrix(.259 -.966 .966 .259 -402.595726 283.345482)"/><path d="m251.195 308.46.147.269.269.147-.269.147-.147.268-.147-.268-.268-.147.268-.147z" transform="matrix(.259 -.966 .966 .259 -310.76498 196.546994)"/><path d="m376.646 122.74.147.268.269.147-.269.147-.147.269-.147-.269-.269-.147.269-.147z" transform="matrix(.259 -.966 .966 .259 -183.140931 343.606473)"/><path d="m361.236 217.31.147.269.268.147-.268.147-.147.268-.147-.268-.269-.147.269-.147z" transform="matrix(.259 -.966 .966 .259 -259.033496 309.397004)"/><path d="m174.165 124.04.147.269.269.147-.269.147-.147.269-.147-.269-.268-.147.268-.147z" transform="matrix(.259 -.966 .966 .259 -138.67474 173.399492)"/><path d="m103.016 352.59.147.268.268.147-.268.147-.147.269-.147-.269-.269-.152.269-.147z" transform="matrix(.259 -.966 .966 .259 -314.45804 62.270586)"/><path d="m114.6 173.93.441.807.808.442-.808.441-.441.807-.442-.807-.807-.441.807-.442z" transform="matrix(.259 -.966 .966 .259 -166.951709 111.489378)"/></g><circle cx="1.656" cy="1.656" fill="#dc3d1d" r="1.656" transform="matrix(-.13469544494 -.99100662885 .99100662885 -.13469544494 32.508538 22.943515)"/><path d="m298.631 144.168a1.654 1.654 0 0 0 3.1.478 2.909 2.909 0 0 1 -.912.28 2.112 2.112 0 0 1 -.59-.007 1.79 1.79 0 0 1 -1.169-.738 1.771 1.771 0 0 1 -.3-.781 1.837 1.837 0 0 1 0-.21 1.645 1.645 0 0 0 -.129.978z" opacity=".14" transform="matrix(.259 -.966 .966 .259 -182.838258 273.866733)"/><path d="m304.64 138.8a1.224 1.224 0 0 0 -.189-.467 1.358 1.358 0 0 0 -.907-.52 1.5 1.5 0 0 0 -1.406.528c-.039.058-.075.137-.033.193a.124.124 0 0 0 .131.034.413.413 0 0 0 .125-.072 1.892 1.892 0 0 1 .867-.4.953.953 0 0 1 .869.309.833.833 0 0 1 .172.461 1.047 1.047 0 0 0 .021.2.2.2 0 0 0 .13.146.192.192 0 0 0 .209-.139.584.584 0 0 0 .011-.273z" fill="#fff" opacity=".28" transform="matrix(.259 -.966 .966 .259 -179.08945 278.000954)"/><path d="m318.872 150.144a.171.171 0 0 0 .035.08.12.12 0 0 0 .125.025.22.22 0 0 0 .1-.084c.067-.1.116-.327-.05-.357-.182-.034-.239.204-.21.336z" fill="#fff" opacity=".28" transform="matrix(.259 -.966 .966 .259 -192.946776 289.378187)"/><circle cx="1.656" cy="1.656" fill="#dc3d1d" r="1.656" transform="matrix(-.08541115863 -.9964647175 .9964647175 -.08541115863 29.256296 23.198098)"/><path d="m290.008 121.568a1.654 1.654 0 0 0 3.1.478 2.908 2.908 0 0 1 -.913.28 2.111 2.111 0 0 1 -.59-.007 1.761 1.761 0 0 1 -1.467-1.519 1.844 1.844 0 0 1 0-.21 1.636 1.636 0 0 0 -.13.978z" opacity=".14" transform="matrix(.259 -.966 .966 .259 -161.932352 271.714408)"/><path d="m296.01 116.2a1.225 1.225 0 0 0 -.189-.467 1.358 1.358 0 0 0 -.907-.52 1.5 1.5 0 0 0 -1.406.528c-.039.058-.075.137-.033.193a.124.124 0 0 0 .131.034.412.412 0 0 0 .125-.072 1.893 1.893 0 0 1 .867-.4.954.954 0 0 1 .869.309.833.833 0 0 1 .172.461 1.045 1.045 0 0 0 .021.2.2.2 0 0 0 .13.146.192.192 0 0 0 .209-.139.566.566 0 0 0 .011-.273z" fill="#fff" opacity=".28" transform="matrix(.259 -.966 .966 .259 -158.182249 275.843799)"/><path d="m310.242 127.553a.171.171 0 0 0 .035.08.12.12 0 0 0 .125.025.22.22 0 0 0 .1-.084c.067-.1.116-.327-.05-.357-.184-.036-.239.202-.21.336z" fill="#fff" opacity=".28" transform="matrix(.259 -.966 .966 .259 -172.046337 287.219219)"/><path d="m248.02 96.391a1.656 1.656 0 1 1 -1.509-1.791 1.656 1.656 0 0 1 1.509 1.791z" fill="#dc3d1d" transform="matrix(.259 -.966 .966 .259 -129.931999 239.575455)"/><path d="m244.73 100.093a1.654 1.654 0 0 0 2.878 1.249 2.914 2.914 0 0 1 -.955.039 2.089 2.089 0 0 1 -.569-.156 1.79 1.79 0 0 1 -.943-1.01 1.772 1.772 0 0 1 -.091-.831 1.93 1.93 0 0 1 .054-.2 1.631 1.631 0 0 0 -.374.909z" opacity=".14" transform="matrix(.259 -.966 .966 .259 -133.782874 238.552293)"/><path d="m252.269 97.845a1.232 1.232 0 0 0 -.064-.5 1.356 1.356 0 0 0 -.746-.733 1.5 1.5 0 0 0 -1.494.155c-.053.046-.106.113-.08.179a.122.122 0 0 0 .118.067.393.393 0 0 0 .138-.038 1.879 1.879 0 0 1 .939-.167.955.955 0 0 1 .763.519.833.833 0 0 1 .05.49.968.968 0 0 0 -.032.2.2.2 0 0 0 .089.175.191.191 0 0 0 .238-.083.584.584 0 0 0 .081-.264z" fill="#fff" opacity=".28" transform="matrix(.259 -.966 .966 .259 -132.680045 243.483653)"/><path d="m263.8 111.012a.164.164 0 0 0 .014.087.122.122 0 0 0 .114.056.21.21 0 0 0 .119-.055c.089-.077.194-.286.042-.358-.172-.082-.289.134-.289.27z" fill="#fff" opacity=".28" transform="matrix(.259 -.966 .966 .259 -147.761034 251.959729)"/><circle cx="1.656" cy="1.656" fill="#dc3d1d" r="1.656" transform="matrix(-.07208195414 -.99751751771 .99751751771 -.07208195414 35.49975 22.202698)"/><path d="m309.531 165.738a1.654 1.654 0 0 0 3.1.478 2.908 2.908 0 0 1 -.913.28 2.112 2.112 0 0 1 -.59-.007 1.765 1.765 0 0 1 -1.468-1.519 1.844 1.844 0 0 1 0-.21 1.654 1.654 0 0 0 -.129.978z" opacity=".14" transform="matrix(.259 -.966 .966 .259 -203.390671 278.160904)"/><path d="m315.54 160.355a1.223 1.223 0 0 0 -.189-.467 1.358 1.358 0 0 0 -.907-.52 1.5 1.5 0 0 0 -1.406.528c-.039.058-.075.137-.033.193a.124.124 0 0 0 .131.034.392.392 0 0 0 .123-.072 1.892 1.892 0 0 1 .867-.4.954.954 0 0 1 .869.309.833.833 0 0 1 .172.461 1.05 1.05 0 0 0 .021.2.2.2 0 0 0 .13.146.192.192 0 0 0 .209-.139.565.565 0 0 0 .013-.273z" fill="#fff" opacity=".28" transform="matrix(.259 -.966 .966 .259 -199.633876 282.296231)"/><path d="m329.763 171.713a.171.171 0 0 0 .035.08.12.12 0 0 0 .125.025.22.22 0 0 0 .1-.084c.067-.1.116-.327-.05-.357-.183-.036-.239.202-.21.336z" fill="#fff" opacity=".28" transform="matrix(.259 -.966 .966 .259 -213.495892 293.663923)"/><circle cx="1.656" cy="1.656" fill="#dc3d1d" r="1.656" transform="matrix(-.083755 -.996807 .996807 -.083755 38.379578 22.506806)"/><path d="m313.067 187.358a1.654 1.654 0 0 0 3.1.478 2.908 2.908 0 0 1 -.913.28 2.112 2.112 0 0 1 -.59-.007 1.765 1.765 0 0 1 -1.468-1.519 1.83 1.83 0 0 1 0-.21 1.644 1.644 0 0 0 -.129.978z" opacity=".14" transform="matrix(.259 -.966 .966 .259 -222.329731 276.263918)"/><path d="m319.07 181.985a1.224 1.224 0 0 0 -.189-.467 1.358 1.358 0 0 0 -.907-.52 1.5 1.5 0 0 0 -1.406.528c-.039.058-.075.137-.033.193a.124.124 0 0 0 .131.034.413.413 0 0 0 .125-.072 1.892 1.892 0 0 1 .867-.4.953.953 0 0 1 .869.309.833.833 0 0 1 .172.461 1.043 1.043 0 0 0 .021.2.2.2 0 0 0 .13.146.192.192 0 0 0 .209-.139.567.567 0 0 0 .011-.273z" fill="#fff" opacity=".28" transform="matrix(.259 -.966 .966 .259 -218.580335 280.392084)"/><path d="m333.3 193.334a.171.171 0 0 0 .036.08.12.12 0 0 0 .125.025.219.219 0 0 0 .1-.084c.067-.1.116-.327-.05-.357-.183-.034-.238.202-.211.336z" fill="#fff" opacity=".28" transform="matrix(.259 -.966 .966 .259 -232.436954 291.770542)"/><path d="m323.5 204.13a1.655 1.655 0 1 1 -1.393-1.882 1.655 1.655 0 0 1 1.393 1.882z" fill="#dc3d1d" transform="matrix(.259 -.966 .966 .259 -237.241894 278.711356)"/><path d="m320.238 207.1a1.653 1.653 0 0 0 2.794 1.425 2.876 2.876 0 0 1 -.955-.021 2.043 2.043 0 0 1 -.557-.192 1.765 1.765 0 0 1 -.918-1.9 2.025 2.025 0 0 1 .066-.2 1.653 1.653 0 0 0 -.43.888z" opacity=".14" transform="matrix(.259 -.966 .966 .259 -240.583687 277.824687)"/><path d="m328.181 205.562a1.185 1.185 0 0 0 -.034-.5 1.362 1.362 0 0 0 -.7-.779 1.5 1.5 0 0 0 -1.5.062c-.055.042-.113.106-.091.173a.122.122 0 0 0 .114.074.375.375 0 0 0 .141-.03 1.877 1.877 0 0 1 .948-.108.954.954 0 0 1 .729.566.835.835 0 0 1 .02.491 1.067 1.067 0 0 0 -.045.2.2.2 0 0 0 .079.18.194.194 0 0 0 .243-.067.6.6 0 0 0 .096-.262z" fill="#fff" opacity=".28" transform="matrix(.259 -.966 .966 .259 -240.08899 283.023741)"/><path d="m338.909 219.135a.162.162 0 0 0 .009.087.12.12 0 0 0 .11.063.218.218 0 0 0 .123-.047c.095-.071.211-.274.064-.355-.164-.09-.292.117-.306.252z" fill="#fff" opacity=".28" transform="matrix(.259 -.966 .966 .259 -255.404374 290.659355)"/><circle cx="1.656" cy="1.656" fill="#dc3d1d" r="1.656" transform="matrix(-.91115238648 -.41235703474 .41235703474 -.91115238648 47.010697 23.125928)"/><path d="m323.888 230.63a1.653 1.653 0 0 0 2.794 1.425 2.876 2.876 0 0 1 -.955-.021 2.042 2.042 0 0 1 -.557-.192 1.766 1.766 0 0 1 -.918-1.9 2.035 2.035 0 0 1 .066-.2 1.653 1.653 0 0 0 -.43.888z" opacity=".14" transform="matrix(.259 -.966 .966 .259 -261.151689 275.592429)"/><path d="m331.831 229.092a1.186 1.186 0 0 0 -.034-.5 1.362 1.362 0 0 0 -.7-.779 1.5 1.5 0 0 0 -1.5.062c-.055.042-.113.106-.091.173a.121.121 0 0 0 .114.074.375.375 0 0 0 .14-.03 1.876 1.876 0 0 1 .948-.108.954.954 0 0 1 .729.566.835.835 0 0 1 .02.491 1.065 1.065 0 0 0 -.045.2.2.2 0 0 0 .079.18.194.194 0 0 0 .243-.067.608.608 0 0 0 .097-.262z" fill="#fff" opacity=".28" transform="matrix(.259 -.966 .966 .259 -260.656026 280.791742)"/><path d="m342.559 242.672a.162.162 0 0 0 .009.087.12.12 0 0 0 .11.063.218.218 0 0 0 .123-.047c.095-.071.211-.274.064-.355-.165-.092-.292.115-.306.252z" fill="#fff" opacity=".28" transform="matrix(.259 -.966 .966 .259 -275.977465 288.426768)"/><path d="m330.653 251.63a1.655 1.655 0 1 1 -1.393-1.882 1.655 1.655 0 0 1 1.393 1.882z" fill="#dc3d1d" transform="matrix(.259 -.966 .966 .259 -278.711826 274.024772)"/><path d="m327.378 254.6a1.653 1.653 0 0 0 2.794 1.425 2.876 2.876 0 0 1 -.955-.021 2.043 2.043 0 0 1 -.557-.192 1.765 1.765 0 0 1 -.918-1.9 2.031 2.031 0 0 1 .066-.2 1.663 1.663 0 0 0 -.43.888z" opacity=".14" transform="matrix(.259 -.966 .966 .259 -282.051288 273.129409)"/><path d="m335.322 253.062a1.185 1.185 0 0 0 -.034-.5 1.363 1.363 0 0 0 -.7-.779 1.5 1.5 0 0 0 -1.5.062c-.055.042-.113.106-.091.173a.122.122 0 0 0 .114.074.376.376 0 0 0 .141-.03 1.876 1.876 0 0 1 .948-.108.954.954 0 0 1 .729.566.835.835 0 0 1 .02.491 1.068 1.068 0 0 0 -.045.2.2.2 0 0 0 .079.18.194.194 0 0 0 .243-.067.587.587 0 0 0 .096-.262z" fill="#fff" opacity=".28" transform="matrix(.259 -.966 .966 .259 -281.556591 278.328463)"/><path d="m346.049 266.632a.162.162 0 0 0 .009.087.12.12 0 0 0 .11.063.218.218 0 0 0 .123-.047c.095-.071.211-.274.064-.355-.165-.092-.291.12-.306.252z" fill="#fff" opacity=".28" transform="matrix(.259 -.966 .966 .259 -296.869077 285.964854)"/><path d="m331.683 275.52a1.655 1.655 0 1 1 -1.393-1.882 1.655 1.655 0 0 1 1.393 1.882z" fill="#dc3d1d" transform="matrix(.259 -.966 .966 .259 -298.99077 269.513349)"/><path d="m328.408 278.48a1.653 1.653 0 0 0 2.792 1.42 2.873 2.873 0 0 1 -.955-.021 2.04 2.04 0 0 1 -.557-.192 1.765 1.765 0 0 1 -.918-1.9 2.035 2.035 0 0 1 .066-.2 1.673 1.673 0 0 0 -.428.893z" opacity=".14" transform="matrix(.259 -.966 .966 .259 -302.322504 268.620058)"/><path d="m336.361 276.942a1.186 1.186 0 0 0 -.034-.5 1.362 1.362 0 0 0 -.7-.779 1.5 1.5 0 0 0 -1.5.062c-.055.042-.113.106-.091.173a.122.122 0 0 0 .114.074.374.374 0 0 0 .141-.03 1.877 1.877 0 0 1 .948-.108.954.954 0 0 1 .729.566.835.835 0 0 1 .02.491 1.07 1.07 0 0 0 -.045.2.2.2 0 0 0 .079.18.194.194 0 0 0 .243-.067.606.606 0 0 0 .096-.262z" fill="#fff" opacity=".28" transform="matrix(.259 -.966 .966 .259 -301.829172 273.828065)"/><path d="m347.089 290.522a.161.161 0 0 0 .009.087.12.12 0 0 0 .11.063.218.218 0 0 0 .123-.047c.095-.071.211-.274.064-.355-.166-.092-.295.115-.306.252z" fill="#fff" opacity=".28" transform="matrix(.259 -.966 .966 .259 -317.150352 281.462125)"/><circle cx="1.656" cy="1.656" fill="#dc3d1d" r="1.656" transform="matrix(-.94225152973 -.33525967755 .33525967755 -.94225152973 56.488011 24.987697)"/><path d="m327.948 302.84a1.653 1.653 0 0 0 2.794 1.425 2.876 2.876 0 0 1 -.955-.021 2.043 2.043 0 0 1 -.557-.192 1.765 1.765 0 0 1 -.918-1.9 2.026 2.026 0 0 1 .066-.2 1.667 1.667 0 0 0 -.43.888z" opacity=".14" transform="matrix(.259 -.966 .966 .259 -322.660689 262.753925)"/><path d="m335.9 301.3a1.186 1.186 0 0 0 -.034-.5 1.362 1.362 0 0 0 -.7-.779 1.5 1.5 0 0 0 -1.5.062c-.055.042-.113.106-.091.173a.122.122 0 0 0 .114.074.376.376 0 0 0 .14-.03 1.876 1.876 0 0 1 .948-.108.954.954 0 0 1 .729.566.835.835 0 0 1 .02.491 1.067 1.067 0 0 0 -.045.2.2.2 0 0 0 .079.18.194.194 0 0 0 .243-.067.622.622 0 0 0 .097-.262z" fill="#fff" opacity=".28" transform="matrix(.259 -.966 .966 .259 -322.167357 267.961932)"/><path d="m346.629 314.872a.162.162 0 0 0 .009.087.12.12 0 0 0 .11.063.218.218 0 0 0 .123-.047c.095-.071.211-.274.064-.354-.166-.093-.292.116-.306.251z" fill="#fff" opacity=".28" transform="matrix(.259 -.966 .966 .259 -337.480809 275.598064)"/><circle cx="1.656" cy="1.656" fill="#dc3d1d" r="1.656" transform="matrix(-.17358428346 -.98493933475 .98493933475 -.17358428346 56.877925 26.256076)"/><path d="m322.632 330.709a1.654 1.654 0 0 0 3.135.093 2.892 2.892 0 0 1 -.872.39 2.1 2.1 0 0 1 -.586.066 1.764 1.764 0 0 1 -1.643-1.329 1.865 1.865 0 0 1 -.025-.209 1.647 1.647 0 0 0 -.009.989z" opacity=".14" transform="matrix(.259 -.966 .966 .259 -344.756238 251.999419)"/><path d="m327.995 323.7a1.212 1.212 0 0 0 -.246-.44 1.359 1.359 0 0 0 -.964-.4 1.5 1.5 0 0 0 -1.33.7c-.031.062-.056.144-.009.2a.126.126 0 0 0 .135.018.387.387 0 0 0 .114-.087 1.891 1.891 0 0 1 .811-.5.953.953 0 0 1 .9.2.84.84 0 0 1 .227.436 1.023 1.023 0 0 0 .046.2.2.2 0 0 0 .147.129.192.192 0 0 0 .19-.164.6.6 0 0 0 -.021-.292z" fill="#fff" opacity=".28" transform="matrix(.259 -.966 .966 .259 -339.639336 255.94338)"/><path d="m343.155 334.137a.161.161 0 0 0 .045.075.118.118 0 0 0 .126.009.214.214 0 0 0 .091-.1c.055-.105.074-.337-.093-.348-.187-.008-.214.234-.169.364z" fill="#fff" opacity=".28" transform="matrix(.259 -.966 .966 .259 -352.789788 268.352987)"/><path d="m316.095 341.831a1.655 1.655 0 1 1 -2.064-1.1 1.656 1.656 0 0 1 2.064 1.1z" fill="#dc3d1d" transform="matrix(.259 -.966 .966 .259 -351.748643 241.394832)"/><path d="m312.932 350.379a1.654 1.654 0 0 0 3.135.093 2.892 2.892 0 0 1 -.872.39 2.1 2.1 0 0 1 -.586.066 1.764 1.764 0 0 1 -1.643-1.329 1.866 1.866 0 0 1 -.025-.209 1.647 1.647 0 0 0 -.009.989z" opacity=".14" transform="matrix(.259 -.966 .966 .259 -359.079946 239.43437)"/><path d="m318.3 343.37a1.212 1.212 0 0 0 -.246-.44 1.359 1.359 0 0 0 -.964-.4 1.5 1.5 0 0 0 -1.33.7c-.031.062-.056.144-.009.2a.126.126 0 0 0 .135.018.386.386 0 0 0 .114-.087 1.89 1.89 0 0 1 .811-.5.953.953 0 0 1 .9.2.839.839 0 0 1 .227.436 1.028 1.028 0 0 0 .046.2.2.2 0 0 0 .147.129.192.192 0 0 0 .19-.164.616.616 0 0 0 -.021-.292z" fill="#fff" opacity=".28" transform="matrix(.259 -.966 .966 .259 -353.965375 243.387025)"/><path d="m333.464 353.8a.162.162 0 0 0 .045.075.118.118 0 0 0 .126.009.213.213 0 0 0 .091-.1c.055-.105.074-.337-.093-.348-.189-.011-.214.232-.169.364z" fill="#fff" opacity=".28" transform="matrix(.259 -.966 .966 .259 -367.107581 255.796772)"/><circle cx="1.656" cy="1.656" fill="#dc3d1d" r="1.656" transform="matrix(-.37173735774 -.92846558707 .92846558707 -.37173735774 61.753348 30.548434)"/><path d="m301.679 373.121a1.654 1.654 0 0 0 3.12-.324 2.885 2.885 0 0 1 -.813.5 2.142 2.142 0 0 1 -.571.143 1.763 1.763 0 0 1 -1.8-1.1 1.707 1.707 0 0 1 -.053-.2 1.637 1.637 0 0 0 .117.981z" opacity=".14" transform="matrix(.259 -.966 .966 .259 -375.621926 224.808381)"/><path d="m306.412 364.26a1.205 1.205 0 0 0 -.3-.4 1.359 1.359 0 0 0 -1.01-.273 1.5 1.5 0 0 0 -1.226.868c-.024.066-.037.151.017.194a.123.123 0 0 0 .137 0 .353.353 0 0 0 .1-.1 1.893 1.893 0 0 1 .737-.607.953.953 0 0 1 .919.077.844.844 0 0 1 .284.4.993.993 0 0 0 .072.192.2.2 0 0 0 .163.108.193.193 0 0 0 .167-.188.572.572 0 0 0 -.06-.271z" fill="#fff" opacity=".28" transform="matrix(.259 -.966 .966 .259 -368.956582 228.684988)"/><path d="m322.314 373.687a.165.165 0 0 0 .055.068.124.124 0 0 0 .127-.007.216.216 0 0 0 .077-.108c.041-.112.029-.345-.139-.334-.189.014-.182.259-.12.381z" fill="#fff" opacity=".28" transform="matrix(.259 -.966 .966 .259 -381.267923 241.9543)"/><circle cx="1.656" cy="1.656" fill="#dc3d1d" r="1.656" transform="matrix(-.367759 -.930062 .930062 -.367759 63.66887 33.008647)"/><path d="m287.339 392.131a1.653 1.653 0 0 0 3.12-.324 2.887 2.887 0 0 1 -.813.5 2.143 2.143 0 0 1 -.571.143 1.763 1.763 0 0 1 -1.8-1.1 1.7 1.7 0 0 1 -.052-.2 1.637 1.637 0 0 0 .116.981z" opacity=".14" transform="matrix(.259 -.966 .966 .259 -388.347828 208.496827)"/><path d="m292.072 383.28a1.205 1.205 0 0 0 -.3-.4 1.359 1.359 0 0 0 -1.01-.273 1.5 1.5 0 0 0 -1.226.868c-.024.066-.037.151.017.194a.123.123 0 0 0 .137 0 .353.353 0 0 0 .1-.1 1.893 1.893 0 0 1 .737-.607.953.953 0 0 1 .919.077.843.843 0 0 1 .284.4.994.994 0 0 0 .072.192.2.2 0 0 0 .163.108.193.193 0 0 0 .167-.188.572.572 0 0 0 -.06-.271z" fill="#fff" opacity=".28" transform="matrix(.259 -.966 .966 .259 -381.691178 212.371103)"/><path d="m307.97 392.7a.166.166 0 0 0 .055.068.124.124 0 0 0 .127-.007.222.222 0 0 0 .077-.108c.041-.112.029-.345-.139-.334-.19.013-.181.255-.12.381z" fill="#fff" opacity=".28" transform="matrix(.259 -.966 .966 .259 -393.994014 225.639589)"/><path d="m269.861 394.844a1.656 1.656 0 1 1 -2.34.088 1.657 1.657 0 0 1 2.34-.088z" fill="#dc3d1d" transform="matrix(.259 -.966 .966 .259 -386.552048 190.889132)"/><path d="m267.87 406.312a1.654 1.654 0 0 0 2.755-1.5 2.856 2.856 0 0 1 -.557.776 2.07 2.07 0 0 1 -.473.352 1.763 1.763 0 0 1 -2.088-.318 1.839 1.839 0 0 1 -.127-.167 1.639 1.639 0 0 0 .49.857z" opacity=".14" transform="matrix(.259 -.966 .966 .259 -395.353253 188.799639)"/><path d="m271.019 396.288a1.211 1.211 0 0 0 -.435-.256 1.358 1.358 0 0 0 -1.036.138 1.5 1.5 0 0 0 -.8 1.272c0 .07.024.154.091.173a.124.124 0 0 0 .126-.053.4.4 0 0 0 .055-.133 1.879 1.879 0 0 1 .446-.843.955.955 0 0 1 .878-.282.831.831 0 0 1 .416.261.949.949 0 0 0 .141.15.2.2 0 0 0 .192.037.192.192 0 0 0 .081-.238.588.588 0 0 0 -.155-.226z" fill="#fff" opacity=".28" transform="matrix(.259 -.966 .966 .259 -388.254175 191.935191)"/><path d="m287.33 402.708a.162.162 0 0 0 .076.042.119.119 0 0 0 .114-.055.218.218 0 0 0 .03-.129c-.005-.118-.106-.33-.256-.253-.168.087-.068.306.036.395z" fill="#fff" opacity=".28" transform="matrix(.259 -.966 .966 .259 -397.704714 206.000522)"/><circle cx="1.656" cy="1.656" fill="#dc3d1d" r="1.656" transform="matrix(-.436926 -.899941 .899941 -.436926 65.628373 39.294185)"/><path d="m245.151 418.353a1.654 1.654 0 0 0 3.095-.516 2.888 2.888 0 0 1 -.78.55 2.074 2.074 0 0 1 -.562.177 1.763 1.763 0 0 1 -1.868-.985 1.864 1.864 0 0 1 -.066-.2 1.638 1.638 0 0 0 .181.974z" opacity=".14" transform="matrix(.259 -.966 .966 .259 -400.856912 167.154645)"/><path d="m249.643 408.649a1.223 1.223 0 0 0 -.326-.385 1.36 1.36 0 0 0 -1.024-.21 1.5 1.5 0 0 0 -1.17.941c-.02.067-.028.154.029.193a.124.124 0 0 0 .135-.008.377.377 0 0 0 .1-.108 1.884 1.884 0 0 1 .7-.65.953.953 0 0 1 .922.021.839.839 0 0 1 .307.383 1.086 1.086 0 0 0 .083.188.2.2 0 0 0 .169.1.192.192 0 0 0 .155-.2.582.582 0 0 0 -.08-.265z" fill="#fff" opacity=".28" transform="matrix(.259 -.966 .966 .259 -393.497063 171.063179)"/><path d="m265.758 417.6a.156.156 0 0 0 .059.064.122.122 0 0 0 .126-.014.219.219 0 0 0 .071-.112c.034-.113.007-.347-.159-.324-.187.021-.166.264-.097.386z" fill="#fff" opacity=".28" transform="matrix(.259 -.966 .966 .259 -405.381971 184.607318)"/><path d="m223.259 406.645a1.655 1.655 0 1 1 -2.239-.684 1.656 1.656 0 0 1 2.239.684z" fill="#dc3d1d" transform="matrix(.259 -.966 .966 .259 -385.527675 148.943634)"/><path d="m220.342 417.853a1.654 1.654 0 0 0 3.095-.516 2.886 2.886 0 0 1 -.78.55 2.073 2.073 0 0 1 -.562.177 1.763 1.763 0 0 1 -1.868-.985 1.871 1.871 0 0 1 -.066-.2 1.646 1.646 0 0 0 .181.974z" opacity=".14" transform="matrix(.259 -.966 .966 .259 -394.8557 146.447819)"/><path d="m224.833 408.159a1.222 1.222 0 0 0 -.326-.385 1.36 1.36 0 0 0 -1.024-.21 1.5 1.5 0 0 0 -1.17.941c-.02.067-.028.154.029.193a.124.124 0 0 0 .135-.008.4.4 0 0 0 .1-.108 1.883 1.883 0 0 1 .7-.65.953.953 0 0 1 .922.021.839.839 0 0 1 .307.383 1.086 1.086 0 0 0 .083.188.2.2 0 0 0 .169.1.192.192 0 0 0 .155-.2.582.582 0 0 0 -.08-.265z" fill="#fff" opacity=".28" transform="matrix(.259 -.966 .966 .259 -387.50332 150.353315)"/><path d="m240.952 417.106a.155.155 0 0 0 .059.064.122.122 0 0 0 .126-.014.219.219 0 0 0 .071-.112c.034-.113.007-.347-.159-.324-.187.025-.165.268-.097.386z" fill="#fff" opacity=".28" transform="matrix(.259 -.966 .966 .259 -399.39023 163.901059)"/><circle cx="1.656" cy="1.656" fill="#dc3d1d" r="1.656" transform="matrix(-.163009 -.986993 .986993 -.163009 62.637707 45.061184)"/><path d="m195.529 407.872a1.654 1.654 0 0 0 3.041.771 2.86 2.86 0 0 1 -.936.19 2.094 2.094 0 0 1 -.586-.063 1.764 1.764 0 0 1 -1.316-1.652 1.662 1.662 0 0 1 .021-.209 1.647 1.647 0 0 0 -.224.963z" opacity=".14" transform="matrix(.259 -.966 .966 .259 -380.949164 128.028278)"/><path d="m202.081 403.734a1.194 1.194 0 0 0 -.144-.483 1.359 1.359 0 0 0 -.853-.6 1.5 1.5 0 0 0 -1.45.391c-.045.054-.087.129-.051.189a.125.125 0 0 0 .127.047.379.379 0 0 0 .13-.06 1.892 1.892 0 0 1 .9-.315.952.952 0 0 1 .836.39.828.828 0 0 1 .127.475 1.067 1.067 0 0 0 0 .2.2.2 0 0 0 .116.158.194.194 0 0 0 .222-.119.574.574 0 0 0 .04-.273z" fill="#fff" opacity=".28" transform="matrix(.259 -.966 .966 .259 -378.243552 132.392239)"/><path d="m215.417 415.767a.168.168 0 0 0 .028.083.12.12 0 0 0 .122.037.213.213 0 0 0 .109-.074c.076-.091.146-.314-.016-.361-.181-.052-.26.18-.243.315z" fill="#fff" opacity=".28" transform="matrix(.259 -.966 .966 .259 -392.586349 142.799566)"/><path d="m176.17 393.133a1.655 1.655 0 1 1 -1.775-1.526 1.656 1.656 0 0 1 1.775 1.526z" fill="#dc3d1d" transform="matrix(.259 -.966 .966 .259 -363.005847 112.456491)"/><path d="m172.869 398.782a1.654 1.654 0 0 0 3.041.771 2.859 2.859 0 0 1 -.936.19 2.094 2.094 0 0 1 -.586-.063 1.763 1.763 0 0 1 -1.316-1.652 1.66 1.66 0 0 1 .021-.209 1.648 1.648 0 0 0 -.224.963z" opacity=".14" transform="matrix(.259 -.966 .966 .259 -368.223213 111.057632)"/><path d="m179.421 394.644a1.194 1.194 0 0 0 -.144-.483 1.359 1.359 0 0 0 -.853-.6 1.5 1.5 0 0 0 -1.45.391c-.045.054-.087.129-.051.189a.125.125 0 0 0 .127.047.379.379 0 0 0 .13-.06 1.892 1.892 0 0 1 .9-.315.952.952 0 0 1 .836.39.828.828 0 0 1 .127.475 1.069 1.069 0 0 0 0 .2.2.2 0 0 0 .116.158.194.194 0 0 0 .222-.12.574.574 0 0 0 .04-.272z" fill="#fff" opacity=".28" transform="matrix(.259 -.966 .966 .259 -365.517601 115.421593)"/><path d="m192.757 406.677a.168.168 0 0 0 .028.083.12.12 0 0 0 .122.037.214.214 0 0 0 .109-.074c.076-.091.146-.314-.016-.361-.181-.051-.259.18-.243.315z" fill="#fff" opacity=".28" transform="matrix(.259 -.966 .966 .259 -379.860398 125.82892)"/><path d="m156.018 378.116a1.655 1.655 0 1 1 -1.914-1.348 1.655 1.655 0 0 1 1.914 1.348z" fill="#dc3d1d" transform="matrix(.259 -.966 .966 .259 -346.006102 98.905548)"/><path d="m152.756 385.029a1.654 1.654 0 0 0 3.1.475 2.862 2.862 0 0 1 -.913.28 2.113 2.113 0 0 1 -.59-.007 1.762 1.762 0 0 1 -1.469-1.518 1.844 1.844 0 0 1 0-.21 1.64 1.64 0 0 0 -.128.98z" opacity=".14" transform="matrix(.259 -.966 .966 .259 -352.138011 97.26045)"/><path d="m158.764 379.647a1.224 1.224 0 0 0 -.19-.467 1.354 1.354 0 0 0 -.907-.519 1.5 1.5 0 0 0 -1.4.529c-.039.058-.074.137-.033.193a.124.124 0 0 0 .131.034.391.391 0 0 0 .123-.072 1.875 1.875 0 0 1 .867-.4.953.953 0 0 1 .869.307.835.835 0 0 1 .173.461 1.05 1.05 0 0 0 .021.2.2.2 0 0 0 .13.146.192.192 0 0 0 .209-.141.576.576 0 0 0 .007-.271z" fill="#fff" opacity=".28" transform="matrix(.259 -.966 .966 .259 -348.384373 101.395966)"/><path d="m172.992 390.993a.177.177 0 0 0 .035.08.12.12 0 0 0 .125.025.211.211 0 0 0 .1-.084c.067-.1.114-.327-.05-.357-.184-.036-.239.202-.21.336z" fill="#fff" opacity=".28" transform="matrix(.259 -.966 .966 .259 -362.235126 112.771855)"/><circle cx="1.656" cy="1.656" fill="#dc3d1d" r="1.656" transform="matrix(-.94144130962 -.33752815782 .33752815782 -.94144130962 57.620205 51.266355)"/><path d="m137.147 360a1.653 1.653 0 0 0 2.052 2.371 2.892 2.892 0 0 1 -.877-.378 2.085 2.085 0 0 1 -.444-.387 1.765 1.765 0 0 1 -.134-2.109 2.036 2.036 0 0 1 .137-.16 1.667 1.667 0 0 0 -.734.663z" opacity=".14" transform="matrix(.259 -.966 .966 .259 -327.843006 89.550461)"/><path d="m147.747 361.878a1.214 1.214 0 0 0 .159-.479 1.36 1.36 0 0 0 -.355-.983 1.5 1.5 0 0 0 -1.413-.508c-.067.018-.144.056-.15.126a.124.124 0 0 0 .077.112.393.393 0 0 0 .142.025 1.891 1.891 0 0 1 .919.256.951.951 0 0 1 .462.8.833.833 0 0 1 -.167.462 1.042 1.042 0 0 0 -.117.168.2.2 0 0 0 .005.2.193.193 0 0 0 .249.029.59.59 0 0 0 .189-.208z" fill="#fff" opacity=".28" transform="matrix(.259 -.966 .966 .259 -330.330477 97.043849)"/><path d="m152.7 377.556a.161.161 0 0 0 -.025.084.12.12 0 0 0 .079.1.213.213 0 0 0 .131 0c.114-.03.3-.175.193-.3-.112-.15-.308-.004-.378.116z" fill="#fff" opacity=".28" transform="matrix(.259 -.966 .966 .259 -346.523815 98.720146)"/><path d="m131.383 337.9a1.655 1.655 0 1 1 -1.431-1.853 1.655 1.655 0 0 1 1.431 1.853z" fill="#dc3d1d" transform="matrix(.259 -.966 .966 .259 -306.299995 87.381539)"/><path d="m128.1 341.1a1.654 1.654 0 0 0 2.823 1.368 2.874 2.874 0 0 1 -.955 0 2.041 2.041 0 0 1 -.561-.18 1.766 1.766 0 0 1 -.956-1.884 1.856 1.856 0 0 1 .062-.2 1.646 1.646 0 0 0 -.413.896z" opacity=".14" transform="matrix(.259 -.966 .966 .259 -309.794983 86.444477)"/><path d="m135.908 339.334a1.221 1.221 0 0 0 -.043-.5 1.356 1.356 0 0 0 -.714-.764 1.5 1.5 0 0 0 -1.5.092c-.055.043-.112.109-.088.175a.122.122 0 0 0 .116.072.379.379 0 0 0 .14-.033 1.888 1.888 0 0 1 .945-.127.955.955 0 0 1 .741.55.835.835 0 0 1 .029.491 1.068 1.068 0 0 0 -.041.2.2.2 0 0 0 .081.179.192.192 0 0 0 .24-.072.554.554 0 0 0 .094-.263z" fill="#fff" opacity=".28" transform="matrix(.259 -.966 .966 .259 -309.105861 91.551733)"/><path d="m146.9 352.781a.162.162 0 0 0 .01.087.119.119 0 0 0 .112.06.214.214 0 0 0 .122-.05c.093-.074.206-.278.058-.356-.167-.088-.289.122-.302.259z" fill="#fff" opacity=".28" transform="matrix(.259 -.966 .966 .259 -324.350755 99.465107)"/><path d="m118.453 317.042a1.655 1.655 0 1 1 -1.431-1.853 1.655 1.655 0 0 1 1.431 1.853z" fill="#dc3d1d" transform="matrix(.259 -.966 .966 .259 -285.886021 81.224766)"/><path d="m115.169 320.238a1.654 1.654 0 0 0 2.823 1.368 2.876 2.876 0 0 1 -.955 0 2.042 2.042 0 0 1 -.561-.18 1.766 1.766 0 0 1 -.956-1.884 1.859 1.859 0 0 1 .062-.2 1.646 1.646 0 0 0 -.413.896z" opacity=".14" transform="matrix(.259 -.966 .966 .259 -289.381009 80.287704)"/><path d="m122.978 318.474a1.222 1.222 0 0 0 -.043-.5 1.36 1.36 0 0 0 -.714-.764 1.5 1.5 0 0 0 -1.5.092c-.055.043-.112.109-.088.175a.122.122 0 0 0 .116.072.379.379 0 0 0 .141-.033 1.889 1.889 0 0 1 .945-.127.955.955 0 0 1 .741.55.835.835 0 0 1 .029.491 1.068 1.068 0 0 0 -.041.2.2.2 0 0 0 .081.179.192.192 0 0 0 .24-.072.554.554 0 0 0 .093-.263z" fill="#fff" opacity=".28" transform="matrix(.259 -.966 .966 .259 -288.691887 85.39496)"/><path d="m133.971 331.921a.162.162 0 0 0 .011.087.119.119 0 0 0 .112.06.214.214 0 0 0 .122-.05c.093-.073.206-.278.058-.356-.174-.088-.291.122-.303.259z" fill="#fff" opacity=".28" transform="matrix(.259 -.966 .966 .259 -303.936781 93.308334)"/><circle cx="1.656" cy="1.656" fill="#dc3d1d" r="1.656" transform="matrix(-.75312559714 -.65805686611 .65805686611 -.75312559714 47.416011 52.779902)"/><path d="m108.99 301.227a1.654 1.654 0 0 0 3.132.188 2.855 2.855 0 0 1 -.884.362 2.051 2.051 0 0 1 -.587.047 1.764 1.764 0 0 1 -1.6-1.376 2.072 2.072 0 0 1 -.02-.209 1.649 1.649 0 0 0 -.041.988z" opacity=".14" transform="matrix(.259 -.966 .966 .259 -271.953242 79.363802)"/><path d="m114.493 294.625a1.205 1.205 0 0 0 -.232-.448 1.36 1.36 0 0 0 -.952-.433 1.5 1.5 0 0 0 -1.351.656c-.034.06-.062.143-.014.194a.124.124 0 0 0 .134.022.384.384 0 0 0 .117-.084 1.878 1.878 0 0 1 .826-.478.952.952 0 0 1 .894.227.83.83 0 0 1 .214.442.955.955 0 0 0 .039.2.2.2 0 0 0 .143.134.192.192 0 0 0 .2-.159.554.554 0 0 0 -.018-.273z" fill="#fff" opacity=".28" transform="matrix(.259 -.966 .966 .259 -267.171759 83.330695)"/><path d="m129.468 305.279a.17.17 0 0 0 .043.076.119.119 0 0 0 .126.013.207.207 0 0 0 .093-.093c.058-.1.084-.336-.083-.351-.187-.017-.22.225-.179.355z" fill="#fff" opacity=".28" transform="matrix(.259 -.966 .966 .259 -280.499605 95.52914)"/><circle cx="1.656" cy="1.656" fill="#dc3d1d" r="1.656" transform="matrix(-.64874268655 -.76116353467 .76116353467 -.64874268655 44.318476 51.252551)"/><path d="m114.778 277.977a1.654 1.654 0 0 0 3.132.188 2.855 2.855 0 0 1 -.884.362 2.054 2.054 0 0 1 -.587.047 1.764 1.764 0 0 1 -1.6-1.376 2.068 2.068 0 0 1 -.02-.209 1.639 1.639 0 0 0 -.041.988z" opacity=".14" transform="matrix(.259 -.966 .966 .259 -253.743967 89.451166)"/><path d="m120.283 271.365a1.206 1.206 0 0 0 -.232-.448 1.36 1.36 0 0 0 -.952-.433 1.5 1.5 0 0 0 -1.351.656c-.034.06-.062.143-.014.194a.124.124 0 0 0 .134.022.384.384 0 0 0 .117-.084 1.878 1.878 0 0 1 .826-.478.955.955 0 0 1 .894.226.83.83 0 0 1 .214.443.954.954 0 0 0 .039.2.2.2 0 0 0 .143.134.192.192 0 0 0 .2-.159.565.565 0 0 0 -.018-.273z" fill="#fff" opacity=".28" transform="matrix(.259 -.966 .966 .259 -248.955533 93.423029)"/><path d="m135.249 282.029a.17.17 0 0 0 .043.076.118.118 0 0 0 .126.013.207.207 0 0 0 .093-.093c.058-.1.084-.336-.083-.351-.186-.017-.22.226-.179.355z" fill="#fff" opacity=".28" transform="matrix(.259 -.966 .966 .259 -262.290001 105.611415)"/><path d="m123.323 245.636a1.655 1.655 0 1 1 -2.03-1.166 1.655 1.655 0 0 1 2.03 1.166z" fill="#dc3d1d" transform="matrix(.259 -.966 .966 .259 -227.60974 101.269868)"/><path d="m120.134 253.777a1.654 1.654 0 0 0 3.132.188 2.854 2.854 0 0 1 -.884.362 2.054 2.054 0 0 1 -.587.047 1.764 1.764 0 0 1 -1.6-1.376 2.063 2.063 0 0 1 -.02-.209 1.659 1.659 0 0 0 -.041.988z" opacity=".14" transform="matrix(.259 -.966 .966 .259 -234.642101 99.391628)"/><path d="m125.643 247.165a1.2 1.2 0 0 0 -.232-.448 1.36 1.36 0 0 0 -.952-.433 1.5 1.5 0 0 0 -1.351.657c-.034.06-.062.143-.014.194a.124.124 0 0 0 .134.022.383.383 0 0 0 .117-.084 1.878 1.878 0 0 1 .826-.478.952.952 0 0 1 .894.227.83.83 0 0 1 .214.442.956.956 0 0 0 .039.2.2.2 0 0 0 .143.134.192.192 0 0 0 .2-.159.586.586 0 0 0 -.018-.274z" fill="#fff" opacity=".28" transform="matrix(.259 -.966 .966 .259 -229.854185 103.365423)"/><path d="m140.608 257.829a.17.17 0 0 0 .043.076.118.118 0 0 0 .126.013.213.213 0 0 0 .093-.093c.058-.1.084-.336-.083-.351-.187-.017-.22.226-.179.355z" fill="#fff" opacity=".28" transform="matrix(.259 -.966 .966 .259 -243.188394 115.552843)"/><circle cx="1.656" cy="1.656" fill="#dc3d1d" r="1.656" transform="matrix(-.65245467147 -.75798410254 .75798410254 -.65245467147 39.133422 47.493264)"/><path d="m132.17 232.317a1.654 1.654 0 0 0 3.132.188 2.854 2.854 0 0 1 -.884.362 2.052 2.052 0 0 1 -.587.047 1.764 1.764 0 0 1 -1.6-1.376 2.059 2.059 0 0 1 -.02-.209 1.648 1.648 0 0 0 -.041.988z" opacity=".14" transform="matrix(.259 -.966 .966 .259 -219.341774 114.319436)"/><path d="m137.673 225.705a1.206 1.206 0 0 0 -.232-.448 1.36 1.36 0 0 0 -.952-.433 1.5 1.5 0 0 0 -1.351.656c-.034.06-.062.143-.014.194a.124.124 0 0 0 .134.022.384.384 0 0 0 .117-.084 1.878 1.878 0 0 1 .826-.478.955.955 0 0 1 .894.226.83.83 0 0 1 .214.442.953.953 0 0 0 .039.2.2.2 0 0 0 .143.134.192.192 0 0 0 .2-.159.548.548 0 0 0 -.018-.272z" fill="#fff" opacity=".28" transform="matrix(.259 -.966 .966 .259 -214.551597 118.28866)"/><path d="m152.648 236.369a.17.17 0 0 0 .043.076.119.119 0 0 0 .126.013.213.213 0 0 0 .093-.093c.058-.1.084-.336-.083-.351-.187-.014-.22.225-.179.355z" fill="#fff" opacity=".28" transform="matrix(.259 -.966 .966 .259 -227.888137 130.484774)"/><circle cx="1.656" cy="1.656" fill="#dc3d1d" r="1.656" transform="matrix(-.88997679897 -.45626558803 .45626558803 -.88997679897 37.998365 44.860228)"/><path d="m146.914 215.584a1.654 1.654 0 0 0 3.075-.618 2.886 2.886 0 0 1 -.762.576 2.1 2.1 0 0 1 -.555.2 1.793 1.793 0 0 1 -1.351-.29 1.775 1.775 0 0 1 -.549-.63 1.64 1.64 0 0 1 -.072-.2 1.646 1.646 0 0 0 .214.962z" opacity=".14" transform="matrix(.259 -.966 .966 .259 -208.599105 130.315661)"/><path d="m151.271 205.4a1.2 1.2 0 0 0 -.339-.373 1.357 1.357 0 0 0 -1.031-.176 1.5 1.5 0 0 0 -1.138.98c-.017.067-.022.154.035.192a.122.122 0 0 0 .135-.013.375.375 0 0 0 .092-.11 1.888 1.888 0 0 1 .676-.674.951.951 0 0 1 .922-.009.843.843 0 0 1 .32.373.994.994 0 0 0 .089.184.2.2 0 0 0 .173.092.193.193 0 0 0 .148-.2.6.6 0 0 0 -.082-.266z" fill="#fff" opacity=".28" transform="matrix(.259 -.966 .966 .259 -200.836707 134.248254)"/><path d="m167.5 214.082a.164.164 0 0 0 .06.063.121.121 0 0 0 .126-.02.22.22 0 0 0 .067-.114c.03-.114 0-.347-.169-.318-.191.032-.162.275-.084.389z" fill="#fff" opacity=".28" transform="matrix(.259 -.966 .966 .259 -212.486982 147.93296)"/><circle cx="1.656" cy="1.656" fill="#dc3d1d" r="1.656" transform="matrix(-.68242488286 -.73111783563 .73111783563 -.68242488286 35.031394 42.58716)"/><path d="m159.988 190.437a1.654 1.654 0 0 0 3.088.55 2.849 2.849 0 0 1 -.919.257 2.053 2.053 0 0 1 -.588-.021 1.766 1.766 0 0 1 -1.432-1.553 1.732 1.732 0 0 1 .005-.21 1.644 1.644 0 0 0 -.154.977z" opacity=".14" transform="matrix(.259 -.966 .966 .259 -190.473256 147.117243)"/><path d="m166.122 185.374a1.214 1.214 0 0 0 -.179-.471 1.357 1.357 0 0 0 -.9-.541 1.5 1.5 0 0 0 -1.418.5c-.041.056-.077.135-.037.192a.123.123 0 0 0 .13.038.372.372 0 0 0 .126-.07 1.89 1.89 0 0 1 .876-.379.954.954 0 0 1 .861.328.842.842 0 0 1 .161.465.972.972 0 0 0 .016.2.2.2 0 0 0 .127.15.194.194 0 0 0 .213-.135.6.6 0 0 0 .024-.277z" fill="#fff" opacity=".28" transform="matrix(.259 -.966 .966 .259 -186.987676 151.294787)"/><path d="m180.145 196.892a.167.167 0 0 0 .034.081.119.119 0 0 0 .123.028.218.218 0 0 0 .1-.081c.07-.1.122-.324-.042-.358-.18-.04-.24.196-.215.33z" fill="#fff" opacity=".28" transform="matrix(.259 -.966 .966 .259 -200.966585 162.445794)"/><circle cx="1.656" cy="1.656" fill="#dc3d1d" r="1.656" transform="matrix(-.68025260576 -.73313940525 .73313940525 -.68025260576 33.157046 39.930898)"/><path d="m175.841 171.457a1.654 1.654 0 0 0 3.088.55 2.85 2.85 0 0 1 -.919.257 2.054 2.054 0 0 1 -.588-.021 1.765 1.765 0 0 1 -1.433-1.553 1.73 1.73 0 0 1 .005-.21 1.654 1.654 0 0 0 -.153.977z" opacity=".14" transform="matrix(.259 -.966 .966 .259 -178.112537 164.690421)"/><path d="m181.972 166.395a1.214 1.214 0 0 0 -.179-.471 1.357 1.357 0 0 0 -.9-.541 1.5 1.5 0 0 0 -1.418.5c-.041.056-.077.135-.037.192a.123.123 0 0 0 .13.038.372.372 0 0 0 .126-.07 1.89 1.89 0 0 1 .876-.379.954.954 0 0 1 .861.328.842.842 0 0 1 .161.465.97.97 0 0 0 .016.2.2.2 0 0 0 .127.15.194.194 0 0 0 .213-.135.563.563 0 0 0 .024-.277z" fill="#fff" opacity=".28" transform="matrix(.259 -.966 .966 .259 -174.62618 168.865067)"/><path d="m196 177.912a.166.166 0 0 0 .034.081.119.119 0 0 0 .123.028.217.217 0 0 0 .1-.081c.07-.1.122-.324-.042-.358-.175-.04-.235.196-.215.33z" fill="#fff" opacity=".28" transform="matrix(.259 -.966 .966 .259 -188.60742 180.024768)"/><circle cx="1.656" cy="1.656" fill="#dc3d1d" r="1.656" transform="matrix(-.93432815735 -.35674625189 .35674625189 -.93432815735 32.849375 36.77625)"/><path d="m195.138 161.018a1.654 1.654 0 0 0 3.026-.825 2.881 2.881 0 0 1 -.721.626 2.149 2.149 0 0 1 -.541.234 1.765 1.765 0 0 1 -1.959-.792 1.7 1.7 0 0 1 -.085-.192 1.647 1.647 0 0 0 .28.949z" opacity=".14" transform="matrix(.259 -.966 .966 .259 -173.659823 183.006334)"/><path d="m199.239 149.9a1.185 1.185 0 0 0 -.364-.349 1.357 1.357 0 0 0 -1.04-.106 1.5 1.5 0 0 0 -1.07 1.054c-.013.068-.012.155.049.189a.122.122 0 0 0 .134-.022.4.4 0 0 0 .084-.117 1.887 1.887 0 0 1 .629-.717.955.955 0 0 1 .919-.072.846.846 0 0 1 .345.351.916.916 0 0 0 .1.177.2.2 0 0 0 .179.08.192.192 0 0 0 .134-.213.567.567 0 0 0 -.099-.255z" fill="#fff" opacity=".28" transform="matrix(.259 -.966 .966 .259 -165.12102 187.005238)"/><path d="m215.615 158.073a.174.174 0 0 0 .064.059.12.12 0 0 0 .123-.028.216.216 0 0 0 .059-.118c.022-.117-.028-.345-.19-.306-.182.043-.136.282-.056.393z" fill="#fff" opacity=".28" transform="matrix(.259 -.966 .966 .259 -176.304773 200.904074)"/><circle cx="1.656" cy="1.656" fill="#dc3d1d" r="1.656" transform="matrix(-.904701 -.425838 .425838 -.904701 30.896935 34.175673)"/><path d="m211.219 142.608a1.654 1.654 0 0 0 3.026-.825 2.881 2.881 0 0 1 -.721.626 2.146 2.146 0 0 1 -.541.234 1.765 1.765 0 0 1 -1.959-.792 1.69 1.69 0 0 1 -.085-.192 1.667 1.667 0 0 0 .28.949z" opacity=".14" transform="matrix(.259 -.966 .966 .259 -161.828556 200.642575)"/><path d="m215.329 131.486a1.185 1.185 0 0 0 -.364-.349 1.358 1.358 0 0 0 -1.04-.106 1.5 1.5 0 0 0 -1.07 1.054c-.013.068-.012.155.049.189a.122.122 0 0 0 .134-.022.4.4 0 0 0 .084-.117 1.887 1.887 0 0 1 .629-.717.955.955 0 0 1 .919-.072.846.846 0 0 1 .345.351.916.916 0 0 0 .1.177.2.2 0 0 0 .179.08.192.192 0 0 0 .134-.213.589.589 0 0 0 -.099-.255z" fill="#fff" opacity=".28" transform="matrix(.259 -.966 .966 .259 -153.291825 204.649207)"/><path d="m231.7 139.663a.174.174 0 0 0 .064.059.12.12 0 0 0 .123-.028.216.216 0 0 0 .059-.118c.022-.117-.028-.345-.19-.306-.177.043-.131.282-.056.393z" fill="#fff" opacity=".28" transform="matrix(.259 -.966 .966 .259 -164.475837 218.549009)"/><circle cx="1.656" cy="1.656" fill="#dc3d1d" r="1.656" transform="matrix(-.90807594486 -.41908839203 .41908839203 -.90807594486 28.985851 31.625531)"/><path d="m226.138 123.408a1.654 1.654 0 0 0 3.026-.825 2.882 2.882 0 0 1 -.721.626 2.15 2.15 0 0 1 -.541.234 1.765 1.765 0 0 1 -1.959-.792 1.7 1.7 0 0 1 -.085-.192 1.646 1.646 0 0 0 .28.949z" opacity=".14" transform="matrix(.259 -.966 .966 .259 -149.073541 217.482762)"/><path d="m230.239 112.3a1.185 1.185 0 0 0 -.364-.349 1.357 1.357 0 0 0 -1.04-.106 1.5 1.5 0 0 0 -1.07 1.054c-.013.068-.012.155.049.189a.121.121 0 0 0 .134-.022.4.4 0 0 0 .084-.117 1.887 1.887 0 0 1 .629-.717.955.955 0 0 1 .919-.072.846.846 0 0 1 .345.351.916.916 0 0 0 .1.177.2.2 0 0 0 .179.08.192.192 0 0 0 .134-.213.567.567 0 0 0 -.099-.255z" fill="#fff" opacity=".28" transform="matrix(.259 -.966 .966 .259 -140.543432 221.479335)"/><path d="m246.615 120.473a.173.173 0 0 0 .064.059.12.12 0 0 0 .123-.028.216.216 0 0 0 .059-.118c.022-.117-.028-.345-.19-.306-.182.042-.136.282-.056.393z" fill="#fff" opacity=".28" transform="matrix(.259 -.966 .966 .259 -151.727185 235.378171)"/><path d="m293.252 45.313a.63.63 0 0 1 1.112-.03 1.5 1.5 0 0 1 .284 1.088c-.025.383-.121.762-.133 1.146a3.011 3.011 0 0 0 .781 2.035 4.318 4.318 0 0 0 1.858 1.191c-.488-.809-.139-1.834.075-2.755a6.524 6.524 0 0 0 .085-2.8c-.319-1.526-1.534-3.2-3.231-3.2a2.069 2.069 0 0 0 -2.174 2.677 1.051 1.051 0 0 0 .94.808.345.345 0 0 0 .403-.16z" fill="#fac766" transform="matrix(.259 -.966 .966 .259 -96.382315 290.92231)"/><path d="m295.729 58.218a4.218 4.218 0 0 1 -.617-2.027c0-.4.087-.8.114-1.2a1.893 1.893 0 0 0 -.226-1.161 1.207 1.207 0 0 0 -1.855-.211 1.282 1.282 0 0 1 .651-.956 1.3 1.3 0 0 0 -.9.664 2.028 2.028 0 0 1 .448-1.065 2.519 2.519 0 0 0 -.986 1.057 1.936 1.936 0 0 1 -.418-1.309 1.975 1.975 0 0 0 -.022 1.362 1.051 1.051 0 0 0 .94.808.342.342 0 0 0 .4-.16.63.63 0 0 1 1.112-.03 1.5 1.5 0 0 1 .284 1.088c-.025.383-.122.762-.133 1.146a3.012 3.012 0 0 0 .781 2.035 3.921 3.921 0 0 0 .966.784c-.142-.297-.416-.602-.539-.825z" opacity=".14" transform="matrix(.259 -.966 .966 .259 -104.791933 288.67377)"/><path d="m298 47.682a1.411 1.411 0 0 1 .97-.624 1.873 1.873 0 0 1 1.208.217 2.726 2.726 0 0 1 .993.932 3.3 3.3 0 0 1 .5 1.238 3.354 3.354 0 0 1 -.105 1.5.041.041 0 0 0 .077.028 2.851 2.851 0 0 0 .152-1.384 3.734 3.734 0 0 0 -.418-1.362 2.938 2.938 0 0 0 -1-1.088 1.884 1.884 0 0 0 -1.314-.255 1.658 1.658 0 0 0 -1.145.739c-.03.051.045.1.076.054z" fill="#e6ad4e" transform="matrix(.259 -.966 .966 .259 -101.847012 294.960512)"/><path d="m307.643 52.537c.424-.142.8.192 1.064.482.045.049.121-.016.079-.066a1.11 1.11 0 0 0 -1.175-.487c-.05.017-.014.087.033.071z" fill="#e6ad4e" transform="matrix(.259 -.966 .966 .259 -108.687426 301.824201)"/><path d="m310.694 57.184a.248.248 0 0 1 .214.108.039.039 0 1 0 .06-.05.325.325 0 0 0 -.268-.133.041.041 0 0 0 -.041.034.039.039 0 0 0 .034.041z" fill="#e6ad4e" transform="matrix(.259 -.966 .966 .259 -113.313215 303.347548)"/><path d="m320.658 62.667a1.833 1.833 0 0 1 .207 1.205c-.012.076.109.085.119.009a1.952 1.952 0 0 0 -.266-1.242c-.022-.038-.083-.011-.06.028z" fill="#e6ad4e" transform="matrix(.259 -.966 .966 .259 -120.187061 310.494268)"/><path d="m321.555 78.02a2.582 2.582 0 0 0 .168 2.117c.046.075.167.022.126-.06a3.005 3.005 0 0 1 -.323-.985 2.5 2.5 0 0 1 .088-1.052.031.031 0 0 0 -.059-.02z" fill="#e6ad4e" transform="matrix(.259 -.966 .966 .259 -133.261241 307.666051)"/><path d="m325.523 82.738a1.426 1.426 0 0 0 .092.776c.029.067.129.018.1-.049a1.4 1.4 0 0 1 -.093-.721c.008-.063-.091-.07-.1-.007z" fill="#e6ad4e" transform="matrix(.259 -.966 .966 .259 -138.123854 310.049516)"/><path d="m329.031 81.505c-.017.126-.035.252-.053.379a.044.044 0 0 0 .088.007l.047-.379a.041.041 0 0 0 -.038-.043.042.042 0 0 0 -.045.037z" fill="#e6ad4e" transform="matrix(.259 -.966 .966 .259 -137.875501 313.240032)"/><path d="m326.014 96.258.039.211a.049.049 0 0 0 .055.038.049.049 0 0 0 .038-.055c-.012-.071-.025-.142-.037-.213a.048.048 0 0 0 -.056-.038.049.049 0 0 0 -.039.056z" fill="#e6ad4e" transform="matrix(.259 -.966 .966 .259 -149.571185 307.436934)"/><path d="m329.885 62.9a3.445 3.445 0 0 0 -.058-1.976c-.014-.045-.093-.02-.079.026a3.7 3.7 0 0 1 .085 1.931c-.009.034.041.054.051.018z" fill="#e6ad4e" transform="matrix(.259 -.966 .966 .259 -120.790923 318.512355)"/><path d="m323.16 51.363-.114-.155a.029.029 0 0 0 -.042 0 .032.032 0 0 0 0 .042l.117.154a.029.029 0 0 0 .039 0 .03.03 0 0 0 0-.041z" fill="#e6ad4e" transform="matrix(.259 -.966 .966 .259 -111.127283 315.029428)"/><path d="m313.019 44.581a4.85 4.85 0 0 0 -1.128-.6.043.043 0 0 0 -.029.08 4.769 4.769 0 0 1 1.117.576.034.034 0 0 0 .039-.055z" fill="#e6ad4e" transform="matrix(.259 -.966 .966 .259 -102.557785 307.289472)"/><path d="m306.112 49.672a1.085 1.085 0 0 0 -.595.077c-.046.02-.01.093.033.07a.973.973 0 0 1 .561-.122.012.012 0 1 0 0-.025z" fill="#e6ad4e" transform="matrix(.259 -.966 .966 .259 -105.900614 300.691027)"/><path d="m297.97 45.359a1.693 1.693 0 0 0 -.853.582c-.037.049.041.1.078.054a1.6 1.6 0 0 1 .789-.565c.045-.014.031-.084-.013-.071z" fill="#e6ad4e" transform="matrix(.259 -.966 .966 .259 -100.40308 294.618702)"/><path d="m272.009 65.2c-.05-.009-.1-.017-.152-.025a.227.227 0 0 0 -.172.024.237.237 0 0 0 -.066.131 4.8 4.8 0 0 1 -1.065 1.975 5.134 5.134 0 0 1 -.823.733 3.589 3.589 0 0 0 -.7.777 2.178 2.178 0 0 0 -.458.822 1.563 1.563 0 0 0 .039.734 2.519 2.519 0 0 0 1.717 1.782 2.147 2.147 0 0 0 2.29-.813 2.824 2.824 0 0 0 .444-1.389 10.772 10.772 0 0 0 -.247-1.317 6.52 6.52 0 0 1 .31-2.814.225.225 0 0 0 .012-.172.209.209 0 0 0 -.091-.077 3.585 3.585 0 0 0 -1.038-.371z" fill="#751f0e" transform="matrix(.259 -.966 .966 .259 -110.600736 266.197302)"/><path d="m272.614 96.126a2.066 2.066 0 0 0 .21-.4 2.218 2.218 0 0 1 -1.054.406 2.938 2.938 0 0 1 -1.38-.2 2.435 2.435 0 0 1 -1.318-1.1 1.591 1.591 0 0 1 -.122-1.141 1.928 1.928 0 0 0 -.383.723 1.563 1.563 0 0 0 .039.734 2.519 2.519 0 0 0 1.717 1.782 2.154 2.154 0 0 0 2.291-.804z" opacity=".14" transform="matrix(.259 -.966 .966 .259 -134.541681 259.769034)"/><path d="m278.836 88.263a16.043 16.043 0 0 1 -3.1-1.173c-.045-.022-.089-.047-.134-.071a1.928 1.928 0 0 0 -.294.269 16.188 16.188 0 0 0 3.055 1.237c.185.054.372.1.558.15-.021-.135-.05-.275-.085-.412z" fill="#fac766" transform="matrix(.259 -.966 .966 .259 -130.460646 266.95473)"/><path d="m291.315 72.33c.008-.042.016-.084.025-.126q-.752-.341-1.53-.624c-.017.038-.031.077-.05.116q.788.285 1.555.634z" fill="#fac766" transform="matrix(.259 -.966 .966 .259 -120.754915 282.554895)"/><path d="m289.906 75.351c0-.043.01-.087.016-.131q-.807-.386-1.637-.72c-.02.037-.042.074-.064.11q.856.341 1.685.741z" fill="#fac766" transform="matrix(.259 -.966 .966 .259 -122.859115 280.605304)"/><path d="m278.526 74.374a1.937 1.937 0 0 0 -.939 1.176 1.313 1.313 0 0 0 .907 1.359 1.118 1.118 0 0 0 .435.068 1.221 1.221 0 0 0 .991-.811 3.53 3.53 0 0 0 .169-1.333 3.979 3.979 0 0 1 .194-1.422c.072-.2.105-.62-.227-.633-.276-.011-.415.639-.575.832a4.323 4.323 0 0 1 -.955.764z" fill="#fff" opacity=".22" transform="matrix(.259 -.966 .966 .259 -119.018747 272.0592)"/></svg>