<svg xmlns="http://www.w3.org/2000/svg" width="300" height="300" viewBox="0 0 300 300">
  <g id="Group_87" data-name="Group 87" transform="translate(-64 -390)">
    <circle id="Ellipse_112" data-name="Ellipse 112" cx="150" cy="150" r="150" transform="translate(64 390)" fill="#5c1fa0"/>
    <g id="Group_86" data-name="Group 86" transform="translate(12.5 -6.508)">
      <circle id="Ellipse_95" data-name="Ellipse 95" cx="9" cy="9" r="9" transform="translate(276 479)" fill="#fff" opacity="0.15"/>
      <circle id="Ellipse_114" data-name="Ellipse 114" cx="9" cy="9" r="9" transform="translate(214 565.015)" fill="#fff" opacity="0.15"/>
      <circle id="Ellipse_121" data-name="Ellipse 121" cx="9" cy="9" r="9" transform="translate(267 547.015)" fill="#fff" opacity="0.15"/>
      <circle id="Ellipse_115" data-name="Ellipse 115" cx="9" cy="9" r="9" transform="translate(285 594.015)" fill="#fff" opacity="0.15"/>
      <circle id="Ellipse_116" data-name="Ellipse 116" cx="9" cy="9" r="9" transform="translate(205 630.015)" fill="#fff" opacity="0.15"/>
      <circle id="Ellipse_122" data-name="Ellipse 122" cx="9" cy="9" r="9" transform="translate(258 630.015)" fill="#fff" opacity="0.15"/>
      <circle id="Ellipse_95-2" data-name="Ellipse 95" cx="9" cy="9" r="9" transform="translate(205 445)" fill="#fff" opacity="0.15"/>
      <circle id="Ellipse_117" data-name="Ellipse 117" cx="9" cy="9" r="9" transform="translate(100 496)" fill="#fff" opacity="0.15"/>
      <circle id="Ellipse_95-3" data-name="Ellipse 95" cx="9" cy="9" r="9" transform="translate(127.931 621.015)" fill="#fff" opacity="0.15"/>
      <circle id="Ellipse_113" data-name="Ellipse 113" cx="9" cy="9" r="9" transform="translate(128 538)" fill="#fff" opacity="0.15"/>
      <circle id="Ellipse_119" data-name="Ellipse 119" cx="9" cy="9" r="9" transform="translate(162 576)" fill="#fff" opacity="0.15"/>
      <circle id="Ellipse_118" data-name="Ellipse 118" cx="9" cy="9" r="9" transform="translate(223 513)" fill="#fff" opacity="0.15"/>
      <circle id="Ellipse_124" data-name="Ellipse 124" cx="9" cy="9" r="9" transform="translate(240 463)" fill="#fff" opacity="0.15"/>
      <circle id="Ellipse_123" data-name="Ellipse 123" cx="9" cy="9" r="9" transform="translate(180 514)" fill="#fff" opacity="0.15"/>
    </g>
    <circle id="Ellipse_120" data-name="Ellipse 120" cx="9" cy="9" r="9" transform="translate(153 461)" fill="#fff" opacity="0.15"/>
  </g>
</svg>
