<svg xmlns="http://www.w3.org/2000/svg" xmlns:xlink="http://www.w3.org/1999/xlink" width="170" height="61" viewBox="0 0 170 61">
  <defs>
    <linearGradient id="linear-gradient" x1="0.033" y1="0.057" x2="0.956" y2="0.976" gradientUnits="objectBoundingBox">
      <stop offset="0" stop-color="#490496"/>
      <stop offset="1" stop-color="#7900ff"/>
    </linearGradient>
  </defs>
  <g id="تسبيح" transform="translate(0 3)">
    <g id="Group_136" data-name="Group 136" transform="translate(0 -3)">
      <rect id="Rectangle_13" data-name="Rectangle 13" width="170" height="52" rx="10" transform="translate(0 9)" fill="url(#linear-gradient)"/>
      <circle id="Ellipse_92" data-name="Ellipse 92" cx="9" cy="9" r="9" transform="translate(146 43)" fill="#fff" opacity="0.15"/>
      <circle id="Ellipse_93" data-name="Ellipse 93" cx="9" cy="9" r="9" transform="translate(96)" fill="#fff" opacity="0.15"/>
      <g id="OBJECTS" transform="matrix(0.259, -0.966, 0.966, 0.259, 13.05, 44.856)">
        <g id="Group_28" data-name="Group 28" transform="translate(0 6.283)">
          <path id="Path_448" data-name="Path 448" d="M1.184,0,1.6.766l.766.419L1.6,1.6l-.418.766L.766,1.6,0,1.184.766.766Z" transform="translate(21.269 35.161)" fill="#fff"/>
          <path id="Path_449" data-name="Path 449" d="M.871,0l.307.562.563.309-.563.307-.307.563L.562,1.178,0,.871.562.562Z" transform="translate(33.551 11.096)" fill="#fff"/>
          <path id="Path_450" data-name="Path 450" d="M.868,0l.307.562.561.307-.561.306-.307.562L.561,1.175,0,.869.561.562Z" transform="translate(22.082 11.321)" fill="#fff"/>
          <path id="Path_451" data-name="Path 451" d="M.868,0l.307.562.561.306-.561.307-.307.562L.561,1.175,0,.868.561.562Z" transform="translate(10.285 28.969)" fill="#fff"/>
          <path id="Path_452" data-name="Path 452" d="M.415,0,.562.269.831.416.562.563.415.832.268.563,0,.416.268.269Z" transform="translate(0 17.307)" fill="#fff"/>
          <path id="Path_453" data-name="Path 453" d="M.416,0,.563.268.831.415.563.562.416.831.269.562,0,.415.269.268Z" transform="translate(12.249 34.883)" fill="#fff"/>
          <path id="Path_454" data-name="Path 454" d="M.416,0,.563.268.832.415.563.562.416.831.269.562,0,.415.269.268Z" transform="translate(5.651 14.955)" fill="#fff"/>
          <path id="Path_455" data-name="Path 455" d="M.869,0l.309.562L1.74.87l-.562.307-.309.563L.562,1.178,0,.87.562.562Z" transform="translate(6.105 42.082)" fill="#fff"/>
          <path id="Path_456" data-name="Path 456" d="M.928,0l.328.6.6.328-.6.328-.328.6L.6,1.257,0,.928.6.6Z" transform="translate(13.341)" fill="#fff"/>
          <path id="Path_457" data-name="Path 457" d="M.871,0l.307.562.563.309-.563.307L.871,1.74.563,1.178,0,.871.563.562Z" transform="translate(36.692 38.713)" fill="#fff"/>
          <path id="Path_458" data-name="Path 458" d="M.415,0,.562.269.831.416.562.563.415.831.268.563,0,.416.268.269Z" transform="translate(20.428 28.705)" fill="#fff"/>
          <path id="Path_459" data-name="Path 459" d="M.416,0,.563.268.832.415.563.562.416.831.269.562,0,.415.269.268Z" transform="translate(36.899 4.32)" fill="#fff"/>
          <path id="Path_460" data-name="Path 460" d="M.416,0,.563.269.831.416.563.563.416.831.269.563,0,.416.269.269Z" transform="translate(34.876 16.737)" fill="#fff"/>
          <path id="Path_461" data-name="Path 461" d="M.415,0,.562.269.831.416.562.563.415.832.268.563,0,.416.268.269Z" transform="translate(10.314 4.49)" fill="#fff"/>
          <path id="Path_462" data-name="Path 462" d="M.416,0,.563.268.831.415.563.562.416.831.269.562,0,.415.269.268Z" transform="translate(0.972 34.499)" fill="#fff"/>
          <path id="Path_463" data-name="Path 463" d="M1.25,0l.441.807L2.5,1.25l-.808.441L1.25,2.5.807,1.691,0,1.25.807.807Z" transform="translate(2.383 11.041)" fill="#fff"/>
        </g>
        <g id="Group_77" data-name="Group 77" transform="translate(1.241)">
          <g id="Group_29" data-name="Group 29" transform="translate(24.955 11.818)">
            <circle id="Ellipse_67" data-name="Ellipse 67" cx="1.656" cy="1.656" r="1.656" transform="translate(0 1.281) rotate(-22.749)" fill="#dc3d1d"/>
            <path id="Path_464" data-name="Path 464" d="M.024.978a1.654,1.654,0,0,0,3.1.478,2.909,2.909,0,0,1-.912.28,2.112,2.112,0,0,1-.59-.007A1.79,1.79,0,0,1,.453.991,1.771,1.771,0,0,1,.155.21a1.837,1.837,0,0,1,0-.21A1.645,1.645,0,0,0,.024.978Z" transform="translate(0.511 1.469)" opacity="0.14"/>
            <path id="Path_465" data-name="Path 465" d="M2.554,1A1.224,1.224,0,0,0,2.365.537a1.358,1.358,0,0,0-.907-.52A1.5,1.5,0,0,0,.052.545C.012.6-.023.681.019.738A.124.124,0,0,0,.15.772.413.413,0,0,0,.275.7,1.892,1.892,0,0,1,1.142.3a.953.953,0,0,1,.869.309.833.833,0,0,1,.172.461,1.047,1.047,0,0,0,.021.2.2.2,0,0,0,.13.146.192.192,0,0,0,.209-.139A.584.584,0,0,0,2.554,1Z" transform="translate(0.968 0.761)" fill="#fff" opacity="0.28"/>
            <path id="Path_466" data-name="Path 466" d="M.007.339A.171.171,0,0,0,.043.42.12.12,0,0,0,.167.444.22.22,0,0,0,.27.36C.337.263.385.033.22,0,.033-.031-.022.207.007.339Z" transform="translate(3.171 2.338)" fill="#fff" opacity="0.28"/>
          </g>
          <g id="Group_30" data-name="Group 30" transform="translate(23.867 8.896)">
            <circle id="Ellipse_68" data-name="Ellipse 68" cx="1.656" cy="1.656" r="1.656" transform="translate(0 1.128) rotate(-19.908)" fill="#dc3d1d"/>
            <path id="Path_467" data-name="Path 467" d="M.025.978a1.654,1.654,0,0,0,3.1.478,2.908,2.908,0,0,1-.913.28,2.111,2.111,0,0,1-.59-.007A1.79,1.79,0,0,1,.454.991,1.772,1.772,0,0,1,.156.21a1.844,1.844,0,0,1,0-.21A1.636,1.636,0,0,0,.025.978Z" transform="translate(0.467 1.424)" opacity="0.14"/>
            <path id="Path_468" data-name="Path 468" d="M2.554,1A1.225,1.225,0,0,0,2.365.537a1.358,1.358,0,0,0-.907-.52A1.5,1.5,0,0,0,.052.545C.012.6-.023.681.019.738A.124.124,0,0,0,.15.772.412.412,0,0,0,.275.7,1.893,1.893,0,0,1,1.142.3a.954.954,0,0,1,.869.309.833.833,0,0,1,.172.461,1.045,1.045,0,0,0,.021.2.2.2,0,0,0,.13.146.192.192,0,0,0,.209-.139A.566.566,0,0,0,2.554,1Z" transform="translate(0.923 0.715)" fill="#fff" opacity="0.28"/>
            <path id="Path_469" data-name="Path 469" d="M.007.34A.171.171,0,0,0,.043.42.12.12,0,0,0,.167.445.22.22,0,0,0,.27.361C.337.264.385.034.22,0,.033-.032-.022.206.007.34Z" transform="translate(3.126 2.294)" fill="#fff" opacity="0.28"/>
          </g>
          <g id="Group_31" data-name="Group 31" transform="translate(18.39 6.907)">
            <path id="Path_470" data-name="Path 470" d="M3.306,1.8A1.656,1.656,0,1,1,1.8.006,1.656,1.656,0,0,1,3.306,1.8Z" fill="#dc3d1d"/>
            <path id="Path_471" data-name="Path 471" d="M.006.913A1.654,1.654,0,0,0,2.884,2.161,2.914,2.914,0,0,1,1.93,2.2a2.089,2.089,0,0,1-.569-.156,1.79,1.79,0,0,1-.943-1.01A1.772,1.772,0,0,1,.328.2,1.93,1.93,0,0,1,.382,0,1.631,1.631,0,0,0,.006.913Z" transform="translate(0.001 0.602)" opacity="0.14"/>
            <path id="Path_472" data-name="Path 472" d="M2.391,1.361a1.232,1.232,0,0,0-.064-.5A1.356,1.356,0,0,0,1.581.128,1.5,1.5,0,0,0,.087.283C.034.329-.019.4.007.462A.122.122,0,0,0,.125.529.393.393,0,0,0,.263.491,1.879,1.879,0,0,1,1.2.324a.955.955,0,0,1,.763.519.833.833,0,0,1,.05.49.968.968,0,0,0-.032.2.2.2,0,0,0,.089.175.191.191,0,0,0,.238-.083A.584.584,0,0,0,2.391,1.361Z" transform="translate(0.678 0.248)" fill="#fff" opacity="0.28"/>
            <path id="Path_473" data-name="Path 473" d="M0,.288A.164.164,0,0,0,.015.375.122.122,0,0,0,.129.431.21.21,0,0,0,.249.376C.338.3.443.09.291.018.12-.064.006.152,0,.288Z" transform="translate(2.506 2.118)" fill="#fff" opacity="0.28"/>
          </g>
          <g id="Group_32" data-name="Group 32" transform="translate(26.445 14.71)">
            <circle id="Ellipse_69" data-name="Ellipse 69" cx="1.656" cy="1.656" r="1.656" transform="translate(0 1.086) rotate(-19.142)" fill="#dc3d1d"/>
            <path id="Path_474" data-name="Path 474" d="M.024.978a1.654,1.654,0,0,0,3.1.478,2.908,2.908,0,0,1-.913.28,2.112,2.112,0,0,1-.59-.007A1.79,1.79,0,0,1,.453.991,1.79,1.79,0,0,1,.154.21a1.844,1.844,0,0,1,0-.21A1.654,1.654,0,0,0,.024.978Z" transform="translate(0.453 1.41)" opacity="0.14"/>
            <path id="Path_475" data-name="Path 475" d="M2.554,1A1.223,1.223,0,0,0,2.365.537a1.358,1.358,0,0,0-.907-.52A1.5,1.5,0,0,0,.052.545C.012.6-.023.681.019.738A.124.124,0,0,0,.15.772.392.392,0,0,0,.274.7,1.892,1.892,0,0,1,1.14.3a.954.954,0,0,1,.869.309.833.833,0,0,1,.172.461,1.05,1.05,0,0,0,.021.2.2.2,0,0,0,.13.146.192.192,0,0,0,.209-.139A.565.565,0,0,0,2.554,1Z" transform="translate(0.909 0.7)" fill="#fff" opacity="0.28"/>
            <path id="Path_476" data-name="Path 476" d="M.007.34A.171.171,0,0,0,.043.42.12.12,0,0,0,.167.445.22.22,0,0,0,.27.361C.337.264.385.034.22,0,.035-.032-.022.206.007.34Z" transform="translate(3.111 2.278)" fill="#fff" opacity="0.28"/>
          </g>
          <g id="Group_33" data-name="Group 33" transform="translate(26.897 17.535)">
            <circle id="Ellipse_70" data-name="Ellipse 70" cx="1.656" cy="1.656" r="1.656" transform="matrix(0.941, -0.339, 0.339, 0.941, 0, 1.121)" fill="#dc3d1d"/>
            <path id="Path_477" data-name="Path 477" d="M.025.978a1.654,1.654,0,0,0,3.1.478,2.908,2.908,0,0,1-.913.28,2.112,2.112,0,0,1-.59-.007A1.79,1.79,0,0,1,.454.991,1.79,1.79,0,0,1,.155.21a1.83,1.83,0,0,1,0-.21A1.644,1.644,0,0,0,.025.978Z" transform="translate(0.464 1.423)" opacity="0.14"/>
            <path id="Path_478" data-name="Path 478" d="M2.554,1A1.224,1.224,0,0,0,2.365.537a1.358,1.358,0,0,0-.907-.52A1.5,1.5,0,0,0,.052.545C.012.6-.023.681.019.738A.124.124,0,0,0,.15.772.413.413,0,0,0,.275.7,1.892,1.892,0,0,1,1.142.3a.953.953,0,0,1,.869.309.833.833,0,0,1,.172.461,1.043,1.043,0,0,0,.021.2.2.2,0,0,0,.13.146.192.192,0,0,0,.209-.139A.567.567,0,0,0,2.554,1Z" transform="translate(0.92 0.714)" fill="#fff" opacity="0.28"/>
            <path id="Path_479" data-name="Path 479" d="M.007.339A.171.171,0,0,0,.043.42.12.12,0,0,0,.167.444.219.219,0,0,0,.27.36C.337.263.385.033.22,0,.033-.031-.022.207.007.339Z" transform="translate(3.123 2.292)" fill="#fff" opacity="0.28"/>
          </g>
          <g id="Group_34" data-name="Group 34" transform="translate(28.303 21.04)">
            <path id="Path_480" data-name="Path 480" d="M3.293,1.9A1.655,1.655,0,1,1,1.9.018,1.655,1.655,0,0,1,3.293,1.9Z" fill="#dc3d1d"/>
            <path id="Path_481" data-name="Path 481" d="M.018.89A1.653,1.653,0,0,0,2.812,2.315a2.876,2.876,0,0,1-.955-.021A2.043,2.043,0,0,1,1.3,2.1,1.789,1.789,0,0,1,.423,1.035,1.781,1.781,0,0,1,.383.2,2.025,2.025,0,0,1,.449,0,1.653,1.653,0,0,0,.018.89Z" transform="translate(0.001 0.523)" opacity="0.14"/>
            <path id="Path_482" data-name="Path 482" d="M2.329,1.452a1.185,1.185,0,0,0-.034-.5A1.362,1.362,0,0,0,1.6.171,1.5,1.5,0,0,0,.1.232C.04.274-.017.339,0,.406A.122.122,0,0,0,.119.479.375.375,0,0,0,.26.449,1.877,1.877,0,0,1,1.208.341a.954.954,0,0,1,.729.566.835.835,0,0,1,.02.491,1.067,1.067,0,0,0-.045.2.2.2,0,0,0,.079.18.194.194,0,0,0,.243-.067A.6.6,0,0,0,2.329,1.452Z" transform="translate(0.741 0.247)" fill="#fff" opacity="0.28"/>
            <path id="Path_483" data-name="Path 483" d="M0,.274A.162.162,0,0,0,.011.361a.12.12,0,0,0,.11.063A.218.218,0,0,0,.245.377C.339.306.456.1.309.022.144-.068.016.139,0,.274Z" transform="translate(2.455 2.184)" fill="#fff" opacity="0.28"/>
          </g>
          <g id="Group_35" data-name="Group 35" transform="translate(28.534 23.885)">
            <circle id="Ellipse_71" data-name="Ellipse 71" cx="1.656" cy="1.656" r="1.656" transform="translate(0 3.267) rotate(-80.659)" fill="#dc3d1d"/>
            <path id="Path_484" data-name="Path 484" d="M.018.89A1.653,1.653,0,0,0,2.812,2.315a2.876,2.876,0,0,1-.955-.021A2.042,2.042,0,0,1,1.3,2.1,1.789,1.789,0,0,1,.423,1.035,1.78,1.78,0,0,1,.383.2,2.035,2.035,0,0,1,.449,0,1.653,1.653,0,0,0,.018.89Z" transform="translate(0.25 0.766)" opacity="0.14"/>
            <path id="Path_485" data-name="Path 485" d="M2.329,1.452a1.186,1.186,0,0,0-.034-.5A1.362,1.362,0,0,0,1.6.171,1.5,1.5,0,0,0,.1.233C.04.275-.017.339,0,.406A.121.121,0,0,0,.119.479.375.375,0,0,0,.26.449,1.876,1.876,0,0,1,1.208.341a.954.954,0,0,1,.729.566.835.835,0,0,1,.02.491,1.065,1.065,0,0,0-.045.2.2.2,0,0,0,.079.18.194.194,0,0,0,.243-.067A.608.608,0,0,0,2.329,1.452Z" transform="translate(0.989 0.49)" fill="#fff" opacity="0.28"/>
            <path id="Path_486" data-name="Path 486" d="M0,.275A.162.162,0,0,0,.011.362a.12.12,0,0,0,.11.063A.218.218,0,0,0,.245.377C.339.306.456.1.309.023.143-.069.016.138,0,.275Z" transform="translate(2.703 2.428)" fill="#fff" opacity="0.28"/>
          </g>
          <g id="Group_36" data-name="Group 36" transform="translate(29.241 27.276)">
            <path id="Path_487" data-name="Path 487" d="M3.293,1.9A1.655,1.655,0,1,1,1.9.018,1.655,1.655,0,0,1,3.293,1.9Z" fill="#dc3d1d"/>
            <path id="Path_488" data-name="Path 488" d="M.018.89A1.653,1.653,0,0,0,2.813,2.315a2.876,2.876,0,0,1-.955-.021A2.043,2.043,0,0,1,1.3,2.1,1.789,1.789,0,0,1,.423,1.035,1.781,1.781,0,0,1,.383.2,2.031,2.031,0,0,1,.449,0,1.663,1.663,0,0,0,.018.89Z" transform="translate(0 0.523)" opacity="0.14"/>
            <path id="Path_489" data-name="Path 489" d="M2.329,1.452a1.185,1.185,0,0,0-.034-.5A1.363,1.363,0,0,0,1.6.171,1.5,1.5,0,0,0,.1.233C.04.274-.017.339,0,.406A.122.122,0,0,0,.119.479.376.376,0,0,0,.26.449,1.876,1.876,0,0,1,1.208.341a.954.954,0,0,1,.729.566.835.835,0,0,1,.02.491,1.068,1.068,0,0,0-.045.2.2.2,0,0,0,.079.18.194.194,0,0,0,.243-.067A.587.587,0,0,0,2.329,1.452Z" transform="translate(0.74 0.247)" fill="#fff" opacity="0.28"/>
            <path id="Path_490" data-name="Path 490" d="M0,.275A.162.162,0,0,0,.011.361a.12.12,0,0,0,.11.063A.218.218,0,0,0,.245.377C.339.306.456.1.309.023.144-.069.017.139,0,.275Z" transform="translate(2.454 2.183)" fill="#fff" opacity="0.28"/>
          </g>
          <g id="Group_37" data-name="Group 37" transform="translate(29.377 30.413)">
            <path id="Path_491" data-name="Path 491" d="M3.293,1.9A1.655,1.655,0,1,1,1.9.018,1.655,1.655,0,0,1,3.293,1.9Z" fill="#dc3d1d"/>
            <path id="Path_492" data-name="Path 492" d="M.018.89A1.653,1.653,0,0,0,2.813,2.315a2.873,2.873,0,0,1-.955-.021A2.04,2.04,0,0,1,1.3,2.1,1.79,1.79,0,0,1,.423,1.035,1.78,1.78,0,0,1,.383.2,2.035,2.035,0,0,1,.449,0,1.673,1.673,0,0,0,.018.89Z" transform="translate(0 0.521)" opacity="0.14"/>
            <path id="Path_493" data-name="Path 493" d="M2.329,1.452a1.186,1.186,0,0,0-.034-.5A1.362,1.362,0,0,0,1.6.171,1.5,1.5,0,0,0,.1.233C.04.274-.017.339,0,.406A.122.122,0,0,0,.119.479.374.374,0,0,0,.26.449,1.877,1.877,0,0,1,1.208.341a.954.954,0,0,1,.729.566.835.835,0,0,1,.02.491,1.07,1.07,0,0,0-.045.2.2.2,0,0,0,.079.18.194.194,0,0,0,.243-.067A.606.606,0,0,0,2.329,1.452Z" transform="translate(0.741 0.245)" fill="#fff" opacity="0.28"/>
            <path id="Path_494" data-name="Path 494" d="M0,.275A.161.161,0,0,0,.011.362a.12.12,0,0,0,.11.063A.218.218,0,0,0,.245.377C.339.306.456.1.309.023.142-.069.016.138,0,.275Z" transform="translate(2.455 2.183)" fill="#fff" opacity="0.28"/>
          </g>
          <g id="Group_38" data-name="Group 38" transform="translate(29.19 33.486)">
            <circle id="Ellipse_72" data-name="Ellipse 72" cx="1.656" cy="1.656" r="1.656" transform="translate(0 3.301) rotate(-85.423)" fill="#dc3d1d"/>
            <path id="Path_495" data-name="Path 495" d="M.018.89A1.653,1.653,0,0,0,2.812,2.315a2.876,2.876,0,0,1-.955-.021A2.043,2.043,0,0,1,1.3,2.1,1.789,1.789,0,0,1,.423,1.035,1.78,1.78,0,0,1,.383.2,2.026,2.026,0,0,1,.449,0,1.667,1.667,0,0,0,.018.89Z" transform="translate(0.126 0.647)" opacity="0.14"/>
            <path id="Path_496" data-name="Path 496" d="M2.329,1.452a1.186,1.186,0,0,0-.034-.5A1.362,1.362,0,0,0,1.6.171,1.5,1.5,0,0,0,.1.232C.04.275-.017.339,0,.406A.122.122,0,0,0,.119.479.376.376,0,0,0,.26.449,1.876,1.876,0,0,1,1.208.341a.954.954,0,0,1,.729.566.835.835,0,0,1,.02.491,1.067,1.067,0,0,0-.045.2.2.2,0,0,0,.079.18.194.194,0,0,0,.243-.067A.622.622,0,0,0,2.329,1.452Z" transform="translate(0.867 0.371)" fill="#fff" opacity="0.28"/>
            <path id="Path_497" data-name="Path 497" d="M0,.275A.162.162,0,0,0,.011.361a.12.12,0,0,0,.11.063A.218.218,0,0,0,.245.377C.339.306.456.1.309.023.142-.069.016.139,0,.275Z" transform="translate(2.581 2.307)" fill="#fff" opacity="0.28"/>
          </g>
          <g id="Group_39" data-name="Group 39" transform="translate(28.066 36.092)">
            <circle id="Ellipse_73" data-name="Ellipse 73" cx="1.656" cy="1.656" r="1.656" transform="translate(0 1.4) rotate(-25.004)" fill="#dc3d1d"/>
            <path id="Path_498" data-name="Path 498" d="M.071.989a1.654,1.654,0,0,0,3.135.093,2.892,2.892,0,0,1-.872.39,2.1,2.1,0,0,1-.586.066A1.79,1.79,0,0,1,.5.948,1.784,1.784,0,0,1,.106.209,1.865,1.865,0,0,1,.081,0,1.647,1.647,0,0,0,.071.989Z" transform="translate(0.545 1.687)" opacity="0.14"/>
            <path id="Path_499" data-name="Path 499" d="M2.575.845a1.212,1.212,0,0,0-.246-.44A1.359,1.359,0,0,0,1.365,0,1.5,1.5,0,0,0,.035.7C0,.759-.021.842.026.893A.126.126,0,0,0,.162.912.387.387,0,0,0,.276.825a1.891,1.891,0,0,1,.811-.5.953.953,0,0,1,.9.2.84.84,0,0,1,.227.436,1.023,1.023,0,0,0,.046.2.2.2,0,0,0,.147.129.192.192,0,0,0,.19-.164A.6.6,0,0,0,2.575.845Z" transform="translate(0.921 0.786)" fill="#fff" opacity="0.28"/>
            <path id="Path_500" data-name="Path 500" d="M.019.36A.161.161,0,0,0,.064.435.118.118,0,0,0,.19.444.214.214,0,0,0,.28.348C.335.243.354.011.187,0,0-.011-.026.23.019.36Z" transform="translate(3.247 2.22)" fill="#fff" opacity="0.28"/>
          </g>
          <g id="Group_40" data-name="Group 40" transform="translate(27.337 39.215)">
            <path id="Path_501" data-name="Path 501" d="M3.24,1.176A1.655,1.655,0,1,1,1.176.072,1.656,1.656,0,0,1,3.24,1.176Z" fill="#dc3d1d"/>
            <path id="Path_502" data-name="Path 502" d="M.071.989a1.654,1.654,0,0,0,3.135.093,2.892,2.892,0,0,1-.872.39,2.1,2.1,0,0,1-.586.066A1.79,1.79,0,0,1,.5.948,1.785,1.785,0,0,1,.106.209,1.866,1.866,0,0,1,.081,0,1.647,1.647,0,0,0,.071.989Z" transform="translate(0.001 1.147)" opacity="0.14"/>
            <path id="Path_503" data-name="Path 503" d="M2.575.845a1.212,1.212,0,0,0-.246-.44A1.359,1.359,0,0,0,1.365,0,1.5,1.5,0,0,0,.035.7C0,.76-.021.842.026.893A.126.126,0,0,0,.162.912.386.386,0,0,0,.276.825a1.89,1.89,0,0,1,.811-.5.953.953,0,0,1,.9.2.839.839,0,0,1,.227.436,1.028,1.028,0,0,0,.046.2.2.2,0,0,0,.147.129.192.192,0,0,0,.19-.164A.616.616,0,0,0,2.575.845Z" transform="translate(0.378 0.246)" fill="#fff" opacity="0.28"/>
            <path id="Path_504" data-name="Path 504" d="M.019.36A.162.162,0,0,0,.064.435.118.118,0,0,0,.19.444.213.213,0,0,0,.28.348C.336.243.354.011.187,0,0-.011-.026.231.019.36Z" transform="translate(2.703 1.678)" fill="#fff" opacity="0.28"/>
          </g>
          <g id="Group_41" data-name="Group 41" transform="translate(25.183 41.327)">
            <circle id="Ellipse_74" data-name="Ellipse 74" cx="1.656" cy="1.656" r="1.656" transform="translate(0 1.985) rotate(-36.829)" fill="#dc3d1d"/>
            <path id="Path_505" data-name="Path 505" d="M.148.981A1.654,1.654,0,0,0,2.341,1.8,1.646,1.646,0,0,0,3.268.656a2.885,2.885,0,0,1-.813.5,2.142,2.142,0,0,1-.571.143A1.791,1.791,0,0,1,.567.884,1.784,1.784,0,0,1,.08.2,1.707,1.707,0,0,1,.028,0,1.637,1.637,0,0,0,.148.981Z" transform="translate(0.667 2.022)" opacity="0.14"/>
            <path id="Path_506" data-name="Path 506" d="M2.559.686a1.205,1.205,0,0,0-.3-.4A1.359,1.359,0,0,0,1.247.009,1.5,1.5,0,0,0,.021.877c-.024.066-.037.151.017.194a.123.123,0,0,0,.137,0,.353.353,0,0,0,.1-.1A1.893,1.893,0,0,1,1.012.363a.953.953,0,0,1,.919.077.844.844,0,0,1,.284.4.993.993,0,0,0,.072.192.2.2,0,0,0,.163.108A.193.193,0,0,0,2.616.954.572.572,0,0,0,2.559.686Z" transform="translate(0.972 0.897)" fill="#fff" opacity="0.28"/>
            <path id="Path_507" data-name="Path 507" d="M.039.38A.165.165,0,0,0,.094.448.124.124,0,0,0,.221.442.216.216,0,0,0,.3.334C.339.222.328-.011.16,0-.03.014-.023.258.039.38Z" transform="translate(3.39 2.175)" fill="#fff" opacity="0.28"/>
          </g>
          <g id="Group_42" data-name="Group 42" transform="translate(23.303 43.826)">
            <circle id="Ellipse_75" data-name="Ellipse 75" cx="1.656" cy="1.656" r="1.656" transform="matrix(0.803, -0.596, 0.596, 0.803, 0, 1.973)" fill="#dc3d1d"/>
            <path id="Path_508" data-name="Path 508" d="M.148.981A1.654,1.654,0,0,0,2.341,1.8,1.646,1.646,0,0,0,3.268.656a2.887,2.887,0,0,1-.813.5,2.143,2.143,0,0,1-.571.143A1.791,1.791,0,0,1,.567.884,1.784,1.784,0,0,1,.08.2,1.7,1.7,0,0,1,.028,0,1.637,1.637,0,0,0,.148.981Z" transform="translate(0.664 2.019)" opacity="0.14"/>
            <path id="Path_509" data-name="Path 509" d="M2.559.686a1.205,1.205,0,0,0-.3-.4A1.359,1.359,0,0,0,1.247.009,1.5,1.5,0,0,0,.021.877c-.024.066-.037.151.017.194a.123.123,0,0,0,.137,0,.353.353,0,0,0,.1-.1A1.893,1.893,0,0,1,1.012.363a.953.953,0,0,1,.919.077.843.843,0,0,1,.284.4.994.994,0,0,0,.072.192.2.2,0,0,0,.163.108A.193.193,0,0,0,2.616.954.572.572,0,0,0,2.559.686Z" transform="translate(0.969 0.896)" fill="#fff" opacity="0.28"/>
            <path id="Path_510" data-name="Path 510" d="M.038.38A.166.166,0,0,0,.093.448.124.124,0,0,0,.22.442.222.222,0,0,0,.3.334C.339.222.327-.011.159,0-.029.015-.023.258.038.38Z" transform="translate(3.387 2.172)" fill="#fff" opacity="0.28"/>
          </g>
          <g id="Group_43" data-name="Group 43" transform="translate(21.327 46.272)">
            <path id="Path_511" data-name="Path 511" d="M2.781.442A1.656,1.656,0,1,1,.441.53,1.657,1.657,0,0,1,2.781.442Z" fill="#dc3d1d"/>
            <path id="Path_512" data-name="Path 512" d="M.49,1.5A1.654,1.654,0,0,0,3.244,0a2.856,2.856,0,0,1-.557.776,2.07,2.07,0,0,1-.473.352A1.787,1.787,0,0,1,.839,1.25,1.784,1.784,0,0,1,.127.81,1.839,1.839,0,0,1,0,.643,1.639,1.639,0,0,0,.49,1.5Z" transform="translate(0.039 1.367)" opacity="0.14"/>
            <path id="Path_513" data-name="Path 513" d="M2.269.306A1.211,1.211,0,0,0,1.834.05,1.358,1.358,0,0,0,.8.187,1.5,1.5,0,0,0,0,1.46c0,.07.024.154.091.173A.124.124,0,0,0,.218,1.58a.4.4,0,0,0,.055-.133A1.879,1.879,0,0,1,.719.6.955.955,0,0,1,1.6.323a.831.831,0,0,1,.416.261.949.949,0,0,0,.141.15A.2.2,0,0,0,2.346.77.192.192,0,0,0,2.428.533.588.588,0,0,0,2.269.306Z" transform="translate(0.219 0.208)" fill="#fff" opacity="0.28"/>
            <path id="Path_514" data-name="Path 514" d="M.125.411A.162.162,0,0,0,.2.453.119.119,0,0,0,.316.4.218.218,0,0,0,.346.27C.341.151.24-.06.09.016-.078.1.022.322.125.411Z" transform="translate(2.642 1.037)" fill="#fff" opacity="0.28"/>
          </g>
          <g id="Group_44" data-name="Group 44" transform="translate(17.74 47.15)">
            <circle id="Ellipse_76" data-name="Ellipse 76" cx="1.656" cy="1.656" r="1.656" transform="matrix(0.756, -0.655, 0.655, 0.756, 0, 2.169)" fill="#dc3d1d"/>
            <path id="Path_515" data-name="Path 515" d="M.193.973a1.655,1.655,0,0,0,2.239.684,1.65,1.65,0,0,0,.856-1.2,2.888,2.888,0,0,1-.78.55,2.074,2.074,0,0,1-.562.177A1.793,1.793,0,0,1,.606.848,1.784,1.784,0,0,1,.078.2,1.864,1.864,0,0,1,.012,0,1.638,1.638,0,0,0,.193.973Z" transform="translate(0.682 2.139)" opacity="0.14"/>
            <path id="Path_516" data-name="Path 516" d="M2.534.617A1.223,1.223,0,0,0,2.209.232,1.36,1.36,0,0,0,1.185.022,1.5,1.5,0,0,0,.015.963c-.02.067-.028.154.029.193a.124.124,0,0,0,.135-.008.377.377,0,0,0,.1-.108,1.884,1.884,0,0,1,.7-.65.953.953,0,0,1,.922.021A.839.839,0,0,1,2.2.8a1.086,1.086,0,0,0,.083.188.2.2,0,0,0,.169.1.192.192,0,0,0,.155-.2A.582.582,0,0,0,2.534.617Z" transform="translate(0.964 0.912)" fill="#fff" opacity="0.28"/>
            <path id="Path_517" data-name="Path 517" d="M.05.388A.156.156,0,0,0,.109.452.122.122,0,0,0,.235.437.219.219,0,0,0,.306.326C.34.213.313-.021.147,0-.04.026-.019.269.05.388Z" transform="translate(3.407 2.117)" fill="#fff" opacity="0.28"/>
          </g>
          <g id="Group_45" data-name="Group 45" transform="translate(15.164 47.764)">
            <path id="Path_518" data-name="Path 518" d="M3.117.879A1.655,1.655,0,1,1,.878.195,1.656,1.656,0,0,1,3.117.879Z" fill="#dc3d1d"/>
            <path id="Path_519" data-name="Path 519" d="M.193.973a1.655,1.655,0,0,0,2.239.684,1.65,1.65,0,0,0,.856-1.2,2.886,2.886,0,0,1-.78.55,2.073,2.073,0,0,1-.562.177A1.793,1.793,0,0,1,.606.848,1.785,1.785,0,0,1,.078.2,1.871,1.871,0,0,1,.012,0,1.646,1.646,0,0,0,.193.973Z" transform="translate(0.001 1.459)" opacity="0.14"/>
            <path id="Path_520" data-name="Path 520" d="M2.534.617A1.222,1.222,0,0,0,2.209.232,1.36,1.36,0,0,0,1.185.022,1.5,1.5,0,0,0,.015.963c-.02.067-.028.154.029.193a.124.124,0,0,0,.135-.008.4.4,0,0,0,.1-.108,1.883,1.883,0,0,1,.7-.65.953.953,0,0,1,.922.021A.839.839,0,0,1,2.2.8a1.086,1.086,0,0,0,.083.188.2.2,0,0,0,.169.1.192.192,0,0,0,.155-.2A.582.582,0,0,0,2.534.617Z" transform="translate(0.283 0.233)" fill="#fff" opacity="0.28"/>
            <path id="Path_521" data-name="Path 521" d="M.05.388A.155.155,0,0,0,.109.452.122.122,0,0,0,.235.437.219.219,0,0,0,.306.326C.34.213.312-.021.147,0-.041.026-.019.269.05.388Z" transform="translate(2.726 1.438)" fill="#fff" opacity="0.28"/>
          </g>
          <g id="Group_46" data-name="Group 46" transform="translate(11.396 46.557)">
            <circle id="Ellipse_77" data-name="Ellipse 77" cx="1.656" cy="1.656" r="1.656" transform="matrix(0.911, -0.413, 0.413, 0.911, 0, 1.367)" fill="#dc3d1d"/>
            <path id="Path_522" data-name="Path 522" d="M0,.962a1.654,1.654,0,0,0,3.041.771,2.86,2.86,0,0,1-.936.19,2.094,2.094,0,0,1-.586-.063A1.791,1.791,0,0,1,.431,1.015,1.789,1.789,0,0,1,.208.209,1.662,1.662,0,0,1,.229,0,1.647,1.647,0,0,0,0,.962Z" transform="translate(0.535 1.357)" opacity="0.14"/>
            <path id="Path_523" data-name="Path 523" d="M2.512,1.133A1.194,1.194,0,0,0,2.367.65a1.359,1.359,0,0,0-.853-.6A1.5,1.5,0,0,0,.064.437C.02.491-.022.566.013.626A.125.125,0,0,0,.141.673a.379.379,0,0,0,.13-.06A1.892,1.892,0,0,1,1.171.3a.952.952,0,0,1,.836.39.828.828,0,0,1,.127.475,1.067,1.067,0,0,0,0,.2.2.2,0,0,0,.116.158.194.194,0,0,0,.222-.119A.574.574,0,0,0,2.512,1.133Z" transform="translate(1.066 0.791)" fill="#fff" opacity="0.28"/>
            <path id="Path_524" data-name="Path 524" d="M0,.322A.168.168,0,0,0,.03.405.12.12,0,0,0,.152.442.213.213,0,0,0,.261.368C.337.278.406.055.245.007.064-.044-.014.187,0,.322Z" transform="translate(3.147 2.478)" fill="#fff" opacity="0.28"/>
          </g>
          <g id="Group_47" data-name="Group 47" transform="translate(8.956 45.904)">
            <path id="Path_525" data-name="Path 525" d="M3.306,1.531A1.655,1.655,0,1,1,1.53,0,1.656,1.656,0,0,1,3.306,1.531Z" fill="#dc3d1d"/>
            <path id="Path_526" data-name="Path 526" d="M0,.962a1.654,1.654,0,0,0,3.041.771,2.859,2.859,0,0,1-.936.19,2.094,2.094,0,0,1-.586-.063A1.791,1.791,0,0,1,.431,1.015,1.79,1.79,0,0,1,.208.209,1.66,1.66,0,0,1,.229,0,1.648,1.648,0,0,0,0,.962Z" transform="translate(0 0.816)" opacity="0.14"/>
            <path id="Path_527" data-name="Path 527" d="M2.512,1.133A1.194,1.194,0,0,0,2.367.65a1.359,1.359,0,0,0-.853-.6A1.5,1.5,0,0,0,.064.437C.02.491-.022.566.013.626A.125.125,0,0,0,.141.673a.379.379,0,0,0,.13-.06A1.892,1.892,0,0,1,1.171.3a.952.952,0,0,1,.836.39.828.828,0,0,1,.127.475,1.069,1.069,0,0,0,0,.2.2.2,0,0,0,.116.158.194.194,0,0,0,.222-.12A.574.574,0,0,0,2.512,1.133Z" transform="translate(0.531 0.251)" fill="#fff" opacity="0.28"/>
            <path id="Path_528" data-name="Path 528" d="M0,.322A.168.168,0,0,0,.03.405.12.12,0,0,0,.152.442.214.214,0,0,0,.261.368C.337.278.406.055.245.007.064-.044-.014.187,0,.322Z" transform="translate(2.612 1.937)" fill="#fff" opacity="0.28"/>
          </g>
          <g id="Group_48" data-name="Group 48" transform="translate(6.313 43.953)">
            <path id="Path_529" data-name="Path 529" d="M3.286,1.373A1.655,1.655,0,1,1,1.372.025,1.655,1.655,0,0,1,3.286,1.373Z" transform="translate(0)" fill="#dc3d1d"/>
            <path id="Path_530" data-name="Path 530" d="M.025.979a1.654,1.654,0,0,0,3.1.475,2.862,2.862,0,0,1-.913.28,2.113,2.113,0,0,1-.59-.007A1.794,1.794,0,0,1,.454.991,1.784,1.784,0,0,1,.155.21a1.844,1.844,0,0,1,0-.21A1.64,1.64,0,0,0,.025.979Z" transform="translate(0 0.959)" opacity="0.14"/>
            <path id="Path_531" data-name="Path 531" d="M2.554,1a1.224,1.224,0,0,0-.19-.467A1.354,1.354,0,0,0,1.456.016a1.5,1.5,0,0,0-1.4.529C.012.6-.022.682.018.739A.124.124,0,0,0,.15.773.391.391,0,0,0,.273.7,1.875,1.875,0,0,1,1.14.3a.953.953,0,0,1,.869.307.835.835,0,0,1,.173.461,1.05,1.05,0,0,0,.021.2.2.2,0,0,0,.13.146.192.192,0,0,0,.209-.141A.576.576,0,0,0,2.554,1Z" transform="translate(0.457 0.25)" fill="#fff" opacity="0.28"/>
            <path id="Path_532" data-name="Path 532" d="M.007.34A.177.177,0,0,0,.043.42.12.12,0,0,0,.167.445a.211.211,0,0,0,.1-.084C.336.264.383.034.219,0,.034-.032-.022.206.007.34Z" transform="translate(2.659 1.826)" fill="#fff" opacity="0.28"/>
          </g>
          <g id="Group_49" data-name="Group 49" transform="translate(4.104 41.385)">
            <circle id="Ellipse_78" data-name="Ellipse 78" cx="1.656" cy="1.656" r="1.656" transform="translate(0 3.3) rotate(-85.285)" fill="#dc3d1d"/>
            <path id="Path_533" data-name="Path 533" d="M.23.663A1.653,1.653,0,0,0,2.282,3.034a2.892,2.892,0,0,1-.877-.378,2.085,2.085,0,0,1-.444-.387A1.791,1.791,0,0,1,.549.949,1.792,1.792,0,0,1,.828.16,2.036,2.036,0,0,1,.964,0,1.667,1.667,0,0,0,.23.663Z" transform="translate(0.132 0.284)" opacity="0.14"/>
            <path id="Path_534" data-name="Path 534" d="M1.758,2.006a1.214,1.214,0,0,0,.159-.479A1.36,1.36,0,0,0,1.563.543,1.5,1.5,0,0,0,.15.035C.083.054.005.092,0,.161A.124.124,0,0,0,.078.273.393.393,0,0,0,.219.3a1.891,1.891,0,0,1,.919.256.951.951,0,0,1,.462.8.833.833,0,0,1-.167.462,1.042,1.042,0,0,0-.117.168.2.2,0,0,0,.005.2.193.193,0,0,0,.249.029A.59.59,0,0,0,1.758,2.006Z" transform="translate(1.323 0.354)" fill="#fff" opacity="0.28"/>
            <path id="Path_535" data-name="Path 535" d="M.025.181A.161.161,0,0,0,0,.265a.12.12,0,0,0,.079.1.213.213,0,0,0,.131,0C.324.335.51.191.4.061.286-.085.091.061.025.181Z" transform="translate(2.201 2.652)" fill="#fff" opacity="0.28"/>
          </g>
          <g id="Group_50" data-name="Group 50" transform="translate(3.077 38.608)">
            <path id="Path_536" data-name="Path 536" d="M3.3,1.866A1.655,1.655,0,1,1,1.866.014,1.655,1.655,0,0,1,3.3,1.866Z" fill="#dc3d1d"/>
            <path id="Path_537" data-name="Path 537" d="M.014.9A1.654,1.654,0,0,0,2.837,2.266a2.874,2.874,0,0,1-.955,0,2.041,2.041,0,0,1-.561-.18,1.787,1.787,0,0,1-.9-1.049A1.8,1.8,0,0,1,.366.2,1.856,1.856,0,0,1,.427,0,1.646,1.646,0,0,0,.014.9Z" transform="translate(0 0.547)" opacity="0.14"/>
            <path id="Path_538" data-name="Path 538" d="M2.351,1.423a1.221,1.221,0,0,0-.043-.5A1.356,1.356,0,0,0,1.593.156a1.5,1.5,0,0,0-1.5.092C.038.291-.018.357.006.423A.122.122,0,0,0,.121.495.379.379,0,0,0,.262.462,1.888,1.888,0,0,1,1.207.335a.955.955,0,0,1,.741.55.835.835,0,0,1,.029.491,1.068,1.068,0,0,0-.041.2.2.2,0,0,0,.081.179.192.192,0,0,0,.24-.072A.554.554,0,0,0,2.351,1.423Z" transform="translate(0.719 0.246)" fill="#fff" opacity="0.28"/>
            <path id="Path_539" data-name="Path 539" d="M0,.28a.162.162,0,0,0,.01.087.119.119,0,0,0,.112.06A.214.214,0,0,0,.246.377C.339.3.452.1.3.021.135-.067.013.143,0,.28Z" transform="translate(2.47 2.162)" fill="#fff" opacity="0.28"/>
          </g>
          <g id="Group_51" data-name="Group 51" transform="translate(1.379 35.869)">
            <path id="Path_540" data-name="Path 540" d="M3.3,1.866A1.655,1.655,0,1,1,1.866.014,1.655,1.655,0,0,1,3.3,1.866Z" transform="translate(0)" fill="#dc3d1d"/>
            <path id="Path_541" data-name="Path 541" d="M.014.9A1.654,1.654,0,0,0,2.837,2.266a2.876,2.876,0,0,1-.955,0,2.042,2.042,0,0,1-.561-.18,1.787,1.787,0,0,1-.9-1.049A1.8,1.8,0,0,1,.366.2,1.859,1.859,0,0,1,.427,0,1.646,1.646,0,0,0,.014.9Z" transform="translate(0 0.547)" opacity="0.14"/>
            <path id="Path_542" data-name="Path 542" d="M2.351,1.423a1.222,1.222,0,0,0-.043-.5A1.36,1.36,0,0,0,1.593.156a1.5,1.5,0,0,0-1.5.092C.038.291-.018.357.006.423A.122.122,0,0,0,.121.495.379.379,0,0,0,.262.462,1.889,1.889,0,0,1,1.207.335a.955.955,0,0,1,.741.55.835.835,0,0,1,.029.491,1.068,1.068,0,0,0-.041.2.2.2,0,0,0,.081.179.192.192,0,0,0,.24-.072A.554.554,0,0,0,2.351,1.423Z" transform="translate(0.719 0.246)" fill="#fff" opacity="0.28"/>
            <path id="Path_543" data-name="Path 543" d="M0,.279A.162.162,0,0,0,.012.366a.119.119,0,0,0,.112.06A.214.214,0,0,0,.246.377C.339.3.452.1.3.021.135-.067.013.143,0,.279Z" transform="translate(2.47 2.162)" fill="#fff" opacity="0.28"/>
          </g>
          <g id="Group_52" data-name="Group 52" transform="translate(0 32.249)">
            <circle id="Ellipse_79" data-name="Ellipse 79" cx="1.656" cy="1.656" r="1.656" transform="translate(0 2.973) rotate(-63.863)" fill="#dc3d1d"/>
            <path id="Path_544" data-name="Path 544" d="M.057.987a1.654,1.654,0,0,0,3.132.188,2.855,2.855,0,0,1-.884.362,2.051,2.051,0,0,1-.587.047A1.79,1.79,0,0,1,.487.958a1.789,1.789,0,0,1-.37-.75A2.072,2.072,0,0,1,.1,0,1.649,1.649,0,0,0,.057.987Z" transform="translate(0.562 1.659)" opacity="0.14"/>
            <path id="Path_545" data-name="Path 545" d="M2.575.883A1.205,1.205,0,0,0,2.343.436,1.36,1.36,0,0,0,1.391,0,1.5,1.5,0,0,0,.04.659C.006.719-.022.8.025.853A.124.124,0,0,0,.159.876.384.384,0,0,0,.276.791,1.878,1.878,0,0,1,1.1.314.952.952,0,0,1,2,.541.83.83,0,0,1,2.21.983a.955.955,0,0,0,.039.2.2.2,0,0,0,.143.134.192.192,0,0,0,.2-.159A.554.554,0,0,0,2.575.883Z" transform="translate(0.954 0.806)" fill="#fff" opacity="0.28"/>
            <path id="Path_546" data-name="Path 546" d="M.015.355A.17.17,0,0,0,.059.432.119.119,0,0,0,.185.445.207.207,0,0,0,.278.352C.336.249.362.015.2,0,.008-.016-.025.225.015.355Z" transform="translate(3.256 2.274)" fill="#fff" opacity="0.28"/>
          </g>
          <g id="Group_53" data-name="Group 53" transform="translate(0.673 29.108)">
            <circle id="Ellipse_80" data-name="Ellipse 80" cx="1.656" cy="1.656" r="1.656" transform="translate(0 2.727) rotate(-55.45)" fill="#dc3d1d"/>
            <path id="Path_547" data-name="Path 547" d="M.058.987a1.654,1.654,0,0,0,3.132.188,2.855,2.855,0,0,1-.884.362,2.054,2.054,0,0,1-.587.047A1.789,1.789,0,0,1,.487.958a1.789,1.789,0,0,1-.37-.75A2.068,2.068,0,0,1,.1,0,1.639,1.639,0,0,0,.058.987Z" transform="translate(0.649 1.748)" opacity="0.14"/>
            <path id="Path_548" data-name="Path 548" d="M2.575.883A1.206,1.206,0,0,0,2.343.436,1.36,1.36,0,0,0,1.391,0,1.5,1.5,0,0,0,.04.659C.006.719-.022.8.025.853A.124.124,0,0,0,.159.876.384.384,0,0,0,.276.791,1.878,1.878,0,0,1,1.1.314.955.955,0,0,1,2,.539.83.83,0,0,1,2.21.982a.954.954,0,0,0,.039.2.2.2,0,0,0,.143.134.192.192,0,0,0,.2-.159A.565.565,0,0,0,2.575.883Z" transform="translate(1.041 0.893)" fill="#fff" opacity="0.28"/>
            <path id="Path_549" data-name="Path 549" d="M.015.355A.17.17,0,0,0,.059.432.118.118,0,0,0,.185.445.207.207,0,0,0,.278.351C.336.249.362.015.2,0,.009-.016-.025.225.015.355Z" transform="translate(3.342 2.363)" fill="#fff" opacity="0.28"/>
          </g>
          <g id="Group_54" data-name="Group 54" transform="translate(2.024 26.578)">
            <path id="Path_550" data-name="Path 550" d="M3.254,1.223A1.655,1.655,0,1,1,1.224.057,1.655,1.655,0,0,1,3.254,1.223Z" fill="#dc3d1d"/>
            <path id="Path_551" data-name="Path 551" d="M.057.987a1.654,1.654,0,0,0,3.132.188,2.854,2.854,0,0,1-.884.362,2.054,2.054,0,0,1-.587.047A1.789,1.789,0,0,1,.486.958a1.789,1.789,0,0,1-.37-.75A2.063,2.063,0,0,1,.1,0,1.659,1.659,0,0,0,.057.987Z" transform="translate(0.001 1.1)" opacity="0.14"/>
            <path id="Path_552" data-name="Path 552" d="M2.575.883A1.2,1.2,0,0,0,2.343.436,1.36,1.36,0,0,0,1.391,0,1.5,1.5,0,0,0,.04.659C.006.719-.022.8.025.853A.124.124,0,0,0,.159.876.383.383,0,0,0,.276.791,1.878,1.878,0,0,1,1.1.314.952.952,0,0,1,2,.541.83.83,0,0,1,2.21.983a.956.956,0,0,0,.039.2.2.2,0,0,0,.143.134.192.192,0,0,0,.2-.159A.586.586,0,0,0,2.575.883Z" transform="translate(0.394 0.245)" fill="#fff" opacity="0.28"/>
            <path id="Path_553" data-name="Path 553" d="M.015.355A.17.17,0,0,0,.059.431.118.118,0,0,0,.185.445.213.213,0,0,0,.278.351C.336.249.362.015.2,0,.008-.016-.025.225.015.355Z" transform="translate(2.695 1.715)" fill="#fff" opacity="0.28"/>
          </g>
          <g id="Group_55" data-name="Group 55" transform="translate(2.961 23.117)">
            <circle id="Ellipse_81" data-name="Ellipse 81" cx="1.656" cy="1.656" r="1.656" transform="translate(0 2.737) rotate(-55.73)" fill="#dc3d1d"/>
            <path id="Path_554" data-name="Path 554" d="M.057.987a1.654,1.654,0,0,0,3.132.188,2.854,2.854,0,0,1-.884.362,2.052,2.052,0,0,1-.587.047A1.789,1.789,0,0,1,.487.958a1.789,1.789,0,0,1-.37-.75A2.059,2.059,0,0,1,.1,0,1.648,1.648,0,0,0,.057.987Z" transform="translate(0.645 1.743)" opacity="0.14"/>
            <path id="Path_555" data-name="Path 555" d="M2.575.883A1.206,1.206,0,0,0,2.343.436,1.36,1.36,0,0,0,1.391,0,1.5,1.5,0,0,0,.04.659C.006.719-.022.8.025.853A.124.124,0,0,0,.159.876.384.384,0,0,0,.276.791,1.878,1.878,0,0,1,1.1.314.955.955,0,0,1,2,.539.83.83,0,0,1,2.21.982a.953.953,0,0,0,.039.2.2.2,0,0,0,.143.134.192.192,0,0,0,.2-.159A.548.548,0,0,0,2.575.883Z" transform="translate(1.037 0.889)" fill="#fff" opacity="0.28"/>
            <path id="Path_556" data-name="Path 556" d="M.015.355A.17.17,0,0,0,.059.432.119.119,0,0,0,.185.445.213.213,0,0,0,.278.351C.336.249.362.015.2,0,.008-.016-.025.225.015.355Z" transform="translate(3.339 2.358)" fill="#fff" opacity="0.28"/>
          </g>
          <g id="Group_56" data-name="Group 56" transform="translate(5.21 20.838)">
            <circle id="Ellipse_82" data-name="Ellipse 82" cx="1.656" cy="1.656" r="1.656" transform="translate(0 3.238) rotate(-77.866)" fill="#dc3d1d"/>
            <path id="Path_557" data-name="Path 557" d="M.22.964a1.656,1.656,0,0,0,2.26.609A1.651,1.651,0,0,0,3.3.345a2.886,2.886,0,0,1-.762.576,2.1,2.1,0,0,1-.555.2A1.793,1.793,0,0,1,.627.827,1.775,1.775,0,0,1,.078.2,1.64,1.64,0,0,1,.006,0,1.646,1.646,0,0,0,.22.964Z" transform="translate(0.31 1.829)" opacity="0.14"/>
            <path id="Path_558" data-name="Path 558" d="M2.519.581A1.2,1.2,0,0,0,2.181.208,1.357,1.357,0,0,0,1.15.032a1.5,1.5,0,0,0-1.138.98c-.017.067-.022.154.035.192A.122.122,0,0,0,.182,1.19a.375.375,0,0,0,.092-.11A1.888,1.888,0,0,1,.95.406.951.951,0,0,1,1.872.4a.843.843,0,0,1,.32.373.994.994,0,0,0,.089.184.2.2,0,0,0,.173.092A.193.193,0,0,0,2.6.842.6.6,0,0,0,2.519.581Z" transform="translate(0.581 0.542)" fill="#fff" opacity="0.28"/>
            <path id="Path_559" data-name="Path 559" d="M.057.391a.164.164,0,0,0,.06.063A.121.121,0,0,0,.243.434.22.22,0,0,0,.31.32C.34.206.306-.026.141,0-.046.034-.017.277.057.391Z" transform="translate(3.034 1.707)" fill="#fff" opacity="0.28"/>
          </g>
          <g id="Group_57" data-name="Group 57" transform="translate(6.637 17.813)">
            <circle id="Ellipse_83" data-name="Ellipse 83" cx="1.656" cy="1.656" r="1.656" transform="translate(0 2.809) rotate(-58.036)" fill="#dc3d1d"/>
            <path id="Path_560" data-name="Path 560" d="M.019.977a1.654,1.654,0,0,0,3.088.55,2.849,2.849,0,0,1-.919.257A2.053,2.053,0,0,1,1.6,1.763,1.794,1.794,0,0,1,.448,1,1.785,1.785,0,0,1,.167.21,1.732,1.732,0,0,1,.172,0,1.644,1.644,0,0,0,.019.977Z" transform="translate(0.626 1.55)" opacity="0.14"/>
            <path id="Path_561" data-name="Path 561" d="M2.547,1.035A1.214,1.214,0,0,0,2.368.563a1.357,1.357,0,0,0-.9-.541,1.5,1.5,0,0,0-1.418.5C.014.574-.023.653.018.709a.123.123,0,0,0,.13.038A.372.372,0,0,0,.274.678,1.89,1.89,0,0,1,1.15.3a.954.954,0,0,1,.861.328.842.842,0,0,1,.161.465.972.972,0,0,0,.016.2.2.2,0,0,0,.127.15.194.194,0,0,0,.213-.135A.6.6,0,0,0,2.547,1.035Z" transform="translate(1.099 0.878)" fill="#fff" opacity="0.28"/>
            <path id="Path_562" data-name="Path 562" d="M.005.335A.167.167,0,0,0,.039.417.119.119,0,0,0,.163.444a.218.218,0,0,0,.1-.081C.336.267.389.039.225,0,.041-.035-.02.2.005.335Z" transform="translate(3.274 2.482)" fill="#fff" opacity="0.28"/>
          </g>
          <g id="Group_58" data-name="Group 58" transform="translate(8.717 15.32)">
            <circle id="Ellipse_84" data-name="Ellipse 84" cx="1.656" cy="1.656" r="1.656" transform="translate(0 2.804) rotate(-57.866)" fill="#dc3d1d"/>
            <path id="Path_563" data-name="Path 563" d="M.018.977a1.654,1.654,0,0,0,3.088.55,2.85,2.85,0,0,1-.919.257A2.054,2.054,0,0,1,1.6,1.763,1.794,1.794,0,0,1,.447,1,1.785,1.785,0,0,1,.166.21,1.73,1.73,0,0,1,.172,0,1.654,1.654,0,0,0,.018.977Z" transform="translate(0.628 1.551)" opacity="0.14"/>
            <path id="Path_564" data-name="Path 564" d="M2.547,1.035A1.214,1.214,0,0,0,2.368.563a1.357,1.357,0,0,0-.9-.541,1.5,1.5,0,0,0-1.418.5C.014.574-.023.653.018.709a.123.123,0,0,0,.13.038A.372.372,0,0,0,.274.678,1.89,1.89,0,0,1,1.15.3a.954.954,0,0,1,.861.328.842.842,0,0,1,.161.465.97.97,0,0,0,.016.2.2.2,0,0,0,.127.15.194.194,0,0,0,.213-.135A.563.563,0,0,0,2.547,1.035Z" transform="translate(1.101 0.878)" fill="#fff" opacity="0.28"/>
            <path id="Path_565" data-name="Path 565" d="M.005.335A.166.166,0,0,0,.04.417.119.119,0,0,0,.163.444a.217.217,0,0,0,.1-.081C.336.267.389.039.225,0,.041-.035-.02.2.005.335Z" transform="translate(3.277 2.482)" fill="#fff" opacity="0.28"/>
          </g>
          <g id="Group_59" data-name="Group 59" transform="translate(11.684 13.716)">
            <circle id="Ellipse_85" data-name="Ellipse 85" cx="1.656" cy="1.656" r="1.656" transform="translate(0 3.294) rotate(-84.111)" fill="#dc3d1d"/>
            <path id="Path_566" data-name="Path 566" d="M.28.948a1.655,1.655,0,0,0,2.3.456,1.649,1.649,0,0,0,.73-1.28A2.881,2.881,0,0,1,2.586.75a2.149,2.149,0,0,1-.541.234A1.79,1.79,0,0,1,.676.784,1.782,1.782,0,0,1,.086.192,1.7,1.7,0,0,1,0,0,1.647,1.647,0,0,0,.28.948Z" transform="translate(0.16 1.788)" opacity="0.14"/>
            <path id="Path_567" data-name="Path 567" d="M2.48.511A1.185,1.185,0,0,0,2.117.162,1.357,1.357,0,0,0,1.077.056,1.5,1.5,0,0,0,.007,1.11c-.013.068-.012.155.049.189a.122.122,0,0,0,.134-.022A.4.4,0,0,0,.273,1.16,1.887,1.887,0,0,1,.9.443.955.955,0,0,1,1.821.371a.846.846,0,0,1,.345.351.916.916,0,0,0,.1.177.2.2,0,0,0,.179.08A.192.192,0,0,0,2.582.766.567.567,0,0,0,2.48.511Z" transform="translate(0.41 0.385)" fill="#fff" opacity="0.28"/>
            <path id="Path_568" data-name="Path 568" d="M.07.4A.174.174,0,0,0,.135.456.12.12,0,0,0,.258.429.216.216,0,0,0,.317.31C.339.194.29-.035.127,0-.056.048-.01.287.07.4Z" transform="translate(2.876 1.474)" fill="#fff" opacity="0.28"/>
          </g>
          <g id="Group_60" data-name="Group 60" transform="translate(13.69 11.192)">
            <circle id="Ellipse_86" data-name="Ellipse 86" cx="1.656" cy="1.656" r="1.656" transform="matrix(0.177, -0.984, 0.984, 0.177, 0, 3.259)" fill="#dc3d1d"/>
            <path id="Path_569" data-name="Path 569" d="M.28.948a1.655,1.655,0,0,0,2.3.456,1.649,1.649,0,0,0,.73-1.28A2.881,2.881,0,0,1,2.585.75a2.146,2.146,0,0,1-.541.234A1.79,1.79,0,0,1,.676.784,1.782,1.782,0,0,1,.085.192,1.69,1.69,0,0,1,0,0,1.667,1.667,0,0,0,.28.948Z" transform="translate(0.266 1.895)" opacity="0.14"/>
            <path id="Path_570" data-name="Path 570" d="M2.48.511A1.185,1.185,0,0,0,2.117.162,1.358,1.358,0,0,0,1.077.056,1.5,1.5,0,0,0,.007,1.11c-.013.068-.012.155.049.189a.122.122,0,0,0,.134-.022A.4.4,0,0,0,.273,1.16,1.887,1.887,0,0,1,.9.443.955.955,0,0,1,1.821.371a.846.846,0,0,1,.345.351.916.916,0,0,0,.1.177.2.2,0,0,0,.179.08A.192.192,0,0,0,2.582.766.589.589,0,0,0,2.48.511Z" transform="translate(0.516 0.492)" fill="#fff" opacity="0.28"/>
            <path id="Path_571" data-name="Path 571" d="M.07.4A.174.174,0,0,0,.135.456.12.12,0,0,0,.258.429.216.216,0,0,0,.317.31C.339.194.29-.035.127,0-.056.048-.01.287.07.4Z" transform="translate(2.983 1.581)" fill="#fff" opacity="0.28"/>
          </g>
          <g id="Group_61" data-name="Group 61" transform="translate(15.658 8.682)">
            <circle id="Ellipse_87" data-name="Ellipse 87" cx="1.656" cy="1.656" r="1.656" transform="translate(0 3.263) rotate(-80.235)" fill="#dc3d1d"/>
            <path id="Path_572" data-name="Path 572" d="M.28.948a1.655,1.655,0,0,0,2.3.456,1.649,1.649,0,0,0,.73-1.28A2.882,2.882,0,0,1,2.586.75a2.15,2.15,0,0,1-.541.234A1.785,1.785,0,0,1,.676.784,1.782,1.782,0,0,1,.086.192,1.7,1.7,0,0,1,0,0,1.646,1.646,0,0,0,.28.948Z" transform="translate(0.257 1.884)" opacity="0.14"/>
            <path id="Path_573" data-name="Path 573" d="M2.48.511A1.185,1.185,0,0,0,2.117.162,1.357,1.357,0,0,0,1.077.056,1.5,1.5,0,0,0,.007,1.11c-.013.068-.012.155.049.189a.121.121,0,0,0,.134-.022A.4.4,0,0,0,.273,1.16,1.887,1.887,0,0,1,.9.443.955.955,0,0,1,1.821.371a.846.846,0,0,1,.345.351.916.916,0,0,0,.1.177.2.2,0,0,0,.179.08A.192.192,0,0,0,2.582.766.567.567,0,0,0,2.48.511Z" transform="translate(0.506 0.482)" fill="#fff" opacity="0.28"/>
            <path id="Path_574" data-name="Path 574" d="M.07.4A.173.173,0,0,0,.135.456.12.12,0,0,0,.258.429.216.216,0,0,0,.317.31C.339.194.29-.035.127,0-.056.047-.01.287.07.4Z" transform="translate(2.973 1.571)" fill="#fff" opacity="0.28"/>
          </g>
          <g id="Group_75" data-name="Group 75" transform="translate(24.572)">
            <path id="Path_575" data-name="Path 575" d="M1.454,3.323a.772.772,0,0,1,.23-.253.767.767,0,0,1,.882.223,1.5,1.5,0,0,1,.284,1.088c-.025.383-.121.762-.133,1.146A3.011,3.011,0,0,0,3.5,7.563,4.318,4.318,0,0,0,5.356,8.754C4.868,7.945,5.217,6.92,5.431,6a6.524,6.524,0,0,0,.085-2.8C5.2,1.678,3.983.005,2.285,0A2.069,2.069,0,0,0,.111,2.677a1.051,1.051,0,0,0,.94.808A.345.345,0,0,0,1.454,3.323Z" fill="#fac766"/>
            <path id="Path_576" data-name="Path 576" d="M3.924,6.208a4.218,4.218,0,0,1-.617-2.027c0-.4.087-.8.114-1.2A1.893,1.893,0,0,0,3.2,1.82,1.207,1.207,0,0,0,1.34,1.608,1.282,1.282,0,0,1,1.991.653a1.3,1.3,0,0,0-.9.664A2.028,2.028,0,0,1,1.536.252,2.519,2.519,0,0,0,.55,1.309,1.936,1.936,0,0,1,.132,0,1.975,1.975,0,0,0,.11,1.362a1.051,1.051,0,0,0,.94.808.342.342,0,0,0,.4-.16.772.772,0,0,1,.23-.253.767.767,0,0,1,.882.223,1.5,1.5,0,0,1,.284,1.088c-.025.383-.122.762-.133,1.146A3.012,3.012,0,0,0,3.5,6.249a3.921,3.921,0,0,0,.966.784C4.321,6.736,4.047,6.431,3.924,6.208Z" transform="translate(0.001 1.316)" opacity="0.14"/>
            <g id="Group_62" data-name="Group 62" transform="translate(0.803 0.64)">
              <path id="Path_577" data-name="Path 577" d="M.083.82A1.411,1.411,0,0,1,1.054.2,1.873,1.873,0,0,1,2.261.413a2.726,2.726,0,0,1,.993.932,3.3,3.3,0,0,1,.5,1.238,3.354,3.354,0,0,1-.105,1.5.041.041,0,0,0,.077.028,2.851,2.851,0,0,0,.152-1.384,3.734,3.734,0,0,0-.418-1.362,2.938,2.938,0,0,0-1-1.088A1.884,1.884,0,0,0,1.152.027,1.658,1.658,0,0,0,.007.767c-.03.051.045.1.076.054Z" fill="#e6ad4e"/>
            </g>
            <g id="Group_63" data-name="Group 63" transform="translate(2.073 1.37)">
              <path id="Path_578" data-name="Path 578" d="M.057.117C.481-.025.858.308,1.121.6c.045.049.121-.016.079-.066A1.11,1.11,0,0,0,.024.046C-.026.063.01.133.057.117Z" fill="#e6ad4e"/>
            </g>
            <g id="Group_64" data-name="Group 64" transform="translate(2.477 1.985)">
              <path id="Path_579" data-name="Path 579" d="M.034.075A.248.248,0,0,1,.248.183.041.041,0,0,0,.3.188.041.041,0,0,0,.309.133.325.325,0,0,0,.041,0,.041.041,0,0,0,0,.034.039.039,0,0,0,.034.075Z" fill="#e6ad4e"/>
            </g>
            <g id="Group_65" data-name="Group 65" transform="translate(3.789 2.709)">
              <path id="Path_580" data-name="Path 580" d="M0,.046A1.833,1.833,0,0,1,.212,1.251c-.012.076.109.085.119.009A1.952,1.952,0,0,0,.065.018C.043-.02-.017.008,0,.046Z" fill="#e6ad4e"/>
            </g>
            <g id="Group_66" data-name="Group 66" transform="translate(3.888 4.728)">
              <path id="Path_581" data-name="Path 581" d="M.149.021A2.582,2.582,0,0,0,.317,2.138c.046.075.167.022.126-.06A3.005,3.005,0,0,1,.12,1.093,2.5,2.5,0,0,1,.208.041.031.031,0,0,0,.149.021Z" fill="#e6ad4e"/>
            </g>
            <g id="Group_67" data-name="Group 67" transform="translate(4.426 5.344)">
              <path id="Path_582" data-name="Path 582" d="M.018.044A1.426,1.426,0,0,0,.11.82c.029.067.129.018.1-.049A1.4,1.4,0,0,1,.119.051C.127-.012.028-.019.018.044Z" fill="#e6ad4e"/>
            </g>
            <g id="Group_68" data-name="Group 68" transform="translate(4.882 5.184)">
              <path id="Path_583" data-name="Path 583" d="M.053.037C.036.163.017.289,0,.416A.046.046,0,0,0,.041.464.046.046,0,0,0,.088.423L.135.044A.041.041,0,0,0,.1,0,.042.042,0,0,0,.053.037Z" fill="#e6ad4e"/>
            </g>
            <g id="Group_69" data-name="Group 69" transform="translate(4.493 7.118)">
              <path id="Path_584" data-name="Path 584" d="M0,.058.04.269A.049.049,0,0,0,.1.307.049.049,0,0,0,.133.252C.122.181.109.11.1.039A.048.048,0,0,0,.04,0,.049.049,0,0,0,0,.058Z" fill="#e6ad4e"/>
            </g>
            <g id="Group_70" data-name="Group 70" transform="translate(4.983 2.483)">
              <path id="Path_585" data-name="Path 585" d="M.138,2A3.445,3.445,0,0,0,.081.023C.066-.021-.013,0,0,.05A3.7,3.7,0,0,1,.087,1.981c-.009.034.041.054.051.018Z" fill="#e6ad4e"/>
            </g>
            <g id="Group_71" data-name="Group 71" transform="translate(4.096 1.209)">
              <path id="Path_586" data-name="Path 586" d="M.166.166.052.011a.029.029,0,0,0-.042,0,.032.032,0,0,0,0,.042L.123.2a.029.029,0,0,0,.039,0,.03.03,0,0,0,0-.041Z" fill="#e6ad4e"/>
            </g>
            <g id="Group_72" data-name="Group 72" transform="translate(2.631 0.261)">
              <path id="Path_587" data-name="Path 587" d="M1.184.6A4.85,4.85,0,0,0,.056,0a.043.043,0,0,0-.029.08A4.769,4.769,0,0,1,1.144.66.034.034,0,0,0,1.184.6Z" fill="#e6ad4e"/>
            </g>
            <g id="Group_73" data-name="Group 73" transform="translate(1.799 1.007)">
              <path id="Path_588" data-name="Path 588" d="M.616.012A1.085,1.085,0,0,0,.022.089c-.046.02-.01.093.033.07A.973.973,0,0,1,.615.037a.012.012,0,1,0,0-.025Z" fill="#e6ad4e"/>
            </g>
            <g id="Group_74" data-name="Group 74" transform="translate(0.697 0.442)">
              <path id="Path_589" data-name="Path 589" d="M.863,0A1.693,1.693,0,0,0,.01.583c-.037.049.041.1.078.054A1.6,1.6,0,0,1,.876.073C.921.058.908-.011.863,0Z" fill="#e6ad4e"/>
            </g>
          </g>
          <path id="Path_590" data-name="Path 590" d="M3.461.031c-.05-.009-.1-.017-.152-.025a.227.227,0,0,0-.172.024.237.237,0,0,0-.066.131A4.8,4.8,0,0,1,2.007,2.135a5.134,5.134,0,0,1-.823.733,3.589,3.589,0,0,0-.7.777,2.178,2.178,0,0,0-.458.822A1.563,1.563,0,0,0,.067,5.2,2.519,2.519,0,0,0,1.785,6.983a2.147,2.147,0,0,0,2.29-.813,2.824,2.824,0,0,0,.444-1.389,10.772,10.772,0,0,0-.247-1.317A6.52,6.52,0,0,1,4.581.65.225.225,0,0,0,4.593.478.209.209,0,0,0,4.5.4,3.585,3.585,0,0,0,3.461.031Z" transform="translate(21.519 3.043)" fill="#751f0e"/>
          <path id="Path_591" data-name="Path 591" d="M4.076,2.426a2.066,2.066,0,0,0,.21-.4,2.218,2.218,0,0,1-1.054.406,2.938,2.938,0,0,1-1.38-.2,2.435,2.435,0,0,1-1.318-1.1A1.591,1.591,0,0,1,.411,0,1.928,1.928,0,0,0,.028.723a1.563,1.563,0,0,0,.039.734A2.519,2.519,0,0,0,1.785,3.239,2.154,2.154,0,0,0,4.076,2.426Z" transform="translate(21.518 6.79)" opacity="0.14"/>
          <g id="Group_76" data-name="Group 76" transform="translate(22.407 3.885)">
            <path id="Path_592" data-name="Path 592" d="M3.525,1.243A16.043,16.043,0,0,1,.428.071C.383.049.339.024.294,0A1.928,1.928,0,0,0,0,.269,16.188,16.188,0,0,0,3.055,1.506c.185.054.372.1.558.15C3.592,1.52,3.561,1.381,3.525,1.243Z" transform="translate(0 2.027)" fill="#fac766"/>
            <path id="Path_593" data-name="Path 593" d="M1.555.75C1.562.708,1.57.666,1.58.624Q.827.283.05,0C.033.038.018.077,0,.116Q.788.4,1.555.75Z" transform="translate(1.897)" fill="#fac766"/>
            <path id="Path_594" data-name="Path 594" d="M1.686.851C1.69.807,1.7.764,1.7.72Q.894.333.064,0C.045.037.022.074,0,.11Q.857.451,1.686.851Z" transform="translate(1.695 0.383)" fill="#fac766"/>
          </g>
          <path id="Path_595" data-name="Path 595" d="M.951,1.6A1.937,1.937,0,0,0,.012,2.772,1.313,1.313,0,0,0,.92,4.131a1.118,1.118,0,0,0,.435.068,1.221,1.221,0,0,0,.991-.811,3.53,3.53,0,0,0,.169-1.333A3.979,3.979,0,0,1,2.709.633c.072-.2.105-.62-.227-.633C2.207-.01,2.067.64,1.907.833A4.323,4.323,0,0,1,.951,1.6Z" transform="translate(22.705 4.043)" fill="#fff" opacity="0.22"/>
        </g>
      </g>
    </g>
    <text id="تسبيح-2" data-name="تسبيح" transform="translate(105 38)" fill="#fff" font-size="18" font-family="AGOOGLE, A GOOGLE"><tspan x="0" y="0">تسبيح</tspan></text>
  </g>
</svg>
