<svg xmlns="http://www.w3.org/2000/svg" xmlns:xlink="http://www.w3.org/1999/xlink" width="428" height="96" viewBox="0 0 428 96">
  <defs>
    <linearGradient id="linear-gradient" x1="0.033" y1="0.057" x2="0.956" y2="0.976" gradientUnits="objectBoundingBox">
      <stop offset="0" stop-color="#490496"/>
      <stop offset="1" stop-color="#7900ff"/>
    </linearGradient>
  </defs>
  <g id="تسبيح" transform="translate(129 14)">
    <g id="Group_140" data-name="Group 140">
      <rect id="Rectangle_13" data-name="Rectangle 13" width="428" height="96" transform="translate(-129 -14)" fill="url(#linear-gradient)"/>
      <circle id="Ellipse_92" data-name="Ellipse 92" cx="9" cy="9" r="9" transform="translate(230 58)" fill="#fff" opacity="0.15"/>
      <circle id="Ellipse_93" data-name="Ellipse 93" cx="9" cy="9" r="9" transform="translate(113 12)" fill="#fff" opacity="0.15"/>
      <g id="OBJECTS" transform="matrix(0.259, -0.966, 0.966, 0.259, -132.898, 134.988)">
        <g id="Group_28" data-name="Group 28" transform="translate(95.2 52.535)">
          <path id="Path_448" data-name="Path 448" d="M259.178,357.63l.7,1.285,1.285.7-1.285.7-.7,1.285-.7-1.285-1.285-.7,1.285-.7Z" transform="translate(-221.49 -298.613)" fill="#fff"/>
          <path id="Path_449" data-name="Path 449" d="M352.191,174.35l.516.943.945.518-.945.516-.516.945-.518-.945-.943-.516.943-.518Z" transform="translate(-294.415 -155.725)" fill="#fff"/>
          <path id="Path_450" data-name="Path 450" d="M264.837,176.06l.516.943.941.516-.941.513-.516.943-.516-.943-.941-.513.941-.516Z" transform="translate(-226.315 -157.058)" fill="#fff"/>
          <path id="Path_451" data-name="Path 451" d="M174.987,310.47l.516.943.941.513-.941.516-.516.943-.516-.943-.941-.516.941-.513Z" transform="translate(-156.267 -261.846)" fill="#fff"/>
          <path id="Path_452" data-name="Path 452" d="M95.9,221.65l.247.452.452.247-.452.247-.247.452-.247-.452-.45-.247.45-.247Z" transform="translate(-95.2 -192.601)" fill="#fff"/>
          <path id="Path_453" data-name="Path 453" d="M189.189,355.51l.247.45.45.247-.45.247-.247.452-.247-.452-.452-.247.452-.247Z" transform="translate(-167.93 -296.96)" fill="#fff"/>
          <path id="Path_454" data-name="Path 454" d="M138.939,203.74l.247.45.452.247-.452.247-.247.452-.247-.452-.452-.247.452-.247Z" transform="translate(-128.755 -178.638)" fill="#fff"/>
          <path id="Path_455" data-name="Path 455" d="M143.159,410.34l.518.943.943.518-.943.516-.518.946-.516-.946-.943-.516.943-.518Z" transform="translate(-131.452 -339.706)" fill="#fff"/>
          <path id="Path_456" data-name="Path 456" d="M198.368,89.84l.551,1.007,1.007.551-1.007.551-.551,1.007-.551-1.007L196.81,91.4l1.007-.551Z" transform="translate(-174.416 -89.84)" fill="#fff"/>
          <path id="Path_457" data-name="Path 457" d="M376.111,384.68l.516.943.945.518-.945.516-.516.943-.516-.943-.945-.516.945-.518Z" transform="translate(-313.063 -319.701)" fill="#fff"/>
          <path id="Path_458" data-name="Path 458" d="M251.476,308.46l.247.452.452.247-.452.247-.247.45-.247-.45-.45-.247.45-.247Z" transform="translate(-216.492 -260.279)" fill="#fff"/>
          <path id="Path_459" data-name="Path 459" d="M376.929,122.74l.247.45.452.247-.452.247-.247.452-.247-.452-.452-.247.452-.247Z" transform="translate(-314.295 -115.489)" fill="#fff"/>
          <path id="Path_460" data-name="Path 460" d="M361.519,217.31l.247.452.449.247-.449.247-.247.45-.247-.45-.452-.247.452-.247Z" transform="translate(-302.281 -189.217)" fill="#fff"/>
          <path id="Path_461" data-name="Path 461" d="M174.446,124.04l.247.452.452.247-.452.247-.247.452-.247-.452-.45-.247.45-.247Z" transform="translate(-156.439 -116.503)" fill="#fff"/>
          <path id="Path_462" data-name="Path 462" d="M103.3,352.59l.247.45.45.247-.45.247-.247.452-.247-.452-.452-.247.452-.247Z" transform="translate(-100.969 -294.683)" fill="#fff"/>
          <path id="Path_463" data-name="Path 463" d="M115.448,173.93l.74,1.355,1.355.743-1.355.74-.74,1.355-.743-1.355-1.355-.74,1.355-.743Z" transform="translate(-109.35 -155.398)" fill="#fff"/>
        </g>
        <g id="Group_77" data-name="Group 77" transform="translate(97.284 41.99)">
          <g id="Group_29" data-name="Group 29" transform="translate(41.886 19.837)">
            <circle id="Ellipse_67" data-name="Ellipse 67" cx="2.779" cy="2.779" r="2.779" transform="translate(0 2.149) rotate(-22.749)" fill="#dc3d1d"/>
            <path id="Path_464" data-name="Path 464" d="M298.648,144.832a2.776,2.776,0,0,0,5.2.8,4.883,4.883,0,0,1-1.532.469,3.545,3.545,0,0,1-.99-.011,3,3,0,0,1-1.961-1.239,2.973,2.973,0,0,1-.5-1.311,3.082,3.082,0,0,1,0-.353A2.76,2.76,0,0,0,298.648,144.832Z" transform="translate(-297.749 -140.724)" opacity="0.14"/>
            <path id="Path_465" data-name="Path 465" d="M306.373,139.477a2.056,2.056,0,0,0-.317-.785,2.28,2.28,0,0,0-1.523-.873,2.517,2.517,0,0,0-2.36.886c-.066.1-.126.229-.055.324a.208.208,0,0,0,.22.057.692.692,0,0,0,.209-.121A3.176,3.176,0,0,1,304,138.3a1.6,1.6,0,0,1,1.459.518,1.4,1.4,0,0,1,.289.774,1.762,1.762,0,0,0,.035.342.333.333,0,0,0,.218.245.323.323,0,0,0,.35-.234A.979.979,0,0,0,306.373,139.477Z" transform="translate(-300.461 -136.514)" fill="#fff" opacity="0.28"/>
            <path id="Path_466" data-name="Path 466" d="M318.877,150.374a.286.286,0,0,0,.06.134.2.2,0,0,0,.209.042.368.368,0,0,0,.172-.141c.112-.163.194-.549-.084-.6C318.921,149.753,318.829,150.152,318.877,150.374Z" transform="translate(-313.542 -145.88)" fill="#fff" opacity="0.28"/>
          </g>
          <g id="Group_30" data-name="Group 30" transform="translate(40.06 14.932)">
            <circle id="Ellipse_68" data-name="Ellipse 68" cx="2.779" cy="2.779" r="2.779" transform="translate(0 1.893) rotate(-19.908)" fill="#dc3d1d"/>
            <path id="Path_467" data-name="Path 467" d="M290.024,122.232a2.776,2.776,0,0,0,5.2.8,4.881,4.881,0,0,1-1.532.469,3.543,3.543,0,0,1-.99-.011,3,3,0,0,1-1.961-1.239,2.974,2.974,0,0,1-.5-1.311,3.075,3.075,0,0,1,0-.353A2.746,2.746,0,0,0,290.024,122.232Z" transform="translate(-289.199 -118.199)" opacity="0.14"/>
            <path id="Path_468" data-name="Path 468" d="M297.743,116.877a2.055,2.055,0,0,0-.317-.785,2.279,2.279,0,0,0-1.523-.873,2.517,2.517,0,0,0-2.36.886c-.066.1-.126.229-.055.324a.208.208,0,0,0,.22.057.692.692,0,0,0,.209-.121,3.177,3.177,0,0,1,1.455-.67,1.6,1.6,0,0,1,1.459.518,1.4,1.4,0,0,1,.289.774,1.752,1.752,0,0,0,.035.342.333.333,0,0,0,.218.245.323.323,0,0,0,.351-.234A.95.95,0,0,0,297.743,116.877Z" transform="translate(-291.906 -113.99)" fill="#fff" opacity="0.28"/>
            <path id="Path_469" data-name="Path 469" d="M310.247,127.783a.286.286,0,0,0,.06.134.2.2,0,0,0,.209.042.369.369,0,0,0,.172-.141c.112-.163.194-.549-.084-.6C310.291,127.159,310.2,127.558,310.247,127.783Z" transform="translate(-304.988 -123.362)" fill="#fff" opacity="0.28"/>
          </g>
          <g id="Group_31" data-name="Group 31" transform="translate(30.867 11.593)">
            <path id="Path_470" data-name="Path 470" d="M250.262,97.61A2.779,2.779,0,1,1,247.73,94.6,2.779,2.779,0,0,1,250.262,97.61Z" transform="translate(-244.714 -94.594)" fill="#dc3d1d"/>
            <path id="Path_471" data-name="Path 471" d="M244.734,100.712a2.777,2.777,0,0,0,4.831,2.1,4.891,4.891,0,0,1-1.6.066,3.507,3.507,0,0,1-.954-.262,2.957,2.957,0,0,1-1.734-3.09,3.243,3.243,0,0,1,.09-.342A2.739,2.739,0,0,0,244.734,100.712Z" transform="translate(-244.722 -98.169)" opacity="0.14"/>
            <path id="Path_472" data-name="Path 472" d="M253.891,98.768a2.069,2.069,0,0,0-.108-.84,2.276,2.276,0,0,0-1.252-1.23,2.513,2.513,0,0,0-2.508.26c-.088.077-.179.19-.134.3a.205.205,0,0,0,.2.112.66.66,0,0,0,.231-.064,3.153,3.153,0,0,1,1.576-.28,1.6,1.6,0,0,1,1.28.871,1.4,1.4,0,0,1,.084.822,1.624,1.624,0,0,0-.053.339.335.335,0,0,0,.15.293.321.321,0,0,0,.4-.139A.98.98,0,0,0,253.891,98.768Z" transform="translate(-248.74 -96.067)" fill="#fff" opacity="0.28"/>
            <path id="Path_473" data-name="Path 473" d="M263.8,111.208a.276.276,0,0,0,.024.145.2.2,0,0,0,.192.095.352.352,0,0,0,.2-.093c.15-.13.326-.48.07-.6C264,110.617,263.806,110.979,263.8,111.208Z" transform="translate(-259.591 -107.169)" fill="#fff" opacity="0.28"/>
          </g>
          <g id="Group_32" data-name="Group 32" transform="translate(44.387 24.691)">
            <circle id="Ellipse_69" data-name="Ellipse 69" cx="2.779" cy="2.779" r="2.779" transform="translate(0 1.823) rotate(-19.142)" fill="#dc3d1d"/>
            <path id="Path_474" data-name="Path 474" d="M309.548,166.4a2.776,2.776,0,0,0,5.2.8,4.881,4.881,0,0,1-1.532.469,3.545,3.545,0,0,1-.99-.011,2.962,2.962,0,0,1-2.464-2.55,3.1,3.1,0,0,1,0-.353A2.776,2.776,0,0,0,309.548,166.4Z" transform="translate(-308.747 -162.394)" opacity="0.14"/>
            <path id="Path_475" data-name="Path 475" d="M317.273,161.037a2.053,2.053,0,0,0-.317-.785,2.28,2.28,0,0,0-1.523-.873,2.517,2.517,0,0,0-2.36.886c-.066.1-.126.229-.055.324a.208.208,0,0,0,.22.057.658.658,0,0,0,.207-.121,3.175,3.175,0,0,1,1.455-.67,1.6,1.6,0,0,1,1.459.518,1.4,1.4,0,0,1,.289.774,1.762,1.762,0,0,0,.035.342.333.333,0,0,0,.218.245.323.323,0,0,0,.35-.234A.949.949,0,0,0,317.273,161.037Z" transform="translate(-311.459 -158.177)" fill="#fff" opacity="0.28"/>
            <path id="Path_476" data-name="Path 476" d="M329.768,171.943a.288.288,0,0,0,.059.134.2.2,0,0,0,.209.042.369.369,0,0,0,.172-.141c.112-.163.194-.549-.084-.6C329.814,171.319,329.719,171.718,329.768,171.943Z" transform="translate(-324.533 -167.549)" fill="#fff" opacity="0.28"/>
          </g>
          <g id="Group_33" data-name="Group 33" transform="translate(45.147 29.433)">
            <circle id="Ellipse_70" data-name="Ellipse 70" cx="2.779" cy="2.779" r="2.779" transform="matrix(0.941, -0.339, 0.339, 0.941, 0, 1.882)" fill="#dc3d1d"/>
            <path id="Path_477" data-name="Path 477" d="M313.084,188.022a2.776,2.776,0,0,0,5.2.8,4.882,4.882,0,0,1-1.532.469,3.545,3.545,0,0,1-.989-.011,2.962,2.962,0,0,1-2.464-2.55,3.061,3.061,0,0,1,0-.353A2.76,2.76,0,0,0,313.084,188.022Z" transform="translate(-312.264 -183.991)" opacity="0.14"/>
            <path id="Path_478" data-name="Path 478" d="M320.8,182.667a2.055,2.055,0,0,0-.317-.785,2.28,2.28,0,0,0-1.523-.873,2.517,2.517,0,0,0-2.36.886c-.066.1-.126.229-.055.324a.208.208,0,0,0,.22.057.693.693,0,0,0,.209-.121,3.176,3.176,0,0,1,1.455-.67,1.6,1.6,0,0,1,1.459.518,1.4,1.4,0,0,1,.289.774,1.748,1.748,0,0,0,.035.342.333.333,0,0,0,.218.245.323.323,0,0,0,.351-.234A.952.952,0,0,0,320.8,182.667Z" transform="translate(-314.971 -179.782)" fill="#fff" opacity="0.28"/>
            <path id="Path_479" data-name="Path 479" d="M333.307,193.564a.286.286,0,0,0,.06.134.2.2,0,0,0,.209.042.368.368,0,0,0,.172-.141c.112-.163.194-.549-.084-.6C333.351,192.943,333.259,193.342,333.307,193.564Z" transform="translate(-328.052 -189.148)" fill="#fff" opacity="0.28"/>
          </g>
          <g id="Group_34" data-name="Group 34" transform="translate(47.506 35.315)">
            <path id="Path_480" data-name="Path 480" d="M325.737,205.419a2.779,2.779,0,1,1-2.338-3.158A2.778,2.778,0,0,1,325.737,205.419Z" transform="translate(-320.21 -202.23)" fill="#dc3d1d"/>
            <path id="Path_481" data-name="Path 481" d="M320.251,207.7a2.775,2.775,0,0,0,4.69,2.391,4.829,4.829,0,0,1-1.6-.035,3.431,3.431,0,0,1-.934-.322,2.963,2.963,0,0,1-1.541-3.193,3.4,3.4,0,0,1,.11-.335A2.775,2.775,0,0,0,320.251,207.7Z" transform="translate(-320.218 -205.333)" opacity="0.14"/>
            <path id="Path_482" data-name="Path 482" d="M329.762,206.547a1.99,1.99,0,0,0-.057-.844,2.287,2.287,0,0,0-1.172-1.307,2.515,2.515,0,0,0-2.519.1c-.093.07-.19.179-.152.291a.2.2,0,0,0,.192.123.629.629,0,0,0,.236-.051,3.149,3.149,0,0,1,1.591-.181,1.6,1.6,0,0,1,1.223.95,1.4,1.4,0,0,1,.033.824,1.791,1.791,0,0,0-.075.335.334.334,0,0,0,.132.3.326.326,0,0,0,.408-.112A1,1,0,0,0,329.762,206.547Z" transform="translate(-324.609 -203.695)" fill="#fff" opacity="0.28"/>
            <path id="Path_483" data-name="Path 483" d="M338.91,219.321a.271.271,0,0,0,.015.145.2.2,0,0,0,.185.106.366.366,0,0,0,.207-.079c.159-.119.355-.461.108-.6C339.148,218.746,338.934,219.094,338.91,219.321Z" transform="translate(-334.786 -215.196)" fill="#fff" opacity="0.28"/>
          </g>
          <g id="Group_35" data-name="Group 35" transform="translate(47.893 40.092)">
            <circle id="Ellipse_71" data-name="Ellipse 71" cx="2.779" cy="2.779" r="2.779" transform="translate(0 5.484) rotate(-80.659)" fill="#dc3d1d"/>
            <path id="Path_484" data-name="Path 484" d="M323.9,231.234a2.775,2.775,0,0,0,4.69,2.391,4.827,4.827,0,0,1-1.6-.035,3.429,3.429,0,0,1-.935-.322,2.963,2.963,0,0,1-1.541-3.193,3.419,3.419,0,0,1,.11-.335A2.775,2.775,0,0,0,323.9,231.234Z" transform="translate(-323.451 -228.454)" opacity="0.14"/>
            <path id="Path_485" data-name="Path 485" d="M333.412,230.077a1.99,1.99,0,0,0-.057-.844,2.287,2.287,0,0,0-1.172-1.307,2.515,2.515,0,0,0-2.519.1c-.093.071-.19.179-.152.291a.2.2,0,0,0,.192.123.629.629,0,0,0,.236-.051,3.15,3.15,0,0,1,1.591-.181,1.6,1.6,0,0,1,1.223.95,1.4,1.4,0,0,1,.033.824,1.791,1.791,0,0,0-.075.335.334.334,0,0,0,.132.3.326.326,0,0,0,.408-.112A1.021,1.021,0,0,0,333.412,230.077Z" transform="translate(-327.842 -226.816)" fill="#fff" opacity="0.28"/>
            <path id="Path_486" data-name="Path 486" d="M342.56,242.858a.271.271,0,0,0,.015.145.2.2,0,0,0,.185.106.366.366,0,0,0,.207-.079c.159-.119.355-.461.108-.6C342.8,242.281,342.584,242.629,342.56,242.858Z" transform="translate(-338.02 -238.321)" fill="#fff" opacity="0.28"/>
          </g>
          <g id="Group_36" data-name="Group 36" transform="translate(49.081 45.783)">
            <path id="Path_487" data-name="Path 487" d="M332.887,252.919a2.779,2.779,0,1,1-2.338-3.158A2.778,2.778,0,0,1,332.887,252.919Z" transform="translate(-327.36 -249.73)" fill="#dc3d1d"/>
            <path id="Path_488" data-name="Path 488" d="M327.391,255.2a2.775,2.775,0,0,0,4.69,2.391,4.829,4.829,0,0,1-1.6-.035,3.43,3.43,0,0,1-.934-.322A2.963,2.963,0,0,1,328,254.045a3.4,3.4,0,0,1,.11-.335A2.79,2.79,0,0,0,327.391,255.2Z" transform="translate(-327.36 -252.833)" opacity="0.14"/>
            <path id="Path_489" data-name="Path 489" d="M336.9,254.047a1.99,1.99,0,0,0-.057-.844,2.287,2.287,0,0,0-1.172-1.307,2.515,2.515,0,0,0-2.519.1c-.093.07-.19.179-.152.291a.2.2,0,0,0,.192.123.631.631,0,0,0,.236-.051,3.149,3.149,0,0,1,1.591-.181,1.6,1.6,0,0,1,1.223.95,1.4,1.4,0,0,1,.033.824,1.791,1.791,0,0,0-.075.335.333.333,0,0,0,.132.3.326.326,0,0,0,.408-.112A.986.986,0,0,0,336.9,254.047Z" transform="translate(-331.751 -251.195)" fill="#fff" opacity="0.28"/>
            <path id="Path_490" data-name="Path 490" d="M346.05,266.819a.271.271,0,0,0,.015.145.2.2,0,0,0,.185.106.366.366,0,0,0,.207-.079c.159-.119.355-.461.108-.6C346.288,266.241,346.076,266.592,346.05,266.819Z" transform="translate(-341.929 -262.693)" fill="#fff" opacity="0.28"/>
          </g>
          <g id="Group_37" data-name="Group 37" transform="translate(49.308 51.048)">
            <path id="Path_491" data-name="Path 491" d="M333.917,276.809a2.779,2.779,0,1,1-2.338-3.158A2.778,2.778,0,0,1,333.917,276.809Z" transform="translate(-328.39 -273.62)" fill="#dc3d1d"/>
            <path id="Path_492" data-name="Path 492" d="M328.421,279.084a2.775,2.775,0,0,0,4.69,2.391,4.823,4.823,0,0,1-1.6-.035,3.427,3.427,0,0,1-.935-.322,2.963,2.963,0,0,1-1.54-3.193,3.433,3.433,0,0,1,.11-.335A2.808,2.808,0,0,0,328.421,279.084Z" transform="translate(-328.39 -276.715)" opacity="0.14"/>
            <path id="Path_493" data-name="Path 493" d="M337.942,277.927a1.99,1.99,0,0,0-.057-.844,2.287,2.287,0,0,0-1.172-1.307,2.515,2.515,0,0,0-2.519.1c-.092.07-.189.178-.152.291a.2.2,0,0,0,.192.123.629.629,0,0,0,.236-.051,3.15,3.15,0,0,1,1.591-.181,1.6,1.6,0,0,1,1.223.95,1.4,1.4,0,0,1,.033.824,1.8,1.8,0,0,0-.075.335.334.334,0,0,0,.132.3.326.326,0,0,0,.408-.112A1.017,1.017,0,0,0,337.942,277.927Z" transform="translate(-332.789 -275.077)" fill="#fff" opacity="0.28"/>
            <path id="Path_494" data-name="Path 494" d="M347.09,290.708a.271.271,0,0,0,.015.146.2.2,0,0,0,.185.106.366.366,0,0,0,.207-.079c.159-.119.355-.461.108-.6C347.326,290.131,347.114,290.479,347.09,290.708Z" transform="translate(-342.966 -286.582)" fill="#fff" opacity="0.28"/>
          </g>
          <g id="Group_38" data-name="Group 38" transform="translate(48.995 56.206)">
            <circle id="Ellipse_72" data-name="Ellipse 72" cx="2.779" cy="2.779" r="2.779" transform="translate(0 5.54) rotate(-85.423)" fill="#dc3d1d"/>
            <path id="Path_495" data-name="Path 495" d="M327.961,303.444a2.775,2.775,0,0,0,4.69,2.391,4.826,4.826,0,0,1-1.6-.035,3.43,3.43,0,0,1-.934-.322,2.963,2.963,0,0,1-1.541-3.193,3.419,3.419,0,0,1,.11-.335A2.8,2.8,0,0,0,327.961,303.444Z" transform="translate(-327.718 -300.864)" opacity="0.14"/>
            <path id="Path_496" data-name="Path 496" d="M337.482,302.287a1.99,1.99,0,0,0-.057-.844,2.286,2.286,0,0,0-1.172-1.307,2.516,2.516,0,0,0-2.519.1c-.093.071-.189.179-.152.291a.2.2,0,0,0,.192.123.631.631,0,0,0,.236-.051,3.149,3.149,0,0,1,1.591-.181,1.6,1.6,0,0,1,1.223.95,1.4,1.4,0,0,1,.033.824,1.79,1.79,0,0,0-.075.335.334.334,0,0,0,.132.3.326.326,0,0,0,.408-.112A1.044,1.044,0,0,0,337.482,302.287Z" transform="translate(-332.117 -299.227)" fill="#fff" opacity="0.28"/>
            <path id="Path_497" data-name="Path 497" d="M346.63,315.059a.272.272,0,0,0,.015.145.2.2,0,0,0,.185.106.366.366,0,0,0,.207-.079c.159-.119.355-.461.108-.6C346.866,314.481,346.654,314.832,346.63,315.059Z" transform="translate(-342.295 -310.725)" fill="#fff" opacity="0.28"/>
          </g>
          <g id="Group_39" data-name="Group 39" transform="translate(47.108 60.58)">
            <circle id="Ellipse_73" data-name="Ellipse 73" cx="2.779" cy="2.779" r="2.779" transform="translate(0 2.349) rotate(-25.004)" fill="#dc3d1d"/>
            <path id="Path_498" data-name="Path 498" d="M322.68,331.38a2.776,2.776,0,0,0,5.263.156,4.854,4.854,0,0,1-1.463.655,3.524,3.524,0,0,1-.983.11,2.961,2.961,0,0,1-2.757-2.23,3.122,3.122,0,0,1-.042-.35A2.764,2.764,0,0,0,322.68,331.38Z" transform="translate(-321.645 -326.888)" opacity="0.14"/>
            <path id="Path_499" data-name="Path 499" d="M329.742,324.274a2.036,2.036,0,0,0-.412-.738,2.281,2.281,0,0,0-1.618-.679,2.513,2.513,0,0,0-2.232,1.17c-.053.1-.095.242-.015.328a.211.211,0,0,0,.227.031.649.649,0,0,0,.192-.146,3.174,3.174,0,0,1,1.362-.844,1.6,1.6,0,0,1,1.512.335,1.41,1.41,0,0,1,.381.732,1.715,1.715,0,0,0,.077.335.334.334,0,0,0,.247.216.323.323,0,0,0,.32-.275A1,1,0,0,0,329.742,324.274Z" transform="translate(-323.874 -321.536)" fill="#fff" opacity="0.28"/>
            <path id="Path_500" data-name="Path 500" d="M343.168,334.381a.27.27,0,0,0,.075.126.2.2,0,0,0,.212.016.359.359,0,0,0,.152-.161c.093-.176.123-.566-.156-.584C343.137,333.758,343.093,334.163,343.168,334.381Z" transform="translate(-337.686 -330.05)" fill="#fff" opacity="0.28"/>
          </g>
          <g id="Group_40" data-name="Group 40" transform="translate(45.885 65.822)">
            <path id="Path_501" data-name="Path 501" d="M318.293,342.628a2.778,2.778,0,1,1-3.464-1.853A2.779,2.779,0,0,1,318.293,342.628Z" transform="translate(-312.855 -340.655)" fill="#dc3d1d"/>
            <path id="Path_502" data-name="Path 502" d="M312.98,351.049a2.776,2.776,0,0,0,5.263.157,4.854,4.854,0,0,1-1.463.654,3.519,3.519,0,0,1-.983.11,2.961,2.961,0,0,1-2.757-2.23,3.121,3.121,0,0,1-.042-.35A2.765,2.765,0,0,0,312.98,351.049Z" transform="translate(-312.86 -347.465)" opacity="0.14"/>
            <path id="Path_503" data-name="Path 503" d="M320.052,343.944a2.035,2.035,0,0,0-.412-.738,2.282,2.282,0,0,0-1.618-.679,2.514,2.514,0,0,0-2.232,1.17c-.053.1-.095.242-.015.328a.211.211,0,0,0,.227.031.648.648,0,0,0,.192-.146,3.173,3.173,0,0,1,1.362-.844,1.6,1.6,0,0,1,1.512.335,1.409,1.409,0,0,1,.381.732,1.725,1.725,0,0,0,.077.335.334.334,0,0,0,.247.216.323.323,0,0,0,.32-.276A1.035,1.035,0,0,0,320.052,343.944Z" transform="translate(-315.096 -342.113)" fill="#fff" opacity="0.28"/>
            <path id="Path_504" data-name="Path 504" d="M333.477,354.041a.271.271,0,0,0,.075.126.2.2,0,0,0,.212.015.357.357,0,0,0,.152-.161c.093-.176.123-.566-.156-.584C333.443,353.418,333.4,353.825,333.477,354.041Z" transform="translate(-328.907 -350.62)" fill="#fff" opacity="0.28"/>
          </g>
          <g id="Group_41" data-name="Group 41" transform="translate(42.27 69.367)">
            <circle id="Ellipse_74" data-name="Ellipse 74" cx="2.779" cy="2.779" r="2.779" transform="translate(0 3.332) rotate(-36.829)" fill="#dc3d1d"/>
            <path id="Path_505" data-name="Path 505" d="M301.779,373.786a2.775,2.775,0,0,0,5.236-.544,4.842,4.842,0,0,1-1.364.842,3.6,3.6,0,0,1-.959.24,2.959,2.959,0,0,1-3.028-1.842,2.867,2.867,0,0,1-.088-.342A2.748,2.748,0,0,0,301.779,373.786Z" transform="translate(-300.411 -368.746)" opacity="0.14"/>
            <path id="Path_506" data-name="Path 506" d="M308.148,364.726a2.024,2.024,0,0,0-.507-.679,2.281,2.281,0,0,0-1.695-.458,2.519,2.519,0,0,0-2.058,1.457c-.04.11-.062.253.029.326a.206.206,0,0,0,.229,0,.592.592,0,0,0,.17-.17,3.177,3.177,0,0,1,1.236-1.018,1.6,1.6,0,0,1,1.543.13,1.416,1.416,0,0,1,.476.674,1.66,1.66,0,0,0,.121.322.333.333,0,0,0,.273.181.323.323,0,0,0,.28-.315A.96.96,0,0,0,308.148,364.726Z" transform="translate(-302.223 -362.068)" fill="#fff" opacity="0.28"/>
            <path id="Path_507" data-name="Path 507" d="M322.34,373.944a.277.277,0,0,0,.093.115.208.208,0,0,0,.214-.011.361.361,0,0,0,.13-.181c.068-.187.049-.58-.234-.56C322.225,373.33,322.236,373.739,322.34,373.944Z" transform="translate(-316.584 -369.656)" fill="#fff" opacity="0.28"/>
          </g>
          <g id="Group_42" data-name="Group 42" transform="translate(39.114 73.562)">
            <circle id="Ellipse_75" data-name="Ellipse 75" cx="2.779" cy="2.779" r="2.779" transform="matrix(0.803, -0.596, 0.596, 0.803, 0, 3.312)" fill="#dc3d1d"/>
            <path id="Path_508" data-name="Path 508" d="M287.439,392.8a2.775,2.775,0,0,0,5.236-.544,4.846,4.846,0,0,1-1.364.842,3.6,3.6,0,0,1-.959.24,2.959,2.959,0,0,1-3.028-1.842,2.86,2.86,0,0,1-.088-.342A2.747,2.747,0,0,0,287.439,392.8Z" transform="translate(-286.076 -387.761)" opacity="0.14"/>
            <path id="Path_509" data-name="Path 509" d="M293.808,383.746a2.023,2.023,0,0,0-.507-.679,2.281,2.281,0,0,0-1.695-.458,2.519,2.519,0,0,0-2.058,1.457c-.04.11-.062.253.029.326a.206.206,0,0,0,.229,0,.592.592,0,0,0,.17-.17,3.177,3.177,0,0,1,1.236-1.018,1.6,1.6,0,0,1,1.543.13,1.416,1.416,0,0,1,.476.674,1.669,1.669,0,0,0,.121.322.33.33,0,0,0,.273.181.323.323,0,0,0,.28-.315A.96.96,0,0,0,293.808,383.746Z" transform="translate(-287.887 -381.091)" fill="#fff" opacity="0.28"/>
            <path id="Path_510" data-name="Path 510" d="M308,392.954a.278.278,0,0,0,.093.115.208.208,0,0,0,.214-.011.372.372,0,0,0,.13-.181c.068-.187.049-.58-.234-.56C307.883,392.342,307.894,392.749,308,392.954Z" transform="translate(-302.246 -388.671)" fill="#fff" opacity="0.28"/>
          </g>
          <g id="Group_43" data-name="Group 43" transform="translate(35.796 77.667)">
            <path id="Path_511" data-name="Path 511" d="M271.748,395.144a2.779,2.779,0,1,1-3.927.148A2.781,2.781,0,0,1,271.748,395.144Z" transform="translate(-267.08 -394.402)" fill="#dc3d1d"/>
            <path id="Path_512" data-name="Path 512" d="M268.2,407.331a2.777,2.777,0,0,0,4.624-2.521,4.8,4.8,0,0,1-.935,1.3,3.475,3.475,0,0,1-.793.591,2.959,2.959,0,0,1-3.5-.533,3.087,3.087,0,0,1-.214-.28A2.752,2.752,0,0,0,268.2,407.331Z" transform="translate(-267.314 -402.516)" opacity="0.14"/>
            <path id="Path_513" data-name="Path 513" d="M272.559,396.5a2.032,2.032,0,0,0-.729-.43,2.28,2.28,0,0,0-1.739.231,2.514,2.514,0,0,0-1.338,2.135c.007.117.04.258.152.291a.208.208,0,0,0,.212-.088.663.663,0,0,0,.093-.223,3.154,3.154,0,0,1,.749-1.415,1.6,1.6,0,0,1,1.474-.474,1.394,1.394,0,0,1,.7.439,1.593,1.593,0,0,0,.236.251.333.333,0,0,0,.322.062.323.323,0,0,0,.137-.4A.986.986,0,0,0,272.559,396.5Z" transform="translate(-268.382 -395.634)" fill="#fff" opacity="0.28"/>
            <path id="Path_514" data-name="Path 514" d="M287.415,402.987a.272.272,0,0,0,.128.071.2.2,0,0,0,.192-.093.365.365,0,0,0,.051-.216c-.009-.2-.178-.553-.43-.425C287.073,402.465,287.241,402.838,287.415,402.987Z" transform="translate(-282.769 -400.557)" fill="#fff" opacity="0.28"/>
          </g>
          <g id="Group_44" data-name="Group 44" transform="translate(29.776 79.141)">
            <circle id="Ellipse_76" data-name="Ellipse 76" cx="2.779" cy="2.779" r="2.779" transform="matrix(0.756, -0.655, 0.655, 0.756, 0, 3.64)" fill="#dc3d1d"/>
            <path id="Path_515" data-name="Path 515" d="M245.282,419.013a2.777,2.777,0,0,0,5.195-.866,4.848,4.848,0,0,1-1.309.923,3.482,3.482,0,0,1-.943.3,2.96,2.96,0,0,1-3.136-1.653,3.131,3.131,0,0,1-.11-.335A2.749,2.749,0,0,0,245.282,419.013Z" transform="translate(-243.813 -413.79)" opacity="0.14"/>
            <path id="Path_516" data-name="Path 516" d="M251.362,409.068a2.053,2.053,0,0,0-.547-.646,2.283,2.283,0,0,0-1.719-.353,2.51,2.51,0,0,0-1.964,1.58c-.033.112-.046.258.048.324a.208.208,0,0,0,.227-.013.633.633,0,0,0,.161-.181,3.161,3.161,0,0,1,1.172-1.091,1.6,1.6,0,0,1,1.547.035,1.409,1.409,0,0,1,.516.644,1.824,1.824,0,0,0,.139.315.335.335,0,0,0,.284.165.323.323,0,0,0,.26-.333A.977.977,0,0,0,251.362,409.068Z" transform="translate(-245.489 -406.502)" fill="#fff" opacity="0.28"/>
            <path id="Path_517" data-name="Path 517" d="M265.792,417.859a.261.261,0,0,0,.1.108.2.2,0,0,0,.211-.024.367.367,0,0,0,.119-.187c.057-.19.011-.582-.267-.544C265.64,417.253,265.676,417.661,265.792,417.859Z" transform="translate(-259.99 -413.656)" fill="#fff" opacity="0.28"/>
          </g>
          <g id="Group_45" data-name="Group 45" transform="translate(25.452 80.171)">
            <path id="Path_518" data-name="Path 518" d="M225.374,407.241a2.778,2.778,0,1,1-3.758-1.148A2.779,2.779,0,0,1,225.374,407.241Z" transform="translate(-220.142 -405.766)" fill="#dc3d1d"/>
            <path id="Path_519" data-name="Path 519" d="M220.473,418.513a2.777,2.777,0,0,0,5.195-.866,4.843,4.843,0,0,1-1.309.923,3.478,3.478,0,0,1-.943.3,2.96,2.96,0,0,1-3.136-1.653,3.138,3.138,0,0,1-.11-.335A2.762,2.762,0,0,0,220.473,418.513Z" transform="translate(-220.147 -414.431)" opacity="0.14"/>
            <path id="Path_520" data-name="Path 520" d="M226.552,408.578a2.051,2.051,0,0,0-.547-.646,2.282,2.282,0,0,0-1.719-.353,2.51,2.51,0,0,0-1.964,1.58c-.033.112-.046.258.048.324a.208.208,0,0,0,.227-.013.672.672,0,0,0,.161-.181,3.16,3.16,0,0,1,1.172-1.091,1.6,1.6,0,0,1,1.547.035,1.408,1.408,0,0,1,.516.643,1.824,1.824,0,0,0,.139.315.33.33,0,0,0,.284.165.323.323,0,0,0,.26-.333A.978.978,0,0,0,226.552,408.578Z" transform="translate(-221.823 -407.151)" fill="#fff" opacity="0.28"/>
            <path id="Path_521" data-name="Path 521" d="M240.986,417.369a.261.261,0,0,0,.1.108.205.205,0,0,0,.212-.024.367.367,0,0,0,.119-.187c.057-.19.011-.582-.267-.544C240.834,416.763,240.871,417.171,240.986,417.369Z" transform="translate(-236.327 -414.305)" fill="#fff" opacity="0.28"/>
          </g>
          <g id="Group_46" data-name="Group 46" transform="translate(19.128 78.146)">
            <circle id="Ellipse_77" data-name="Ellipse 77" cx="2.779" cy="2.779" r="2.779" transform="matrix(0.911, -0.413, 0.413, 0.911, 0, 2.294)" fill="#dc3d1d"/>
            <path id="Path_522" data-name="Path 522" d="M195.532,408.525a2.776,2.776,0,0,0,5.1,1.294,4.8,4.8,0,0,1-1.571.32,3.514,3.514,0,0,1-.983-.106,2.96,2.96,0,0,1-2.208-2.773,2.792,2.792,0,0,1,.035-.35A2.765,2.765,0,0,0,195.532,408.525Z" transform="translate(-194.626 -404.632)" opacity="0.14"/>
            <path id="Path_523" data-name="Path 523" d="M203.785,404.5a2,2,0,0,0-.242-.811,2.281,2.281,0,0,0-1.432-1.014,2.512,2.512,0,0,0-2.433.657c-.075.09-.145.216-.086.317a.21.21,0,0,0,.214.079.635.635,0,0,0,.218-.1,3.175,3.175,0,0,1,1.512-.529,1.6,1.6,0,0,1,1.4.654,1.39,1.39,0,0,1,.214.8,1.793,1.793,0,0,0,0,.344.332.332,0,0,0,.194.264.326.326,0,0,0,.372-.2A.964.964,0,0,0,203.785,404.5Z" transform="translate(-197.779 -401.273)" fill="#fff" opacity="0.28"/>
            <path id="Path_524" data-name="Path 524" d="M215.418,415.986a.282.282,0,0,0,.046.139.2.2,0,0,0,.2.062.357.357,0,0,0,.183-.123c.128-.152.245-.527-.026-.606C215.522,415.371,215.392,415.759,215.418,415.986Z" transform="translate(-210.133 -411.286)" fill="#fff" opacity="0.28"/>
          </g>
          <g id="Group_47" data-name="Group 47" transform="translate(15.033 77.05)">
            <path id="Path_525" data-name="Path 525" d="M178.413,394.172a2.778,2.778,0,1,1-2.98-2.561A2.779,2.779,0,0,1,178.413,394.172Z" transform="translate(-172.864 -391.603)" fill="#dc3d1d"/>
            <path id="Path_526" data-name="Path 526" d="M172.872,399.435a2.776,2.776,0,0,0,5.1,1.294,4.8,4.8,0,0,1-1.571.32,3.514,3.514,0,0,1-.983-.106,2.96,2.96,0,0,1-2.208-2.772,2.789,2.789,0,0,1,.035-.35A2.766,2.766,0,0,0,172.872,399.435Z" transform="translate(-172.864 -396.45)" opacity="0.14"/>
            <path id="Path_527" data-name="Path 527" d="M181.125,395.413a2,2,0,0,0-.242-.811,2.282,2.282,0,0,0-1.433-1.014,2.513,2.513,0,0,0-2.433.657c-.075.09-.145.216-.086.317a.21.21,0,0,0,.214.079.635.635,0,0,0,.218-.1,3.175,3.175,0,0,1,1.512-.529,1.6,1.6,0,0,1,1.4.655,1.389,1.389,0,0,1,.214.8,1.794,1.794,0,0,0,0,.344.332.332,0,0,0,.194.264.326.326,0,0,0,.372-.2A.964.964,0,0,0,181.125,395.413Z" transform="translate(-176.018 -393.091)" fill="#fff" opacity="0.28"/>
            <path id="Path_528" data-name="Path 528" d="M192.758,406.9a.282.282,0,0,0,.046.139.2.2,0,0,0,.205.062.359.359,0,0,0,.183-.123c.128-.152.245-.527-.026-.606C192.862,406.281,192.732,406.669,192.758,406.9Z" transform="translate(-188.371 -403.104)" fill="#fff" opacity="0.28"/>
          </g>
          <g id="Group_48" data-name="Group 48" transform="translate(10.596 73.775)">
            <path id="Path_529" data-name="Path 529" d="M158.248,379.047a2.778,2.778,0,1,1-3.213-2.263A2.778,2.778,0,0,1,158.248,379.047Z" transform="translate(-152.732 -376.743)" fill="#dc3d1d"/>
            <path id="Path_530" data-name="Path 530" d="M152.773,385.694a2.777,2.777,0,0,0,5.206.8,4.8,4.8,0,0,1-1.532.469,3.546,3.546,0,0,1-.99-.011,2.957,2.957,0,0,1-2.466-2.548,3.1,3.1,0,0,1,0-.353A2.753,2.753,0,0,0,152.773,385.694Z" transform="translate(-152.731 -382.44)" opacity="0.14"/>
            <path id="Path_531" data-name="Path 531" d="M160.5,380.327a2.054,2.054,0,0,0-.32-.785,2.273,2.273,0,0,0-1.523-.871,2.518,2.518,0,0,0-2.358.888c-.066.1-.123.229-.055.324a.208.208,0,0,0,.22.057.656.656,0,0,0,.207-.121,3.147,3.147,0,0,1,1.455-.672,1.6,1.6,0,0,1,1.459.516,1.4,1.4,0,0,1,.291.774,1.762,1.762,0,0,0,.035.342.333.333,0,0,0,.218.245.322.322,0,0,0,.35-.236A.968.968,0,0,0,160.5,380.327Z" transform="translate(-155.443 -378.225)" fill="#fff" opacity="0.28"/>
            <path id="Path_532" data-name="Path 532" d="M173,391.223a.3.3,0,0,0,.06.134.2.2,0,0,0,.209.042.354.354,0,0,0,.17-.141c.112-.163.192-.549-.084-.6C173.041,390.6,172.949,391,173,391.223Z" transform="translate(-168.521 -387.587)" fill="#fff" opacity="0.28"/>
          </g>
          <g id="Group_49" data-name="Group 49" transform="translate(6.889 69.464)">
            <circle id="Ellipse_78" data-name="Ellipse 78" cx="2.779" cy="2.779" r="2.779" transform="translate(0 5.539) rotate(-85.285)" fill="#dc3d1d"/>
            <path id="Path_533" data-name="Path 533" d="M137.3,360.453a2.775,2.775,0,0,0,3.445,3.98,4.854,4.854,0,0,1-1.472-.635,3.5,3.5,0,0,1-.745-.65,2.962,2.962,0,0,1-.225-3.539,3.411,3.411,0,0,1,.229-.269A2.8,2.8,0,0,0,137.3,360.453Z" transform="translate(-136.695 -358.864)" opacity="0.14"/>
            <path id="Path_534" data-name="Path 534" d="M148.94,363.239a2.037,2.037,0,0,0,.267-.8,2.283,2.283,0,0,0-.6-1.651,2.516,2.516,0,0,0-2.371-.853c-.112.031-.242.095-.251.212a.208.208,0,0,0,.13.187.662.662,0,0,0,.238.042,3.174,3.174,0,0,1,1.543.43,1.6,1.6,0,0,1,.776,1.34,1.4,1.4,0,0,1-.28.776,1.749,1.749,0,0,0-.2.282.329.329,0,0,0,.009.328.323.323,0,0,0,.419.049A.99.99,0,0,0,148.94,363.239Z" transform="translate(-143.768 -359.278)" fill="#fff" opacity="0.28"/>
            <path id="Path_535" data-name="Path 535" d="M152.721,377.678a.27.27,0,0,0-.042.141.2.2,0,0,0,.132.167.358.358,0,0,0,.22,0c.192-.051.5-.293.324-.511C153.16,377.233,152.831,377.477,152.721,377.678Z" transform="translate(-148.984 -372.924)" fill="#fff" opacity="0.28"/>
          </g>
          <g id="Group_50" data-name="Group 50" transform="translate(5.164 64.804)">
            <path id="Path_536" data-name="Path 536" d="M133.62,339.168a2.779,2.779,0,1,1-2.4-3.11A2.777,2.777,0,0,1,133.62,339.168Z" transform="translate(-128.085 -336.035)" fill="#dc3d1d"/>
            <path id="Path_537" data-name="Path 537" d="M128.108,341.707a2.776,2.776,0,0,0,4.738,2.3,4.823,4.823,0,0,1-1.6,0,3.426,3.426,0,0,1-.941-.3,2.964,2.964,0,0,1-1.6-3.163,3.114,3.114,0,0,1,.1-.337A2.764,2.764,0,0,0,128.108,341.707Z" transform="translate(-128.085 -339.282)" opacity="0.14"/>
            <path id="Path_538" data-name="Path 538" d="M137.5,340.3a2.05,2.05,0,0,0-.073-.844,2.276,2.276,0,0,0-1.2-1.283,2.518,2.518,0,0,0-2.517.154c-.093.073-.187.183-.148.293a.205.205,0,0,0,.194.121.635.635,0,0,0,.236-.055,3.17,3.17,0,0,1,1.587-.214,1.6,1.6,0,0,1,1.243.923,1.4,1.4,0,0,1,.049.824,1.793,1.793,0,0,0-.068.337.336.336,0,0,0,.137.3.322.322,0,0,0,.4-.121A.93.93,0,0,0,137.5,340.3Z" transform="translate(-132.352 -337.498)" fill="#fff" opacity="0.28"/>
            <path id="Path_539" data-name="Path 539" d="M146.9,352.97a.273.273,0,0,0,.018.146.2.2,0,0,0,.187.1.359.359,0,0,0,.2-.084c.156-.123.346-.467.1-.6C147.127,352.388,146.922,352.741,146.9,352.97Z" transform="translate(-142.753 -348.872)" fill="#fff" opacity="0.28"/>
          </g>
          <g id="Group_51" data-name="Group 51" transform="translate(2.314 60.206)">
            <path id="Path_540" data-name="Path 540" d="M120.69,318.308a2.779,2.779,0,1,1-2.4-3.11A2.777,2.777,0,0,1,120.69,318.308Z" transform="translate(-115.155 -315.175)" fill="#dc3d1d"/>
            <path id="Path_541" data-name="Path 541" d="M115.178,320.847a2.776,2.776,0,0,0,4.738,2.3,4.828,4.828,0,0,1-1.6,0,3.426,3.426,0,0,1-.941-.3,2.964,2.964,0,0,1-1.6-3.163,3.115,3.115,0,0,1,.1-.337A2.763,2.763,0,0,0,115.178,320.847Z" transform="translate(-115.155 -318.422)" opacity="0.14"/>
            <path id="Path_542" data-name="Path 542" d="M124.573,319.44a2.051,2.051,0,0,0-.073-.844,2.282,2.282,0,0,0-1.2-1.283,2.519,2.519,0,0,0-2.517.154c-.093.073-.187.183-.148.293a.205.205,0,0,0,.194.121.636.636,0,0,0,.236-.055,3.17,3.17,0,0,1,1.587-.214,1.6,1.6,0,0,1,1.243.923,1.4,1.4,0,0,1,.048.824,1.791,1.791,0,0,0-.068.337.341.341,0,0,0,.137.3.322.322,0,0,0,.4-.121A.931.931,0,0,0,124.573,319.44Z" transform="translate(-119.422 -316.638)" fill="#fff" opacity="0.28"/>
            <path id="Path_543" data-name="Path 543" d="M133.972,332.11a.272.272,0,0,0,.018.145.2.2,0,0,0,.187.1.358.358,0,0,0,.205-.084c.156-.123.346-.467.1-.6C134.2,331.528,133.992,331.881,133.972,332.11Z" transform="translate(-129.823 -328.012)" fill="#fff" opacity="0.28"/>
          </g>
          <g id="Group_52" data-name="Group 52" transform="translate(0 54.13)">
            <circle id="Ellipse_79" data-name="Ellipse 79" cx="2.779" cy="2.779" r="2.779" transform="translate(0 4.99) rotate(-63.863)" fill="#dc3d1d"/>
            <path id="Path_544" data-name="Path 544" d="M109.029,301.9a2.777,2.777,0,0,0,5.256.315,4.791,4.791,0,0,1-1.483.608,3.441,3.441,0,0,1-.985.079,2.961,2.961,0,0,1-2.689-2.31,3.479,3.479,0,0,1-.033-.35A2.768,2.768,0,0,0,109.029,301.9Z" transform="translate(-107.99 -297.455)" opacity="0.14"/>
            <path id="Path_545" data-name="Path 545" d="M116.24,295.225a2.023,2.023,0,0,0-.39-.752,2.283,2.283,0,0,0-1.6-.727,2.517,2.517,0,0,0-2.268,1.1c-.057.1-.1.24-.024.326a.209.209,0,0,0,.225.038.646.646,0,0,0,.2-.141,3.153,3.153,0,0,1,1.386-.8,1.6,1.6,0,0,1,1.5.381,1.393,1.393,0,0,1,.359.743,1.6,1.6,0,0,0,.066.337.337.337,0,0,0,.24.225.323.323,0,0,0,.328-.267A.929.929,0,0,0,116.24,295.225Z" transform="translate(-110.317 -292.389)" fill="#fff" opacity="0.28"/>
            <path id="Path_546" data-name="Path 546" d="M129.478,305.52a.285.285,0,0,0,.073.128.2.2,0,0,0,.212.022.347.347,0,0,0,.156-.156c.1-.172.141-.564-.139-.589C129.465,304.9,129.41,305.3,129.478,305.52Z" transform="translate(-123.987 -301.106)" fill="#fff" opacity="0.28"/>
          </g>
          <g id="Group_53" data-name="Group 53" transform="translate(1.13 48.857)">
            <circle id="Ellipse_80" data-name="Ellipse 80" cx="2.779" cy="2.779" r="2.779" transform="translate(0 4.578) rotate(-55.45)" fill="#dc3d1d"/>
            <path id="Path_547" data-name="Path 547" d="M114.817,278.647a2.777,2.777,0,0,0,5.256.315,4.791,4.791,0,0,1-1.483.608,3.447,3.447,0,0,1-.985.079,2.961,2.961,0,0,1-2.689-2.31,3.472,3.472,0,0,1-.033-.35A2.75,2.75,0,0,0,114.817,278.647Z" transform="translate(-113.631 -274.056)" opacity="0.14"/>
            <path id="Path_548" data-name="Path 548" d="M122.03,271.965a2.024,2.024,0,0,0-.39-.752,2.283,2.283,0,0,0-1.6-.727,2.517,2.517,0,0,0-2.268,1.1c-.057.1-.1.24-.024.326a.209.209,0,0,0,.225.037.645.645,0,0,0,.2-.141,3.152,3.152,0,0,1,1.386-.8,1.6,1.6,0,0,1,1.5.379,1.394,1.394,0,0,1,.359.743,1.6,1.6,0,0,0,.066.337.337.337,0,0,0,.24.225.322.322,0,0,0,.328-.267A.948.948,0,0,0,122.03,271.965Z" transform="translate(-115.961 -268.983)" fill="#fff" opacity="0.28"/>
            <path id="Path_549" data-name="Path 549" d="M135.259,282.27a.286.286,0,0,0,.073.128.2.2,0,0,0,.212.022.347.347,0,0,0,.156-.156c.1-.172.141-.564-.139-.589C135.248,281.646,135.191,282.052,135.259,282.27Z" transform="translate(-129.624 -277.708)" fill="#fff" opacity="0.28"/>
          </g>
          <g id="Group_54" data-name="Group 54" transform="translate(3.397 44.611)">
            <path id="Path_550" data-name="Path 550" d="M125.53,246.466a2.778,2.778,0,1,1-3.407-1.957A2.779,2.779,0,0,1,125.53,246.466Z" transform="translate(-120.069 -244.412)" fill="#dc3d1d"/>
            <path id="Path_551" data-name="Path 551" d="M120.172,254.447a2.777,2.777,0,0,0,5.256.315,4.792,4.792,0,0,1-1.483.608,3.447,3.447,0,0,1-.985.079,2.961,2.961,0,0,1-2.689-2.31,3.467,3.467,0,0,1-.033-.35A2.785,2.785,0,0,0,120.172,254.447Z" transform="translate(-120.075 -250.944)" opacity="0.14"/>
            <path id="Path_552" data-name="Path 552" d="M127.39,247.765a2.022,2.022,0,0,0-.39-.752,2.282,2.282,0,0,0-1.6-.727,2.517,2.517,0,0,0-2.268,1.1c-.057.1-.1.24-.024.326a.209.209,0,0,0,.225.037.643.643,0,0,0,.2-.141,3.152,3.152,0,0,1,1.386-.8,1.6,1.6,0,0,1,1.5.381,1.393,1.393,0,0,1,.359.743,1.6,1.6,0,0,0,.066.337.337.337,0,0,0,.24.225.323.323,0,0,0,.328-.267A.983.983,0,0,0,127.39,247.765Z" transform="translate(-122.407 -245.87)" fill="#fff" opacity="0.28"/>
            <path id="Path_553" data-name="Path 553" d="M140.618,258.07a.285.285,0,0,0,.073.128.2.2,0,0,0,.212.022.358.358,0,0,0,.156-.156c.1-.172.141-.564-.139-.588C140.6,257.446,140.55,257.852,140.618,258.07Z" transform="translate(-136.069 -254.595)" fill="#fff" opacity="0.28"/>
          </g>
          <g id="Group_55" data-name="Group 55" transform="translate(4.969 38.802)">
            <circle id="Ellipse_81" data-name="Ellipse 81" cx="2.779" cy="2.779" r="2.779" transform="translate(0 4.593) rotate(-55.73)" fill="#dc3d1d"/>
            <path id="Path_554" data-name="Path 554" d="M132.209,232.987a2.777,2.777,0,0,0,5.256.315,4.791,4.791,0,0,1-1.483.608,3.444,3.444,0,0,1-.985.079,2.961,2.961,0,0,1-2.689-2.31,3.453,3.453,0,0,1-.033-.35A2.766,2.766,0,0,0,132.209,232.987Z" transform="translate(-131.03 -228.404)" opacity="0.14"/>
            <path id="Path_555" data-name="Path 555" d="M139.42,226.3a2.023,2.023,0,0,0-.39-.752,2.283,2.283,0,0,0-1.6-.727,2.517,2.517,0,0,0-2.268,1.1c-.057.1-.1.24-.024.326a.209.209,0,0,0,.225.037.644.644,0,0,0,.2-.141,3.152,3.152,0,0,1,1.386-.8,1.6,1.6,0,0,1,1.5.379,1.392,1.392,0,0,1,.359.743,1.6,1.6,0,0,0,.066.337.337.337,0,0,0,.24.225.323.323,0,0,0,.328-.267A.92.92,0,0,0,139.42,226.3Z" transform="translate(-133.358 -223.33)" fill="#fff" opacity="0.28"/>
            <path id="Path_556" data-name="Path 556" d="M152.658,236.61a.286.286,0,0,0,.073.128.2.2,0,0,0,.212.022.358.358,0,0,0,.156-.156c.1-.172.141-.564-.139-.589C152.645,235.986,152.59,236.392,152.658,236.61Z" transform="translate(-147.028 -232.055)" fill="#fff" opacity="0.28"/>
          </g>
          <g id="Group_56" data-name="Group 56" transform="translate(8.744 34.976)">
            <circle id="Ellipse_82" data-name="Ellipse 82" cx="2.779" cy="2.779" r="2.779" transform="translate(0 5.434) rotate(-77.866)" fill="#dc3d1d"/>
            <path id="Path_557" data-name="Path 557" d="M147.064,216.238a2.776,2.776,0,0,0,5.161-1.038,4.844,4.844,0,0,1-1.278.967,3.53,3.53,0,0,1-.932.328,3.009,3.009,0,0,1-2.268-.487,2.979,2.979,0,0,1-.921-1.058,2.751,2.751,0,0,1-.121-.331A2.763,2.763,0,0,0,147.064,216.238Z" transform="translate(-146.173 -211.55)" opacity="0.14"/>
            <path id="Path_558" data-name="Path 558" d="M152.981,205.793a2.022,2.022,0,0,0-.569-.626,2.278,2.278,0,0,0-1.73-.3,2.514,2.514,0,0,0-1.911,1.644c-.029.112-.037.258.06.322a.2.2,0,0,0,.227-.022.629.629,0,0,0,.154-.185,3.17,3.17,0,0,1,1.135-1.131,1.6,1.6,0,0,1,1.547-.015,1.415,1.415,0,0,1,.538.626,1.667,1.667,0,0,0,.15.309.335.335,0,0,0,.291.154.324.324,0,0,0,.249-.342A1.01,1.01,0,0,0,152.981,205.793Z" transform="translate(-147.778 -203.909)" fill="#fff" opacity="0.28"/>
            <path id="Path_559" data-name="Path 559" d="M167.534,214.348a.275.275,0,0,0,.1.106.2.2,0,0,0,.212-.033.369.369,0,0,0,.112-.192c.051-.192-.007-.582-.284-.533C167.362,213.748,167.411,214.156,167.534,214.348Z" transform="translate(-162.346 -210.826)" fill="#fff" opacity="0.28"/>
          </g>
          <g id="Group_57" data-name="Group 57" transform="translate(11.141 29.899)">
            <circle id="Ellipse_83" data-name="Ellipse 83" cx="2.779" cy="2.779" r="2.779" transform="translate(0 4.716) rotate(-58.036)" fill="#dc3d1d"/>
            <path id="Path_560" data-name="Path 560" d="M160,191.1a2.776,2.776,0,0,0,5.184.923,4.781,4.781,0,0,1-1.543.432,3.446,3.446,0,0,1-.987-.035,2.963,2.963,0,0,1-2.4-2.607,2.916,2.916,0,0,1,.009-.353A2.76,2.76,0,0,0,160,191.1Z" transform="translate(-158.919 -186.858)" opacity="0.14"/>
            <path id="Path_561" data-name="Path 561" d="M167.849,186.076a2.039,2.039,0,0,0-.3-.791,2.277,2.277,0,0,0-1.5-.908,2.517,2.517,0,0,0-2.38.831c-.068.095-.13.227-.062.322a.206.206,0,0,0,.218.064.625.625,0,0,0,.212-.117,3.174,3.174,0,0,1,1.47-.637,1.6,1.6,0,0,1,1.446.551,1.413,1.413,0,0,1,.271.78,1.631,1.631,0,0,0,.026.344.336.336,0,0,0,.214.251.325.325,0,0,0,.357-.227A1,1,0,0,0,167.849,186.076Z" transform="translate(-161.73 -182.867)" fill="#fff" opacity="0.28"/>
            <path id="Path_562" data-name="Path 562" d="M180.148,197.119a.28.28,0,0,0,.057.137.2.2,0,0,0,.207.046.365.365,0,0,0,.174-.137c.117-.161.2-.544-.071-.6C180.208,196.5,180.106,196.895,180.148,197.119Z" transform="translate(-174.644 -192.391)" fill="#fff" opacity="0.28"/>
          </g>
          <g id="Group_58" data-name="Group 58" transform="translate(14.631 25.715)">
            <circle id="Ellipse_84" data-name="Ellipse 84" cx="2.779" cy="2.779" r="2.779" transform="translate(0 4.707) rotate(-57.866)" fill="#dc3d1d"/>
            <path id="Path_563" data-name="Path 563" d="M175.853,172.12a2.776,2.776,0,0,0,5.184.923,4.784,4.784,0,0,1-1.543.432,3.448,3.448,0,0,1-.987-.035,2.963,2.963,0,0,1-2.4-2.607,2.9,2.9,0,0,1,.009-.353A2.776,2.776,0,0,0,175.853,172.12Z" transform="translate(-174.769 -167.877)" opacity="0.14"/>
            <path id="Path_564" data-name="Path 564" d="M183.7,167.1a2.037,2.037,0,0,0-.3-.791,2.278,2.278,0,0,0-1.5-.908,2.517,2.517,0,0,0-2.38.831c-.068.095-.13.227-.062.322a.206.206,0,0,0,.218.064.624.624,0,0,0,.212-.117,3.173,3.173,0,0,1,1.47-.637,1.6,1.6,0,0,1,1.446.551,1.413,1.413,0,0,1,.271.78,1.627,1.627,0,0,0,.026.344.336.336,0,0,0,.214.251.325.325,0,0,0,.357-.227A.945.945,0,0,0,183.7,167.1Z" transform="translate(-177.577 -163.886)" fill="#fff" opacity="0.28"/>
            <path id="Path_565" data-name="Path 565" d="M196.008,178.139a.279.279,0,0,0,.057.137.2.2,0,0,0,.207.046.365.365,0,0,0,.174-.137c.117-.161.2-.544-.07-.6C196.068,177.518,195.966,177.915,196.008,178.139Z" transform="translate(-190.499 -173.41)" fill="#fff" opacity="0.28"/>
          </g>
          <g id="Group_59" data-name="Group 59" transform="translate(19.611 23.022)">
            <circle id="Ellipse_85" data-name="Ellipse 85" cx="2.779" cy="2.779" r="2.779" transform="translate(0 5.529) rotate(-84.111)" fill="#dc3d1d"/>
            <path id="Path_566" data-name="Path 566" d="M195.328,161.661a2.776,2.776,0,0,0,5.08-1.384,4.836,4.836,0,0,1-1.21,1.051,3.608,3.608,0,0,1-.908.392A2.963,2.963,0,0,1,195,160.392a2.85,2.85,0,0,1-.143-.322A2.764,2.764,0,0,0,195.328,161.661Z" transform="translate(-194.589 -157.069)" opacity="0.14"/>
            <path id="Path_567" data-name="Path 567" d="M200.922,150.243a1.989,1.989,0,0,0-.611-.586,2.278,2.278,0,0,0-1.745-.179,2.514,2.514,0,0,0-1.8,1.77c-.022.115-.02.26.082.317a.2.2,0,0,0,.225-.037.665.665,0,0,0,.141-.2,3.168,3.168,0,0,1,1.056-1.2,1.6,1.6,0,0,1,1.543-.121,1.421,1.421,0,0,1,.58.588,1.537,1.537,0,0,0,.172.3.335.335,0,0,0,.3.134.322.322,0,0,0,.225-.357A.953.953,0,0,0,200.922,150.243Z" transform="translate(-196.071 -148.738)" fill="#fff" opacity="0.28"/>
            <path id="Path_568" data-name="Path 568" d="M215.663,158.342a.291.291,0,0,0,.108.1.2.2,0,0,0,.207-.046.363.363,0,0,0,.1-.2c.037-.2-.046-.58-.32-.514C215.451,157.756,215.528,158.157,215.663,158.342Z" transform="translate(-210.717 -155.202)" fill="#fff" opacity="0.28"/>
          </g>
          <g id="Group_60" data-name="Group 60" transform="translate(22.978 18.785)">
            <circle id="Ellipse_86" data-name="Ellipse 86" cx="2.779" cy="2.779" r="2.779" transform="matrix(0.177, -0.984, 0.984, 0.177, 0, 5.47)" fill="#dc3d1d"/>
            <path id="Path_569" data-name="Path 569" d="M211.409,143.251a2.776,2.776,0,0,0,5.08-1.384,4.835,4.835,0,0,1-1.21,1.051,3.6,3.6,0,0,1-.908.392,2.963,2.963,0,0,1-3.288-1.329,2.837,2.837,0,0,1-.143-.322A2.8,2.8,0,0,0,211.409,143.251Z" transform="translate(-210.493 -138.479)" opacity="0.14"/>
            <path id="Path_570" data-name="Path 570" d="M217.012,131.833a1.989,1.989,0,0,0-.611-.586,2.279,2.279,0,0,0-1.745-.179,2.515,2.515,0,0,0-1.8,1.77c-.022.115-.02.26.082.317a.2.2,0,0,0,.225-.037.667.667,0,0,0,.141-.2,3.166,3.166,0,0,1,1.056-1.2,1.6,1.6,0,0,1,1.543-.121,1.421,1.421,0,0,1,.58.588,1.537,1.537,0,0,0,.172.3.335.335,0,0,0,.3.134.322.322,0,0,0,.225-.357A.989.989,0,0,0,217.012,131.833Z" transform="translate(-211.982 -130.149)" fill="#fff" opacity="0.28"/>
            <path id="Path_571" data-name="Path 571" d="M231.753,139.932a.291.291,0,0,0,.108.1.2.2,0,0,0,.207-.046.362.362,0,0,0,.1-.2c.037-.2-.046-.58-.32-.514C231.541,139.346,231.618,139.747,231.753,139.932Z" transform="translate(-226.628 -136.613)" fill="#fff" opacity="0.28"/>
          </g>
          <g id="Group_61" data-name="Group 61" transform="translate(26.281 14.573)">
            <circle id="Ellipse_87" data-name="Ellipse 87" cx="2.779" cy="2.779" r="2.779" transform="translate(0 5.478) rotate(-80.235)" fill="#dc3d1d"/>
            <path id="Path_572" data-name="Path 572" d="M226.328,124.051a2.776,2.776,0,0,0,5.08-1.384,4.838,4.838,0,0,1-1.21,1.051,3.607,3.607,0,0,1-.908.392A2.963,2.963,0,0,1,226,122.782a2.854,2.854,0,0,1-.143-.322A2.764,2.764,0,0,0,226.328,124.051Z" transform="translate(-225.428 -119.298)" opacity="0.14"/>
            <path id="Path_573" data-name="Path 573" d="M231.922,112.643a1.989,1.989,0,0,0-.611-.586,2.278,2.278,0,0,0-1.745-.178,2.515,2.515,0,0,0-1.8,1.77c-.022.115-.02.26.082.317a.2.2,0,0,0,.225-.037.664.664,0,0,0,.141-.2,3.168,3.168,0,0,1,1.056-1.2,1.6,1.6,0,0,1,1.543-.121,1.421,1.421,0,0,1,.58.588,1.539,1.539,0,0,0,.172.3.335.335,0,0,0,.3.134.322.322,0,0,0,.225-.357A.952.952,0,0,0,231.922,112.643Z" transform="translate(-226.909 -110.976)" fill="#fff" opacity="0.28"/>
            <path id="Path_574" data-name="Path 574" d="M246.663,120.742a.29.29,0,0,0,.108.1.2.2,0,0,0,.207-.046.362.362,0,0,0,.1-.2c.038-.2-.046-.58-.32-.513C246.451,120.154,246.528,120.557,246.663,120.742Z" transform="translate(-241.555 -117.439)" fill="#fff" opacity="0.28"/>
          </g>
          <g id="Group_75" data-name="Group 75" transform="translate(41.244)">
            <path id="Path_575" data-name="Path 575" d="M294.238,47.568a1.057,1.057,0,0,1,1.867-.051,2.522,2.522,0,0,1,.476,1.827c-.042.644-.2,1.278-.223,1.924a5.055,5.055,0,0,0,1.311,3.416,7.248,7.248,0,0,0,3.118,2c-.82-1.358-.234-3.079.126-4.624a10.949,10.949,0,0,0,.143-4.692c-.536-2.561-2.574-5.369-5.424-5.377-2.475-.007-4.465,1.981-3.65,4.494a1.764,1.764,0,0,0,1.578,1.355A.58.58,0,0,0,294.238,47.568Z" transform="translate(-291.798 -41.99)" fill="#fac766"/>
            <path id="Path_576" data-name="Path 576" d="M298.391,62.43a7.08,7.08,0,0,1-1.036-3.4c0-.674.146-1.34.192-2.012a3.178,3.178,0,0,0-.379-1.95,2.026,2.026,0,0,0-3.114-.355,2.153,2.153,0,0,1,1.093-1.6,2.182,2.182,0,0,0-1.516,1.115,3.4,3.4,0,0,1,.752-1.787,4.229,4.229,0,0,0-1.655,1.774,3.249,3.249,0,0,1-.7-2.2,3.315,3.315,0,0,0-.037,2.285,1.764,1.764,0,0,0,1.578,1.355.573.573,0,0,0,.677-.269,1.058,1.058,0,0,1,1.867-.051,2.521,2.521,0,0,1,.476,1.827c-.042.644-.2,1.278-.223,1.924a5.055,5.055,0,0,0,1.311,3.416,6.581,6.581,0,0,0,1.622,1.316C299.057,63.316,298.6,62.8,298.391,62.43Z" transform="translate(-291.803 -49.802)" opacity="0.14"/>
            <g id="Group_62" data-name="Group 62" transform="translate(1.348 1.074)">
              <path id="Path_577" data-name="Path 577" d="M298.056,48.239a2.368,2.368,0,0,1,1.629-1.047,3.144,3.144,0,0,1,2.028.364,4.576,4.576,0,0,1,1.666,1.565,5.533,5.533,0,0,1,.846,2.078,5.631,5.631,0,0,1-.176,2.526.069.069,0,0,0,.13.046,4.786,4.786,0,0,0,.256-2.323,6.267,6.267,0,0,0-.7-2.285,4.931,4.931,0,0,0-1.677-1.827,3.162,3.162,0,0,0-2.206-.428,2.782,2.782,0,0,0-1.922,1.241c-.051.086.075.174.128.09Z" transform="translate(-297.916 -46.862)" fill="#e6ad4e"/>
            </g>
            <g id="Group_63" data-name="Group 63" transform="translate(3.479 2.299)">
              <path id="Path_578" data-name="Path 578" d="M307.681,52.617c.712-.238,1.344.322,1.785.809.075.082.2-.026.132-.11a1.863,1.863,0,0,0-1.973-.818c-.084.029-.024.145.055.119Z" transform="translate(-307.586 -52.42)" fill="#e6ad4e"/>
            </g>
            <g id="Group_64" data-name="Group 64" transform="translate(4.157 3.332)">
              <path id="Path_579" data-name="Path 579" d="M310.717,57.235a.417.417,0,0,1,.359.181.066.066,0,1,0,.1-.084.546.546,0,0,0-.45-.223.069.069,0,0,0-.068.057.065.065,0,0,0,.057.068Z" transform="translate(-310.659 -57.109)" fill="#e6ad4e"/>
            </g>
            <g id="Group_65" data-name="Group 65" transform="translate(6.359 4.547)">
              <path id="Path_580" data-name="Path 580" d="M320.661,62.7a3.077,3.077,0,0,1,.348,2.023c-.02.128.183.143.2.015a3.277,3.277,0,0,0-.447-2.085c-.038-.064-.139-.018-.1.046Z" transform="translate(-320.653 -62.621)" fill="#e6ad4e"/>
            </g>
            <g id="Group_66" data-name="Group 66" transform="translate(6.525 7.936)">
              <path id="Path_581" data-name="Path 581" d="M321.656,78.035a4.334,4.334,0,0,0,.282,3.553c.077.126.28.037.212-.1a5.045,5.045,0,0,1-.542-1.653,4.194,4.194,0,0,1,.148-1.765.052.052,0,0,0-.1-.033Z" transform="translate(-321.406 -77.999)" fill="#e6ad4e"/>
            </g>
            <g id="Group_67" data-name="Group 67" transform="translate(7.429 8.971)">
              <path id="Path_582" data-name="Path 582" d="M325.535,82.768a2.392,2.392,0,0,0,.154,1.3c.048.112.216.031.172-.082a2.343,2.343,0,0,1-.156-1.21c.013-.106-.152-.117-.17-.011Z" transform="translate(-325.505 -82.694)" fill="#e6ad4e"/>
            </g>
            <g id="Group_68" data-name="Group 68" transform="translate(8.194 8.7)">
              <path id="Path_583" data-name="Path 583" d="M329.067,81.53c-.029.212-.06.423-.088.637a.074.074,0,0,0,.148.011l.079-.637a.069.069,0,0,0-.064-.073.071.071,0,0,0-.075.062Z" transform="translate(-328.978 -81.468)" fill="#e6ad4e"/>
            </g>
            <g id="Group_69" data-name="Group 69" transform="translate(7.541 11.947)">
              <path id="Path_584" data-name="Path 584" d="M326.015,96.3l.066.355a.082.082,0,0,0,.093.064.083.083,0,0,0,.064-.093c-.02-.119-.042-.238-.062-.357a.08.08,0,0,0-.095-.064.082.082,0,0,0-.066.095Z" transform="translate(-326.013 -96.2)" fill="#e6ad4e"/>
            </g>
            <g id="Group_70" data-name="Group 70" transform="translate(8.363 4.168)">
              <path id="Path_585" data-name="Path 585" d="M329.979,64.258a5.783,5.783,0,0,0-.1-3.317c-.024-.075-.156-.033-.132.044a6.206,6.206,0,0,1,.143,3.242c-.016.057.068.09.086.031Z" transform="translate(-329.747 -60.902)" fill="#e6ad4e"/>
            </g>
            <g id="Group_71" data-name="Group 71" transform="translate(6.875 2.029)">
              <path id="Path_586" data-name="Path 586" d="M323.273,51.475l-.192-.26a.049.049,0,0,0-.07-.007.054.054,0,0,0-.007.071c.066.086.13.172.2.258a.048.048,0,0,0,.066.007.051.051,0,0,0,.007-.068Z" transform="translate(-322.994 -51.197)" fill="#e6ad4e"/>
            </g>
            <g id="Group_72" data-name="Group 72" transform="translate(4.416 0.438)">
              <path id="Path_587" data-name="Path 587" d="M313.822,44.991a8.142,8.142,0,0,0-1.893-1.009.072.072,0,0,0-.048.134,8,8,0,0,1,1.875.968.057.057,0,0,0,.066-.093Z" transform="translate(-311.835 -43.977)" fill="#e6ad4e"/>
            </g>
            <g id="Group_73" data-name="Group 73" transform="translate(3.019 1.69)">
              <path id="Path_588" data-name="Path 588" d="M306.53,49.68a1.821,1.821,0,0,0-1,.13c-.077.033-.018.156.055.117a1.633,1.633,0,0,1,.941-.2.021.021,0,1,0,0-.042Z" transform="translate(-305.496 -49.66)" fill="#e6ad4e"/>
            </g>
            <g id="Group_74" data-name="Group 74" transform="translate(1.17 0.742)">
              <path id="Path_589" data-name="Path 589" d="M298.555,45.36a2.841,2.841,0,0,0-1.432.976c-.062.082.068.172.13.09a2.687,2.687,0,0,1,1.325-.948c.075-.024.053-.141-.022-.119Z" transform="translate(-297.106 -45.358)" fill="#e6ad4e"/>
            </g>
          </g>
          <path id="Path_590" data-name="Path 590" d="M274.358,65.218c-.084-.015-.17-.029-.256-.042a.381.381,0,0,0-.289.04.4.4,0,0,0-.11.22,8.049,8.049,0,0,1-1.787,3.315,8.62,8.62,0,0,1-1.382,1.23,6.023,6.023,0,0,0-1.17,1.3,3.655,3.655,0,0,0-.769,1.38,2.623,2.623,0,0,0,.066,1.232,4.229,4.229,0,0,0,2.883,2.991,3.6,3.6,0,0,0,3.844-1.364,4.74,4.74,0,0,0,.745-2.332,18.088,18.088,0,0,0-.414-2.21,10.943,10.943,0,0,1,.52-4.723.378.378,0,0,0,.02-.289.352.352,0,0,0-.152-.13A6.019,6.019,0,0,0,274.358,65.218Z" transform="translate(-232.428 -60.059)" fill="#751f0e"/>
          <path id="Path_591" data-name="Path 591" d="M275.379,97.773a3.469,3.469,0,0,0,.353-.668,3.722,3.722,0,0,1-1.77.681,4.931,4.931,0,0,1-2.316-.333,4.088,4.088,0,0,1-2.213-1.838,2.671,2.671,0,0,1-.2-1.915,3.235,3.235,0,0,0-.644,1.214,2.623,2.623,0,0,0,.066,1.232,4.228,4.228,0,0,0,2.883,2.991A3.616,3.616,0,0,0,275.379,97.773Z" transform="translate(-232.42 -82.304)" opacity="0.14"/>
          <g id="Group_76" data-name="Group 76" transform="translate(37.61 6.521)">
            <path id="Path_592" data-name="Path 592" d="M281.227,89.107a26.928,26.928,0,0,1-5.2-1.968c-.075-.037-.15-.079-.225-.119a3.238,3.238,0,0,0-.494.452,27.172,27.172,0,0,0,5.128,2.076c.311.09.624.174.937.251C281.34,89.572,281.287,89.338,281.227,89.107Z" transform="translate(-275.31 -83.617)" fill="#fac766"/>
            <path id="Path_593" data-name="Path 593" d="M292.369,72.838c.013-.071.026-.141.042-.212q-1.263-.572-2.568-1.047c-.029.064-.053.13-.084.194Q291.082,72.253,292.369,72.838Z" transform="translate(-286.575 -71.58)" fill="#fac766"/>
            <path id="Path_594" data-name="Path 594" d="M291.05,75.928c.007-.073.018-.145.026-.22q-1.355-.648-2.748-1.208c-.033.062-.07.123-.108.185Q289.658,75.257,291.05,75.928Z" transform="translate(-285.375 -73.856)" fill="#fac766"/>
          </g>
          <path id="Path_595" data-name="Path 595" d="M279.172,75.457a3.251,3.251,0,0,0-1.576,1.975,2.2,2.2,0,0,0,1.523,2.281,1.877,1.877,0,0,0,.73.115,2.05,2.05,0,0,0,1.664-1.362,5.925,5.925,0,0,0,.284-2.237,6.679,6.679,0,0,1,.326-2.387c.121-.331.176-1.04-.381-1.062-.463-.018-.7,1.073-.965,1.4A7.256,7.256,0,0,1,279.172,75.457Z" transform="translate(-239.465 -65.994)" fill="#fff" opacity="0.22"/>
        </g>
      </g>
    </g>
    <text id="تسبيح-2" data-name="تسبيح" transform="translate(179 42)" fill="#fff" font-size="25" font-family="AGOOGLE, A GOOGLE"><tspan x="0" y="0">تسبيح</tspan></text>
  </g>
</svg>
